G75*
%MOIN*%
%OFA0B0*%
%FSLAX25Y25*%
%IPPOS*%
%LPD*%
%AMOC8*
5,1,8,0,0,1.08239X$1,22.5*
%
%ADD10C,0.16548*%
%ADD11C,0.24422*%
%ADD12C,0.13780*%
%ADD13C,0.07874*%
%ADD14C,0.09800*%
%ADD15C,0.11300*%
%ADD16C,0.06312*%
%ADD17C,0.06706*%
%ADD18C,0.06000*%
%ADD19C,0.06000*%
%ADD20R,0.08800X0.03400*%
%ADD21R,0.07887X0.06312*%
%ADD22OC8,0.06737*%
%ADD23C,0.06400*%
%ADD24R,0.05918X0.06706*%
%ADD25R,0.06706X0.05918*%
%ADD26C,0.06400*%
%ADD27R,0.10249X0.10249*%
%ADD28R,0.10249X0.07099*%
%ADD29R,0.07099X0.10249*%
%ADD30R,0.10249X0.11824*%
%ADD31R,0.06706X0.02178*%
%ADD32R,0.02178X0.06706*%
%ADD33R,0.06800X0.06800*%
%ADD34OC8,0.06800*%
D10*
X0072116Y0021185D03*
X0495344Y0021185D03*
X0495344Y0450319D03*
X0072116Y0450319D03*
D11*
X0280778Y0233783D03*
D12*
X0262848Y0233783D02*
X0262853Y0234223D01*
X0262870Y0234663D01*
X0262897Y0235102D01*
X0262934Y0235540D01*
X0262983Y0235978D01*
X0263042Y0236414D01*
X0263112Y0236848D01*
X0263193Y0237281D01*
X0263284Y0237711D01*
X0263385Y0238140D01*
X0263497Y0238565D01*
X0263620Y0238988D01*
X0263753Y0239407D01*
X0263896Y0239823D01*
X0264049Y0240236D01*
X0264213Y0240645D01*
X0264386Y0241049D01*
X0264569Y0241449D01*
X0264762Y0241845D01*
X0264965Y0242235D01*
X0265177Y0242621D01*
X0265399Y0243001D01*
X0265630Y0243376D01*
X0265870Y0243744D01*
X0266119Y0244107D01*
X0266376Y0244464D01*
X0266643Y0244814D01*
X0266918Y0245158D01*
X0267201Y0245494D01*
X0267493Y0245824D01*
X0267792Y0246146D01*
X0268100Y0246461D01*
X0268415Y0246769D01*
X0268737Y0247068D01*
X0269067Y0247360D01*
X0269403Y0247643D01*
X0269747Y0247918D01*
X0270097Y0248185D01*
X0270454Y0248442D01*
X0270817Y0248691D01*
X0271185Y0248931D01*
X0271560Y0249162D01*
X0271940Y0249384D01*
X0272326Y0249596D01*
X0272716Y0249799D01*
X0273112Y0249992D01*
X0273512Y0250175D01*
X0273916Y0250348D01*
X0274325Y0250512D01*
X0274738Y0250665D01*
X0275154Y0250808D01*
X0275573Y0250941D01*
X0275996Y0251064D01*
X0276421Y0251176D01*
X0276850Y0251277D01*
X0277280Y0251368D01*
X0277713Y0251449D01*
X0278147Y0251519D01*
X0278583Y0251578D01*
X0279021Y0251627D01*
X0279459Y0251664D01*
X0279898Y0251691D01*
X0280338Y0251708D01*
X0280778Y0251713D01*
X0281218Y0251708D01*
X0281658Y0251691D01*
X0282097Y0251664D01*
X0282535Y0251627D01*
X0282973Y0251578D01*
X0283409Y0251519D01*
X0283843Y0251449D01*
X0284276Y0251368D01*
X0284706Y0251277D01*
X0285135Y0251176D01*
X0285560Y0251064D01*
X0285983Y0250941D01*
X0286402Y0250808D01*
X0286818Y0250665D01*
X0287231Y0250512D01*
X0287640Y0250348D01*
X0288044Y0250175D01*
X0288444Y0249992D01*
X0288840Y0249799D01*
X0289230Y0249596D01*
X0289616Y0249384D01*
X0289996Y0249162D01*
X0290371Y0248931D01*
X0290739Y0248691D01*
X0291102Y0248442D01*
X0291459Y0248185D01*
X0291809Y0247918D01*
X0292153Y0247643D01*
X0292489Y0247360D01*
X0292819Y0247068D01*
X0293141Y0246769D01*
X0293456Y0246461D01*
X0293764Y0246146D01*
X0294063Y0245824D01*
X0294355Y0245494D01*
X0294638Y0245158D01*
X0294913Y0244814D01*
X0295180Y0244464D01*
X0295437Y0244107D01*
X0295686Y0243744D01*
X0295926Y0243376D01*
X0296157Y0243001D01*
X0296379Y0242621D01*
X0296591Y0242235D01*
X0296794Y0241845D01*
X0296987Y0241449D01*
X0297170Y0241049D01*
X0297343Y0240645D01*
X0297507Y0240236D01*
X0297660Y0239823D01*
X0297803Y0239407D01*
X0297936Y0238988D01*
X0298059Y0238565D01*
X0298171Y0238140D01*
X0298272Y0237711D01*
X0298363Y0237281D01*
X0298444Y0236848D01*
X0298514Y0236414D01*
X0298573Y0235978D01*
X0298622Y0235540D01*
X0298659Y0235102D01*
X0298686Y0234663D01*
X0298703Y0234223D01*
X0298708Y0233783D01*
X0298703Y0233343D01*
X0298686Y0232903D01*
X0298659Y0232464D01*
X0298622Y0232026D01*
X0298573Y0231588D01*
X0298514Y0231152D01*
X0298444Y0230718D01*
X0298363Y0230285D01*
X0298272Y0229855D01*
X0298171Y0229426D01*
X0298059Y0229001D01*
X0297936Y0228578D01*
X0297803Y0228159D01*
X0297660Y0227743D01*
X0297507Y0227330D01*
X0297343Y0226921D01*
X0297170Y0226517D01*
X0296987Y0226117D01*
X0296794Y0225721D01*
X0296591Y0225331D01*
X0296379Y0224945D01*
X0296157Y0224565D01*
X0295926Y0224190D01*
X0295686Y0223822D01*
X0295437Y0223459D01*
X0295180Y0223102D01*
X0294913Y0222752D01*
X0294638Y0222408D01*
X0294355Y0222072D01*
X0294063Y0221742D01*
X0293764Y0221420D01*
X0293456Y0221105D01*
X0293141Y0220797D01*
X0292819Y0220498D01*
X0292489Y0220206D01*
X0292153Y0219923D01*
X0291809Y0219648D01*
X0291459Y0219381D01*
X0291102Y0219124D01*
X0290739Y0218875D01*
X0290371Y0218635D01*
X0289996Y0218404D01*
X0289616Y0218182D01*
X0289230Y0217970D01*
X0288840Y0217767D01*
X0288444Y0217574D01*
X0288044Y0217391D01*
X0287640Y0217218D01*
X0287231Y0217054D01*
X0286818Y0216901D01*
X0286402Y0216758D01*
X0285983Y0216625D01*
X0285560Y0216502D01*
X0285135Y0216390D01*
X0284706Y0216289D01*
X0284276Y0216198D01*
X0283843Y0216117D01*
X0283409Y0216047D01*
X0282973Y0215988D01*
X0282535Y0215939D01*
X0282097Y0215902D01*
X0281658Y0215875D01*
X0281218Y0215858D01*
X0280778Y0215853D01*
X0280338Y0215858D01*
X0279898Y0215875D01*
X0279459Y0215902D01*
X0279021Y0215939D01*
X0278583Y0215988D01*
X0278147Y0216047D01*
X0277713Y0216117D01*
X0277280Y0216198D01*
X0276850Y0216289D01*
X0276421Y0216390D01*
X0275996Y0216502D01*
X0275573Y0216625D01*
X0275154Y0216758D01*
X0274738Y0216901D01*
X0274325Y0217054D01*
X0273916Y0217218D01*
X0273512Y0217391D01*
X0273112Y0217574D01*
X0272716Y0217767D01*
X0272326Y0217970D01*
X0271940Y0218182D01*
X0271560Y0218404D01*
X0271185Y0218635D01*
X0270817Y0218875D01*
X0270454Y0219124D01*
X0270097Y0219381D01*
X0269747Y0219648D01*
X0269403Y0219923D01*
X0269067Y0220206D01*
X0268737Y0220498D01*
X0268415Y0220797D01*
X0268100Y0221105D01*
X0267792Y0221420D01*
X0267493Y0221742D01*
X0267201Y0222072D01*
X0266918Y0222408D01*
X0266643Y0222752D01*
X0266376Y0223102D01*
X0266119Y0223459D01*
X0265870Y0223822D01*
X0265630Y0224190D01*
X0265399Y0224565D01*
X0265177Y0224945D01*
X0264965Y0225331D01*
X0264762Y0225721D01*
X0264569Y0226117D01*
X0264386Y0226517D01*
X0264213Y0226921D01*
X0264049Y0227330D01*
X0263896Y0227743D01*
X0263753Y0228159D01*
X0263620Y0228578D01*
X0263497Y0229001D01*
X0263385Y0229426D01*
X0263284Y0229855D01*
X0263193Y0230285D01*
X0263112Y0230718D01*
X0263042Y0231152D01*
X0262983Y0231588D01*
X0262934Y0232026D01*
X0262897Y0232464D01*
X0262870Y0232903D01*
X0262853Y0233343D01*
X0262848Y0233783D01*
D13*
X0061903Y0021185D02*
X0061906Y0021436D01*
X0061915Y0021686D01*
X0061931Y0021936D01*
X0061952Y0022186D01*
X0061980Y0022435D01*
X0062014Y0022684D01*
X0062053Y0022931D01*
X0062099Y0023177D01*
X0062151Y0023423D01*
X0062209Y0023667D01*
X0062273Y0023909D01*
X0062343Y0024150D01*
X0062418Y0024389D01*
X0062500Y0024626D01*
X0062587Y0024861D01*
X0062680Y0025093D01*
X0062779Y0025324D01*
X0062884Y0025552D01*
X0062994Y0025777D01*
X0063109Y0025999D01*
X0063230Y0026219D01*
X0063356Y0026436D01*
X0063488Y0026649D01*
X0063624Y0026859D01*
X0063766Y0027066D01*
X0063913Y0027269D01*
X0064065Y0027468D01*
X0064221Y0027664D01*
X0064383Y0027856D01*
X0064549Y0028044D01*
X0064719Y0028227D01*
X0064894Y0028407D01*
X0065074Y0028582D01*
X0065257Y0028752D01*
X0065445Y0028918D01*
X0065637Y0029080D01*
X0065833Y0029236D01*
X0066032Y0029388D01*
X0066235Y0029535D01*
X0066442Y0029677D01*
X0066652Y0029813D01*
X0066865Y0029945D01*
X0067082Y0030071D01*
X0067302Y0030192D01*
X0067524Y0030307D01*
X0067749Y0030417D01*
X0067977Y0030522D01*
X0068208Y0030621D01*
X0068440Y0030714D01*
X0068675Y0030801D01*
X0068912Y0030883D01*
X0069151Y0030958D01*
X0069392Y0031028D01*
X0069634Y0031092D01*
X0069878Y0031150D01*
X0070124Y0031202D01*
X0070370Y0031248D01*
X0070617Y0031287D01*
X0070866Y0031321D01*
X0071115Y0031349D01*
X0071365Y0031370D01*
X0071615Y0031386D01*
X0071865Y0031395D01*
X0072116Y0031398D01*
X0072367Y0031395D01*
X0072617Y0031386D01*
X0072867Y0031370D01*
X0073117Y0031349D01*
X0073366Y0031321D01*
X0073615Y0031287D01*
X0073862Y0031248D01*
X0074108Y0031202D01*
X0074354Y0031150D01*
X0074598Y0031092D01*
X0074840Y0031028D01*
X0075081Y0030958D01*
X0075320Y0030883D01*
X0075557Y0030801D01*
X0075792Y0030714D01*
X0076024Y0030621D01*
X0076255Y0030522D01*
X0076483Y0030417D01*
X0076708Y0030307D01*
X0076930Y0030192D01*
X0077150Y0030071D01*
X0077367Y0029945D01*
X0077580Y0029813D01*
X0077790Y0029677D01*
X0077997Y0029535D01*
X0078200Y0029388D01*
X0078399Y0029236D01*
X0078595Y0029080D01*
X0078787Y0028918D01*
X0078975Y0028752D01*
X0079158Y0028582D01*
X0079338Y0028407D01*
X0079513Y0028227D01*
X0079683Y0028044D01*
X0079849Y0027856D01*
X0080011Y0027664D01*
X0080167Y0027468D01*
X0080319Y0027269D01*
X0080466Y0027066D01*
X0080608Y0026859D01*
X0080744Y0026649D01*
X0080876Y0026436D01*
X0081002Y0026219D01*
X0081123Y0025999D01*
X0081238Y0025777D01*
X0081348Y0025552D01*
X0081453Y0025324D01*
X0081552Y0025093D01*
X0081645Y0024861D01*
X0081732Y0024626D01*
X0081814Y0024389D01*
X0081889Y0024150D01*
X0081959Y0023909D01*
X0082023Y0023667D01*
X0082081Y0023423D01*
X0082133Y0023177D01*
X0082179Y0022931D01*
X0082218Y0022684D01*
X0082252Y0022435D01*
X0082280Y0022186D01*
X0082301Y0021936D01*
X0082317Y0021686D01*
X0082326Y0021436D01*
X0082329Y0021185D01*
X0082326Y0020934D01*
X0082317Y0020684D01*
X0082301Y0020434D01*
X0082280Y0020184D01*
X0082252Y0019935D01*
X0082218Y0019686D01*
X0082179Y0019439D01*
X0082133Y0019193D01*
X0082081Y0018947D01*
X0082023Y0018703D01*
X0081959Y0018461D01*
X0081889Y0018220D01*
X0081814Y0017981D01*
X0081732Y0017744D01*
X0081645Y0017509D01*
X0081552Y0017277D01*
X0081453Y0017046D01*
X0081348Y0016818D01*
X0081238Y0016593D01*
X0081123Y0016371D01*
X0081002Y0016151D01*
X0080876Y0015934D01*
X0080744Y0015721D01*
X0080608Y0015511D01*
X0080466Y0015304D01*
X0080319Y0015101D01*
X0080167Y0014902D01*
X0080011Y0014706D01*
X0079849Y0014514D01*
X0079683Y0014326D01*
X0079513Y0014143D01*
X0079338Y0013963D01*
X0079158Y0013788D01*
X0078975Y0013618D01*
X0078787Y0013452D01*
X0078595Y0013290D01*
X0078399Y0013134D01*
X0078200Y0012982D01*
X0077997Y0012835D01*
X0077790Y0012693D01*
X0077580Y0012557D01*
X0077367Y0012425D01*
X0077150Y0012299D01*
X0076930Y0012178D01*
X0076708Y0012063D01*
X0076483Y0011953D01*
X0076255Y0011848D01*
X0076024Y0011749D01*
X0075792Y0011656D01*
X0075557Y0011569D01*
X0075320Y0011487D01*
X0075081Y0011412D01*
X0074840Y0011342D01*
X0074598Y0011278D01*
X0074354Y0011220D01*
X0074108Y0011168D01*
X0073862Y0011122D01*
X0073615Y0011083D01*
X0073366Y0011049D01*
X0073117Y0011021D01*
X0072867Y0011000D01*
X0072617Y0010984D01*
X0072367Y0010975D01*
X0072116Y0010972D01*
X0071865Y0010975D01*
X0071615Y0010984D01*
X0071365Y0011000D01*
X0071115Y0011021D01*
X0070866Y0011049D01*
X0070617Y0011083D01*
X0070370Y0011122D01*
X0070124Y0011168D01*
X0069878Y0011220D01*
X0069634Y0011278D01*
X0069392Y0011342D01*
X0069151Y0011412D01*
X0068912Y0011487D01*
X0068675Y0011569D01*
X0068440Y0011656D01*
X0068208Y0011749D01*
X0067977Y0011848D01*
X0067749Y0011953D01*
X0067524Y0012063D01*
X0067302Y0012178D01*
X0067082Y0012299D01*
X0066865Y0012425D01*
X0066652Y0012557D01*
X0066442Y0012693D01*
X0066235Y0012835D01*
X0066032Y0012982D01*
X0065833Y0013134D01*
X0065637Y0013290D01*
X0065445Y0013452D01*
X0065257Y0013618D01*
X0065074Y0013788D01*
X0064894Y0013963D01*
X0064719Y0014143D01*
X0064549Y0014326D01*
X0064383Y0014514D01*
X0064221Y0014706D01*
X0064065Y0014902D01*
X0063913Y0015101D01*
X0063766Y0015304D01*
X0063624Y0015511D01*
X0063488Y0015721D01*
X0063356Y0015934D01*
X0063230Y0016151D01*
X0063109Y0016371D01*
X0062994Y0016593D01*
X0062884Y0016818D01*
X0062779Y0017046D01*
X0062680Y0017277D01*
X0062587Y0017509D01*
X0062500Y0017744D01*
X0062418Y0017981D01*
X0062343Y0018220D01*
X0062273Y0018461D01*
X0062209Y0018703D01*
X0062151Y0018947D01*
X0062099Y0019193D01*
X0062053Y0019439D01*
X0062014Y0019686D01*
X0061980Y0019935D01*
X0061952Y0020184D01*
X0061931Y0020434D01*
X0061915Y0020684D01*
X0061906Y0020934D01*
X0061903Y0021185D01*
X0485184Y0021185D02*
X0485187Y0021434D01*
X0485196Y0021684D01*
X0485212Y0021932D01*
X0485233Y0022181D01*
X0485260Y0022429D01*
X0485294Y0022676D01*
X0485334Y0022922D01*
X0485379Y0023167D01*
X0485431Y0023411D01*
X0485488Y0023654D01*
X0485552Y0023895D01*
X0485621Y0024134D01*
X0485697Y0024372D01*
X0485778Y0024608D01*
X0485865Y0024842D01*
X0485957Y0025073D01*
X0486056Y0025302D01*
X0486159Y0025529D01*
X0486269Y0025753D01*
X0486384Y0025974D01*
X0486504Y0026193D01*
X0486629Y0026408D01*
X0486760Y0026621D01*
X0486896Y0026830D01*
X0487037Y0027035D01*
X0487183Y0027237D01*
X0487334Y0027436D01*
X0487490Y0027630D01*
X0487651Y0027821D01*
X0487816Y0028008D01*
X0487986Y0028191D01*
X0488160Y0028369D01*
X0488338Y0028543D01*
X0488521Y0028713D01*
X0488708Y0028878D01*
X0488899Y0029039D01*
X0489093Y0029195D01*
X0489292Y0029346D01*
X0489494Y0029492D01*
X0489699Y0029633D01*
X0489908Y0029769D01*
X0490121Y0029900D01*
X0490336Y0030025D01*
X0490555Y0030145D01*
X0490776Y0030260D01*
X0491000Y0030370D01*
X0491227Y0030473D01*
X0491456Y0030572D01*
X0491687Y0030664D01*
X0491921Y0030751D01*
X0492157Y0030832D01*
X0492395Y0030908D01*
X0492634Y0030977D01*
X0492875Y0031041D01*
X0493118Y0031098D01*
X0493362Y0031150D01*
X0493607Y0031195D01*
X0493853Y0031235D01*
X0494100Y0031269D01*
X0494348Y0031296D01*
X0494597Y0031317D01*
X0494845Y0031333D01*
X0495095Y0031342D01*
X0495344Y0031345D01*
X0495593Y0031342D01*
X0495843Y0031333D01*
X0496091Y0031317D01*
X0496340Y0031296D01*
X0496588Y0031269D01*
X0496835Y0031235D01*
X0497081Y0031195D01*
X0497326Y0031150D01*
X0497570Y0031098D01*
X0497813Y0031041D01*
X0498054Y0030977D01*
X0498293Y0030908D01*
X0498531Y0030832D01*
X0498767Y0030751D01*
X0499001Y0030664D01*
X0499232Y0030572D01*
X0499461Y0030473D01*
X0499688Y0030370D01*
X0499912Y0030260D01*
X0500133Y0030145D01*
X0500352Y0030025D01*
X0500567Y0029900D01*
X0500780Y0029769D01*
X0500989Y0029633D01*
X0501194Y0029492D01*
X0501396Y0029346D01*
X0501595Y0029195D01*
X0501789Y0029039D01*
X0501980Y0028878D01*
X0502167Y0028713D01*
X0502350Y0028543D01*
X0502528Y0028369D01*
X0502702Y0028191D01*
X0502872Y0028008D01*
X0503037Y0027821D01*
X0503198Y0027630D01*
X0503354Y0027436D01*
X0503505Y0027237D01*
X0503651Y0027035D01*
X0503792Y0026830D01*
X0503928Y0026621D01*
X0504059Y0026408D01*
X0504184Y0026193D01*
X0504304Y0025974D01*
X0504419Y0025753D01*
X0504529Y0025529D01*
X0504632Y0025302D01*
X0504731Y0025073D01*
X0504823Y0024842D01*
X0504910Y0024608D01*
X0504991Y0024372D01*
X0505067Y0024134D01*
X0505136Y0023895D01*
X0505200Y0023654D01*
X0505257Y0023411D01*
X0505309Y0023167D01*
X0505354Y0022922D01*
X0505394Y0022676D01*
X0505428Y0022429D01*
X0505455Y0022181D01*
X0505476Y0021932D01*
X0505492Y0021684D01*
X0505501Y0021434D01*
X0505504Y0021185D01*
X0505501Y0020936D01*
X0505492Y0020686D01*
X0505476Y0020438D01*
X0505455Y0020189D01*
X0505428Y0019941D01*
X0505394Y0019694D01*
X0505354Y0019448D01*
X0505309Y0019203D01*
X0505257Y0018959D01*
X0505200Y0018716D01*
X0505136Y0018475D01*
X0505067Y0018236D01*
X0504991Y0017998D01*
X0504910Y0017762D01*
X0504823Y0017528D01*
X0504731Y0017297D01*
X0504632Y0017068D01*
X0504529Y0016841D01*
X0504419Y0016617D01*
X0504304Y0016396D01*
X0504184Y0016177D01*
X0504059Y0015962D01*
X0503928Y0015749D01*
X0503792Y0015540D01*
X0503651Y0015335D01*
X0503505Y0015133D01*
X0503354Y0014934D01*
X0503198Y0014740D01*
X0503037Y0014549D01*
X0502872Y0014362D01*
X0502702Y0014179D01*
X0502528Y0014001D01*
X0502350Y0013827D01*
X0502167Y0013657D01*
X0501980Y0013492D01*
X0501789Y0013331D01*
X0501595Y0013175D01*
X0501396Y0013024D01*
X0501194Y0012878D01*
X0500989Y0012737D01*
X0500780Y0012601D01*
X0500567Y0012470D01*
X0500352Y0012345D01*
X0500133Y0012225D01*
X0499912Y0012110D01*
X0499688Y0012000D01*
X0499461Y0011897D01*
X0499232Y0011798D01*
X0499001Y0011706D01*
X0498767Y0011619D01*
X0498531Y0011538D01*
X0498293Y0011462D01*
X0498054Y0011393D01*
X0497813Y0011329D01*
X0497570Y0011272D01*
X0497326Y0011220D01*
X0497081Y0011175D01*
X0496835Y0011135D01*
X0496588Y0011101D01*
X0496340Y0011074D01*
X0496091Y0011053D01*
X0495843Y0011037D01*
X0495593Y0011028D01*
X0495344Y0011025D01*
X0495095Y0011028D01*
X0494845Y0011037D01*
X0494597Y0011053D01*
X0494348Y0011074D01*
X0494100Y0011101D01*
X0493853Y0011135D01*
X0493607Y0011175D01*
X0493362Y0011220D01*
X0493118Y0011272D01*
X0492875Y0011329D01*
X0492634Y0011393D01*
X0492395Y0011462D01*
X0492157Y0011538D01*
X0491921Y0011619D01*
X0491687Y0011706D01*
X0491456Y0011798D01*
X0491227Y0011897D01*
X0491000Y0012000D01*
X0490776Y0012110D01*
X0490555Y0012225D01*
X0490336Y0012345D01*
X0490121Y0012470D01*
X0489908Y0012601D01*
X0489699Y0012737D01*
X0489494Y0012878D01*
X0489292Y0013024D01*
X0489093Y0013175D01*
X0488899Y0013331D01*
X0488708Y0013492D01*
X0488521Y0013657D01*
X0488338Y0013827D01*
X0488160Y0014001D01*
X0487986Y0014179D01*
X0487816Y0014362D01*
X0487651Y0014549D01*
X0487490Y0014740D01*
X0487334Y0014934D01*
X0487183Y0015133D01*
X0487037Y0015335D01*
X0486896Y0015540D01*
X0486760Y0015749D01*
X0486629Y0015962D01*
X0486504Y0016177D01*
X0486384Y0016396D01*
X0486269Y0016617D01*
X0486159Y0016841D01*
X0486056Y0017068D01*
X0485957Y0017297D01*
X0485865Y0017528D01*
X0485778Y0017762D01*
X0485697Y0017998D01*
X0485621Y0018236D01*
X0485552Y0018475D01*
X0485488Y0018716D01*
X0485431Y0018959D01*
X0485379Y0019203D01*
X0485334Y0019448D01*
X0485294Y0019694D01*
X0485260Y0019941D01*
X0485233Y0020189D01*
X0485212Y0020438D01*
X0485196Y0020686D01*
X0485187Y0020936D01*
X0485184Y0021185D01*
X0485184Y0450319D02*
X0485187Y0450568D01*
X0485196Y0450818D01*
X0485212Y0451066D01*
X0485233Y0451315D01*
X0485260Y0451563D01*
X0485294Y0451810D01*
X0485334Y0452056D01*
X0485379Y0452301D01*
X0485431Y0452545D01*
X0485488Y0452788D01*
X0485552Y0453029D01*
X0485621Y0453268D01*
X0485697Y0453506D01*
X0485778Y0453742D01*
X0485865Y0453976D01*
X0485957Y0454207D01*
X0486056Y0454436D01*
X0486159Y0454663D01*
X0486269Y0454887D01*
X0486384Y0455108D01*
X0486504Y0455327D01*
X0486629Y0455542D01*
X0486760Y0455755D01*
X0486896Y0455964D01*
X0487037Y0456169D01*
X0487183Y0456371D01*
X0487334Y0456570D01*
X0487490Y0456764D01*
X0487651Y0456955D01*
X0487816Y0457142D01*
X0487986Y0457325D01*
X0488160Y0457503D01*
X0488338Y0457677D01*
X0488521Y0457847D01*
X0488708Y0458012D01*
X0488899Y0458173D01*
X0489093Y0458329D01*
X0489292Y0458480D01*
X0489494Y0458626D01*
X0489699Y0458767D01*
X0489908Y0458903D01*
X0490121Y0459034D01*
X0490336Y0459159D01*
X0490555Y0459279D01*
X0490776Y0459394D01*
X0491000Y0459504D01*
X0491227Y0459607D01*
X0491456Y0459706D01*
X0491687Y0459798D01*
X0491921Y0459885D01*
X0492157Y0459966D01*
X0492395Y0460042D01*
X0492634Y0460111D01*
X0492875Y0460175D01*
X0493118Y0460232D01*
X0493362Y0460284D01*
X0493607Y0460329D01*
X0493853Y0460369D01*
X0494100Y0460403D01*
X0494348Y0460430D01*
X0494597Y0460451D01*
X0494845Y0460467D01*
X0495095Y0460476D01*
X0495344Y0460479D01*
X0495593Y0460476D01*
X0495843Y0460467D01*
X0496091Y0460451D01*
X0496340Y0460430D01*
X0496588Y0460403D01*
X0496835Y0460369D01*
X0497081Y0460329D01*
X0497326Y0460284D01*
X0497570Y0460232D01*
X0497813Y0460175D01*
X0498054Y0460111D01*
X0498293Y0460042D01*
X0498531Y0459966D01*
X0498767Y0459885D01*
X0499001Y0459798D01*
X0499232Y0459706D01*
X0499461Y0459607D01*
X0499688Y0459504D01*
X0499912Y0459394D01*
X0500133Y0459279D01*
X0500352Y0459159D01*
X0500567Y0459034D01*
X0500780Y0458903D01*
X0500989Y0458767D01*
X0501194Y0458626D01*
X0501396Y0458480D01*
X0501595Y0458329D01*
X0501789Y0458173D01*
X0501980Y0458012D01*
X0502167Y0457847D01*
X0502350Y0457677D01*
X0502528Y0457503D01*
X0502702Y0457325D01*
X0502872Y0457142D01*
X0503037Y0456955D01*
X0503198Y0456764D01*
X0503354Y0456570D01*
X0503505Y0456371D01*
X0503651Y0456169D01*
X0503792Y0455964D01*
X0503928Y0455755D01*
X0504059Y0455542D01*
X0504184Y0455327D01*
X0504304Y0455108D01*
X0504419Y0454887D01*
X0504529Y0454663D01*
X0504632Y0454436D01*
X0504731Y0454207D01*
X0504823Y0453976D01*
X0504910Y0453742D01*
X0504991Y0453506D01*
X0505067Y0453268D01*
X0505136Y0453029D01*
X0505200Y0452788D01*
X0505257Y0452545D01*
X0505309Y0452301D01*
X0505354Y0452056D01*
X0505394Y0451810D01*
X0505428Y0451563D01*
X0505455Y0451315D01*
X0505476Y0451066D01*
X0505492Y0450818D01*
X0505501Y0450568D01*
X0505504Y0450319D01*
X0505501Y0450070D01*
X0505492Y0449820D01*
X0505476Y0449572D01*
X0505455Y0449323D01*
X0505428Y0449075D01*
X0505394Y0448828D01*
X0505354Y0448582D01*
X0505309Y0448337D01*
X0505257Y0448093D01*
X0505200Y0447850D01*
X0505136Y0447609D01*
X0505067Y0447370D01*
X0504991Y0447132D01*
X0504910Y0446896D01*
X0504823Y0446662D01*
X0504731Y0446431D01*
X0504632Y0446202D01*
X0504529Y0445975D01*
X0504419Y0445751D01*
X0504304Y0445530D01*
X0504184Y0445311D01*
X0504059Y0445096D01*
X0503928Y0444883D01*
X0503792Y0444674D01*
X0503651Y0444469D01*
X0503505Y0444267D01*
X0503354Y0444068D01*
X0503198Y0443874D01*
X0503037Y0443683D01*
X0502872Y0443496D01*
X0502702Y0443313D01*
X0502528Y0443135D01*
X0502350Y0442961D01*
X0502167Y0442791D01*
X0501980Y0442626D01*
X0501789Y0442465D01*
X0501595Y0442309D01*
X0501396Y0442158D01*
X0501194Y0442012D01*
X0500989Y0441871D01*
X0500780Y0441735D01*
X0500567Y0441604D01*
X0500352Y0441479D01*
X0500133Y0441359D01*
X0499912Y0441244D01*
X0499688Y0441134D01*
X0499461Y0441031D01*
X0499232Y0440932D01*
X0499001Y0440840D01*
X0498767Y0440753D01*
X0498531Y0440672D01*
X0498293Y0440596D01*
X0498054Y0440527D01*
X0497813Y0440463D01*
X0497570Y0440406D01*
X0497326Y0440354D01*
X0497081Y0440309D01*
X0496835Y0440269D01*
X0496588Y0440235D01*
X0496340Y0440208D01*
X0496091Y0440187D01*
X0495843Y0440171D01*
X0495593Y0440162D01*
X0495344Y0440159D01*
X0495095Y0440162D01*
X0494845Y0440171D01*
X0494597Y0440187D01*
X0494348Y0440208D01*
X0494100Y0440235D01*
X0493853Y0440269D01*
X0493607Y0440309D01*
X0493362Y0440354D01*
X0493118Y0440406D01*
X0492875Y0440463D01*
X0492634Y0440527D01*
X0492395Y0440596D01*
X0492157Y0440672D01*
X0491921Y0440753D01*
X0491687Y0440840D01*
X0491456Y0440932D01*
X0491227Y0441031D01*
X0491000Y0441134D01*
X0490776Y0441244D01*
X0490555Y0441359D01*
X0490336Y0441479D01*
X0490121Y0441604D01*
X0489908Y0441735D01*
X0489699Y0441871D01*
X0489494Y0442012D01*
X0489292Y0442158D01*
X0489093Y0442309D01*
X0488899Y0442465D01*
X0488708Y0442626D01*
X0488521Y0442791D01*
X0488338Y0442961D01*
X0488160Y0443135D01*
X0487986Y0443313D01*
X0487816Y0443496D01*
X0487651Y0443683D01*
X0487490Y0443874D01*
X0487334Y0444068D01*
X0487183Y0444267D01*
X0487037Y0444469D01*
X0486896Y0444674D01*
X0486760Y0444883D01*
X0486629Y0445096D01*
X0486504Y0445311D01*
X0486384Y0445530D01*
X0486269Y0445751D01*
X0486159Y0445975D01*
X0486056Y0446202D01*
X0485957Y0446431D01*
X0485865Y0446662D01*
X0485778Y0446896D01*
X0485697Y0447132D01*
X0485621Y0447370D01*
X0485552Y0447609D01*
X0485488Y0447850D01*
X0485431Y0448093D01*
X0485379Y0448337D01*
X0485334Y0448582D01*
X0485294Y0448828D01*
X0485260Y0449075D01*
X0485233Y0449323D01*
X0485212Y0449572D01*
X0485196Y0449820D01*
X0485187Y0450070D01*
X0485184Y0450319D01*
X0062094Y0450319D02*
X0062097Y0450565D01*
X0062106Y0450811D01*
X0062121Y0451056D01*
X0062142Y0451301D01*
X0062169Y0451546D01*
X0062202Y0451790D01*
X0062242Y0452032D01*
X0062287Y0452274D01*
X0062338Y0452515D01*
X0062394Y0452754D01*
X0062457Y0452992D01*
X0062526Y0453228D01*
X0062600Y0453463D01*
X0062680Y0453695D01*
X0062766Y0453926D01*
X0062857Y0454154D01*
X0062954Y0454380D01*
X0063056Y0454604D01*
X0063164Y0454825D01*
X0063277Y0455043D01*
X0063396Y0455259D01*
X0063520Y0455471D01*
X0063649Y0455681D01*
X0063783Y0455887D01*
X0063922Y0456090D01*
X0064066Y0456289D01*
X0064215Y0456485D01*
X0064369Y0456677D01*
X0064527Y0456865D01*
X0064690Y0457049D01*
X0064858Y0457230D01*
X0065029Y0457406D01*
X0065205Y0457577D01*
X0065386Y0457745D01*
X0065570Y0457908D01*
X0065758Y0458066D01*
X0065950Y0458220D01*
X0066146Y0458369D01*
X0066345Y0458513D01*
X0066548Y0458652D01*
X0066754Y0458786D01*
X0066964Y0458915D01*
X0067176Y0459039D01*
X0067392Y0459158D01*
X0067610Y0459271D01*
X0067831Y0459379D01*
X0068055Y0459481D01*
X0068281Y0459578D01*
X0068509Y0459669D01*
X0068740Y0459755D01*
X0068972Y0459835D01*
X0069207Y0459909D01*
X0069443Y0459978D01*
X0069681Y0460041D01*
X0069920Y0460097D01*
X0070161Y0460148D01*
X0070403Y0460193D01*
X0070645Y0460233D01*
X0070889Y0460266D01*
X0071134Y0460293D01*
X0071379Y0460314D01*
X0071624Y0460329D01*
X0071870Y0460338D01*
X0072116Y0460341D01*
X0072362Y0460338D01*
X0072608Y0460329D01*
X0072853Y0460314D01*
X0073098Y0460293D01*
X0073343Y0460266D01*
X0073587Y0460233D01*
X0073829Y0460193D01*
X0074071Y0460148D01*
X0074312Y0460097D01*
X0074551Y0460041D01*
X0074789Y0459978D01*
X0075025Y0459909D01*
X0075260Y0459835D01*
X0075492Y0459755D01*
X0075723Y0459669D01*
X0075951Y0459578D01*
X0076177Y0459481D01*
X0076401Y0459379D01*
X0076622Y0459271D01*
X0076840Y0459158D01*
X0077056Y0459039D01*
X0077268Y0458915D01*
X0077478Y0458786D01*
X0077684Y0458652D01*
X0077887Y0458513D01*
X0078086Y0458369D01*
X0078282Y0458220D01*
X0078474Y0458066D01*
X0078662Y0457908D01*
X0078846Y0457745D01*
X0079027Y0457577D01*
X0079203Y0457406D01*
X0079374Y0457230D01*
X0079542Y0457049D01*
X0079705Y0456865D01*
X0079863Y0456677D01*
X0080017Y0456485D01*
X0080166Y0456289D01*
X0080310Y0456090D01*
X0080449Y0455887D01*
X0080583Y0455681D01*
X0080712Y0455471D01*
X0080836Y0455259D01*
X0080955Y0455043D01*
X0081068Y0454825D01*
X0081176Y0454604D01*
X0081278Y0454380D01*
X0081375Y0454154D01*
X0081466Y0453926D01*
X0081552Y0453695D01*
X0081632Y0453463D01*
X0081706Y0453228D01*
X0081775Y0452992D01*
X0081838Y0452754D01*
X0081894Y0452515D01*
X0081945Y0452274D01*
X0081990Y0452032D01*
X0082030Y0451790D01*
X0082063Y0451546D01*
X0082090Y0451301D01*
X0082111Y0451056D01*
X0082126Y0450811D01*
X0082135Y0450565D01*
X0082138Y0450319D01*
X0082135Y0450073D01*
X0082126Y0449827D01*
X0082111Y0449582D01*
X0082090Y0449337D01*
X0082063Y0449092D01*
X0082030Y0448848D01*
X0081990Y0448606D01*
X0081945Y0448364D01*
X0081894Y0448123D01*
X0081838Y0447884D01*
X0081775Y0447646D01*
X0081706Y0447410D01*
X0081632Y0447175D01*
X0081552Y0446943D01*
X0081466Y0446712D01*
X0081375Y0446484D01*
X0081278Y0446258D01*
X0081176Y0446034D01*
X0081068Y0445813D01*
X0080955Y0445595D01*
X0080836Y0445379D01*
X0080712Y0445167D01*
X0080583Y0444957D01*
X0080449Y0444751D01*
X0080310Y0444548D01*
X0080166Y0444349D01*
X0080017Y0444153D01*
X0079863Y0443961D01*
X0079705Y0443773D01*
X0079542Y0443589D01*
X0079374Y0443408D01*
X0079203Y0443232D01*
X0079027Y0443061D01*
X0078846Y0442893D01*
X0078662Y0442730D01*
X0078474Y0442572D01*
X0078282Y0442418D01*
X0078086Y0442269D01*
X0077887Y0442125D01*
X0077684Y0441986D01*
X0077478Y0441852D01*
X0077268Y0441723D01*
X0077056Y0441599D01*
X0076840Y0441480D01*
X0076622Y0441367D01*
X0076401Y0441259D01*
X0076177Y0441157D01*
X0075951Y0441060D01*
X0075723Y0440969D01*
X0075492Y0440883D01*
X0075260Y0440803D01*
X0075025Y0440729D01*
X0074789Y0440660D01*
X0074551Y0440597D01*
X0074312Y0440541D01*
X0074071Y0440490D01*
X0073829Y0440445D01*
X0073587Y0440405D01*
X0073343Y0440372D01*
X0073098Y0440345D01*
X0072853Y0440324D01*
X0072608Y0440309D01*
X0072362Y0440300D01*
X0072116Y0440297D01*
X0071870Y0440300D01*
X0071624Y0440309D01*
X0071379Y0440324D01*
X0071134Y0440345D01*
X0070889Y0440372D01*
X0070645Y0440405D01*
X0070403Y0440445D01*
X0070161Y0440490D01*
X0069920Y0440541D01*
X0069681Y0440597D01*
X0069443Y0440660D01*
X0069207Y0440729D01*
X0068972Y0440803D01*
X0068740Y0440883D01*
X0068509Y0440969D01*
X0068281Y0441060D01*
X0068055Y0441157D01*
X0067831Y0441259D01*
X0067610Y0441367D01*
X0067392Y0441480D01*
X0067176Y0441599D01*
X0066964Y0441723D01*
X0066754Y0441852D01*
X0066548Y0441986D01*
X0066345Y0442125D01*
X0066146Y0442269D01*
X0065950Y0442418D01*
X0065758Y0442572D01*
X0065570Y0442730D01*
X0065386Y0442893D01*
X0065205Y0443061D01*
X0065029Y0443232D01*
X0064858Y0443408D01*
X0064690Y0443589D01*
X0064527Y0443773D01*
X0064369Y0443961D01*
X0064215Y0444153D01*
X0064066Y0444349D01*
X0063922Y0444548D01*
X0063783Y0444751D01*
X0063649Y0444957D01*
X0063520Y0445167D01*
X0063396Y0445379D01*
X0063277Y0445595D01*
X0063164Y0445813D01*
X0063056Y0446034D01*
X0062954Y0446258D01*
X0062857Y0446484D01*
X0062766Y0446712D01*
X0062680Y0446943D01*
X0062600Y0447175D01*
X0062526Y0447410D01*
X0062457Y0447646D01*
X0062394Y0447884D01*
X0062338Y0448123D01*
X0062287Y0448364D01*
X0062242Y0448606D01*
X0062202Y0448848D01*
X0062169Y0449092D01*
X0062142Y0449337D01*
X0062121Y0449582D01*
X0062106Y0449827D01*
X0062097Y0450073D01*
X0062094Y0450319D01*
D14*
X0516486Y0188390D03*
X0526447Y0198114D03*
X0565747Y0188420D03*
X0526407Y0168665D03*
X0516526Y0149020D03*
X0526447Y0139020D03*
X0565747Y0149020D03*
X0526447Y0107563D03*
X0516486Y0097839D03*
X0526407Y0078114D03*
X0516526Y0058469D03*
X0526447Y0048469D03*
X0565747Y0058469D03*
X0565747Y0097869D03*
D15*
X0526185Y0220791D02*
X0515685Y0220791D01*
X0552431Y0236407D02*
X0552431Y0246907D01*
X0526185Y0262457D02*
X0515685Y0262457D01*
X0515685Y0279846D02*
X0526185Y0279846D01*
X0552431Y0295463D02*
X0552431Y0305963D01*
X0526185Y0321513D02*
X0515685Y0321513D01*
D16*
X0552431Y0315476D03*
X0552431Y0285949D03*
X0552431Y0256421D03*
X0552431Y0226894D03*
D17*
X0526841Y0241657D03*
X0526841Y0300713D03*
D18*
X0489596Y0297407D02*
X0489596Y0292207D01*
X0479596Y0292207D02*
X0479596Y0297407D01*
X0469596Y0297407D02*
X0469596Y0292207D01*
X0469596Y0258037D02*
X0469596Y0252837D01*
X0479596Y0252837D02*
X0479596Y0258037D01*
X0489596Y0258037D02*
X0489596Y0252837D01*
X0489596Y0331577D02*
X0489596Y0336777D01*
X0479596Y0336777D02*
X0479596Y0331577D01*
X0469596Y0331577D02*
X0469596Y0336777D01*
X0298652Y0177328D02*
X0298652Y0172128D01*
X0288652Y0172128D02*
X0288652Y0177328D01*
X0278652Y0177328D02*
X0278652Y0172128D01*
X0205110Y0174689D02*
X0199910Y0174689D01*
X0199910Y0184689D02*
X0205110Y0184689D01*
X0205110Y0194689D02*
X0199910Y0194689D01*
X0199910Y0204689D02*
X0205110Y0204689D01*
X0205110Y0214689D02*
X0199910Y0214689D01*
X0199910Y0224689D02*
X0205110Y0224689D01*
X0205110Y0234689D02*
X0199910Y0234689D01*
X0199910Y0244689D02*
X0205110Y0244689D01*
X0205110Y0254689D02*
X0199910Y0254689D01*
X0199910Y0264689D02*
X0205110Y0264689D01*
X0205110Y0274689D02*
X0199910Y0274689D01*
X0199910Y0284689D02*
X0205110Y0284689D01*
X0205110Y0294689D02*
X0199910Y0294689D01*
X0199910Y0304689D02*
X0205110Y0304689D01*
X0145110Y0304689D02*
X0139910Y0304689D01*
X0139910Y0294689D02*
X0145110Y0294689D01*
X0145110Y0284689D02*
X0139910Y0284689D01*
X0139910Y0274689D02*
X0145110Y0274689D01*
X0145110Y0264689D02*
X0139910Y0264689D01*
X0139910Y0254689D02*
X0145110Y0254689D01*
X0145110Y0244689D02*
X0139910Y0244689D01*
X0139910Y0234689D02*
X0145110Y0234689D01*
X0145110Y0224689D02*
X0139910Y0224689D01*
X0139910Y0214689D02*
X0145110Y0214689D01*
X0145110Y0204689D02*
X0139910Y0204689D01*
X0139910Y0194689D02*
X0145110Y0194689D01*
X0145110Y0184689D02*
X0139910Y0184689D01*
X0139910Y0174689D02*
X0145110Y0174689D01*
X0145110Y0129335D02*
X0139910Y0129335D01*
X0139910Y0119335D02*
X0145110Y0119335D01*
X0145110Y0109335D02*
X0139910Y0109335D01*
X0139910Y0099335D02*
X0145110Y0099335D01*
X0145110Y0089335D02*
X0139910Y0089335D01*
X0139910Y0079335D02*
X0145110Y0079335D01*
X0145110Y0069335D02*
X0139910Y0069335D01*
X0139910Y0059335D02*
X0145110Y0059335D01*
X0145110Y0049335D02*
X0139910Y0049335D01*
X0139910Y0039335D02*
X0145110Y0039335D01*
X0145110Y0029335D02*
X0139910Y0029335D01*
X0139910Y0019335D02*
X0145110Y0019335D01*
X0199910Y0019335D02*
X0205110Y0019335D01*
X0205110Y0029335D02*
X0199910Y0029335D01*
X0199910Y0039335D02*
X0205110Y0039335D01*
X0205110Y0049335D02*
X0199910Y0049335D01*
X0199910Y0059335D02*
X0205110Y0059335D01*
X0205110Y0069335D02*
X0199910Y0069335D01*
X0199910Y0079335D02*
X0205110Y0079335D01*
X0205110Y0089335D02*
X0199910Y0089335D01*
X0199910Y0099335D02*
X0205110Y0099335D01*
X0205110Y0109335D02*
X0199910Y0109335D01*
X0199910Y0119335D02*
X0205110Y0119335D01*
X0205110Y0129335D02*
X0199910Y0129335D01*
X0235619Y0089650D02*
X0240819Y0089650D01*
X0240819Y0079650D02*
X0235619Y0079650D01*
X0235619Y0069650D02*
X0240819Y0069650D01*
X0240819Y0059650D02*
X0235619Y0059650D01*
X0235619Y0049650D02*
X0240819Y0049650D01*
X0240819Y0039650D02*
X0235619Y0039650D01*
X0235619Y0029650D02*
X0240819Y0029650D01*
X0240819Y0019650D02*
X0235619Y0019650D01*
X0265619Y0019650D02*
X0270819Y0019650D01*
X0270819Y0029650D02*
X0265619Y0029650D01*
X0265619Y0039650D02*
X0270819Y0039650D01*
X0270819Y0049650D02*
X0265619Y0049650D01*
X0265619Y0059650D02*
X0270819Y0059650D01*
X0270819Y0069650D02*
X0265619Y0069650D01*
X0265619Y0079650D02*
X0270819Y0079650D01*
X0270819Y0089650D02*
X0265619Y0089650D01*
X0432195Y0079966D02*
X0432195Y0074766D01*
X0442195Y0074766D02*
X0442195Y0079966D01*
X0452195Y0079966D02*
X0452195Y0074766D01*
X0471565Y0074766D02*
X0471565Y0079966D01*
X0481565Y0079966D02*
X0481565Y0074766D01*
X0491565Y0074766D02*
X0491565Y0079966D01*
D19*
X0484754Y0151854D03*
X0484754Y0161854D03*
X0484754Y0171854D03*
X0484754Y0181854D03*
X0454754Y0181854D03*
X0454754Y0171854D03*
X0454754Y0161854D03*
X0454754Y0151854D03*
X0394203Y0134610D03*
X0394203Y0124610D03*
X0394203Y0114610D03*
X0394203Y0104610D03*
X0364203Y0104610D03*
X0364203Y0114610D03*
X0364203Y0124610D03*
X0364203Y0134610D03*
X0364203Y0195161D03*
X0364203Y0205161D03*
X0364203Y0215161D03*
X0364203Y0225161D03*
X0394203Y0225161D03*
X0394203Y0215161D03*
X0394203Y0205161D03*
X0394203Y0195161D03*
X0343022Y0069650D03*
X0343022Y0059650D03*
X0343022Y0049650D03*
X0343022Y0039650D03*
X0313022Y0039650D03*
X0313022Y0049650D03*
X0313022Y0059650D03*
X0313022Y0069650D03*
X0109518Y0421134D03*
X0109518Y0440134D03*
D20*
X0168284Y0442602D03*
X0168284Y0437602D03*
X0168284Y0432602D03*
X0168284Y0427602D03*
X0168284Y0422602D03*
X0168284Y0417602D03*
X0192484Y0417602D03*
X0192484Y0422602D03*
X0192484Y0427602D03*
X0192484Y0432602D03*
X0192484Y0437602D03*
X0192484Y0442602D03*
X0192484Y0447602D03*
X0168284Y0447602D03*
D21*
X0442195Y0161736D03*
X0442195Y0148350D03*
X0452037Y0114492D03*
X0452037Y0101106D03*
X0432352Y0101106D03*
X0432352Y0114492D03*
D22*
X0528809Y0352878D03*
X0528809Y0362720D03*
X0538652Y0362720D03*
X0538652Y0352878D03*
X0538652Y0372563D03*
X0538652Y0382406D03*
X0538652Y0392248D03*
X0538652Y0402091D03*
X0538652Y0411933D03*
X0538652Y0421776D03*
X0538652Y0431618D03*
X0538652Y0441461D03*
X0528809Y0441461D03*
X0528809Y0431618D03*
X0528809Y0421776D03*
X0528809Y0411933D03*
X0528809Y0402091D03*
X0528809Y0392248D03*
X0528809Y0382406D03*
X0528809Y0372563D03*
X0087707Y0368626D03*
X0087707Y0378469D03*
X0068022Y0378469D03*
X0068022Y0368626D03*
X0068022Y0358783D03*
X0068022Y0348941D03*
X0068022Y0339098D03*
X0068022Y0329256D03*
X0068022Y0319413D03*
X0068022Y0309571D03*
X0068022Y0299728D03*
X0068022Y0289886D03*
X0068022Y0280043D03*
X0068022Y0270201D03*
X0068022Y0260358D03*
X0068022Y0250516D03*
X0068022Y0240673D03*
X0068022Y0230831D03*
X0068022Y0220988D03*
X0068022Y0211146D03*
X0068022Y0201303D03*
X0068022Y0191461D03*
X0068022Y0181618D03*
X0068022Y0171776D03*
X0068022Y0161933D03*
X0068022Y0152091D03*
X0068022Y0142248D03*
X0068022Y0132406D03*
X0068022Y0122563D03*
X0068022Y0112720D03*
X0068022Y0102878D03*
X0068022Y0093035D03*
X0087707Y0093035D03*
X0087707Y0102878D03*
X0087707Y0112720D03*
X0087707Y0122563D03*
X0087707Y0132406D03*
X0087707Y0142248D03*
X0087707Y0152091D03*
X0087707Y0161933D03*
X0087707Y0171776D03*
X0087707Y0181618D03*
X0087707Y0191461D03*
X0087707Y0201303D03*
X0087707Y0211146D03*
X0087707Y0220988D03*
X0087707Y0230831D03*
X0087707Y0240673D03*
X0087707Y0250516D03*
X0087707Y0260358D03*
X0087707Y0270201D03*
X0087707Y0280043D03*
X0087707Y0289886D03*
X0087707Y0299728D03*
X0087707Y0309571D03*
X0087707Y0319413D03*
X0087707Y0329256D03*
X0087707Y0339098D03*
X0087707Y0348941D03*
X0087707Y0358783D03*
D23*
X0076885Y0409886D02*
X0071285Y0409886D01*
X0071285Y0419886D02*
X0076885Y0419886D01*
X0120497Y0305713D02*
X0126097Y0305713D01*
X0126097Y0295713D02*
X0120497Y0295713D01*
X0443332Y0331146D02*
X0448932Y0331146D01*
X0448932Y0341146D02*
X0443332Y0341146D01*
X0391845Y0036028D02*
X0386245Y0036028D01*
X0386245Y0026028D02*
X0391845Y0026028D01*
D24*
X0296329Y0072366D03*
X0288848Y0072366D03*
X0288848Y0095988D03*
X0296329Y0095988D03*
X0158533Y0143232D03*
X0151053Y0143232D03*
X0151053Y0158980D03*
X0158533Y0158980D03*
X0186486Y0320398D03*
X0193967Y0320398D03*
X0184124Y0408980D03*
X0176644Y0408980D03*
X0466014Y0218035D03*
X0473494Y0218035D03*
X0473494Y0200319D03*
X0466014Y0200319D03*
D25*
X0442195Y0186343D03*
X0442195Y0178862D03*
X0410699Y0178469D03*
X0410699Y0170988D03*
X0410699Y0158783D03*
X0410699Y0151303D03*
X0391014Y0151303D03*
X0391014Y0158783D03*
X0391014Y0170988D03*
X0391014Y0178469D03*
X0367392Y0178469D03*
X0367392Y0170988D03*
X0367392Y0158783D03*
X0367392Y0151303D03*
X0347707Y0151303D03*
X0347707Y0158783D03*
X0347707Y0170988D03*
X0347707Y0178469D03*
X0312274Y0178469D03*
X0312274Y0170988D03*
X0312274Y0158783D03*
X0312274Y0151303D03*
X0265030Y0170988D03*
X0265030Y0178469D03*
X0326053Y0220201D03*
X0326053Y0227681D03*
X0326053Y0243823D03*
X0326053Y0251303D03*
X0347707Y0227681D03*
X0347707Y0220201D03*
X0410699Y0220201D03*
X0410699Y0227681D03*
X0432352Y0227681D03*
X0432352Y0220201D03*
X0432352Y0243823D03*
X0432352Y0251303D03*
X0410699Y0279256D03*
X0410699Y0286736D03*
X0391014Y0286736D03*
X0391014Y0279256D03*
X0367392Y0279256D03*
X0367392Y0286736D03*
X0347707Y0286736D03*
X0347707Y0279256D03*
X0469754Y0280831D03*
X0469754Y0273350D03*
X0469754Y0241461D03*
X0469754Y0233980D03*
X0469754Y0312720D03*
X0469754Y0320201D03*
X0442195Y0424925D03*
X0442195Y0432406D03*
X0442195Y0442642D03*
X0442195Y0450122D03*
X0426447Y0450122D03*
X0426447Y0442642D03*
X0426447Y0432406D03*
X0426447Y0424925D03*
X0410699Y0424925D03*
X0410699Y0432406D03*
X0410699Y0442642D03*
X0410699Y0450122D03*
X0394951Y0450122D03*
X0394951Y0442642D03*
X0394951Y0432406D03*
X0394951Y0424925D03*
X0369360Y0442642D03*
X0369360Y0450122D03*
X0353612Y0450122D03*
X0353612Y0442642D03*
X0274872Y0442642D03*
X0274872Y0450122D03*
X0259124Y0450122D03*
X0259124Y0442642D03*
X0235502Y0442642D03*
X0235502Y0450122D03*
X0211880Y0450122D03*
X0211880Y0442642D03*
X0148888Y0440673D03*
X0148888Y0448154D03*
X0133140Y0448154D03*
X0133140Y0440673D03*
X0133140Y0422563D03*
X0133140Y0415083D03*
X0148888Y0415083D03*
X0148888Y0422563D03*
X0481565Y0105634D03*
X0481565Y0098154D03*
X0491407Y0058390D03*
X0491407Y0050909D03*
X0471722Y0050909D03*
X0471722Y0058390D03*
X0452037Y0058390D03*
X0452037Y0050909D03*
X0432352Y0050909D03*
X0432352Y0058390D03*
X0394951Y0082406D03*
X0394951Y0089886D03*
X0363455Y0089886D03*
X0363455Y0082406D03*
D26*
X0241407Y0151106D03*
X0221722Y0151106D03*
D27*
X0268967Y0147169D03*
X0268967Y0127484D03*
X0412667Y0042839D03*
X0412667Y0023154D03*
D28*
X0442195Y0027091D03*
X0442195Y0038902D03*
X0410699Y0117642D03*
X0410699Y0129453D03*
X0347707Y0129453D03*
X0347707Y0117642D03*
X0292589Y0046776D03*
X0292589Y0034965D03*
X0347707Y0196382D03*
X0347707Y0208193D03*
X0410699Y0208193D03*
X0410699Y0196382D03*
D29*
X0408730Y0267248D03*
X0396919Y0267248D03*
X0361486Y0267248D03*
X0349675Y0267248D03*
D30*
X0343179Y0247563D03*
X0367982Y0247563D03*
X0390423Y0247563D03*
X0415226Y0247563D03*
D31*
X0345738Y0324335D03*
X0345738Y0326303D03*
X0345738Y0328272D03*
X0345738Y0330240D03*
X0345738Y0332209D03*
X0345738Y0334177D03*
X0345738Y0336146D03*
X0345738Y0338114D03*
X0345738Y0340083D03*
X0345738Y0342051D03*
X0345738Y0344020D03*
X0345738Y0345988D03*
X0345738Y0347957D03*
X0345738Y0349925D03*
X0345738Y0351894D03*
X0345738Y0353862D03*
X0345738Y0355831D03*
X0345738Y0357799D03*
X0345738Y0359768D03*
X0345738Y0361736D03*
X0345738Y0363705D03*
X0345738Y0365673D03*
X0345738Y0367642D03*
X0345738Y0369610D03*
X0345738Y0371579D03*
X0282746Y0371579D03*
X0282746Y0369610D03*
X0282746Y0367642D03*
X0282746Y0365673D03*
X0282746Y0363705D03*
X0282746Y0361736D03*
X0282746Y0359768D03*
X0282746Y0357799D03*
X0282746Y0355831D03*
X0282746Y0353862D03*
X0282746Y0351894D03*
X0282746Y0349925D03*
X0282746Y0347957D03*
X0282746Y0345988D03*
X0282746Y0344020D03*
X0282746Y0342051D03*
X0282746Y0340083D03*
X0282746Y0338114D03*
X0282746Y0336146D03*
X0282746Y0334177D03*
X0282746Y0332209D03*
X0282746Y0330240D03*
X0282746Y0328272D03*
X0282746Y0326303D03*
X0282746Y0324335D03*
D32*
X0290620Y0316461D03*
X0292589Y0316461D03*
X0294557Y0316461D03*
X0296526Y0316461D03*
X0298494Y0316461D03*
X0300463Y0316461D03*
X0302431Y0316461D03*
X0304400Y0316461D03*
X0306368Y0316461D03*
X0308337Y0316461D03*
X0310305Y0316461D03*
X0312274Y0316461D03*
X0314242Y0316461D03*
X0316211Y0316461D03*
X0318179Y0316461D03*
X0320148Y0316461D03*
X0322116Y0316461D03*
X0324085Y0316461D03*
X0326053Y0316461D03*
X0328022Y0316461D03*
X0329990Y0316461D03*
X0331959Y0316461D03*
X0333927Y0316461D03*
X0335896Y0316461D03*
X0337864Y0316461D03*
X0337864Y0379453D03*
X0335896Y0379453D03*
X0333927Y0379453D03*
X0331959Y0379453D03*
X0329990Y0379453D03*
X0328022Y0379453D03*
X0326053Y0379453D03*
X0324085Y0379453D03*
X0322116Y0379453D03*
X0320148Y0379453D03*
X0318179Y0379453D03*
X0316211Y0379453D03*
X0314242Y0379453D03*
X0312274Y0379453D03*
X0310305Y0379453D03*
X0308337Y0379453D03*
X0306368Y0379453D03*
X0304400Y0379453D03*
X0302431Y0379453D03*
X0300463Y0379453D03*
X0298494Y0379453D03*
X0296526Y0379453D03*
X0294557Y0379453D03*
X0292589Y0379453D03*
X0290620Y0379453D03*
D33*
X0334242Y0443508D03*
D34*
X0324242Y0443508D03*
X0314242Y0443508D03*
X0304242Y0443508D03*
X0294242Y0443508D03*
X0294242Y0433508D03*
X0304242Y0433508D03*
X0314242Y0433508D03*
X0324242Y0433508D03*
X0334242Y0433508D03*
M02*
