%
M48
M72
T01C0.02362
T02C0.03200
T03C0.03543
T04C0.03600
T05C0.03937
T06C0.04000
T07C0.05512
T08C0.05906
T09C0.07000
T10C0.15748
T11C0.23622
%
T01
X56368Y68429
X74085Y88114
X91801Y78272
X74085Y107799
X97825Y129335
X97707Y143232
X127234Y149138
X127234Y157012
X127234Y174728
X131171Y184571
X123297Y186539
X103612Y170791
X95738Y182602
X95738Y190476
X99675Y194413
X103612Y210161
X107549Y220004
X95738Y231815
X81959Y216067
X78022Y182602
X160699Y204256
X164636Y194413
X176447Y194413
X172510Y184571
X168573Y174728
X190226Y174728
X190226Y151106
X190226Y129453
X135108Y103862
X127234Y107799
X156762Y74335
X176447Y60555
X172510Y54650
X168573Y48744
X160699Y42839
X180384Y66461
X184321Y74335
X131171Y29059
X131171Y5437
X190226Y17248
X282746Y13311
X286683Y25122
X298494Y25122
X326053Y44807
X359518Y25122
X343770Y5437
X412667Y59807
X379203Y84177
X424478Y103862
X461880Y105831
X461880Y50713
X532746Y5437
X540620Y48744
X572116Y78272
X572116Y168823
X544557Y198350
X572116Y271185
X540620Y322366
X544557Y326303
X572116Y362720
X505187Y369610
X491407Y375516
X473691Y379453
X461880Y389295
X457943Y385358
X465817Y393232
X438258Y365673
X428415Y340083
X457943Y312524
X442195Y302681
X432352Y298744
X432352Y271185
X442195Y271185
X457943Y273154
X457943Y233783
X448100Y208193
X406762Y247563
X379203Y247563
X351644Y247563
X318179Y271185
X310305Y267248
X326053Y281028
X312274Y296776
X326053Y298744
X333927Y308587
X345738Y318429
X328022Y326303
X324085Y340083
X335896Y344020
X324085Y355831
X329990Y369610
X316211Y369610
X304400Y369610
X292589Y355831
X292589Y349925
X292589Y332209
X276841Y326303
X259124Y320398
X255187Y314492
X247313Y334177
X235502Y342051
X231565Y345988
X227628Y349925
X223691Y345988
X219754Y342051
X223691Y336146
X227628Y328272
X209911Y320398
X213848Y314492
X219754Y308587
X213848Y304650
X213848Y294807
X219754Y294807
X196132Y279059
X196132Y259374
X211880Y244610
X215817Y238587
X225659Y233783
X221722Y222465
X233533Y224433
X241407Y210161
X249281Y210161
X249281Y202287
X253219Y198350
X229596Y190969
X225659Y200319
X196132Y210161
X184321Y214098
X180384Y204256
X229596Y249531
X261093Y233783
X268967Y218035
X280778Y214098
X286683Y204256
X292589Y218035
X300463Y233783
X292589Y249531
X280778Y253469
X268967Y249531
X300463Y192445
X290620Y164886
X312274Y164886
X257156Y127484
X379203Y158980
X379203Y200319
X373297Y286933
X310305Y326303
X265030Y361539
X265030Y366461
X265030Y371579
X276841Y371579
X290620Y387327
X274872Y395201
X270935Y401106
X259124Y395201
X249281Y395201
X211880Y373547
X207943Y365673
X194163Y357799
X188258Y353862
X180384Y349925
X168573Y340083
X176447Y338114
X168573Y329650
X156762Y322366
X146919Y318429
X146919Y310555
X152825Y330240
X154793Y349925
X146919Y357799
X142982Y363705
X182352Y369610
X188258Y373547
X194163Y379453
X202037Y401106
X192195Y412917
X200069Y422760
X211880Y434571
X178415Y436539
X176447Y420791
X160699Y430634
X160699Y437524
X154793Y446382
X142982Y434571
X154793Y422760
X158730Y414886
X160699Y466067
X249281Y456224
X270935Y456224
X282746Y444413
X268967Y434571
X294557Y466067
X341801Y438508
X337864Y426697
X365423Y422760
X387077Y422760
X402825Y422760
X418573Y422760
X434321Y424728
X434321Y450319
X418573Y450319
X461880Y456224
X467785Y460161
X572116Y466067
X479596Y310555
X365423Y385358
X359518Y385358
X353612Y385358
X331959Y391264
X253219Y351894
X243376Y347957
X239439Y351894
X239439Y357799
X231565Y353862
X123297Y282996
X131171Y264098
X107549Y265280
X83927Y275122
X79990Y284965
X76053Y294807
X76053Y310555
X113455Y322366
X56368Y349925
X56368Y466067
T02
X109518Y440134
X109518Y421134
X142510Y304689
X142510Y294689
X142510Y284689
X142510Y274689
X142510Y264689
X142510Y254689
X142510Y244689
X142510Y234689
X142510Y224689
X142510Y214689
X142510Y204689
X142510Y194689
X142510Y184689
X142510Y174689
X142510Y129335
X142510Y119335
X142510Y109335
X142510Y99335
X142510Y89335
X142510Y79335
X142510Y69335
X142510Y59335
X142510Y49335
X142510Y39335
X142510Y29335
X142510Y19335
X202510Y19335
X202510Y29335
X202510Y39335
X202510Y49335
X202510Y59335
X202510Y69335
X202510Y79335
X202510Y89335
X202510Y99335
X202510Y109335
X202510Y119335
X202510Y129335
X238219Y89650
X238219Y79650
X238219Y69650
X238219Y59650
X238219Y49650
X238219Y39650
X238219Y29650
X238219Y19650
X268219Y19650
X268219Y29650
X268219Y39650
X268219Y49650
X268219Y59650
X268219Y69650
X268219Y79650
X268219Y89650
X313022Y69650
X313022Y59650
X313022Y49650
X313022Y39650
X343022Y39650
X343022Y49650
X343022Y59650
X343022Y69650
X364203Y104610
X364203Y114610
X364203Y124610
X364203Y134610
X394203Y134610
X394203Y124610
X394203Y114610
X394203Y104610
X432195Y77366
X442195Y77366
X452195Y77366
X471565Y77366
X481565Y77366
X491565Y77366
X484754Y151854
X484754Y161854
X484754Y171854
X484754Y181854
X454754Y181854
X454754Y171854
X454754Y161854
X454754Y151854
X394203Y195161
X394203Y205161
X394203Y215161
X394203Y225161
X364203Y225161
X364203Y215161
X364203Y205161
X364203Y195161
X298652Y174728
X288652Y174728
X278652Y174728
X202510Y174689
X202510Y184689
X202510Y194689
X202510Y204689
X202510Y214689
X202510Y224689
X202510Y234689
X202510Y244689
X202510Y254689
X202510Y264689
X202510Y274689
X202510Y284689
X202510Y294689
X202510Y304689
X469596Y294807
X479596Y294807
X489596Y294807
X489596Y255437
X479596Y255437
X469596Y255437
X469596Y334177
X479596Y334177
X489596Y334177
T03
X241407Y151106
X221722Y151106
T04
X389045Y36028
X389045Y26028
X123297Y295713
X123297Y305713
X74085Y409886
X74085Y419886
X446132Y341146
X446132Y331146
T05
X528809Y352878
X528809Y362720
X538652Y362720
X538652Y352878
X538652Y372563
X538652Y382406
X538652Y392248
X538652Y402091
X538652Y411933
X538652Y421776
X538652Y431618
X538652Y441461
X528809Y441461
X528809Y431618
X528809Y421776
X528809Y411933
X528809Y402091
X528809Y392248
X528809Y382406
X528809Y372563
X87707Y368626
X87707Y378469
X68022Y378469
X68022Y368626
X68022Y358783
X68022Y348941
X68022Y339098
X68022Y329256
X68022Y319413
X68022Y309571
X68022Y299728
X68022Y289886
X68022Y280043
X68022Y270201
X68022Y260358
X68022Y250516
X68022Y240673
X68022Y230831
X68022Y220988
X68022Y211146
X68022Y201303
X68022Y191461
X68022Y181618
X68022Y171776
X68022Y161933
X68022Y152091
X68022Y142248
X68022Y132406
X68022Y122563
X68022Y112720
X68022Y102878
X68022Y93035
X87707Y93035
X87707Y102878
X87707Y112720
X87707Y122563
X87707Y132406
X87707Y142248
X87707Y152091
X87707Y161933
X87707Y171776
X87707Y181618
X87707Y191461
X87707Y201303
X87707Y211146
X87707Y220988
X87707Y230831
X87707Y240673
X87707Y250516
X87707Y260358
X87707Y270201
X87707Y280043
X87707Y289886
X87707Y299728
X87707Y309571
X87707Y319413
X87707Y329256
X87707Y339098
X87707Y348941
X87707Y358783
T06
X294242Y433508
X304242Y433508
X314242Y433508
X324242Y433508
X334242Y433508
X334242Y443508
X324242Y443508
X314242Y443508
X304242Y443508
X294242Y443508
T07
X552431Y315476
X552431Y285949
X552431Y256421
X552431Y226894
X526447Y198114
X516486Y188390
X526407Y168665
X516526Y149020
X526447Y139020
X565747Y149020
X565747Y188420
X526447Y107563
X516486Y97839
X526407Y78114
X516526Y58469
X526447Y48469
X565747Y58469
X565747Y97869
T08
X526841Y241657
X526841Y300713
T09
X520935Y279846
X520935Y262457
X552431Y241657
X520935Y220791
X552431Y300713
X520935Y321513
T10
X72116Y21185
X495344Y21185
X495344Y450319
X72116Y450319
T11
X280778Y233783
M30
