%
M48
M72
T01C0.02362
T02C0.03200
T03C0.03543
T04C0.03600
T05C0.03937
T06C0.04000
T07C0.05512
T08C0.05906
T09C0.15748
T10C0.23622
%
T01
X56368Y72366
X74085Y92051
X91801Y82209
X74085Y111736
X97825Y131303
X97707Y147169
X127234Y151106
X127234Y160949
X103612Y174728
X95738Y186539
X95738Y194413
X99675Y198350
X103612Y214098
X107549Y223941
X95738Y235752
X81959Y220004
X78022Y186539
X123297Y190476
X131171Y188508
X127234Y178665
X160699Y208193
X164636Y198350
X176447Y198350
X172510Y188508
X168573Y178665
X190226Y178665
X190226Y155043
X190226Y131421
X135108Y105831
X127234Y111736
X156762Y76303
X172510Y60555
X176447Y64492
X180384Y70398
X184321Y78272
X168573Y56618
X160699Y44807
X190226Y19217
X131171Y5437
X280778Y13311
X286683Y27091
X298494Y27091
X326053Y46776
X357549Y27091
X343770Y5437
X412667Y57839
X379203Y88114
X420541Y107799
X467785Y109768
X467785Y54650
X532746Y5437
X544557Y52681
X576053Y82209
X576053Y172760
X548494Y202287
X465817Y212130
X465817Y237720
X465817Y277091
X442195Y275122
X432352Y275122
X406762Y251500
X379203Y251500
X351644Y251500
X318179Y275122
X310305Y271185
X326053Y284965
X312274Y300713
X326053Y302681
X333927Y312524
X345738Y322366
X328022Y330240
X324085Y344020
X335896Y347957
X324085Y359768
X329990Y373547
X316211Y373547
X304400Y373547
X292589Y359768
X292589Y353862
X292589Y336146
X310305Y330240
X276841Y330240
X259124Y324335
X255187Y318429
X247313Y338114
X235502Y345988
X231565Y349925
X227628Y353862
X223691Y349925
X219754Y345988
X223691Y340083
X227628Y332209
X209911Y324335
X213848Y318429
X219754Y312524
X213848Y308587
X213848Y298744
X219754Y298744
X196132Y282996
X196132Y263311
X211880Y248547
X215817Y242524
X225659Y237720
X221722Y226402
X233533Y228370
X241407Y214098
X249281Y214098
X249281Y206224
X253219Y202287
X229596Y194906
X225659Y204256
X196132Y214098
X184321Y218035
X180384Y208193
X229596Y253469
X261093Y237720
X268967Y221972
X280778Y218035
X286683Y208193
X292589Y221972
X300463Y237720
X292589Y253469
X280778Y257406
X268967Y253469
X300463Y196382
X290620Y168823
X312274Y168823
X257156Y129453
X379203Y162917
X379203Y204256
X373297Y290870
X432352Y302681
X442195Y306618
X465817Y316461
X487470Y318429
X544557Y326303
X548494Y330240
X576053Y368626
X505187Y373547
X491407Y379453
X473691Y383390
X457943Y389295
X461880Y393232
X465817Y397169
X438258Y369610
X428415Y344020
X365423Y389295
X359518Y389295
X353612Y389295
X331959Y395201
X324085Y430634
X341801Y446382
X365423Y426697
X394951Y426697
X410699Y426697
X426447Y426697
X434321Y428665
X434321Y458193
X418573Y458193
X475659Y462130
X481565Y462130
X576053Y473941
X576053Y279059
X294557Y473941
X282746Y452287
X270935Y464098
X249281Y464098
X268967Y442445
X270935Y405043
X274872Y399138
X290620Y391264
X276841Y375516
X265030Y375516
X265030Y370398
X265030Y365476
X253219Y355831
X243376Y351894
X239439Y355831
X239439Y361736
X231565Y357799
X207943Y369610
X211880Y377484
X194163Y383390
X188258Y377484
X182352Y373547
X194163Y361736
X188258Y357799
X180384Y353862
X176447Y342051
X168573Y344020
X168573Y333587
X156762Y326303
X152825Y334177
X146919Y322366
X146919Y314492
X113455Y326303
X76053Y314492
X76053Y298744
X79990Y288902
X83927Y279059
X107549Y269217
X123297Y286933
X131171Y268035
X154793Y353862
X146919Y361736
X142982Y367642
X202037Y405043
X192195Y420791
X200069Y430634
X211880Y442445
X178415Y444413
X176447Y428665
X160699Y438508
X160699Y445398
X154793Y430634
X158730Y422760
X142982Y442445
X160699Y473941
X249281Y399138
X259124Y399138
X56368Y353862
X56368Y473941
T02
X109518Y448008
X109518Y429008
X142510Y308626
X142510Y298626
X142510Y288626
X142510Y278626
X142510Y268626
X142510Y258626
X142510Y248626
X142510Y238626
X142510Y228626
X142510Y218626
X142510Y208626
X142510Y198626
X142510Y188626
X142510Y178626
X142510Y131303
X142510Y121303
X142510Y111303
X142510Y101303
X142510Y91303
X142510Y81303
X142510Y71303
X142510Y61303
X142510Y51303
X142510Y41303
X142510Y31303
X142510Y21303
X202510Y21303
X202510Y31303
X202510Y41303
X202510Y51303
X202510Y61303
X202510Y71303
X202510Y81303
X202510Y91303
X202510Y101303
X202510Y111303
X202510Y121303
X202510Y131303
X238219Y91618
X238219Y81618
X238219Y71618
X238219Y61618
X238219Y51618
X238219Y41618
X238219Y31618
X238219Y21618
X268219Y21618
X268219Y31618
X268219Y41618
X268219Y51618
X268219Y61618
X268219Y71618
X268219Y81618
X268219Y91618
X313022Y71618
X313022Y61618
X313022Y51618
X313022Y41618
X343022Y41618
X343022Y51618
X343022Y61618
X343022Y71618
X364203Y108547
X364203Y118547
X364203Y128547
X364203Y138547
X394203Y138547
X394203Y128547
X394203Y118547
X394203Y108547
X436132Y81303
X446132Y81303
X456132Y81303
X477470Y81303
X487470Y81303
X497470Y81303
X502470Y155791
X502470Y165791
X502470Y175791
X502470Y185791
X472470Y185791
X472470Y175791
X472470Y165791
X472470Y155791
X394203Y199098
X394203Y209098
X394203Y219098
X394203Y229098
X364203Y229098
X364203Y219098
X364203Y209098
X364203Y199098
X298652Y178665
X288652Y178665
X278652Y178665
X202510Y178626
X202510Y188626
X202510Y198626
X202510Y208626
X202510Y218626
X202510Y228626
X202510Y238626
X202510Y248626
X202510Y258626
X202510Y268626
X202510Y278626
X202510Y288626
X202510Y298626
X202510Y308626
X477470Y298744
X487470Y298744
X497470Y298744
X497470Y259374
X487470Y259374
X477470Y259374
X477470Y338114
X487470Y338114
X497470Y338114
T03
X241407Y155043
X221722Y155043
T04
X389045Y39965
X389045Y29965
X123297Y299650
X123297Y309650
X74085Y413823
X74085Y423823
X450069Y345083
X450069Y335083
T05
X524872Y329387
X532746Y358783
X542589Y358783
X542589Y368626
X542589Y378469
X532746Y378469
X532746Y368626
X532746Y388311
X532746Y398154
X532746Y407996
X532746Y417839
X532746Y427681
X542589Y427681
X542589Y417839
X542589Y407996
X542589Y398154
X542589Y388311
X542589Y437524
X542589Y447366
X532746Y447366
X532746Y437524
X524872Y287720
X524872Y270331
X524872Y228665
X87707Y224925
X87707Y215083
X87707Y205240
X87707Y195398
X87707Y185555
X87707Y175713
X87707Y165870
X87707Y156028
X87707Y146185
X87707Y136343
X87707Y126500
X87707Y116657
X87707Y106815
X87707Y96972
X68022Y96972
X68022Y106815
X68022Y116657
X68022Y126500
X68022Y136343
X68022Y146185
X68022Y156028
X68022Y165870
X68022Y175713
X68022Y185555
X68022Y195398
X68022Y205240
X68022Y215083
X68022Y224925
X68022Y234768
X68022Y244610
X68022Y254453
X68022Y264295
X68022Y274138
X68022Y283980
X68022Y293823
X68022Y303665
X68022Y313508
X68022Y323350
X68022Y333193
X68022Y343035
X68022Y352878
X68022Y362720
X68022Y372563
X68022Y382406
X87707Y382406
X87707Y372563
X87707Y362720
X87707Y352878
X87707Y343035
X87707Y333193
X87707Y323350
X87707Y313508
X87707Y303665
X87707Y293823
X87707Y283980
X87707Y274138
X87707Y264295
X87707Y254453
X87707Y244610
X87707Y234768
T06
X294242Y441382
X304242Y441382
X304242Y451382
X294242Y451382
X314242Y451382
X314242Y441382
X324242Y441382
X334242Y441382
X334242Y451382
X324242Y451382
T07
X556368Y323350
X556368Y308587
X556368Y293823
X556368Y264295
X556368Y249531
X556368Y234768
X530384Y202051
X520423Y192327
X530344Y172602
X520463Y152957
X530384Y142957
X530384Y111500
X520423Y101776
X530344Y82051
X520463Y62406
X530384Y52406
X569684Y62406
X569684Y101806
X569684Y152957
X569684Y192357
T08
X530778Y249531
X530778Y308587
T09
X72116Y21185
X501250Y21185
X501250Y458193
X72116Y458193
T10
X280778Y237720
M30
