G75*
%MOIN*%
%OFA0B0*%
%FSLAX25Y25*%
%IPPOS*%
%LPD*%
%AMOC8*
5,1,8,0,0,1.08239X$1,22.5*
%
%ADD10C,0.05906*%
%ADD11C,0.12205*%
%ADD12C,0.09000*%
%ADD13C,0.08661*%
%ADD14C,0.05200*%
%ADD15C,0.05200*%
%ADD16R,0.08000X0.02600*%
%ADD17R,0.07087X0.05512*%
%ADD18OC8,0.05937*%
%ADD19C,0.05600*%
%ADD20R,0.05118X0.05906*%
%ADD21R,0.05906X0.05118*%
%ADD22C,0.05600*%
%ADD23R,0.09449X0.09449*%
%ADD24R,0.09449X0.06299*%
%ADD25R,0.06299X0.09449*%
%ADD26R,0.09449X0.11024*%
%ADD27R,0.05906X0.01378*%
%ADD28R,0.01378X0.05906*%
%ADD29R,0.06000X0.06000*%
%ADD30OC8,0.06000*%
%ADD31C,0.03937*%
%ADD32C,0.03962*%
%ADD33R,0.03962X0.03962*%
%ADD34C,0.01969*%
%ADD35C,0.01181*%
%ADD36C,0.01600*%
%ADD37C,0.01200*%
D10*
X0056368Y0005437D02*
X0131171Y0005437D01*
X0343770Y0005437D01*
X0379203Y0005437D01*
X0412667Y0005437D01*
X0436289Y0005437D01*
X0532746Y0005437D01*
X0576053Y0005437D01*
X0576053Y0082209D01*
X0576053Y0172760D01*
X0576053Y0279059D01*
X0576053Y0368626D01*
X0576053Y0473941D01*
X0294557Y0473941D01*
X0212274Y0473941D01*
X0160699Y0473941D01*
X0056368Y0473941D01*
X0056368Y0426697D01*
X0056368Y0414886D01*
X0056368Y0412917D01*
X0056368Y0353862D01*
X0056368Y0082209D01*
X0056368Y0072366D01*
X0056368Y0005437D01*
X0061092Y0021185D02*
X0061095Y0021456D01*
X0061105Y0021726D01*
X0061122Y0021996D01*
X0061145Y0022266D01*
X0061175Y0022534D01*
X0061211Y0022803D01*
X0061254Y0023070D01*
X0061304Y0023336D01*
X0061360Y0023600D01*
X0061422Y0023864D01*
X0061491Y0024125D01*
X0061567Y0024385D01*
X0061648Y0024643D01*
X0061736Y0024899D01*
X0061831Y0025152D01*
X0061931Y0025404D01*
X0062038Y0025652D01*
X0062150Y0025898D01*
X0062269Y0026142D01*
X0062394Y0026382D01*
X0062524Y0026619D01*
X0062660Y0026852D01*
X0062802Y0027083D01*
X0062950Y0027310D01*
X0063103Y0027533D01*
X0063261Y0027752D01*
X0063425Y0027967D01*
X0063594Y0028179D01*
X0063769Y0028386D01*
X0063948Y0028588D01*
X0064132Y0028786D01*
X0064321Y0028980D01*
X0064515Y0029169D01*
X0064713Y0029353D01*
X0064915Y0029532D01*
X0065122Y0029707D01*
X0065334Y0029876D01*
X0065549Y0030040D01*
X0065768Y0030198D01*
X0065991Y0030351D01*
X0066218Y0030499D01*
X0066449Y0030641D01*
X0066682Y0030777D01*
X0066919Y0030907D01*
X0067159Y0031032D01*
X0067403Y0031151D01*
X0067649Y0031263D01*
X0067897Y0031370D01*
X0068149Y0031470D01*
X0068402Y0031565D01*
X0068658Y0031653D01*
X0068916Y0031734D01*
X0069176Y0031810D01*
X0069437Y0031879D01*
X0069701Y0031941D01*
X0069965Y0031997D01*
X0070231Y0032047D01*
X0070498Y0032090D01*
X0070767Y0032126D01*
X0071035Y0032156D01*
X0071305Y0032179D01*
X0071575Y0032196D01*
X0071845Y0032206D01*
X0072116Y0032209D01*
X0072387Y0032206D01*
X0072657Y0032196D01*
X0072927Y0032179D01*
X0073197Y0032156D01*
X0073465Y0032126D01*
X0073734Y0032090D01*
X0074001Y0032047D01*
X0074267Y0031997D01*
X0074531Y0031941D01*
X0074795Y0031879D01*
X0075056Y0031810D01*
X0075316Y0031734D01*
X0075574Y0031653D01*
X0075830Y0031565D01*
X0076083Y0031470D01*
X0076335Y0031370D01*
X0076583Y0031263D01*
X0076829Y0031151D01*
X0077073Y0031032D01*
X0077313Y0030907D01*
X0077550Y0030777D01*
X0077783Y0030641D01*
X0078014Y0030499D01*
X0078241Y0030351D01*
X0078464Y0030198D01*
X0078683Y0030040D01*
X0078898Y0029876D01*
X0079110Y0029707D01*
X0079317Y0029532D01*
X0079519Y0029353D01*
X0079717Y0029169D01*
X0079911Y0028980D01*
X0080100Y0028786D01*
X0080284Y0028588D01*
X0080463Y0028386D01*
X0080638Y0028179D01*
X0080807Y0027967D01*
X0080971Y0027752D01*
X0081129Y0027533D01*
X0081282Y0027310D01*
X0081430Y0027083D01*
X0081572Y0026852D01*
X0081708Y0026619D01*
X0081838Y0026382D01*
X0081963Y0026142D01*
X0082082Y0025898D01*
X0082194Y0025652D01*
X0082301Y0025404D01*
X0082401Y0025152D01*
X0082496Y0024899D01*
X0082584Y0024643D01*
X0082665Y0024385D01*
X0082741Y0024125D01*
X0082810Y0023864D01*
X0082872Y0023600D01*
X0082928Y0023336D01*
X0082978Y0023070D01*
X0083021Y0022803D01*
X0083057Y0022534D01*
X0083087Y0022266D01*
X0083110Y0021996D01*
X0083127Y0021726D01*
X0083137Y0021456D01*
X0083140Y0021185D01*
X0083137Y0020914D01*
X0083127Y0020644D01*
X0083110Y0020374D01*
X0083087Y0020104D01*
X0083057Y0019836D01*
X0083021Y0019567D01*
X0082978Y0019300D01*
X0082928Y0019034D01*
X0082872Y0018770D01*
X0082810Y0018506D01*
X0082741Y0018245D01*
X0082665Y0017985D01*
X0082584Y0017727D01*
X0082496Y0017471D01*
X0082401Y0017218D01*
X0082301Y0016966D01*
X0082194Y0016718D01*
X0082082Y0016472D01*
X0081963Y0016228D01*
X0081838Y0015988D01*
X0081708Y0015751D01*
X0081572Y0015518D01*
X0081430Y0015287D01*
X0081282Y0015060D01*
X0081129Y0014837D01*
X0080971Y0014618D01*
X0080807Y0014403D01*
X0080638Y0014191D01*
X0080463Y0013984D01*
X0080284Y0013782D01*
X0080100Y0013584D01*
X0079911Y0013390D01*
X0079717Y0013201D01*
X0079519Y0013017D01*
X0079317Y0012838D01*
X0079110Y0012663D01*
X0078898Y0012494D01*
X0078683Y0012330D01*
X0078464Y0012172D01*
X0078241Y0012019D01*
X0078014Y0011871D01*
X0077783Y0011729D01*
X0077550Y0011593D01*
X0077313Y0011463D01*
X0077073Y0011338D01*
X0076829Y0011219D01*
X0076583Y0011107D01*
X0076335Y0011000D01*
X0076083Y0010900D01*
X0075830Y0010805D01*
X0075574Y0010717D01*
X0075316Y0010636D01*
X0075056Y0010560D01*
X0074795Y0010491D01*
X0074531Y0010429D01*
X0074267Y0010373D01*
X0074001Y0010323D01*
X0073734Y0010280D01*
X0073465Y0010244D01*
X0073197Y0010214D01*
X0072927Y0010191D01*
X0072657Y0010174D01*
X0072387Y0010164D01*
X0072116Y0010161D01*
X0071845Y0010164D01*
X0071575Y0010174D01*
X0071305Y0010191D01*
X0071035Y0010214D01*
X0070767Y0010244D01*
X0070498Y0010280D01*
X0070231Y0010323D01*
X0069965Y0010373D01*
X0069701Y0010429D01*
X0069437Y0010491D01*
X0069176Y0010560D01*
X0068916Y0010636D01*
X0068658Y0010717D01*
X0068402Y0010805D01*
X0068149Y0010900D01*
X0067897Y0011000D01*
X0067649Y0011107D01*
X0067403Y0011219D01*
X0067159Y0011338D01*
X0066919Y0011463D01*
X0066682Y0011593D01*
X0066449Y0011729D01*
X0066218Y0011871D01*
X0065991Y0012019D01*
X0065768Y0012172D01*
X0065549Y0012330D01*
X0065334Y0012494D01*
X0065122Y0012663D01*
X0064915Y0012838D01*
X0064713Y0013017D01*
X0064515Y0013201D01*
X0064321Y0013390D01*
X0064132Y0013584D01*
X0063948Y0013782D01*
X0063769Y0013984D01*
X0063594Y0014191D01*
X0063425Y0014403D01*
X0063261Y0014618D01*
X0063103Y0014837D01*
X0062950Y0015060D01*
X0062802Y0015287D01*
X0062660Y0015518D01*
X0062524Y0015751D01*
X0062394Y0015988D01*
X0062269Y0016228D01*
X0062150Y0016472D01*
X0062038Y0016718D01*
X0061931Y0016966D01*
X0061831Y0017218D01*
X0061736Y0017471D01*
X0061648Y0017727D01*
X0061567Y0017985D01*
X0061491Y0018245D01*
X0061422Y0018506D01*
X0061360Y0018770D01*
X0061304Y0019034D01*
X0061254Y0019300D01*
X0061211Y0019567D01*
X0061175Y0019836D01*
X0061145Y0020104D01*
X0061122Y0020374D01*
X0061105Y0020644D01*
X0061095Y0020914D01*
X0061092Y0021185D01*
X0490226Y0021185D02*
X0490229Y0021456D01*
X0490239Y0021726D01*
X0490256Y0021996D01*
X0490279Y0022266D01*
X0490309Y0022534D01*
X0490345Y0022803D01*
X0490388Y0023070D01*
X0490438Y0023336D01*
X0490494Y0023600D01*
X0490556Y0023864D01*
X0490625Y0024125D01*
X0490701Y0024385D01*
X0490782Y0024643D01*
X0490870Y0024899D01*
X0490965Y0025152D01*
X0491065Y0025404D01*
X0491172Y0025652D01*
X0491284Y0025898D01*
X0491403Y0026142D01*
X0491528Y0026382D01*
X0491658Y0026619D01*
X0491794Y0026852D01*
X0491936Y0027083D01*
X0492084Y0027310D01*
X0492237Y0027533D01*
X0492395Y0027752D01*
X0492559Y0027967D01*
X0492728Y0028179D01*
X0492903Y0028386D01*
X0493082Y0028588D01*
X0493266Y0028786D01*
X0493455Y0028980D01*
X0493649Y0029169D01*
X0493847Y0029353D01*
X0494049Y0029532D01*
X0494256Y0029707D01*
X0494468Y0029876D01*
X0494683Y0030040D01*
X0494902Y0030198D01*
X0495125Y0030351D01*
X0495352Y0030499D01*
X0495583Y0030641D01*
X0495816Y0030777D01*
X0496053Y0030907D01*
X0496293Y0031032D01*
X0496537Y0031151D01*
X0496783Y0031263D01*
X0497031Y0031370D01*
X0497283Y0031470D01*
X0497536Y0031565D01*
X0497792Y0031653D01*
X0498050Y0031734D01*
X0498310Y0031810D01*
X0498571Y0031879D01*
X0498835Y0031941D01*
X0499099Y0031997D01*
X0499365Y0032047D01*
X0499632Y0032090D01*
X0499901Y0032126D01*
X0500169Y0032156D01*
X0500439Y0032179D01*
X0500709Y0032196D01*
X0500979Y0032206D01*
X0501250Y0032209D01*
X0501521Y0032206D01*
X0501791Y0032196D01*
X0502061Y0032179D01*
X0502331Y0032156D01*
X0502599Y0032126D01*
X0502868Y0032090D01*
X0503135Y0032047D01*
X0503401Y0031997D01*
X0503665Y0031941D01*
X0503929Y0031879D01*
X0504190Y0031810D01*
X0504450Y0031734D01*
X0504708Y0031653D01*
X0504964Y0031565D01*
X0505217Y0031470D01*
X0505469Y0031370D01*
X0505717Y0031263D01*
X0505963Y0031151D01*
X0506207Y0031032D01*
X0506447Y0030907D01*
X0506684Y0030777D01*
X0506917Y0030641D01*
X0507148Y0030499D01*
X0507375Y0030351D01*
X0507598Y0030198D01*
X0507817Y0030040D01*
X0508032Y0029876D01*
X0508244Y0029707D01*
X0508451Y0029532D01*
X0508653Y0029353D01*
X0508851Y0029169D01*
X0509045Y0028980D01*
X0509234Y0028786D01*
X0509418Y0028588D01*
X0509597Y0028386D01*
X0509772Y0028179D01*
X0509941Y0027967D01*
X0510105Y0027752D01*
X0510263Y0027533D01*
X0510416Y0027310D01*
X0510564Y0027083D01*
X0510706Y0026852D01*
X0510842Y0026619D01*
X0510972Y0026382D01*
X0511097Y0026142D01*
X0511216Y0025898D01*
X0511328Y0025652D01*
X0511435Y0025404D01*
X0511535Y0025152D01*
X0511630Y0024899D01*
X0511718Y0024643D01*
X0511799Y0024385D01*
X0511875Y0024125D01*
X0511944Y0023864D01*
X0512006Y0023600D01*
X0512062Y0023336D01*
X0512112Y0023070D01*
X0512155Y0022803D01*
X0512191Y0022534D01*
X0512221Y0022266D01*
X0512244Y0021996D01*
X0512261Y0021726D01*
X0512271Y0021456D01*
X0512274Y0021185D01*
X0512271Y0020914D01*
X0512261Y0020644D01*
X0512244Y0020374D01*
X0512221Y0020104D01*
X0512191Y0019836D01*
X0512155Y0019567D01*
X0512112Y0019300D01*
X0512062Y0019034D01*
X0512006Y0018770D01*
X0511944Y0018506D01*
X0511875Y0018245D01*
X0511799Y0017985D01*
X0511718Y0017727D01*
X0511630Y0017471D01*
X0511535Y0017218D01*
X0511435Y0016966D01*
X0511328Y0016718D01*
X0511216Y0016472D01*
X0511097Y0016228D01*
X0510972Y0015988D01*
X0510842Y0015751D01*
X0510706Y0015518D01*
X0510564Y0015287D01*
X0510416Y0015060D01*
X0510263Y0014837D01*
X0510105Y0014618D01*
X0509941Y0014403D01*
X0509772Y0014191D01*
X0509597Y0013984D01*
X0509418Y0013782D01*
X0509234Y0013584D01*
X0509045Y0013390D01*
X0508851Y0013201D01*
X0508653Y0013017D01*
X0508451Y0012838D01*
X0508244Y0012663D01*
X0508032Y0012494D01*
X0507817Y0012330D01*
X0507598Y0012172D01*
X0507375Y0012019D01*
X0507148Y0011871D01*
X0506917Y0011729D01*
X0506684Y0011593D01*
X0506447Y0011463D01*
X0506207Y0011338D01*
X0505963Y0011219D01*
X0505717Y0011107D01*
X0505469Y0011000D01*
X0505217Y0010900D01*
X0504964Y0010805D01*
X0504708Y0010717D01*
X0504450Y0010636D01*
X0504190Y0010560D01*
X0503929Y0010491D01*
X0503665Y0010429D01*
X0503401Y0010373D01*
X0503135Y0010323D01*
X0502868Y0010280D01*
X0502599Y0010244D01*
X0502331Y0010214D01*
X0502061Y0010191D01*
X0501791Y0010174D01*
X0501521Y0010164D01*
X0501250Y0010161D01*
X0500979Y0010164D01*
X0500709Y0010174D01*
X0500439Y0010191D01*
X0500169Y0010214D01*
X0499901Y0010244D01*
X0499632Y0010280D01*
X0499365Y0010323D01*
X0499099Y0010373D01*
X0498835Y0010429D01*
X0498571Y0010491D01*
X0498310Y0010560D01*
X0498050Y0010636D01*
X0497792Y0010717D01*
X0497536Y0010805D01*
X0497283Y0010900D01*
X0497031Y0011000D01*
X0496783Y0011107D01*
X0496537Y0011219D01*
X0496293Y0011338D01*
X0496053Y0011463D01*
X0495816Y0011593D01*
X0495583Y0011729D01*
X0495352Y0011871D01*
X0495125Y0012019D01*
X0494902Y0012172D01*
X0494683Y0012330D01*
X0494468Y0012494D01*
X0494256Y0012663D01*
X0494049Y0012838D01*
X0493847Y0013017D01*
X0493649Y0013201D01*
X0493455Y0013390D01*
X0493266Y0013584D01*
X0493082Y0013782D01*
X0492903Y0013984D01*
X0492728Y0014191D01*
X0492559Y0014403D01*
X0492395Y0014618D01*
X0492237Y0014837D01*
X0492084Y0015060D01*
X0491936Y0015287D01*
X0491794Y0015518D01*
X0491658Y0015751D01*
X0491528Y0015988D01*
X0491403Y0016228D01*
X0491284Y0016472D01*
X0491172Y0016718D01*
X0491065Y0016966D01*
X0490965Y0017218D01*
X0490870Y0017471D01*
X0490782Y0017727D01*
X0490701Y0017985D01*
X0490625Y0018245D01*
X0490556Y0018506D01*
X0490494Y0018770D01*
X0490438Y0019034D01*
X0490388Y0019300D01*
X0490345Y0019567D01*
X0490309Y0019836D01*
X0490279Y0020104D01*
X0490256Y0020374D01*
X0490239Y0020644D01*
X0490229Y0020914D01*
X0490226Y0021185D01*
X0490226Y0458193D02*
X0490229Y0458464D01*
X0490239Y0458734D01*
X0490256Y0459004D01*
X0490279Y0459274D01*
X0490309Y0459542D01*
X0490345Y0459811D01*
X0490388Y0460078D01*
X0490438Y0460344D01*
X0490494Y0460608D01*
X0490556Y0460872D01*
X0490625Y0461133D01*
X0490701Y0461393D01*
X0490782Y0461651D01*
X0490870Y0461907D01*
X0490965Y0462160D01*
X0491065Y0462412D01*
X0491172Y0462660D01*
X0491284Y0462906D01*
X0491403Y0463150D01*
X0491528Y0463390D01*
X0491658Y0463627D01*
X0491794Y0463860D01*
X0491936Y0464091D01*
X0492084Y0464318D01*
X0492237Y0464541D01*
X0492395Y0464760D01*
X0492559Y0464975D01*
X0492728Y0465187D01*
X0492903Y0465394D01*
X0493082Y0465596D01*
X0493266Y0465794D01*
X0493455Y0465988D01*
X0493649Y0466177D01*
X0493847Y0466361D01*
X0494049Y0466540D01*
X0494256Y0466715D01*
X0494468Y0466884D01*
X0494683Y0467048D01*
X0494902Y0467206D01*
X0495125Y0467359D01*
X0495352Y0467507D01*
X0495583Y0467649D01*
X0495816Y0467785D01*
X0496053Y0467915D01*
X0496293Y0468040D01*
X0496537Y0468159D01*
X0496783Y0468271D01*
X0497031Y0468378D01*
X0497283Y0468478D01*
X0497536Y0468573D01*
X0497792Y0468661D01*
X0498050Y0468742D01*
X0498310Y0468818D01*
X0498571Y0468887D01*
X0498835Y0468949D01*
X0499099Y0469005D01*
X0499365Y0469055D01*
X0499632Y0469098D01*
X0499901Y0469134D01*
X0500169Y0469164D01*
X0500439Y0469187D01*
X0500709Y0469204D01*
X0500979Y0469214D01*
X0501250Y0469217D01*
X0501521Y0469214D01*
X0501791Y0469204D01*
X0502061Y0469187D01*
X0502331Y0469164D01*
X0502599Y0469134D01*
X0502868Y0469098D01*
X0503135Y0469055D01*
X0503401Y0469005D01*
X0503665Y0468949D01*
X0503929Y0468887D01*
X0504190Y0468818D01*
X0504450Y0468742D01*
X0504708Y0468661D01*
X0504964Y0468573D01*
X0505217Y0468478D01*
X0505469Y0468378D01*
X0505717Y0468271D01*
X0505963Y0468159D01*
X0506207Y0468040D01*
X0506447Y0467915D01*
X0506684Y0467785D01*
X0506917Y0467649D01*
X0507148Y0467507D01*
X0507375Y0467359D01*
X0507598Y0467206D01*
X0507817Y0467048D01*
X0508032Y0466884D01*
X0508244Y0466715D01*
X0508451Y0466540D01*
X0508653Y0466361D01*
X0508851Y0466177D01*
X0509045Y0465988D01*
X0509234Y0465794D01*
X0509418Y0465596D01*
X0509597Y0465394D01*
X0509772Y0465187D01*
X0509941Y0464975D01*
X0510105Y0464760D01*
X0510263Y0464541D01*
X0510416Y0464318D01*
X0510564Y0464091D01*
X0510706Y0463860D01*
X0510842Y0463627D01*
X0510972Y0463390D01*
X0511097Y0463150D01*
X0511216Y0462906D01*
X0511328Y0462660D01*
X0511435Y0462412D01*
X0511535Y0462160D01*
X0511630Y0461907D01*
X0511718Y0461651D01*
X0511799Y0461393D01*
X0511875Y0461133D01*
X0511944Y0460872D01*
X0512006Y0460608D01*
X0512062Y0460344D01*
X0512112Y0460078D01*
X0512155Y0459811D01*
X0512191Y0459542D01*
X0512221Y0459274D01*
X0512244Y0459004D01*
X0512261Y0458734D01*
X0512271Y0458464D01*
X0512274Y0458193D01*
X0512271Y0457922D01*
X0512261Y0457652D01*
X0512244Y0457382D01*
X0512221Y0457112D01*
X0512191Y0456844D01*
X0512155Y0456575D01*
X0512112Y0456308D01*
X0512062Y0456042D01*
X0512006Y0455778D01*
X0511944Y0455514D01*
X0511875Y0455253D01*
X0511799Y0454993D01*
X0511718Y0454735D01*
X0511630Y0454479D01*
X0511535Y0454226D01*
X0511435Y0453974D01*
X0511328Y0453726D01*
X0511216Y0453480D01*
X0511097Y0453236D01*
X0510972Y0452996D01*
X0510842Y0452759D01*
X0510706Y0452526D01*
X0510564Y0452295D01*
X0510416Y0452068D01*
X0510263Y0451845D01*
X0510105Y0451626D01*
X0509941Y0451411D01*
X0509772Y0451199D01*
X0509597Y0450992D01*
X0509418Y0450790D01*
X0509234Y0450592D01*
X0509045Y0450398D01*
X0508851Y0450209D01*
X0508653Y0450025D01*
X0508451Y0449846D01*
X0508244Y0449671D01*
X0508032Y0449502D01*
X0507817Y0449338D01*
X0507598Y0449180D01*
X0507375Y0449027D01*
X0507148Y0448879D01*
X0506917Y0448737D01*
X0506684Y0448601D01*
X0506447Y0448471D01*
X0506207Y0448346D01*
X0505963Y0448227D01*
X0505717Y0448115D01*
X0505469Y0448008D01*
X0505217Y0447908D01*
X0504964Y0447813D01*
X0504708Y0447725D01*
X0504450Y0447644D01*
X0504190Y0447568D01*
X0503929Y0447499D01*
X0503665Y0447437D01*
X0503401Y0447381D01*
X0503135Y0447331D01*
X0502868Y0447288D01*
X0502599Y0447252D01*
X0502331Y0447222D01*
X0502061Y0447199D01*
X0501791Y0447182D01*
X0501521Y0447172D01*
X0501250Y0447169D01*
X0500979Y0447172D01*
X0500709Y0447182D01*
X0500439Y0447199D01*
X0500169Y0447222D01*
X0499901Y0447252D01*
X0499632Y0447288D01*
X0499365Y0447331D01*
X0499099Y0447381D01*
X0498835Y0447437D01*
X0498571Y0447499D01*
X0498310Y0447568D01*
X0498050Y0447644D01*
X0497792Y0447725D01*
X0497536Y0447813D01*
X0497283Y0447908D01*
X0497031Y0448008D01*
X0496783Y0448115D01*
X0496537Y0448227D01*
X0496293Y0448346D01*
X0496053Y0448471D01*
X0495816Y0448601D01*
X0495583Y0448737D01*
X0495352Y0448879D01*
X0495125Y0449027D01*
X0494902Y0449180D01*
X0494683Y0449338D01*
X0494468Y0449502D01*
X0494256Y0449671D01*
X0494049Y0449846D01*
X0493847Y0450025D01*
X0493649Y0450209D01*
X0493455Y0450398D01*
X0493266Y0450592D01*
X0493082Y0450790D01*
X0492903Y0450992D01*
X0492728Y0451199D01*
X0492559Y0451411D01*
X0492395Y0451626D01*
X0492237Y0451845D01*
X0492084Y0452068D01*
X0491936Y0452295D01*
X0491794Y0452526D01*
X0491658Y0452759D01*
X0491528Y0452996D01*
X0491403Y0453236D01*
X0491284Y0453480D01*
X0491172Y0453726D01*
X0491065Y0453974D01*
X0490965Y0454226D01*
X0490870Y0454479D01*
X0490782Y0454735D01*
X0490701Y0454993D01*
X0490625Y0455253D01*
X0490556Y0455514D01*
X0490494Y0455778D01*
X0490438Y0456042D01*
X0490388Y0456308D01*
X0490345Y0456575D01*
X0490309Y0456844D01*
X0490279Y0457112D01*
X0490256Y0457382D01*
X0490239Y0457652D01*
X0490229Y0457922D01*
X0490226Y0458193D01*
X0061092Y0458193D02*
X0061095Y0458464D01*
X0061105Y0458734D01*
X0061122Y0459004D01*
X0061145Y0459274D01*
X0061175Y0459542D01*
X0061211Y0459811D01*
X0061254Y0460078D01*
X0061304Y0460344D01*
X0061360Y0460608D01*
X0061422Y0460872D01*
X0061491Y0461133D01*
X0061567Y0461393D01*
X0061648Y0461651D01*
X0061736Y0461907D01*
X0061831Y0462160D01*
X0061931Y0462412D01*
X0062038Y0462660D01*
X0062150Y0462906D01*
X0062269Y0463150D01*
X0062394Y0463390D01*
X0062524Y0463627D01*
X0062660Y0463860D01*
X0062802Y0464091D01*
X0062950Y0464318D01*
X0063103Y0464541D01*
X0063261Y0464760D01*
X0063425Y0464975D01*
X0063594Y0465187D01*
X0063769Y0465394D01*
X0063948Y0465596D01*
X0064132Y0465794D01*
X0064321Y0465988D01*
X0064515Y0466177D01*
X0064713Y0466361D01*
X0064915Y0466540D01*
X0065122Y0466715D01*
X0065334Y0466884D01*
X0065549Y0467048D01*
X0065768Y0467206D01*
X0065991Y0467359D01*
X0066218Y0467507D01*
X0066449Y0467649D01*
X0066682Y0467785D01*
X0066919Y0467915D01*
X0067159Y0468040D01*
X0067403Y0468159D01*
X0067649Y0468271D01*
X0067897Y0468378D01*
X0068149Y0468478D01*
X0068402Y0468573D01*
X0068658Y0468661D01*
X0068916Y0468742D01*
X0069176Y0468818D01*
X0069437Y0468887D01*
X0069701Y0468949D01*
X0069965Y0469005D01*
X0070231Y0469055D01*
X0070498Y0469098D01*
X0070767Y0469134D01*
X0071035Y0469164D01*
X0071305Y0469187D01*
X0071575Y0469204D01*
X0071845Y0469214D01*
X0072116Y0469217D01*
X0072387Y0469214D01*
X0072657Y0469204D01*
X0072927Y0469187D01*
X0073197Y0469164D01*
X0073465Y0469134D01*
X0073734Y0469098D01*
X0074001Y0469055D01*
X0074267Y0469005D01*
X0074531Y0468949D01*
X0074795Y0468887D01*
X0075056Y0468818D01*
X0075316Y0468742D01*
X0075574Y0468661D01*
X0075830Y0468573D01*
X0076083Y0468478D01*
X0076335Y0468378D01*
X0076583Y0468271D01*
X0076829Y0468159D01*
X0077073Y0468040D01*
X0077313Y0467915D01*
X0077550Y0467785D01*
X0077783Y0467649D01*
X0078014Y0467507D01*
X0078241Y0467359D01*
X0078464Y0467206D01*
X0078683Y0467048D01*
X0078898Y0466884D01*
X0079110Y0466715D01*
X0079317Y0466540D01*
X0079519Y0466361D01*
X0079717Y0466177D01*
X0079911Y0465988D01*
X0080100Y0465794D01*
X0080284Y0465596D01*
X0080463Y0465394D01*
X0080638Y0465187D01*
X0080807Y0464975D01*
X0080971Y0464760D01*
X0081129Y0464541D01*
X0081282Y0464318D01*
X0081430Y0464091D01*
X0081572Y0463860D01*
X0081708Y0463627D01*
X0081838Y0463390D01*
X0081963Y0463150D01*
X0082082Y0462906D01*
X0082194Y0462660D01*
X0082301Y0462412D01*
X0082401Y0462160D01*
X0082496Y0461907D01*
X0082584Y0461651D01*
X0082665Y0461393D01*
X0082741Y0461133D01*
X0082810Y0460872D01*
X0082872Y0460608D01*
X0082928Y0460344D01*
X0082978Y0460078D01*
X0083021Y0459811D01*
X0083057Y0459542D01*
X0083087Y0459274D01*
X0083110Y0459004D01*
X0083127Y0458734D01*
X0083137Y0458464D01*
X0083140Y0458193D01*
X0083137Y0457922D01*
X0083127Y0457652D01*
X0083110Y0457382D01*
X0083087Y0457112D01*
X0083057Y0456844D01*
X0083021Y0456575D01*
X0082978Y0456308D01*
X0082928Y0456042D01*
X0082872Y0455778D01*
X0082810Y0455514D01*
X0082741Y0455253D01*
X0082665Y0454993D01*
X0082584Y0454735D01*
X0082496Y0454479D01*
X0082401Y0454226D01*
X0082301Y0453974D01*
X0082194Y0453726D01*
X0082082Y0453480D01*
X0081963Y0453236D01*
X0081838Y0452996D01*
X0081708Y0452759D01*
X0081572Y0452526D01*
X0081430Y0452295D01*
X0081282Y0452068D01*
X0081129Y0451845D01*
X0080971Y0451626D01*
X0080807Y0451411D01*
X0080638Y0451199D01*
X0080463Y0450992D01*
X0080284Y0450790D01*
X0080100Y0450592D01*
X0079911Y0450398D01*
X0079717Y0450209D01*
X0079519Y0450025D01*
X0079317Y0449846D01*
X0079110Y0449671D01*
X0078898Y0449502D01*
X0078683Y0449338D01*
X0078464Y0449180D01*
X0078241Y0449027D01*
X0078014Y0448879D01*
X0077783Y0448737D01*
X0077550Y0448601D01*
X0077313Y0448471D01*
X0077073Y0448346D01*
X0076829Y0448227D01*
X0076583Y0448115D01*
X0076335Y0448008D01*
X0076083Y0447908D01*
X0075830Y0447813D01*
X0075574Y0447725D01*
X0075316Y0447644D01*
X0075056Y0447568D01*
X0074795Y0447499D01*
X0074531Y0447437D01*
X0074267Y0447381D01*
X0074001Y0447331D01*
X0073734Y0447288D01*
X0073465Y0447252D01*
X0073197Y0447222D01*
X0072927Y0447199D01*
X0072657Y0447182D01*
X0072387Y0447172D01*
X0072116Y0447169D01*
X0071845Y0447172D01*
X0071575Y0447182D01*
X0071305Y0447199D01*
X0071035Y0447222D01*
X0070767Y0447252D01*
X0070498Y0447288D01*
X0070231Y0447331D01*
X0069965Y0447381D01*
X0069701Y0447437D01*
X0069437Y0447499D01*
X0069176Y0447568D01*
X0068916Y0447644D01*
X0068658Y0447725D01*
X0068402Y0447813D01*
X0068149Y0447908D01*
X0067897Y0448008D01*
X0067649Y0448115D01*
X0067403Y0448227D01*
X0067159Y0448346D01*
X0066919Y0448471D01*
X0066682Y0448601D01*
X0066449Y0448737D01*
X0066218Y0448879D01*
X0065991Y0449027D01*
X0065768Y0449180D01*
X0065549Y0449338D01*
X0065334Y0449502D01*
X0065122Y0449671D01*
X0064915Y0449846D01*
X0064713Y0450025D01*
X0064515Y0450209D01*
X0064321Y0450398D01*
X0064132Y0450592D01*
X0063948Y0450790D01*
X0063769Y0450992D01*
X0063594Y0451199D01*
X0063425Y0451411D01*
X0063261Y0451626D01*
X0063103Y0451845D01*
X0062950Y0452068D01*
X0062802Y0452295D01*
X0062660Y0452526D01*
X0062524Y0452759D01*
X0062394Y0452996D01*
X0062269Y0453236D01*
X0062150Y0453480D01*
X0062038Y0453726D01*
X0061931Y0453974D01*
X0061831Y0454226D01*
X0061736Y0454479D01*
X0061648Y0454735D01*
X0061567Y0454993D01*
X0061491Y0455253D01*
X0061422Y0455514D01*
X0061360Y0455778D01*
X0061304Y0456042D01*
X0061254Y0456308D01*
X0061211Y0456575D01*
X0061175Y0456844D01*
X0061145Y0457112D01*
X0061122Y0457382D01*
X0061105Y0457652D01*
X0061095Y0457922D01*
X0061092Y0458193D01*
D11*
X0262274Y0237720D02*
X0262280Y0238174D01*
X0262296Y0238628D01*
X0262324Y0239081D01*
X0262363Y0239534D01*
X0262413Y0239985D01*
X0262474Y0240435D01*
X0262546Y0240883D01*
X0262630Y0241330D01*
X0262724Y0241774D01*
X0262829Y0242216D01*
X0262944Y0242655D01*
X0263071Y0243091D01*
X0263208Y0243524D01*
X0263356Y0243954D01*
X0263514Y0244379D01*
X0263683Y0244801D01*
X0263861Y0245219D01*
X0264051Y0245631D01*
X0264250Y0246040D01*
X0264459Y0246443D01*
X0264678Y0246841D01*
X0264907Y0247233D01*
X0265145Y0247620D01*
X0265392Y0248000D01*
X0265649Y0248375D01*
X0265915Y0248743D01*
X0266190Y0249104D01*
X0266474Y0249459D01*
X0266767Y0249806D01*
X0267067Y0250147D01*
X0267377Y0250479D01*
X0267694Y0250804D01*
X0268019Y0251121D01*
X0268351Y0251431D01*
X0268692Y0251731D01*
X0269039Y0252024D01*
X0269394Y0252308D01*
X0269755Y0252583D01*
X0270123Y0252849D01*
X0270498Y0253106D01*
X0270878Y0253353D01*
X0271265Y0253591D01*
X0271657Y0253820D01*
X0272055Y0254039D01*
X0272458Y0254248D01*
X0272867Y0254447D01*
X0273279Y0254637D01*
X0273697Y0254815D01*
X0274119Y0254984D01*
X0274544Y0255142D01*
X0274974Y0255290D01*
X0275407Y0255427D01*
X0275843Y0255554D01*
X0276282Y0255669D01*
X0276724Y0255774D01*
X0277168Y0255868D01*
X0277615Y0255952D01*
X0278063Y0256024D01*
X0278513Y0256085D01*
X0278964Y0256135D01*
X0279417Y0256174D01*
X0279870Y0256202D01*
X0280324Y0256218D01*
X0280778Y0256224D01*
X0281232Y0256218D01*
X0281686Y0256202D01*
X0282139Y0256174D01*
X0282592Y0256135D01*
X0283043Y0256085D01*
X0283493Y0256024D01*
X0283941Y0255952D01*
X0284388Y0255868D01*
X0284832Y0255774D01*
X0285274Y0255669D01*
X0285713Y0255554D01*
X0286149Y0255427D01*
X0286582Y0255290D01*
X0287012Y0255142D01*
X0287437Y0254984D01*
X0287859Y0254815D01*
X0288277Y0254637D01*
X0288689Y0254447D01*
X0289098Y0254248D01*
X0289501Y0254039D01*
X0289899Y0253820D01*
X0290291Y0253591D01*
X0290678Y0253353D01*
X0291058Y0253106D01*
X0291433Y0252849D01*
X0291801Y0252583D01*
X0292162Y0252308D01*
X0292517Y0252024D01*
X0292864Y0251731D01*
X0293205Y0251431D01*
X0293537Y0251121D01*
X0293862Y0250804D01*
X0294179Y0250479D01*
X0294489Y0250147D01*
X0294789Y0249806D01*
X0295082Y0249459D01*
X0295366Y0249104D01*
X0295641Y0248743D01*
X0295907Y0248375D01*
X0296164Y0248000D01*
X0296411Y0247620D01*
X0296649Y0247233D01*
X0296878Y0246841D01*
X0297097Y0246443D01*
X0297306Y0246040D01*
X0297505Y0245631D01*
X0297695Y0245219D01*
X0297873Y0244801D01*
X0298042Y0244379D01*
X0298200Y0243954D01*
X0298348Y0243524D01*
X0298485Y0243091D01*
X0298612Y0242655D01*
X0298727Y0242216D01*
X0298832Y0241774D01*
X0298926Y0241330D01*
X0299010Y0240883D01*
X0299082Y0240435D01*
X0299143Y0239985D01*
X0299193Y0239534D01*
X0299232Y0239081D01*
X0299260Y0238628D01*
X0299276Y0238174D01*
X0299282Y0237720D01*
X0299276Y0237266D01*
X0299260Y0236812D01*
X0299232Y0236359D01*
X0299193Y0235906D01*
X0299143Y0235455D01*
X0299082Y0235005D01*
X0299010Y0234557D01*
X0298926Y0234110D01*
X0298832Y0233666D01*
X0298727Y0233224D01*
X0298612Y0232785D01*
X0298485Y0232349D01*
X0298348Y0231916D01*
X0298200Y0231486D01*
X0298042Y0231061D01*
X0297873Y0230639D01*
X0297695Y0230221D01*
X0297505Y0229809D01*
X0297306Y0229400D01*
X0297097Y0228997D01*
X0296878Y0228599D01*
X0296649Y0228207D01*
X0296411Y0227820D01*
X0296164Y0227440D01*
X0295907Y0227065D01*
X0295641Y0226697D01*
X0295366Y0226336D01*
X0295082Y0225981D01*
X0294789Y0225634D01*
X0294489Y0225293D01*
X0294179Y0224961D01*
X0293862Y0224636D01*
X0293537Y0224319D01*
X0293205Y0224009D01*
X0292864Y0223709D01*
X0292517Y0223416D01*
X0292162Y0223132D01*
X0291801Y0222857D01*
X0291433Y0222591D01*
X0291058Y0222334D01*
X0290678Y0222087D01*
X0290291Y0221849D01*
X0289899Y0221620D01*
X0289501Y0221401D01*
X0289098Y0221192D01*
X0288689Y0220993D01*
X0288277Y0220803D01*
X0287859Y0220625D01*
X0287437Y0220456D01*
X0287012Y0220298D01*
X0286582Y0220150D01*
X0286149Y0220013D01*
X0285713Y0219886D01*
X0285274Y0219771D01*
X0284832Y0219666D01*
X0284388Y0219572D01*
X0283941Y0219488D01*
X0283493Y0219416D01*
X0283043Y0219355D01*
X0282592Y0219305D01*
X0282139Y0219266D01*
X0281686Y0219238D01*
X0281232Y0219222D01*
X0280778Y0219216D01*
X0280324Y0219222D01*
X0279870Y0219238D01*
X0279417Y0219266D01*
X0278964Y0219305D01*
X0278513Y0219355D01*
X0278063Y0219416D01*
X0277615Y0219488D01*
X0277168Y0219572D01*
X0276724Y0219666D01*
X0276282Y0219771D01*
X0275843Y0219886D01*
X0275407Y0220013D01*
X0274974Y0220150D01*
X0274544Y0220298D01*
X0274119Y0220456D01*
X0273697Y0220625D01*
X0273279Y0220803D01*
X0272867Y0220993D01*
X0272458Y0221192D01*
X0272055Y0221401D01*
X0271657Y0221620D01*
X0271265Y0221849D01*
X0270878Y0222087D01*
X0270498Y0222334D01*
X0270123Y0222591D01*
X0269755Y0222857D01*
X0269394Y0223132D01*
X0269039Y0223416D01*
X0268692Y0223709D01*
X0268351Y0224009D01*
X0268019Y0224319D01*
X0267694Y0224636D01*
X0267377Y0224961D01*
X0267067Y0225293D01*
X0266767Y0225634D01*
X0266474Y0225981D01*
X0266190Y0226336D01*
X0265915Y0226697D01*
X0265649Y0227065D01*
X0265392Y0227440D01*
X0265145Y0227820D01*
X0264907Y0228207D01*
X0264678Y0228599D01*
X0264459Y0228997D01*
X0264250Y0229400D01*
X0264051Y0229809D01*
X0263861Y0230221D01*
X0263683Y0230639D01*
X0263514Y0231061D01*
X0263356Y0231486D01*
X0263208Y0231916D01*
X0263071Y0232349D01*
X0262944Y0232785D01*
X0262829Y0233224D01*
X0262724Y0233666D01*
X0262630Y0234110D01*
X0262546Y0234557D01*
X0262474Y0235005D01*
X0262413Y0235455D01*
X0262363Y0235906D01*
X0262324Y0236359D01*
X0262296Y0236812D01*
X0262280Y0237266D01*
X0262274Y0237720D01*
D12*
X0520423Y0192327D03*
X0530384Y0202051D03*
X0530344Y0172602D03*
X0520463Y0152957D03*
X0530384Y0142957D03*
X0530384Y0111500D03*
X0520423Y0101776D03*
X0530344Y0082051D03*
X0520463Y0062406D03*
X0530384Y0052406D03*
X0569684Y0062406D03*
X0569684Y0101806D03*
X0569684Y0152957D03*
X0569684Y0192357D03*
D13*
X0529203Y0228665D02*
X0520541Y0228665D01*
X0556368Y0245201D02*
X0556368Y0253862D01*
X0529203Y0270331D02*
X0520541Y0270331D01*
X0520541Y0287720D02*
X0529203Y0287720D01*
X0556368Y0304256D02*
X0556368Y0312917D01*
X0529203Y0329387D02*
X0520541Y0329387D01*
D14*
X0497470Y0335514D02*
X0497470Y0340714D01*
X0487470Y0340714D02*
X0487470Y0335514D01*
X0477470Y0335514D02*
X0477470Y0340714D01*
X0477470Y0301344D02*
X0477470Y0296144D01*
X0487470Y0296144D02*
X0487470Y0301344D01*
X0497470Y0301344D02*
X0497470Y0296144D01*
X0497470Y0261974D02*
X0497470Y0256774D01*
X0487470Y0256774D02*
X0487470Y0261974D01*
X0477470Y0261974D02*
X0477470Y0256774D01*
X0298652Y0181265D02*
X0298652Y0176065D01*
X0288652Y0176065D02*
X0288652Y0181265D01*
X0278652Y0181265D02*
X0278652Y0176065D01*
X0205110Y0178626D02*
X0199910Y0178626D01*
X0199910Y0188626D02*
X0205110Y0188626D01*
X0205110Y0198626D02*
X0199910Y0198626D01*
X0199910Y0208626D02*
X0205110Y0208626D01*
X0205110Y0218626D02*
X0199910Y0218626D01*
X0199910Y0228626D02*
X0205110Y0228626D01*
X0205110Y0238626D02*
X0199910Y0238626D01*
X0199910Y0248626D02*
X0205110Y0248626D01*
X0205110Y0258626D02*
X0199910Y0258626D01*
X0199910Y0268626D02*
X0205110Y0268626D01*
X0205110Y0278626D02*
X0199910Y0278626D01*
X0199910Y0288626D02*
X0205110Y0288626D01*
X0205110Y0298626D02*
X0199910Y0298626D01*
X0199910Y0308626D02*
X0205110Y0308626D01*
X0145110Y0308626D02*
X0139910Y0308626D01*
X0139910Y0298626D02*
X0145110Y0298626D01*
X0145110Y0288626D02*
X0139910Y0288626D01*
X0139910Y0278626D02*
X0145110Y0278626D01*
X0145110Y0268626D02*
X0139910Y0268626D01*
X0139910Y0258626D02*
X0145110Y0258626D01*
X0145110Y0248626D02*
X0139910Y0248626D01*
X0139910Y0238626D02*
X0145110Y0238626D01*
X0145110Y0228626D02*
X0139910Y0228626D01*
X0139910Y0218626D02*
X0145110Y0218626D01*
X0145110Y0208626D02*
X0139910Y0208626D01*
X0139910Y0198626D02*
X0145110Y0198626D01*
X0145110Y0188626D02*
X0139910Y0188626D01*
X0139910Y0178626D02*
X0145110Y0178626D01*
X0145110Y0131303D02*
X0139910Y0131303D01*
X0139910Y0121303D02*
X0145110Y0121303D01*
X0145110Y0111303D02*
X0139910Y0111303D01*
X0139910Y0101303D02*
X0145110Y0101303D01*
X0145110Y0091303D02*
X0139910Y0091303D01*
X0139910Y0081303D02*
X0145110Y0081303D01*
X0145110Y0071303D02*
X0139910Y0071303D01*
X0139910Y0061303D02*
X0145110Y0061303D01*
X0145110Y0051303D02*
X0139910Y0051303D01*
X0139910Y0041303D02*
X0145110Y0041303D01*
X0145110Y0031303D02*
X0139910Y0031303D01*
X0139910Y0021303D02*
X0145110Y0021303D01*
X0199910Y0021303D02*
X0205110Y0021303D01*
X0205110Y0031303D02*
X0199910Y0031303D01*
X0199910Y0041303D02*
X0205110Y0041303D01*
X0205110Y0051303D02*
X0199910Y0051303D01*
X0199910Y0061303D02*
X0205110Y0061303D01*
X0205110Y0071303D02*
X0199910Y0071303D01*
X0199910Y0081303D02*
X0205110Y0081303D01*
X0205110Y0091303D02*
X0199910Y0091303D01*
X0199910Y0101303D02*
X0205110Y0101303D01*
X0205110Y0111303D02*
X0199910Y0111303D01*
X0199910Y0121303D02*
X0205110Y0121303D01*
X0205110Y0131303D02*
X0199910Y0131303D01*
X0235619Y0091618D02*
X0240819Y0091618D01*
X0240819Y0081618D02*
X0235619Y0081618D01*
X0235619Y0071618D02*
X0240819Y0071618D01*
X0240819Y0061618D02*
X0235619Y0061618D01*
X0235619Y0051618D02*
X0240819Y0051618D01*
X0240819Y0041618D02*
X0235619Y0041618D01*
X0235619Y0031618D02*
X0240819Y0031618D01*
X0240819Y0021618D02*
X0235619Y0021618D01*
X0265619Y0021618D02*
X0270819Y0021618D01*
X0270819Y0031618D02*
X0265619Y0031618D01*
X0265619Y0041618D02*
X0270819Y0041618D01*
X0270819Y0051618D02*
X0265619Y0051618D01*
X0265619Y0061618D02*
X0270819Y0061618D01*
X0270819Y0071618D02*
X0265619Y0071618D01*
X0265619Y0081618D02*
X0270819Y0081618D01*
X0270819Y0091618D02*
X0265619Y0091618D01*
X0436132Y0083903D02*
X0436132Y0078703D01*
X0446132Y0078703D02*
X0446132Y0083903D01*
X0456132Y0083903D02*
X0456132Y0078703D01*
X0477470Y0078703D02*
X0477470Y0083903D01*
X0487470Y0083903D02*
X0487470Y0078703D01*
X0497470Y0078703D02*
X0497470Y0083903D01*
D15*
X0502470Y0155791D03*
X0502470Y0165791D03*
X0502470Y0175791D03*
X0502470Y0185791D03*
X0472470Y0185791D03*
X0472470Y0175791D03*
X0472470Y0165791D03*
X0472470Y0155791D03*
X0394203Y0138547D03*
X0394203Y0128547D03*
X0394203Y0118547D03*
X0394203Y0108547D03*
X0364203Y0108547D03*
X0364203Y0118547D03*
X0364203Y0128547D03*
X0364203Y0138547D03*
X0364203Y0199098D03*
X0364203Y0209098D03*
X0364203Y0219098D03*
X0364203Y0229098D03*
X0394203Y0229098D03*
X0394203Y0219098D03*
X0394203Y0209098D03*
X0394203Y0199098D03*
X0343022Y0071618D03*
X0343022Y0061618D03*
X0343022Y0051618D03*
X0343022Y0041618D03*
X0313022Y0041618D03*
X0313022Y0051618D03*
X0313022Y0061618D03*
X0313022Y0071618D03*
X0109518Y0429008D03*
X0109518Y0448008D03*
D16*
X0168284Y0450476D03*
X0168284Y0445476D03*
X0168284Y0440476D03*
X0168284Y0435476D03*
X0168284Y0430476D03*
X0168284Y0425476D03*
X0192484Y0425476D03*
X0192484Y0430476D03*
X0192484Y0435476D03*
X0192484Y0440476D03*
X0192484Y0445476D03*
X0192484Y0450476D03*
X0192484Y0455476D03*
X0168284Y0455476D03*
D17*
X0459911Y0165673D03*
X0459911Y0152287D03*
X0455974Y0118429D03*
X0455974Y0105043D03*
X0436289Y0105043D03*
X0436289Y0118429D03*
D18*
X0532746Y0358783D03*
X0542589Y0358783D03*
X0542589Y0368626D03*
X0542589Y0378469D03*
X0532746Y0378469D03*
X0532746Y0368626D03*
X0532746Y0388311D03*
X0532746Y0398154D03*
X0532746Y0407996D03*
X0532746Y0417839D03*
X0532746Y0427681D03*
X0542589Y0427681D03*
X0542589Y0417839D03*
X0542589Y0407996D03*
X0542589Y0398154D03*
X0542589Y0388311D03*
X0542589Y0437524D03*
X0542589Y0447366D03*
X0532746Y0447366D03*
X0532746Y0437524D03*
X0087707Y0382406D03*
X0087707Y0372563D03*
X0087707Y0362720D03*
X0087707Y0352878D03*
X0087707Y0343035D03*
X0087707Y0333193D03*
X0087707Y0323350D03*
X0087707Y0313508D03*
X0087707Y0303665D03*
X0087707Y0293823D03*
X0087707Y0283980D03*
X0087707Y0274138D03*
X0087707Y0264295D03*
X0087707Y0254453D03*
X0087707Y0244610D03*
X0087707Y0234768D03*
X0087707Y0224925D03*
X0087707Y0215083D03*
X0087707Y0205240D03*
X0087707Y0195398D03*
X0087707Y0185555D03*
X0087707Y0175713D03*
X0087707Y0165870D03*
X0087707Y0156028D03*
X0087707Y0146185D03*
X0087707Y0136343D03*
X0087707Y0126500D03*
X0087707Y0116657D03*
X0087707Y0106815D03*
X0087707Y0096972D03*
X0068022Y0096972D03*
X0068022Y0106815D03*
X0068022Y0116657D03*
X0068022Y0126500D03*
X0068022Y0136343D03*
X0068022Y0146185D03*
X0068022Y0156028D03*
X0068022Y0165870D03*
X0068022Y0175713D03*
X0068022Y0185555D03*
X0068022Y0195398D03*
X0068022Y0205240D03*
X0068022Y0215083D03*
X0068022Y0224925D03*
X0068022Y0234768D03*
X0068022Y0244610D03*
X0068022Y0254453D03*
X0068022Y0264295D03*
X0068022Y0274138D03*
X0068022Y0283980D03*
X0068022Y0293823D03*
X0068022Y0303665D03*
X0068022Y0313508D03*
X0068022Y0323350D03*
X0068022Y0333193D03*
X0068022Y0343035D03*
X0068022Y0352878D03*
X0068022Y0362720D03*
X0068022Y0372563D03*
X0068022Y0382406D03*
D19*
X0071285Y0413823D02*
X0076885Y0413823D01*
X0076885Y0423823D02*
X0071285Y0423823D01*
X0120497Y0309650D02*
X0126097Y0309650D01*
X0126097Y0299650D02*
X0120497Y0299650D01*
X0447269Y0335083D02*
X0452869Y0335083D01*
X0452869Y0345083D02*
X0447269Y0345083D01*
X0391845Y0039965D02*
X0386245Y0039965D01*
X0386245Y0029965D02*
X0391845Y0029965D01*
D20*
X0296329Y0074335D03*
X0288848Y0074335D03*
X0288848Y0097957D03*
X0296329Y0097957D03*
X0158533Y0145201D03*
X0151053Y0145201D03*
X0151053Y0162917D03*
X0158533Y0162917D03*
X0186486Y0324335D03*
X0193967Y0324335D03*
X0184124Y0412917D03*
X0176644Y0412917D03*
X0483730Y0221972D03*
X0491211Y0221972D03*
X0491211Y0204256D03*
X0483730Y0204256D03*
D21*
X0459911Y0190280D03*
X0459911Y0182799D03*
X0410699Y0182406D03*
X0410699Y0174925D03*
X0410699Y0162720D03*
X0410699Y0155240D03*
X0391014Y0155240D03*
X0391014Y0162720D03*
X0391014Y0174925D03*
X0391014Y0182406D03*
X0367392Y0182406D03*
X0367392Y0174925D03*
X0367392Y0162720D03*
X0367392Y0155240D03*
X0347707Y0155240D03*
X0347707Y0162720D03*
X0347707Y0174925D03*
X0347707Y0182406D03*
X0312274Y0182406D03*
X0312274Y0174925D03*
X0312274Y0162720D03*
X0312274Y0155240D03*
X0265030Y0174925D03*
X0265030Y0182406D03*
X0326053Y0224138D03*
X0326053Y0231618D03*
X0326053Y0247760D03*
X0326053Y0255240D03*
X0347707Y0231618D03*
X0347707Y0224138D03*
X0410699Y0224138D03*
X0410699Y0231618D03*
X0432352Y0231618D03*
X0432352Y0224138D03*
X0432352Y0247760D03*
X0432352Y0255240D03*
X0410699Y0283193D03*
X0410699Y0290673D03*
X0391014Y0290673D03*
X0391014Y0283193D03*
X0367392Y0283193D03*
X0367392Y0290673D03*
X0347707Y0290673D03*
X0347707Y0283193D03*
X0477628Y0284768D03*
X0477628Y0277287D03*
X0477628Y0245398D03*
X0477628Y0237917D03*
X0477628Y0316657D03*
X0477628Y0324138D03*
X0442195Y0432799D03*
X0442195Y0440280D03*
X0442195Y0450516D03*
X0442195Y0457996D03*
X0426447Y0457996D03*
X0426447Y0450516D03*
X0426447Y0440280D03*
X0426447Y0432799D03*
X0410699Y0432799D03*
X0410699Y0440280D03*
X0410699Y0450516D03*
X0410699Y0457996D03*
X0394951Y0457996D03*
X0394951Y0450516D03*
X0394951Y0440280D03*
X0394951Y0432799D03*
X0369360Y0450516D03*
X0369360Y0457996D03*
X0353612Y0457996D03*
X0353612Y0450516D03*
X0274872Y0450516D03*
X0274872Y0457996D03*
X0259124Y0457996D03*
X0259124Y0450516D03*
X0235502Y0450516D03*
X0235502Y0457996D03*
X0211880Y0457996D03*
X0211880Y0450516D03*
X0148888Y0448547D03*
X0148888Y0456028D03*
X0133140Y0456028D03*
X0133140Y0448547D03*
X0133140Y0430437D03*
X0133140Y0422957D03*
X0148888Y0422957D03*
X0148888Y0430437D03*
X0487470Y0109571D03*
X0487470Y0102091D03*
X0477628Y0062327D03*
X0477628Y0054846D03*
X0497313Y0054846D03*
X0497313Y0062327D03*
X0455974Y0062327D03*
X0455974Y0054846D03*
X0436289Y0054846D03*
X0436289Y0062327D03*
X0394951Y0086343D03*
X0394951Y0093823D03*
X0363455Y0093823D03*
X0363455Y0086343D03*
D22*
X0241407Y0155043D03*
X0221722Y0155043D03*
D23*
X0268967Y0151106D03*
X0268967Y0131421D03*
X0412667Y0046776D03*
X0412667Y0027091D03*
D24*
X0436289Y0025122D03*
X0436289Y0036933D03*
X0410699Y0121579D03*
X0410699Y0133390D03*
X0347707Y0133390D03*
X0347707Y0121579D03*
X0292589Y0048744D03*
X0292589Y0036933D03*
X0347707Y0200319D03*
X0347707Y0212130D03*
X0410699Y0212130D03*
X0410699Y0200319D03*
D25*
X0408730Y0271185D03*
X0396919Y0271185D03*
X0361486Y0271185D03*
X0349675Y0271185D03*
D26*
X0343179Y0251500D03*
X0367982Y0251500D03*
X0390423Y0251500D03*
X0415226Y0251500D03*
D27*
X0345738Y0328272D03*
X0345738Y0330240D03*
X0345738Y0332209D03*
X0345738Y0334177D03*
X0345738Y0336146D03*
X0345738Y0338114D03*
X0345738Y0340083D03*
X0345738Y0342051D03*
X0345738Y0344020D03*
X0345738Y0345988D03*
X0345738Y0347957D03*
X0345738Y0349925D03*
X0345738Y0351894D03*
X0345738Y0353862D03*
X0345738Y0355831D03*
X0345738Y0357799D03*
X0345738Y0359768D03*
X0345738Y0361736D03*
X0345738Y0363705D03*
X0345738Y0365673D03*
X0345738Y0367642D03*
X0345738Y0369610D03*
X0345738Y0371579D03*
X0345738Y0373547D03*
X0345738Y0375516D03*
X0282746Y0375516D03*
X0282746Y0373547D03*
X0282746Y0371579D03*
X0282746Y0369610D03*
X0282746Y0367642D03*
X0282746Y0365673D03*
X0282746Y0363705D03*
X0282746Y0361736D03*
X0282746Y0359768D03*
X0282746Y0357799D03*
X0282746Y0355831D03*
X0282746Y0353862D03*
X0282746Y0351894D03*
X0282746Y0349925D03*
X0282746Y0347957D03*
X0282746Y0345988D03*
X0282746Y0344020D03*
X0282746Y0342051D03*
X0282746Y0340083D03*
X0282746Y0338114D03*
X0282746Y0336146D03*
X0282746Y0334177D03*
X0282746Y0332209D03*
X0282746Y0330240D03*
X0282746Y0328272D03*
D28*
X0290620Y0320398D03*
X0292589Y0320398D03*
X0294557Y0320398D03*
X0296526Y0320398D03*
X0298494Y0320398D03*
X0300463Y0320398D03*
X0302431Y0320398D03*
X0304400Y0320398D03*
X0306368Y0320398D03*
X0308337Y0320398D03*
X0310305Y0320398D03*
X0312274Y0320398D03*
X0314242Y0320398D03*
X0316211Y0320398D03*
X0318179Y0320398D03*
X0320148Y0320398D03*
X0322116Y0320398D03*
X0324085Y0320398D03*
X0326053Y0320398D03*
X0328022Y0320398D03*
X0329990Y0320398D03*
X0331959Y0320398D03*
X0333927Y0320398D03*
X0335896Y0320398D03*
X0337864Y0320398D03*
X0337864Y0383390D03*
X0335896Y0383390D03*
X0333927Y0383390D03*
X0331959Y0383390D03*
X0329990Y0383390D03*
X0328022Y0383390D03*
X0326053Y0383390D03*
X0324085Y0383390D03*
X0322116Y0383390D03*
X0320148Y0383390D03*
X0318179Y0383390D03*
X0316211Y0383390D03*
X0314242Y0383390D03*
X0312274Y0383390D03*
X0310305Y0383390D03*
X0308337Y0383390D03*
X0306368Y0383390D03*
X0304400Y0383390D03*
X0302431Y0383390D03*
X0300463Y0383390D03*
X0298494Y0383390D03*
X0296526Y0383390D03*
X0294557Y0383390D03*
X0292589Y0383390D03*
X0290620Y0383390D03*
D29*
X0334242Y0451382D03*
D30*
X0324242Y0451382D03*
X0314242Y0451382D03*
X0304242Y0451382D03*
X0294242Y0451382D03*
X0294242Y0441382D03*
X0304242Y0441382D03*
X0314242Y0441382D03*
X0324242Y0441382D03*
X0334242Y0441382D03*
D31*
X0294242Y0441382D02*
X0293652Y0441382D01*
X0282746Y0452287D01*
X0259124Y0450516D02*
X0259124Y0405043D01*
X0261093Y0405043D01*
X0289636Y0376500D01*
X0298494Y0367642D01*
X0310305Y0367642D01*
X0322116Y0367642D01*
X0329990Y0367642D01*
X0329990Y0361736D01*
X0329990Y0359768D01*
X0329990Y0344020D01*
X0329990Y0336146D01*
X0320148Y0336146D01*
X0302431Y0336146D01*
X0298494Y0336146D01*
X0298494Y0345988D01*
X0298494Y0367642D01*
X0259124Y0405043D02*
X0202037Y0405043D01*
X0176447Y0405043D01*
X0091801Y0405043D01*
X0078022Y0393232D01*
X0078022Y0381421D01*
X0069163Y0372563D01*
X0068022Y0372563D01*
X0068022Y0362720D01*
X0068022Y0352878D02*
X0057352Y0352878D01*
X0056368Y0353862D01*
X0068022Y0352878D02*
X0068022Y0343035D01*
X0073179Y0412917D02*
X0056368Y0412917D01*
X0056368Y0413823D02*
X0056368Y0414886D01*
X0056368Y0426697D02*
X0057431Y0427760D01*
X0073179Y0412917D02*
X0074085Y0413823D01*
X0134518Y0473350D02*
X0160699Y0473941D01*
X0211880Y0473547D02*
X0211880Y0457996D01*
X0280778Y0257406D02*
X0292589Y0253469D01*
X0300463Y0237720D01*
X0292589Y0221972D01*
X0280778Y0218035D01*
X0268967Y0221972D01*
X0261093Y0237720D01*
X0268967Y0253469D01*
X0280778Y0257406D01*
X0367982Y0251500D02*
X0379203Y0251500D01*
X0390423Y0251500D01*
X0298494Y0178508D02*
X0298494Y0158980D01*
X0270935Y0131421D01*
X0268967Y0129453D02*
X0257156Y0129453D01*
X0268967Y0151106D02*
X0265030Y0155043D01*
X0241407Y0155043D01*
X0221722Y0155043D02*
X0190226Y0155043D01*
X0142510Y0178626D02*
X0142470Y0178665D01*
X0127234Y0178665D01*
X0097707Y0147169D01*
X0097825Y0131303D02*
X0142510Y0131303D01*
X0091801Y0082209D02*
X0056368Y0082209D01*
X0190226Y0019217D02*
X0190226Y0013311D01*
X0280778Y0013311D01*
X0280266Y0005949D02*
X0294545Y0005840D01*
X0292589Y0005852D01*
X0292589Y0036933D01*
X0294545Y0005840D02*
X0320119Y0005646D01*
X0320148Y0005675D01*
X0320119Y0005646D02*
X0343770Y0005437D01*
X0344518Y0006185D01*
X0379203Y0005437D02*
X0379203Y0039965D01*
X0389045Y0039965D01*
X0379203Y0039965D02*
X0379203Y0088114D01*
X0412667Y0027091D02*
X0412667Y0005437D01*
X0436289Y0005437D02*
X0436289Y0025122D01*
X0477470Y0081303D02*
X0477628Y0081461D01*
X0477628Y0086146D01*
X0483533Y0092051D01*
X0515030Y0092051D01*
X0525030Y0082051D01*
X0530344Y0082051D01*
X0575896Y0082051D01*
X0576053Y0082209D01*
X0570148Y0080240D02*
X0570148Y0062524D01*
X0570148Y0080240D02*
X0570148Y0101894D01*
X0570148Y0153075D02*
X0570148Y0172760D01*
X0570148Y0192445D01*
X0576053Y0172760D02*
X0575896Y0172602D01*
X0544400Y0172602D01*
X0534715Y0162917D01*
X0516998Y0162917D01*
X0509124Y0155043D01*
X0503219Y0155043D01*
X0502470Y0155791D01*
X0552431Y0249531D02*
X0544557Y0257406D01*
X0544557Y0296776D01*
X0556368Y0308587D01*
X0546526Y0318429D01*
X0487470Y0318429D01*
X0542589Y0368626D02*
X0576053Y0368626D01*
X0556368Y0249531D02*
X0552431Y0249531D01*
D32*
X0548494Y0202287D03*
X0465817Y0212130D03*
X0465817Y0237720D03*
X0465817Y0277091D03*
X0442195Y0275122D03*
X0432352Y0275122D03*
X0406762Y0251500D03*
X0373297Y0290870D03*
X0345738Y0322366D03*
X0333927Y0312524D03*
X0326053Y0302681D03*
X0312274Y0300713D03*
X0326053Y0284965D03*
X0318179Y0275122D03*
X0310305Y0271185D03*
X0292589Y0253469D03*
X0280778Y0257406D03*
X0268967Y0253469D03*
X0261093Y0237720D03*
X0268967Y0221972D03*
X0280778Y0218035D03*
X0286683Y0208193D03*
X0292589Y0221972D03*
X0300463Y0237720D03*
X0351644Y0251500D03*
X0300463Y0196382D03*
X0290620Y0168823D03*
X0312274Y0168823D03*
X0253219Y0202287D03*
X0249281Y0206224D03*
X0249281Y0214098D03*
X0241407Y0214098D03*
X0225659Y0204256D03*
X0229596Y0194906D03*
X0196132Y0214098D03*
X0184321Y0218035D03*
X0180384Y0208193D03*
X0176447Y0198350D03*
X0164636Y0198350D03*
X0160699Y0208193D03*
X0172510Y0188508D03*
X0168573Y0178665D03*
X0131171Y0188508D03*
X0123297Y0190476D03*
X0127234Y0178665D03*
X0103612Y0174728D03*
X0095738Y0186539D03*
X0095738Y0194413D03*
X0099675Y0198350D03*
X0103612Y0214098D03*
X0107549Y0223941D03*
X0095738Y0235752D03*
X0081959Y0220004D03*
X0078022Y0186539D03*
X0127234Y0160949D03*
X0127234Y0151106D03*
X0127234Y0111736D03*
X0135108Y0105831D03*
X0156762Y0076303D03*
X0172510Y0060555D03*
X0176447Y0064492D03*
X0180384Y0070398D03*
X0184321Y0078272D03*
X0168573Y0056618D03*
X0160699Y0044807D03*
X0074085Y0092051D03*
X0074085Y0111736D03*
X0221722Y0226402D03*
X0233533Y0228370D03*
X0225659Y0237720D03*
X0215817Y0242524D03*
X0211880Y0248547D03*
X0229596Y0253469D03*
X0196132Y0263311D03*
X0196132Y0282996D03*
X0213848Y0298744D03*
X0219754Y0298744D03*
X0213848Y0308587D03*
X0219754Y0312524D03*
X0213848Y0318429D03*
X0209911Y0324335D03*
X0227628Y0332209D03*
X0223691Y0340083D03*
X0219754Y0345988D03*
X0223691Y0349925D03*
X0227628Y0353862D03*
X0231565Y0349925D03*
X0235502Y0345988D03*
X0243376Y0351894D03*
X0239439Y0355831D03*
X0239439Y0361736D03*
X0231565Y0357799D03*
X0253219Y0355831D03*
X0265030Y0365476D03*
X0265030Y0370398D03*
X0265030Y0375516D03*
X0276841Y0375516D03*
X0290620Y0391264D03*
X0274872Y0399138D03*
X0270935Y0405043D03*
X0259124Y0399138D03*
X0249281Y0399138D03*
X0211880Y0377484D03*
X0207943Y0369610D03*
X0194163Y0361736D03*
X0188258Y0357799D03*
X0180384Y0353862D03*
X0176447Y0342051D03*
X0168573Y0344020D03*
X0168573Y0333587D03*
X0156762Y0326303D03*
X0152825Y0334177D03*
X0146919Y0322366D03*
X0146919Y0314492D03*
X0113455Y0326303D03*
X0076053Y0314492D03*
X0076053Y0298744D03*
X0079990Y0288902D03*
X0083927Y0279059D03*
X0107549Y0269217D03*
X0123297Y0286933D03*
X0131171Y0268035D03*
X0154793Y0353862D03*
X0146919Y0361736D03*
X0142982Y0367642D03*
X0182352Y0373547D03*
X0188258Y0377484D03*
X0194163Y0383390D03*
X0192195Y0420791D03*
X0200069Y0430634D03*
X0211880Y0442445D03*
X0178415Y0444413D03*
X0176447Y0428665D03*
X0160699Y0438508D03*
X0160699Y0445398D03*
X0154793Y0430634D03*
X0158730Y0422760D03*
X0142982Y0442445D03*
X0249281Y0464098D03*
X0270935Y0464098D03*
X0268967Y0442445D03*
X0324085Y0430634D03*
X0341801Y0446382D03*
X0365423Y0426697D03*
X0394951Y0426697D03*
X0410699Y0426697D03*
X0426447Y0426697D03*
X0434321Y0428665D03*
X0434321Y0458193D03*
X0418573Y0458193D03*
X0475659Y0462130D03*
X0481565Y0462130D03*
X0465817Y0397169D03*
X0461880Y0393232D03*
X0457943Y0389295D03*
X0473691Y0383390D03*
X0491407Y0379453D03*
X0505187Y0373547D03*
X0548494Y0330240D03*
X0544557Y0326303D03*
X0465817Y0316461D03*
X0442195Y0306618D03*
X0432352Y0302681D03*
X0428415Y0344020D03*
X0438258Y0369610D03*
X0365423Y0389295D03*
X0359518Y0389295D03*
X0353612Y0389295D03*
X0331959Y0395201D03*
X0329990Y0373547D03*
X0324085Y0359768D03*
X0316211Y0373547D03*
X0304400Y0373547D03*
X0292589Y0359768D03*
X0292589Y0353862D03*
X0292589Y0336146D03*
X0310305Y0330240D03*
X0328022Y0330240D03*
X0324085Y0344020D03*
X0335896Y0347957D03*
X0276841Y0330240D03*
X0259124Y0324335D03*
X0255187Y0318429D03*
X0247313Y0338114D03*
X0420541Y0107799D03*
X0412667Y0057839D03*
X0357549Y0027091D03*
X0326053Y0046776D03*
X0298494Y0027091D03*
X0286683Y0027091D03*
X0544557Y0052681D03*
D33*
X0576053Y0082209D03*
X0532746Y0005437D03*
X0467785Y0054650D03*
X0467785Y0109768D03*
X0379203Y0088114D03*
X0379203Y0162917D03*
X0379203Y0204256D03*
X0379203Y0251500D03*
X0487470Y0318429D03*
X0576053Y0279059D03*
X0576053Y0368626D03*
X0576053Y0473941D03*
X0294557Y0473941D03*
X0282746Y0452287D03*
X0202037Y0405043D03*
X0160699Y0473941D03*
X0056368Y0473941D03*
X0056368Y0353862D03*
X0190226Y0178665D03*
X0190226Y0155043D03*
X0190226Y0131421D03*
X0257156Y0129453D03*
X0190226Y0019217D03*
X0131171Y0005437D03*
X0056368Y0072366D03*
X0091801Y0082209D03*
X0097825Y0131303D03*
X0097707Y0147169D03*
X0280778Y0013311D03*
X0343770Y0005437D03*
X0576053Y0172760D03*
D34*
X0575896Y0172602D02*
X0570305Y0172602D01*
X0570148Y0172760D01*
X0548494Y0202287D02*
X0530778Y0220004D01*
X0491407Y0220004D01*
X0491211Y0220201D01*
X0491211Y0221972D01*
X0483730Y0221972D02*
X0483730Y0204256D01*
X0483730Y0194217D01*
X0491407Y0186539D01*
X0501722Y0186539D01*
X0502470Y0185791D01*
X0509124Y0182445D02*
X0509124Y0190476D01*
X0495344Y0204256D01*
X0491211Y0204256D01*
X0465817Y0212130D02*
X0459911Y0206224D01*
X0459911Y0190280D01*
X0459911Y0182799D02*
X0465463Y0182799D01*
X0472470Y0175791D01*
X0470030Y0175791D01*
X0459911Y0165673D01*
X0459911Y0153232D02*
X0472470Y0165791D01*
X0480659Y0165791D01*
X0499281Y0147169D01*
X0514675Y0147169D01*
X0520463Y0152957D01*
X0513061Y0166854D02*
X0503533Y0166854D01*
X0502470Y0165791D01*
X0502470Y0175791D02*
X0509124Y0182445D01*
X0513061Y0166854D02*
X0548494Y0202287D01*
X0524872Y0228665D02*
X0502037Y0259374D01*
X0497470Y0259374D01*
X0487628Y0269217D01*
X0465817Y0269217D01*
X0446329Y0290673D01*
X0410699Y0290673D01*
X0410699Y0283193D02*
X0391014Y0283193D01*
X0392982Y0288902D02*
X0391014Y0290673D01*
X0373494Y0290673D01*
X0373297Y0290870D01*
X0373100Y0290673D01*
X0367392Y0290673D01*
X0365423Y0288902D01*
X0367392Y0283193D02*
X0347707Y0283193D01*
X0347707Y0269217D01*
X0349675Y0271185D01*
X0357549Y0267248D02*
X0361486Y0271185D01*
X0357549Y0267248D02*
X0357549Y0245594D01*
X0347707Y0235752D01*
X0347707Y0231618D01*
X0361683Y0231618D01*
X0364203Y0229098D01*
X0364203Y0219098D02*
X0357234Y0212130D01*
X0347707Y0212130D01*
X0347707Y0224138D01*
X0326053Y0224138D01*
X0326053Y0231618D02*
X0347707Y0231618D01*
X0339439Y0247760D02*
X0343179Y0251500D01*
X0351644Y0251500D01*
X0339439Y0247760D02*
X0326053Y0247760D01*
X0326053Y0255240D02*
X0326053Y0284965D01*
X0326053Y0302681D02*
X0432352Y0302681D01*
X0446132Y0296776D02*
X0353809Y0296776D01*
X0347707Y0290673D01*
X0396919Y0271185D02*
X0400856Y0267248D01*
X0400856Y0245594D01*
X0410699Y0235752D01*
X0410699Y0231618D01*
X0406722Y0231618D01*
X0394203Y0219098D01*
X0399203Y0212130D02*
X0394203Y0209098D01*
X0399203Y0212130D02*
X0410699Y0212130D01*
X0410699Y0224138D01*
X0432352Y0224138D01*
X0432352Y0231618D02*
X0410699Y0231618D01*
X0418967Y0247760D02*
X0415226Y0251500D01*
X0406762Y0251500D01*
X0418967Y0247760D02*
X0432352Y0247760D01*
X0432352Y0255240D02*
X0432352Y0275122D01*
X0442195Y0275122D02*
X0442195Y0129453D01*
X0431171Y0118429D01*
X0436289Y0118429D01*
X0431171Y0118429D02*
X0420541Y0107799D01*
X0426447Y0095201D02*
X0436289Y0105043D01*
X0446132Y0109768D02*
X0446132Y0091303D01*
X0436132Y0081303D01*
X0446132Y0081303D02*
X0455974Y0071461D01*
X0455974Y0062327D01*
X0436289Y0062327D01*
X0432156Y0054846D02*
X0426447Y0060555D01*
X0426447Y0095201D01*
X0446132Y0109768D02*
X0454793Y0118429D01*
X0455974Y0118429D01*
X0467785Y0109768D02*
X0467982Y0109571D01*
X0487470Y0109571D01*
X0487470Y0102091D02*
X0520108Y0102091D01*
X0520423Y0101776D01*
X0497470Y0081303D02*
X0497470Y0064453D01*
X0497313Y0062327D01*
X0497313Y0054846D02*
X0514872Y0054846D01*
X0520463Y0062406D01*
X0536683Y0042839D02*
X0544557Y0052681D01*
X0536683Y0042839D02*
X0491604Y0042839D01*
X0477628Y0054846D01*
X0477628Y0062327D02*
X0487470Y0074138D01*
X0487470Y0081303D01*
X0467589Y0054846D02*
X0467785Y0054650D01*
X0467589Y0054846D02*
X0455974Y0054846D01*
X0436289Y0054846D02*
X0432156Y0054846D01*
X0436289Y0054846D02*
X0436289Y0036933D01*
X0412667Y0046776D02*
X0412667Y0057839D01*
X0394951Y0086343D02*
X0394754Y0088114D01*
X0379203Y0088114D01*
X0363652Y0088114D01*
X0363455Y0086343D01*
X0363455Y0093823D02*
X0369360Y0099728D01*
X0369360Y0113705D01*
X0364518Y0118547D01*
X0364203Y0118547D01*
X0364203Y0108547D02*
X0349675Y0094020D01*
X0349675Y0038902D01*
X0343770Y0032996D01*
X0321644Y0032996D01*
X0313022Y0041618D01*
X0313022Y0051618D02*
X0311959Y0052681D01*
X0296526Y0052681D01*
X0292589Y0048744D01*
X0290620Y0046776D01*
X0261093Y0046776D01*
X0257156Y0050713D01*
X0257156Y0076303D01*
X0262470Y0081618D01*
X0268219Y0081618D01*
X0268219Y0091618D02*
X0270699Y0091618D01*
X0271132Y0092051D01*
X0288848Y0074335D01*
X0296329Y0074335D02*
X0310305Y0074335D01*
X0313022Y0071618D01*
X0303022Y0061618D01*
X0268219Y0061618D01*
X0268219Y0041618D02*
X0256407Y0041618D01*
X0249281Y0048744D01*
X0249281Y0090083D01*
X0257156Y0097957D01*
X0288848Y0097957D01*
X0296329Y0097957D02*
X0302431Y0097957D01*
X0338770Y0061618D01*
X0343022Y0061618D01*
X0337864Y0046776D02*
X0326053Y0046776D01*
X0337864Y0046776D02*
X0343022Y0041618D01*
X0357549Y0027091D02*
X0298494Y0027091D01*
X0286683Y0027091D02*
X0242746Y0027091D01*
X0238219Y0031618D01*
X0238219Y0041618D02*
X0236722Y0041618D01*
X0217785Y0060555D01*
X0217785Y0086146D01*
X0211880Y0092051D01*
X0203258Y0092051D01*
X0202510Y0091303D01*
X0211880Y0095988D02*
X0190226Y0095988D01*
X0154793Y0061776D01*
X0154793Y0051303D01*
X0142510Y0051303D01*
X0142510Y0081303D02*
X0141604Y0082209D01*
X0142510Y0091303D02*
X0141762Y0092051D01*
X0142510Y0101303D02*
X0139636Y0101303D01*
X0142510Y0111303D02*
X0142077Y0111736D01*
X0142510Y0131303D02*
X0142510Y0136657D01*
X0151053Y0145201D01*
X0158533Y0145201D02*
X0176447Y0145201D01*
X0190226Y0131421D01*
X0174478Y0162917D02*
X0158533Y0162917D01*
X0151053Y0162917D02*
X0142510Y0171461D01*
X0142510Y0178626D01*
X0174478Y0162917D02*
X0190226Y0178665D01*
X0235502Y0157012D02*
X0235502Y0119610D01*
X0211880Y0095988D01*
X0268967Y0129453D02*
X0268967Y0131421D01*
X0270935Y0131421D01*
X0268967Y0131421D02*
X0268967Y0131618D01*
X0235502Y0157012D02*
X0253415Y0174925D01*
X0265030Y0174925D01*
X0265030Y0182406D02*
X0274911Y0182406D01*
X0278652Y0178665D01*
X0288652Y0178665D02*
X0288652Y0170791D01*
X0290620Y0168823D01*
X0298494Y0178508D02*
X0298652Y0178665D01*
X0302392Y0182406D01*
X0312274Y0182406D01*
X0347707Y0182406D01*
X0347707Y0174925D02*
X0347707Y0162720D01*
X0331762Y0162720D01*
X0324085Y0155043D01*
X0312470Y0155043D01*
X0312274Y0155240D01*
X0312274Y0162720D02*
X0312274Y0168823D01*
X0312274Y0174925D01*
X0347707Y0174925D02*
X0367392Y0174925D01*
X0367392Y0182406D02*
X0353415Y0196382D01*
X0347707Y0200319D01*
X0364203Y0209098D02*
X0369045Y0204256D01*
X0379203Y0204256D01*
X0389045Y0204256D01*
X0394203Y0199098D01*
X0401329Y0206224D01*
X0422510Y0206224D01*
X0422510Y0188508D01*
X0416604Y0182602D01*
X0410896Y0182602D01*
X0410699Y0182406D01*
X0410699Y0174925D02*
X0391014Y0174925D01*
X0391014Y0182406D02*
X0396722Y0182406D01*
X0410699Y0200319D01*
X0410896Y0200319D01*
X0410699Y0174925D02*
X0410699Y0162720D01*
X0410699Y0155240D02*
X0391014Y0155240D01*
X0391014Y0162720D02*
X0390817Y0162917D01*
X0379203Y0162917D01*
X0367589Y0162917D01*
X0367392Y0162720D01*
X0367392Y0155240D02*
X0347707Y0155240D01*
X0347707Y0133390D01*
X0347707Y0121579D02*
X0358612Y0128547D01*
X0364203Y0128547D01*
X0364203Y0138547D01*
X0394203Y0128547D02*
X0394203Y0118547D01*
X0409793Y0118547D01*
X0410699Y0121579D01*
X0410699Y0133390D02*
X0410699Y0155240D01*
X0459911Y0153232D02*
X0459911Y0152287D01*
X0467785Y0109768D02*
X0461880Y0103862D01*
X0457156Y0103862D01*
X0455974Y0105043D01*
X0394203Y0108547D02*
X0394203Y0096539D01*
X0394951Y0093823D01*
X0313022Y0071618D02*
X0312274Y0072366D01*
X0202510Y0041303D02*
X0189793Y0041303D01*
X0068022Y0205240D02*
X0067195Y0205240D01*
X0123297Y0309650D02*
X0141486Y0309650D01*
X0142510Y0308626D01*
X0142549Y0308587D01*
X0148888Y0308587D01*
X0164636Y0324335D01*
X0186486Y0324335D01*
X0193967Y0324335D02*
X0202510Y0315791D01*
X0202510Y0308626D01*
X0213848Y0318429D02*
X0255187Y0318429D01*
X0259124Y0324335D02*
X0209911Y0324335D01*
X0207943Y0369610D02*
X0204006Y0373547D01*
X0182352Y0373547D01*
X0188258Y0377484D02*
X0211880Y0377484D01*
X0176644Y0405240D02*
X0176447Y0405043D01*
X0176644Y0405240D02*
X0176644Y0412917D01*
X0168284Y0421277D01*
X0168284Y0425476D01*
X0168284Y0430476D02*
X0168126Y0430634D01*
X0162667Y0430634D01*
X0154793Y0438508D01*
X0154793Y0454256D01*
X0153022Y0456028D01*
X0148888Y0456028D01*
X0133140Y0456028D01*
X0133140Y0448547D02*
X0132600Y0448008D01*
X0109518Y0448008D01*
X0109518Y0429008D02*
X0131711Y0429008D01*
X0133140Y0430437D01*
X0133140Y0432602D01*
X0142982Y0442445D01*
X0148888Y0448547D02*
X0148888Y0430437D01*
X0154596Y0430437D01*
X0154793Y0430634D01*
X0158533Y0422957D02*
X0148888Y0422957D01*
X0133140Y0422957D01*
X0158533Y0422957D02*
X0158730Y0422760D01*
X0164636Y0434571D02*
X0167378Y0434571D01*
X0168284Y0435476D01*
X0164636Y0434571D02*
X0160699Y0438508D01*
X0160699Y0445398D02*
X0169189Y0445398D01*
X0168284Y0445476D01*
X0169189Y0445398D02*
X0176447Y0445398D01*
X0178415Y0444413D01*
X0184124Y0446382D02*
X0185030Y0445476D01*
X0192484Y0445476D01*
X0184124Y0446382D02*
X0184124Y0450319D01*
X0183967Y0450476D01*
X0168284Y0450476D01*
X0168284Y0440476D02*
X0172510Y0440476D01*
X0176447Y0436539D01*
X0176447Y0428665D01*
X0184124Y0434571D02*
X0184124Y0412917D01*
X0192195Y0420791D02*
X0192484Y0421080D01*
X0192484Y0425476D01*
X0192484Y0430476D02*
X0199911Y0430476D01*
X0200069Y0430634D01*
X0192484Y0435476D02*
X0185030Y0435476D01*
X0184124Y0434571D01*
X0184124Y0446382D01*
X0184124Y0450319D02*
X0184124Y0454059D01*
X0186289Y0456224D01*
X0191736Y0456224D01*
X0192484Y0455476D01*
X0195004Y0457996D01*
X0211880Y0457996D01*
X0219951Y0457996D01*
X0227628Y0450319D01*
X0233337Y0450319D01*
X0235502Y0450516D01*
X0235502Y0457996D02*
X0241604Y0464098D01*
X0249281Y0464098D01*
X0259124Y0458193D02*
X0268967Y0468035D01*
X0297589Y0468035D01*
X0314242Y0451382D01*
X0324085Y0451539D02*
X0324242Y0451382D01*
X0338927Y0466067D01*
X0365423Y0466067D01*
X0369360Y0462130D01*
X0369360Y0457996D01*
X0369360Y0450516D02*
X0353612Y0450516D01*
X0353612Y0450319D01*
X0338396Y0430634D01*
X0324085Y0430634D01*
X0294222Y0430634D01*
X0274872Y0450516D01*
X0259124Y0450516D01*
X0259124Y0457996D02*
X0259124Y0458193D01*
X0270935Y0464098D02*
X0292589Y0464098D01*
X0304242Y0452445D01*
X0304242Y0451382D01*
X0294242Y0451382D02*
X0287628Y0457996D01*
X0274872Y0457996D01*
X0294242Y0441382D02*
X0300463Y0435161D01*
X0301250Y0434571D01*
X0329400Y0434571D01*
X0334242Y0441382D01*
X0334242Y0451382D02*
X0340856Y0457996D01*
X0353612Y0457996D01*
X0369360Y0450516D02*
X0394951Y0450516D01*
X0394951Y0440280D01*
X0410699Y0440280D01*
X0426447Y0440280D01*
X0442195Y0440280D01*
X0442195Y0432799D02*
X0442392Y0432602D01*
X0426447Y0432799D02*
X0426447Y0426697D01*
X0410699Y0426697D02*
X0410699Y0432799D01*
X0394951Y0432799D02*
X0394951Y0426697D01*
X0394951Y0450516D02*
X0410699Y0450516D01*
X0426447Y0450516D01*
X0442195Y0450516D01*
X0442195Y0457996D02*
X0442392Y0458193D01*
X0434518Y0457996D02*
X0434321Y0458193D01*
X0426447Y0457996D02*
X0418770Y0457996D01*
X0418573Y0458193D01*
X0410699Y0457996D02*
X0410699Y0462130D01*
X0412667Y0464098D01*
X0473691Y0464098D01*
X0475659Y0462130D01*
X0475659Y0468035D02*
X0481565Y0462130D01*
X0475659Y0468035D02*
X0398888Y0468035D01*
X0394951Y0464098D01*
X0394951Y0457996D01*
X0329990Y0359768D02*
X0324085Y0359768D01*
X0324085Y0344020D02*
X0329990Y0344020D01*
X0410699Y0283193D02*
X0410699Y0269217D01*
X0408730Y0271185D01*
X0446132Y0296776D02*
X0459911Y0308587D01*
X0487470Y0308587D01*
X0497313Y0298744D01*
X0497470Y0298744D01*
X0513848Y0298744D01*
X0524872Y0287720D01*
X0477628Y0284768D02*
X0477628Y0298587D01*
X0477470Y0298744D01*
X0477628Y0316657D02*
X0466014Y0316657D01*
X0465817Y0316461D01*
X0477628Y0324138D02*
X0477628Y0337957D01*
X0477470Y0338114D01*
X0483691Y0351894D02*
X0456880Y0351894D01*
X0450069Y0345083D01*
X0429478Y0345083D01*
X0428415Y0344020D01*
X0483691Y0351894D02*
X0497470Y0338114D01*
X0532746Y0358587D02*
X0532746Y0358783D01*
X0532746Y0368823D01*
X0532746Y0368626D02*
X0542589Y0368626D01*
X0542589Y0358783D01*
X0532746Y0358783D01*
X0477628Y0277287D02*
X0466014Y0277287D01*
X0465817Y0277091D01*
X0477470Y0259374D02*
X0477628Y0259217D01*
X0477628Y0245398D01*
X0477628Y0237917D02*
X0466014Y0237917D01*
X0465817Y0237720D01*
X0571959Y0082051D02*
X0570148Y0080240D01*
X0571959Y0082051D02*
X0575896Y0082051D01*
X0211880Y0442445D02*
X0211880Y0450516D01*
X0211880Y0473547D02*
X0212274Y0473941D01*
X0087707Y0362720D02*
X0087707Y0352878D01*
D35*
X0087707Y0343035D02*
X0106407Y0361736D01*
X0146919Y0361736D01*
X0142982Y0367642D02*
X0081959Y0367642D01*
X0076053Y0361736D01*
X0076053Y0314492D01*
X0072943Y0308587D02*
X0068022Y0303665D01*
X0070148Y0298744D02*
X0064242Y0298744D01*
X0062274Y0296776D01*
X0062274Y0260201D01*
X0068022Y0254453D01*
X0068022Y0264295D02*
X0079006Y0264295D01*
X0083927Y0259374D01*
X0131171Y0259374D01*
X0135108Y0262524D01*
X0171722Y0262524D01*
X0192195Y0282996D01*
X0196132Y0282996D01*
X0192195Y0279059D02*
X0202077Y0279059D01*
X0202510Y0278626D01*
X0202943Y0279059D01*
X0263061Y0279059D01*
X0266998Y0282996D01*
X0292589Y0282996D01*
X0296526Y0286933D01*
X0296526Y0320398D01*
X0298494Y0320398D02*
X0298494Y0282996D01*
X0294557Y0279059D01*
X0266998Y0279059D01*
X0237470Y0249531D01*
X0245344Y0249531D02*
X0266998Y0271185D01*
X0296526Y0271185D01*
X0300463Y0275122D01*
X0300463Y0320398D01*
X0302431Y0320398D02*
X0302431Y0336146D01*
X0292589Y0336146D02*
X0286683Y0330240D01*
X0282746Y0330240D01*
X0282746Y0328272D02*
X0280778Y0328272D01*
X0278809Y0326303D01*
X0276841Y0326303D01*
X0276841Y0308587D01*
X0213848Y0308587D01*
X0219754Y0312524D02*
X0272904Y0312524D01*
X0272904Y0334177D01*
X0282746Y0334177D01*
X0282746Y0332209D02*
X0278809Y0332209D01*
X0276841Y0330240D01*
X0282746Y0336146D02*
X0270935Y0336146D01*
X0266998Y0332209D01*
X0227628Y0332209D01*
X0229596Y0336146D02*
X0225659Y0336146D01*
X0219754Y0330240D01*
X0166604Y0330240D01*
X0150856Y0314492D01*
X0146919Y0314492D01*
X0146919Y0322366D02*
X0107549Y0322366D01*
X0088848Y0303665D01*
X0087707Y0303665D01*
X0089833Y0308587D02*
X0072943Y0308587D01*
X0074085Y0302681D02*
X0070148Y0298744D01*
X0074085Y0302681D02*
X0079990Y0302681D01*
X0083927Y0298744D01*
X0091801Y0298744D01*
X0097707Y0304650D01*
X0137077Y0304650D01*
X0142510Y0299217D01*
X0142510Y0298626D01*
X0148533Y0304650D01*
X0290620Y0304650D01*
X0290620Y0320398D01*
X0292589Y0320398D02*
X0292589Y0302681D01*
X0156565Y0302681D01*
X0142510Y0288626D01*
X0137352Y0288626D01*
X0131171Y0294807D01*
X0097707Y0294807D01*
X0091801Y0288902D01*
X0079990Y0288902D01*
X0076053Y0281028D02*
X0076053Y0298744D01*
X0089833Y0308587D02*
X0111486Y0330240D01*
X0148888Y0330240D01*
X0152825Y0334177D01*
X0164636Y0345988D01*
X0164636Y0377484D01*
X0182352Y0395201D01*
X0251250Y0395201D01*
X0255187Y0399138D01*
X0259124Y0399138D01*
X0249281Y0399138D02*
X0180384Y0399138D01*
X0160699Y0379453D01*
X0160699Y0347957D01*
X0122156Y0347957D01*
X0087707Y0313508D01*
X0087707Y0333193D02*
X0108376Y0353862D01*
X0154793Y0353862D01*
X0168573Y0344020D02*
X0150856Y0326303D01*
X0113455Y0326303D01*
X0156762Y0326303D02*
X0172510Y0342051D01*
X0172510Y0373547D01*
X0186289Y0387327D01*
X0261093Y0387327D01*
X0261093Y0361736D01*
X0282746Y0361736D01*
X0282746Y0359768D02*
X0292589Y0359768D01*
X0292589Y0353862D02*
X0282746Y0353862D01*
X0280778Y0353862D01*
X0282746Y0351894D02*
X0249281Y0351894D01*
X0245344Y0355831D01*
X0239439Y0355831D01*
X0243376Y0351894D02*
X0245344Y0349925D01*
X0282746Y0349925D01*
X0282746Y0347957D02*
X0239439Y0347957D01*
X0237470Y0349925D01*
X0231565Y0349925D01*
X0235502Y0345988D02*
X0237470Y0344020D01*
X0282746Y0344020D01*
X0282746Y0345988D02*
X0298494Y0345988D01*
X0282746Y0342051D02*
X0225659Y0342051D01*
X0223691Y0340083D01*
X0219754Y0335358D02*
X0217785Y0333587D01*
X0168573Y0333587D01*
X0168573Y0344020D02*
X0168573Y0375516D01*
X0184321Y0391264D01*
X0266998Y0391264D01*
X0272904Y0385358D01*
X0272904Y0373547D01*
X0274872Y0371579D01*
X0282746Y0371579D01*
X0282746Y0373547D02*
X0278809Y0373547D01*
X0276841Y0375516D01*
X0282746Y0375516D02*
X0288652Y0375516D01*
X0289636Y0376500D01*
X0290620Y0383390D02*
X0290620Y0387327D01*
X0286683Y0387327D01*
X0274872Y0399138D01*
X0270935Y0405043D02*
X0282746Y0405043D01*
X0294557Y0393232D01*
X0294557Y0383390D01*
X0292589Y0383390D02*
X0292589Y0389295D01*
X0290620Y0391264D01*
X0296526Y0383390D02*
X0296526Y0422760D01*
X0428415Y0422760D01*
X0434321Y0428665D01*
X0442195Y0424728D02*
X0438258Y0420791D01*
X0298494Y0420791D01*
X0298494Y0383390D01*
X0300463Y0383390D02*
X0300463Y0418823D01*
X0440226Y0418823D01*
X0454006Y0432602D01*
X0522904Y0432602D01*
X0527825Y0437524D01*
X0532746Y0437524D01*
X0536683Y0442445D02*
X0526841Y0442445D01*
X0520935Y0436539D01*
X0450069Y0436539D01*
X0446132Y0432602D01*
X0442392Y0432602D01*
X0442195Y0432799D02*
X0442195Y0424728D01*
X0442195Y0416854D02*
X0302431Y0416854D01*
X0302431Y0383390D01*
X0304400Y0383390D02*
X0304400Y0373547D01*
X0310305Y0367642D02*
X0312274Y0369610D01*
X0312274Y0383390D01*
X0314242Y0383390D02*
X0314242Y0375516D01*
X0316211Y0373547D01*
X0322116Y0367642D02*
X0322116Y0383390D01*
X0320148Y0383390D02*
X0320148Y0405043D01*
X0454006Y0405043D01*
X0455974Y0403075D01*
X0536683Y0403075D01*
X0541604Y0407996D01*
X0542589Y0407996D01*
X0536683Y0412917D02*
X0455974Y0412917D01*
X0452037Y0408980D01*
X0316211Y0408980D01*
X0316211Y0383390D01*
X0318179Y0383390D02*
X0318179Y0407012D01*
X0454006Y0407012D01*
X0455974Y0408980D01*
X0531762Y0408980D01*
X0532746Y0407996D01*
X0536683Y0412917D02*
X0541604Y0417839D01*
X0542589Y0417839D01*
X0536683Y0422760D02*
X0528809Y0422760D01*
X0526841Y0420791D01*
X0454006Y0420791D01*
X0446132Y0412917D01*
X0308337Y0412917D01*
X0308337Y0383390D01*
X0310305Y0383390D02*
X0310305Y0410949D01*
X0450069Y0410949D01*
X0455974Y0416854D01*
X0531762Y0416854D01*
X0532746Y0417839D01*
X0536683Y0422760D02*
X0541604Y0427681D01*
X0542589Y0427681D01*
X0536683Y0432602D02*
X0528809Y0432602D01*
X0524872Y0428665D01*
X0454006Y0428665D01*
X0442195Y0416854D01*
X0444163Y0414886D02*
X0306368Y0414886D01*
X0306368Y0383390D01*
X0324085Y0383390D02*
X0324085Y0403075D01*
X0448100Y0403075D01*
X0454006Y0397169D01*
X0465817Y0397169D01*
X0531762Y0397169D01*
X0532746Y0398154D01*
X0536683Y0393232D02*
X0461880Y0393232D01*
X0454006Y0393232D01*
X0446132Y0401106D01*
X0326053Y0401106D01*
X0326053Y0383390D01*
X0328022Y0383390D02*
X0328022Y0399138D01*
X0444163Y0399138D01*
X0454006Y0389295D01*
X0457943Y0389295D01*
X0531762Y0389295D01*
X0532746Y0388311D01*
X0536683Y0393232D02*
X0541604Y0398154D01*
X0542589Y0398154D01*
X0542589Y0388311D02*
X0537667Y0383390D01*
X0473691Y0383390D01*
X0455974Y0383390D01*
X0442195Y0397169D01*
X0335896Y0397169D01*
X0335896Y0393232D01*
X0331959Y0391264D01*
X0331959Y0383390D01*
X0333927Y0383390D02*
X0333927Y0389295D01*
X0334321Y0389689D01*
X0337864Y0391264D01*
X0337864Y0395201D01*
X0440226Y0395201D01*
X0461880Y0373547D01*
X0505187Y0373547D01*
X0537667Y0373547D01*
X0542589Y0378469D01*
X0532746Y0378469D02*
X0531762Y0379453D01*
X0491407Y0379453D01*
X0507156Y0365673D02*
X0436289Y0365673D01*
X0408730Y0393232D01*
X0339833Y0393232D01*
X0339833Y0389295D01*
X0336289Y0387720D01*
X0335896Y0387327D01*
X0335896Y0383390D01*
X0337864Y0383390D02*
X0337864Y0379453D01*
X0331959Y0373547D01*
X0329990Y0373547D01*
X0329990Y0383390D02*
X0329990Y0393232D01*
X0331959Y0395201D01*
X0353612Y0389295D02*
X0353612Y0357799D01*
X0351644Y0355831D01*
X0345738Y0355831D01*
X0345738Y0361736D02*
X0329990Y0361736D01*
X0335896Y0347957D02*
X0345738Y0347957D01*
X0333927Y0332209D02*
X0329990Y0336146D01*
X0333927Y0332209D02*
X0345738Y0332209D01*
X0345738Y0334177D02*
X0351644Y0334177D01*
X0359518Y0342051D01*
X0359518Y0389295D01*
X0365423Y0389295D02*
X0365423Y0336146D01*
X0337864Y0308587D01*
X0318179Y0308587D01*
X0318179Y0320398D01*
X0316211Y0320398D02*
X0316211Y0306618D01*
X0442195Y0306618D01*
X0507156Y0365673D02*
X0544557Y0326303D01*
X0548494Y0330240D02*
X0511093Y0369610D01*
X0438258Y0369610D01*
X0444163Y0414886D02*
X0454006Y0424728D01*
X0524872Y0424728D01*
X0526841Y0426697D01*
X0531762Y0426697D01*
X0532746Y0427681D01*
X0536683Y0432602D02*
X0541604Y0437524D01*
X0542589Y0437524D01*
X0536683Y0442445D02*
X0541604Y0447366D01*
X0542589Y0447366D01*
X0532746Y0447366D02*
X0525856Y0447366D01*
X0518967Y0440476D01*
X0485502Y0440476D01*
X0471722Y0458193D01*
X0442392Y0458193D01*
X0442195Y0457996D02*
X0434518Y0457996D01*
X0365423Y0426697D02*
X0284715Y0426697D01*
X0268967Y0442445D01*
X0314242Y0451382D02*
X0319242Y0446382D01*
X0341801Y0446382D01*
X0257156Y0383390D02*
X0194163Y0383390D01*
X0194163Y0361736D02*
X0239439Y0361736D01*
X0231565Y0357799D02*
X0188258Y0357799D01*
X0180384Y0353862D02*
X0227628Y0353862D01*
X0223691Y0349925D02*
X0215817Y0349925D01*
X0215817Y0342051D01*
X0176447Y0342051D01*
X0219754Y0345988D02*
X0219754Y0335358D01*
X0229596Y0336146D02*
X0231565Y0334177D01*
X0265030Y0334177D01*
X0268967Y0338114D01*
X0282746Y0338114D01*
X0282746Y0340083D02*
X0249281Y0340083D01*
X0247313Y0338114D01*
X0253219Y0355831D02*
X0282746Y0355831D01*
X0282746Y0357799D02*
X0257156Y0357799D01*
X0257156Y0383390D01*
X0265030Y0375516D02*
X0272904Y0369610D01*
X0282746Y0369610D01*
X0282746Y0367642D02*
X0268967Y0367642D01*
X0265030Y0370398D01*
X0265030Y0365476D02*
X0268179Y0363705D01*
X0282746Y0363705D01*
X0320148Y0336146D02*
X0320148Y0320398D01*
X0314242Y0320398D02*
X0314242Y0304650D01*
X0318179Y0302681D01*
X0318179Y0275122D01*
X0314242Y0273154D02*
X0312274Y0277091D01*
X0312274Y0300713D01*
X0312274Y0320398D01*
X0310305Y0320398D02*
X0310305Y0330240D01*
X0308337Y0320398D02*
X0308337Y0277091D01*
X0310305Y0273154D01*
X0310305Y0271185D01*
X0306368Y0269217D02*
X0306368Y0320398D01*
X0304400Y0320398D02*
X0304400Y0271185D01*
X0300463Y0267248D01*
X0266998Y0267248D01*
X0249281Y0249531D01*
X0249281Y0214098D01*
X0255187Y0210161D02*
X0257156Y0208193D01*
X0286683Y0208193D01*
X0298494Y0204256D02*
X0310305Y0216067D01*
X0310305Y0265280D01*
X0306368Y0269217D01*
X0314242Y0273154D02*
X0314242Y0214098D01*
X0300463Y0200319D01*
X0300463Y0196382D02*
X0269459Y0196382D01*
X0231073Y0157996D01*
X0231073Y0128961D01*
X0208435Y0106323D01*
X0157530Y0106323D01*
X0142510Y0091303D01*
X0141762Y0092051D02*
X0107549Y0092051D01*
X0097707Y0101894D01*
X0064242Y0101894D01*
X0062274Y0103862D01*
X0062274Y0200319D01*
X0067195Y0205240D01*
X0068022Y0195398D02*
X0069163Y0195398D01*
X0083927Y0210161D01*
X0111486Y0210161D01*
X0135108Y0233783D01*
X0136014Y0238626D02*
X0111486Y0214098D01*
X0103612Y0214098D01*
X0111486Y0220004D02*
X0137077Y0244689D01*
X0207746Y0244689D01*
X0211880Y0248547D01*
X0215817Y0242524D02*
X0194163Y0242524D01*
X0191132Y0238626D01*
X0142510Y0238626D01*
X0136014Y0238626D01*
X0136171Y0248626D02*
X0111486Y0223941D01*
X0107549Y0223941D01*
X0111486Y0220004D02*
X0081959Y0220004D01*
X0079006Y0224925D02*
X0083927Y0229846D01*
X0113455Y0229846D01*
X0137077Y0252484D01*
X0172510Y0252484D01*
X0188258Y0269217D01*
X0201919Y0269217D01*
X0202510Y0268626D01*
X0196132Y0263311D02*
X0194163Y0263311D01*
X0179478Y0248626D01*
X0142510Y0248626D01*
X0136171Y0248626D01*
X0135856Y0228626D02*
X0105581Y0198350D01*
X0099675Y0198350D01*
X0095738Y0194413D02*
X0095738Y0186539D01*
X0100659Y0187524D02*
X0100659Y0183587D01*
X0097707Y0180634D01*
X0092628Y0180634D01*
X0087707Y0185555D01*
X0078022Y0186539D02*
X0078022Y0111736D01*
X0127234Y0111736D01*
X0142077Y0111736D01*
X0135108Y0105831D02*
X0139636Y0101303D01*
X0141604Y0082209D02*
X0107549Y0082209D01*
X0097707Y0092051D01*
X0074085Y0092051D01*
X0074085Y0111736D02*
X0074085Y0191618D01*
X0087707Y0205240D01*
X0100659Y0187524D02*
X0137077Y0222642D01*
X0245344Y0222642D01*
X0245344Y0249531D01*
X0229596Y0253469D02*
X0205699Y0253469D01*
X0202510Y0258626D01*
X0202510Y0238626D02*
X0203415Y0237720D01*
X0210305Y0226303D02*
X0219754Y0226303D01*
X0221722Y0226402D01*
X0210305Y0226303D02*
X0208533Y0224650D01*
X0194163Y0224650D01*
X0191447Y0228626D01*
X0142510Y0228626D01*
X0135856Y0228626D01*
X0136093Y0214098D02*
X0095738Y0172760D01*
X0095738Y0164059D01*
X0087707Y0156028D01*
X0081959Y0169965D02*
X0087707Y0175713D01*
X0081959Y0169965D02*
X0081959Y0121579D01*
X0082234Y0121303D01*
X0142510Y0121303D01*
X0144675Y0121303D01*
X0148888Y0125516D01*
X0192195Y0125516D01*
X0194163Y0127484D01*
X0194163Y0143232D01*
X0186289Y0151106D01*
X0186289Y0158980D01*
X0190226Y0162917D01*
X0215817Y0162917D01*
X0211880Y0166854D02*
X0190226Y0166854D01*
X0174478Y0151106D01*
X0127234Y0151106D01*
X0127234Y0160949D02*
X0139045Y0160949D01*
X0144951Y0155043D01*
X0172510Y0155043D01*
X0188258Y0170791D01*
X0207943Y0170791D01*
X0202510Y0178626D02*
X0202470Y0178665D01*
X0196132Y0178665D01*
X0192195Y0182602D01*
X0188258Y0182602D01*
X0184321Y0178665D01*
X0168573Y0178665D01*
X0172510Y0188508D02*
X0202392Y0188508D01*
X0202510Y0188626D01*
X0210896Y0193429D02*
X0127234Y0193429D01*
X0123297Y0190476D01*
X0125266Y0184571D02*
X0217785Y0184571D01*
X0202510Y0198626D02*
X0202234Y0198350D01*
X0176447Y0198350D01*
X0166604Y0203469D02*
X0211880Y0203469D01*
X0202510Y0208626D02*
X0202077Y0208193D01*
X0180384Y0208193D01*
X0184321Y0218035D02*
X0201919Y0218035D01*
X0202510Y0218626D01*
X0196132Y0214098D02*
X0241407Y0214098D01*
X0255187Y0210161D02*
X0221722Y0210161D01*
X0196132Y0214098D02*
X0136093Y0214098D01*
X0142510Y0208626D02*
X0142943Y0208193D01*
X0160699Y0208193D01*
X0164636Y0198350D02*
X0142785Y0198350D01*
X0142510Y0198626D01*
X0142510Y0188626D02*
X0142392Y0188508D01*
X0131171Y0188508D01*
X0125266Y0184571D02*
X0115423Y0174728D01*
X0103612Y0174728D01*
X0079006Y0224925D02*
X0068022Y0224925D01*
X0068022Y0234768D02*
X0075069Y0234768D01*
X0079990Y0239689D01*
X0091801Y0239689D01*
X0095738Y0235752D01*
X0087707Y0254453D02*
X0167589Y0254650D01*
X0192195Y0279059D01*
X0194163Y0288902D02*
X0202234Y0288902D01*
X0202510Y0288626D01*
X0202785Y0288902D01*
X0292589Y0288902D01*
X0294557Y0290870D01*
X0294557Y0320398D01*
X0328022Y0320398D02*
X0328022Y0330240D01*
X0333927Y0320398D02*
X0333927Y0312524D01*
X0345738Y0322366D02*
X0345738Y0328272D01*
X0219754Y0298744D02*
X0213455Y0292445D01*
X0166722Y0292445D01*
X0142510Y0268626D01*
X0141919Y0269217D01*
X0135108Y0269217D01*
X0131171Y0273154D01*
X0131171Y0286933D01*
X0123297Y0286933D01*
X0129203Y0292051D02*
X0101644Y0292051D01*
X0093770Y0284965D01*
X0093770Y0282996D01*
X0089833Y0279059D01*
X0083927Y0279059D01*
X0082943Y0274138D02*
X0076053Y0281028D01*
X0068022Y0283980D02*
X0082785Y0269217D01*
X0107549Y0269217D01*
X0124281Y0274138D02*
X0087707Y0274138D01*
X0082943Y0274138D01*
X0087904Y0264492D02*
X0087707Y0264295D01*
X0087904Y0264492D02*
X0169557Y0264492D01*
X0194163Y0288902D01*
X0209911Y0294610D02*
X0209911Y0294807D01*
X0213848Y0298744D01*
X0209911Y0294610D02*
X0157785Y0294610D01*
X0142510Y0279531D01*
X0129203Y0292051D01*
X0142510Y0279531D02*
X0142510Y0278626D01*
X0131171Y0268035D02*
X0124281Y0274138D01*
X0263061Y0204256D02*
X0298494Y0204256D01*
X0184321Y0078272D02*
X0189321Y0071303D01*
X0202510Y0071303D01*
X0202510Y0061303D02*
X0187510Y0061303D01*
X0180384Y0070398D01*
X0176447Y0064492D02*
X0187667Y0051303D01*
X0202510Y0051303D01*
X0189793Y0041303D02*
X0172510Y0060555D01*
X0168573Y0056618D02*
X0189951Y0031303D01*
X0202510Y0031303D01*
X0160699Y0044807D02*
X0157195Y0041303D01*
X0142510Y0041303D01*
X0142510Y0071303D02*
X0151762Y0071303D01*
X0156762Y0076303D01*
D36*
X0288652Y0326303D02*
X0288652Y0329252D01*
X0288774Y0329374D01*
X0291964Y0332565D01*
X0293301Y0332565D01*
X0294617Y0333110D01*
X0295624Y0334117D01*
X0296170Y0335433D01*
X0296170Y0336858D01*
X0295624Y0338174D01*
X0294617Y0339182D01*
X0293301Y0339727D01*
X0291876Y0339727D01*
X0290560Y0339182D01*
X0289553Y0338174D01*
X0289007Y0336858D01*
X0289007Y0335521D01*
X0288652Y0335165D01*
X0288652Y0351772D01*
X0289615Y0351772D01*
X0290560Y0350826D01*
X0291876Y0350281D01*
X0293301Y0350281D01*
X0294617Y0350826D01*
X0295624Y0351834D01*
X0296170Y0353150D01*
X0296170Y0354575D01*
X0295624Y0355891D01*
X0294700Y0356815D01*
X0295624Y0357739D01*
X0296170Y0359055D01*
X0296170Y0360480D01*
X0295624Y0361796D01*
X0294617Y0362804D01*
X0293301Y0363349D01*
X0291876Y0363349D01*
X0290560Y0362804D01*
X0289615Y0361858D01*
X0288652Y0361858D01*
X0288652Y0377484D01*
X0302309Y0377484D01*
X0302309Y0376521D01*
X0301364Y0375576D01*
X0300819Y0374260D01*
X0300819Y0372835D01*
X0301364Y0371519D01*
X0302371Y0370511D01*
X0303687Y0369966D01*
X0305112Y0369966D01*
X0306428Y0370511D01*
X0307436Y0371519D01*
X0307981Y0372835D01*
X0307981Y0374260D01*
X0307436Y0375576D01*
X0306490Y0376521D01*
X0306490Y0377484D01*
X0312152Y0377484D01*
X0312152Y0374650D01*
X0312630Y0374172D01*
X0312630Y0372835D01*
X0313175Y0371519D01*
X0314182Y0370511D01*
X0315498Y0369966D01*
X0316923Y0369966D01*
X0318239Y0370511D01*
X0319247Y0371519D01*
X0319792Y0372835D01*
X0319792Y0374260D01*
X0319247Y0375576D01*
X0318239Y0376583D01*
X0316923Y0377128D01*
X0316333Y0377128D01*
X0316333Y0377484D01*
X0332939Y0377484D01*
X0332028Y0376573D01*
X0332019Y0376583D01*
X0330702Y0377128D01*
X0329278Y0377128D01*
X0327962Y0376583D01*
X0326954Y0375576D01*
X0326409Y0374260D01*
X0326409Y0372835D01*
X0326954Y0371519D01*
X0327962Y0370511D01*
X0329278Y0369966D01*
X0330702Y0369966D01*
X0332019Y0370511D01*
X0333026Y0371519D01*
X0333125Y0371757D01*
X0334049Y0372681D01*
X0338852Y0377484D01*
X0339833Y0377484D01*
X0339833Y0350047D01*
X0338870Y0350047D01*
X0337924Y0350993D01*
X0336608Y0351538D01*
X0335183Y0351538D01*
X0333867Y0350993D01*
X0332860Y0349985D01*
X0332315Y0348669D01*
X0332315Y0347244D01*
X0332860Y0345928D01*
X0333867Y0344921D01*
X0335183Y0344376D01*
X0336608Y0344376D01*
X0337924Y0344921D01*
X0338870Y0345866D01*
X0339833Y0345866D01*
X0339833Y0326303D01*
X0330112Y0326303D01*
X0330112Y0327266D01*
X0331058Y0328212D01*
X0331603Y0329528D01*
X0331603Y0330952D01*
X0331058Y0332269D01*
X0330050Y0333276D01*
X0328734Y0333821D01*
X0327309Y0333821D01*
X0325993Y0333276D01*
X0324986Y0332269D01*
X0324441Y0330952D01*
X0324441Y0329528D01*
X0324986Y0328212D01*
X0325931Y0327266D01*
X0325931Y0326303D01*
X0312396Y0326303D01*
X0312396Y0327266D01*
X0313341Y0328212D01*
X0313886Y0329528D01*
X0313886Y0330952D01*
X0313341Y0332269D01*
X0312334Y0333276D01*
X0311017Y0333821D01*
X0309593Y0333821D01*
X0308277Y0333276D01*
X0307269Y0332269D01*
X0306724Y0330952D01*
X0306724Y0329528D01*
X0307269Y0328212D01*
X0308215Y0327266D01*
X0308215Y0326303D01*
X0288652Y0326303D01*
X0288652Y0327596D02*
X0307885Y0327596D01*
X0306862Y0329195D02*
X0288652Y0329195D01*
X0288774Y0329374D02*
X0288774Y0329374D01*
X0290193Y0330793D02*
X0306724Y0330793D01*
X0307392Y0332392D02*
X0291791Y0332392D01*
X0295498Y0333990D02*
X0339833Y0333990D01*
X0339833Y0332392D02*
X0330934Y0332392D01*
X0331603Y0330793D02*
X0339833Y0330793D01*
X0339833Y0329195D02*
X0331465Y0329195D01*
X0330442Y0327596D02*
X0339833Y0327596D01*
X0339833Y0335589D02*
X0296170Y0335589D01*
X0296033Y0337187D02*
X0339833Y0337187D01*
X0339833Y0338786D02*
X0295013Y0338786D01*
X0290164Y0338786D02*
X0288652Y0338786D01*
X0288652Y0340384D02*
X0339833Y0340384D01*
X0339833Y0341983D02*
X0288652Y0341983D01*
X0288652Y0343581D02*
X0339833Y0343581D01*
X0339833Y0345180D02*
X0338183Y0345180D01*
X0333608Y0345180D02*
X0288652Y0345180D01*
X0288652Y0346778D02*
X0332508Y0346778D01*
X0332315Y0348377D02*
X0288652Y0348377D01*
X0288652Y0349975D02*
X0332856Y0349975D01*
X0339833Y0351574D02*
X0295365Y0351574D01*
X0296170Y0353172D02*
X0339833Y0353172D01*
X0339833Y0354771D02*
X0296088Y0354771D01*
X0295146Y0356370D02*
X0339833Y0356370D01*
X0339833Y0357968D02*
X0295719Y0357968D01*
X0296170Y0359567D02*
X0339833Y0359567D01*
X0339833Y0361165D02*
X0295886Y0361165D01*
X0294657Y0362764D02*
X0339833Y0362764D01*
X0339833Y0364362D02*
X0288652Y0364362D01*
X0288652Y0362764D02*
X0290520Y0362764D01*
X0288652Y0365961D02*
X0339833Y0365961D01*
X0339833Y0367559D02*
X0288652Y0367559D01*
X0288652Y0369158D02*
X0339833Y0369158D01*
X0339833Y0370756D02*
X0332263Y0370756D01*
X0333723Y0372355D02*
X0339833Y0372355D01*
X0339833Y0373953D02*
X0335321Y0373953D01*
X0336920Y0375552D02*
X0339833Y0375552D01*
X0339833Y0377150D02*
X0338518Y0377150D01*
X0332605Y0377150D02*
X0316333Y0377150D01*
X0319257Y0375552D02*
X0326944Y0375552D01*
X0326409Y0373953D02*
X0319792Y0373953D01*
X0319593Y0372355D02*
X0326608Y0372355D01*
X0327717Y0370756D02*
X0318484Y0370756D01*
X0313937Y0370756D02*
X0306673Y0370756D01*
X0307782Y0372355D02*
X0312828Y0372355D01*
X0312630Y0373953D02*
X0307981Y0373953D01*
X0307445Y0375552D02*
X0312152Y0375552D01*
X0312152Y0377150D02*
X0306490Y0377150D01*
X0302309Y0377150D02*
X0288652Y0377150D01*
X0288652Y0375552D02*
X0301354Y0375552D01*
X0300819Y0373953D02*
X0288652Y0373953D01*
X0288652Y0372355D02*
X0301017Y0372355D01*
X0302126Y0370756D02*
X0288652Y0370756D01*
X0288652Y0351574D02*
X0289812Y0351574D01*
X0289144Y0337187D02*
X0288652Y0337187D01*
X0288652Y0335589D02*
X0289007Y0335589D01*
X0313218Y0332392D02*
X0325109Y0332392D01*
X0324441Y0330793D02*
X0313886Y0330793D01*
X0313748Y0329195D02*
X0324578Y0329195D01*
X0325601Y0327596D02*
X0312726Y0327596D01*
D37*
X0237470Y0249531D02*
X0237470Y0241165D01*
X0230089Y0233783D01*
X0135108Y0233783D01*
X0160699Y0208193D02*
X0165423Y0203469D01*
X0166604Y0203469D01*
X0202510Y0228626D02*
X0204715Y0230339D01*
X0231565Y0230339D01*
X0233533Y0228370D01*
X0225659Y0237720D02*
X0203415Y0237720D01*
X0221722Y0210161D02*
X0215030Y0203469D01*
X0211880Y0203469D01*
X0210896Y0193429D02*
X0214833Y0193429D01*
X0225659Y0204256D01*
X0229596Y0194906D02*
X0219262Y0184571D01*
X0217785Y0184571D01*
X0213848Y0170791D02*
X0207943Y0170791D01*
X0211880Y0166854D02*
X0217785Y0166854D01*
X0253219Y0202287D01*
X0249281Y0206224D02*
X0213848Y0170791D01*
X0215817Y0162917D02*
X0221722Y0162917D01*
X0263061Y0204256D01*
X0268967Y0200319D02*
X0300463Y0200319D01*
X0268967Y0200319D02*
X0227628Y0158980D01*
X0227628Y0141756D01*
X0217175Y0131303D01*
X0202510Y0131303D01*
M02*
