G75*
%MOIN*%
%OFA0B0*%
%FSLAX25Y25*%
%IPPOS*%
%LPD*%
%AMOC8*
5,1,8,0,0,1.08239X$1,22.5*
%
%ADD10C,0.01000*%
%ADD11C,0.00500*%
%ADD12C,0.00600*%
%ADD13C,0.00900*%
%ADD14C,0.00000*%
%ADD15R,0.01181X0.00591*%
%ADD16R,0.02362X0.00591*%
%ADD17R,0.02953X0.00591*%
%ADD18R,0.01772X0.00591*%
%ADD19R,0.06496X0.00591*%
%ADD20R,0.07677X0.00591*%
%ADD21R,0.04134X0.00591*%
%ADD22R,0.09449X0.00591*%
%ADD23R,0.14764X0.00591*%
%ADD24R,0.03543X0.00591*%
%ADD25R,0.15945X0.00591*%
%ADD26R,0.08858X0.00591*%
%ADD27R,0.05906X0.00591*%
%ADD28R,0.00591X0.00591*%
%ADD29R,0.04724X0.00591*%
%ADD30R,0.10039X0.00591*%
%ADD31R,0.07087X0.00591*%
%ADD32R,0.14173X0.00591*%
%ADD33R,0.05315X0.00591*%
%ADD34R,0.08268X0.00591*%
%ADD35R,0.10630X0.00591*%
%ADD36R,0.15354X0.00591*%
%ADD37R,0.11220X0.00591*%
%ADD38R,0.11811X0.00591*%
%ADD39R,0.16535X0.00591*%
%ADD40R,0.13583X0.00591*%
%ADD41R,0.00591X0.01181*%
%ADD42R,0.33071X0.00591*%
%ADD43R,0.32480X0.00591*%
%ADD44R,0.30709X0.00591*%
%ADD45R,0.24803X0.00591*%
%ADD46R,0.18307X0.00591*%
%ADD47R,0.18898X0.00591*%
%ADD48R,0.25394X0.00591*%
%ADD49R,0.12402X0.00591*%
%ADD50R,0.40748X0.00591*%
%ADD51R,0.22441X0.00591*%
%ADD52R,0.20669X0.00591*%
%ADD53R,0.20079X0.00591*%
%ADD54R,0.17126X0.00591*%
%ADD55R,0.12992X0.00591*%
%ADD56R,0.37205X0.00591*%
%ADD57R,0.53150X0.00591*%
%ADD58R,0.62008X0.00591*%
%ADD59R,0.28346X0.00591*%
%ADD60R,0.31890X0.00591*%
%ADD61R,0.23031X0.00591*%
%ADD62R,0.17717X0.00591*%
%ADD63R,0.21260X0.00591*%
%ADD64R,0.19488X0.00591*%
%ADD65R,0.23622X0.00591*%
%ADD66R,0.21850X0.00591*%
%ADD67R,0.24213X0.00591*%
%ADD68C,0.01800*%
%ADD69C,0.01300*%
%ADD70C,0.00394*%
%ADD71C,0.00400*%
%ADD72R,0.05709X0.02953*%
%ADD73C,0.00300*%
%ADD74R,0.02953X0.05709*%
D10*
X0052431Y0001500D02*
X0579990Y0001500D01*
X0579990Y0477878D01*
X0052431Y0477878D01*
X0052431Y0001500D01*
D11*
X0104126Y0389545D02*
X0103225Y0390447D01*
X0103225Y0394054D01*
X0106832Y0390447D01*
X0105930Y0389545D01*
X0104126Y0389545D01*
X0106832Y0390447D02*
X0106832Y0394054D01*
X0105930Y0394955D01*
X0104126Y0394955D01*
X0103225Y0394054D01*
X0108649Y0390447D02*
X0108649Y0389545D01*
X0109550Y0389545D01*
X0109550Y0390447D01*
X0108649Y0390447D01*
X0111381Y0389545D02*
X0114988Y0389545D01*
X0113185Y0389545D02*
X0113185Y0394955D01*
X0114988Y0393152D01*
X0122257Y0392250D02*
X0122257Y0389545D01*
X0122257Y0392250D02*
X0123158Y0393152D01*
X0125863Y0393152D01*
X0125863Y0389545D01*
X0127694Y0390447D02*
X0127694Y0392250D01*
X0128596Y0393152D01*
X0130400Y0393152D01*
X0131301Y0392250D01*
X0131301Y0390447D01*
X0130400Y0389545D01*
X0128596Y0389545D01*
X0127694Y0390447D01*
X0133123Y0389545D02*
X0134926Y0389545D01*
X0134025Y0389545D02*
X0134025Y0393152D01*
X0134926Y0393152D01*
X0136757Y0393152D02*
X0139462Y0393152D01*
X0140364Y0392250D01*
X0139462Y0391349D01*
X0137659Y0391349D01*
X0136757Y0390447D01*
X0137659Y0389545D01*
X0140364Y0389545D01*
X0142190Y0393152D02*
X0143092Y0393152D01*
X0144895Y0391349D01*
X0144895Y0393152D02*
X0144895Y0389545D01*
X0146726Y0391349D02*
X0150333Y0391349D01*
X0150333Y0392250D02*
X0149431Y0393152D01*
X0147628Y0393152D01*
X0146726Y0392250D01*
X0146726Y0391349D01*
X0147628Y0389545D02*
X0149431Y0389545D01*
X0150333Y0390447D01*
X0150333Y0392250D01*
X0152164Y0391349D02*
X0152164Y0394955D01*
X0152164Y0391349D02*
X0153968Y0389545D01*
X0155771Y0391349D01*
X0155771Y0394955D01*
X0134025Y0394955D02*
X0134025Y0395857D01*
D12*
X0109446Y0050419D02*
X0110660Y0049205D01*
X0109446Y0050419D02*
X0107020Y0050419D01*
X0105806Y0049205D01*
X0105806Y0047992D01*
X0110660Y0043139D01*
X0105806Y0043139D01*
X0103410Y0044352D02*
X0098556Y0049205D01*
X0098556Y0044352D01*
X0099769Y0043139D01*
X0102196Y0043139D01*
X0103410Y0044352D01*
X0103410Y0049205D01*
X0102196Y0050419D01*
X0099769Y0050419D01*
X0098556Y0049205D01*
X0096159Y0047992D02*
X0093733Y0050419D01*
X0093733Y0043139D01*
X0096159Y0043139D02*
X0091306Y0043139D01*
X0088909Y0043139D02*
X0088909Y0044352D01*
X0084055Y0049205D01*
X0084055Y0050419D01*
X0088909Y0050419D01*
D13*
X0089731Y0055100D02*
X0093371Y0055100D01*
X0095191Y0056920D01*
X0098786Y0056920D02*
X0098786Y0058740D01*
X0100606Y0060560D01*
X0106066Y0060560D01*
X0109662Y0060560D02*
X0109662Y0064200D01*
X0111482Y0066020D01*
X0116942Y0066020D01*
X0116942Y0055100D01*
X0116942Y0058740D02*
X0111482Y0058740D01*
X0109662Y0060560D01*
X0113302Y0058740D02*
X0109662Y0055100D01*
X0106066Y0055100D02*
X0100606Y0055100D01*
X0098786Y0056920D01*
X0100606Y0060560D02*
X0098786Y0062380D01*
X0098786Y0064200D01*
X0100606Y0066020D01*
X0106066Y0066020D01*
X0106066Y0055100D01*
X0095191Y0062380D02*
X0093371Y0060560D01*
X0089731Y0060560D01*
X0087911Y0058740D01*
X0087911Y0056920D01*
X0089731Y0055100D01*
X0084315Y0056920D02*
X0082495Y0055100D01*
X0078855Y0055100D01*
X0077035Y0056920D01*
X0084315Y0056920D02*
X0084315Y0064200D01*
X0082495Y0066020D01*
X0078855Y0066020D01*
X0077035Y0064200D01*
X0087911Y0064200D02*
X0089731Y0066020D01*
X0093371Y0066020D01*
X0095191Y0064200D01*
X0095191Y0062380D01*
X0117693Y0183052D02*
X0115873Y0184872D01*
X0115873Y0188513D01*
X0117693Y0190333D01*
X0124974Y0190333D01*
X0126794Y0188513D01*
X0126794Y0184872D01*
X0124974Y0183052D01*
X0117693Y0183052D01*
X0115873Y0193928D02*
X0126794Y0193928D01*
X0126794Y0199388D01*
X0124974Y0201208D01*
X0121333Y0201208D01*
X0119513Y0199388D01*
X0119513Y0193928D01*
X0115873Y0204803D02*
X0126794Y0204803D01*
X0123153Y0208443D01*
X0126794Y0212083D01*
X0115873Y0212083D01*
X0115873Y0226554D02*
X0126794Y0226554D01*
X0123153Y0230194D01*
X0126794Y0233834D01*
X0115873Y0233834D01*
X0117693Y0237430D02*
X0115873Y0239250D01*
X0115873Y0242890D01*
X0117693Y0244710D01*
X0121333Y0244710D01*
X0123153Y0242890D01*
X0123153Y0239250D01*
X0121333Y0237430D01*
X0117693Y0237430D01*
X0117693Y0248305D02*
X0121333Y0248305D01*
X0123153Y0250125D01*
X0123153Y0255585D01*
X0123153Y0259180D02*
X0117693Y0259180D01*
X0115873Y0261000D01*
X0115873Y0266461D01*
X0123153Y0266461D01*
X0126794Y0270056D02*
X0126794Y0271876D01*
X0115873Y0271876D01*
X0115873Y0270056D02*
X0115873Y0273696D01*
X0117693Y0277306D02*
X0121333Y0277306D01*
X0123153Y0279126D01*
X0123153Y0282766D01*
X0121333Y0284586D01*
X0119513Y0284586D01*
X0119513Y0277306D01*
X0117693Y0277306D02*
X0115873Y0279126D01*
X0115873Y0282766D01*
X0115873Y0255585D02*
X0115873Y0250125D01*
X0117693Y0248305D01*
X0115873Y0255585D02*
X0126794Y0255585D01*
D14*
X0268967Y0237720D02*
X0268971Y0238010D01*
X0268981Y0238300D01*
X0268999Y0238589D01*
X0269024Y0238878D01*
X0269056Y0239166D01*
X0269095Y0239453D01*
X0269141Y0239739D01*
X0269194Y0240024D01*
X0269254Y0240308D01*
X0269321Y0240590D01*
X0269395Y0240870D01*
X0269476Y0241149D01*
X0269563Y0241425D01*
X0269657Y0241699D01*
X0269758Y0241971D01*
X0269866Y0242240D01*
X0269980Y0242506D01*
X0270101Y0242770D01*
X0270228Y0243030D01*
X0270362Y0243288D01*
X0270501Y0243542D01*
X0270647Y0243792D01*
X0270799Y0244039D01*
X0270958Y0244282D01*
X0271122Y0244521D01*
X0271291Y0244756D01*
X0271467Y0244987D01*
X0271648Y0245213D01*
X0271835Y0245435D01*
X0272027Y0245652D01*
X0272224Y0245864D01*
X0272426Y0246072D01*
X0272634Y0246274D01*
X0272846Y0246471D01*
X0273063Y0246663D01*
X0273285Y0246850D01*
X0273511Y0247031D01*
X0273742Y0247207D01*
X0273977Y0247376D01*
X0274216Y0247540D01*
X0274459Y0247699D01*
X0274706Y0247851D01*
X0274956Y0247997D01*
X0275210Y0248136D01*
X0275468Y0248270D01*
X0275728Y0248397D01*
X0275992Y0248518D01*
X0276258Y0248632D01*
X0276527Y0248740D01*
X0276799Y0248841D01*
X0277073Y0248935D01*
X0277349Y0249022D01*
X0277628Y0249103D01*
X0277908Y0249177D01*
X0278190Y0249244D01*
X0278474Y0249304D01*
X0278759Y0249357D01*
X0279045Y0249403D01*
X0279332Y0249442D01*
X0279620Y0249474D01*
X0279909Y0249499D01*
X0280198Y0249517D01*
X0280488Y0249527D01*
X0280778Y0249531D01*
X0281068Y0249527D01*
X0281358Y0249517D01*
X0281647Y0249499D01*
X0281936Y0249474D01*
X0282224Y0249442D01*
X0282511Y0249403D01*
X0282797Y0249357D01*
X0283082Y0249304D01*
X0283366Y0249244D01*
X0283648Y0249177D01*
X0283928Y0249103D01*
X0284207Y0249022D01*
X0284483Y0248935D01*
X0284757Y0248841D01*
X0285029Y0248740D01*
X0285298Y0248632D01*
X0285564Y0248518D01*
X0285828Y0248397D01*
X0286088Y0248270D01*
X0286346Y0248136D01*
X0286600Y0247997D01*
X0286850Y0247851D01*
X0287097Y0247699D01*
X0287340Y0247540D01*
X0287579Y0247376D01*
X0287814Y0247207D01*
X0288045Y0247031D01*
X0288271Y0246850D01*
X0288493Y0246663D01*
X0288710Y0246471D01*
X0288922Y0246274D01*
X0289130Y0246072D01*
X0289332Y0245864D01*
X0289529Y0245652D01*
X0289721Y0245435D01*
X0289908Y0245213D01*
X0290089Y0244987D01*
X0290265Y0244756D01*
X0290434Y0244521D01*
X0290598Y0244282D01*
X0290757Y0244039D01*
X0290909Y0243792D01*
X0291055Y0243542D01*
X0291194Y0243288D01*
X0291328Y0243030D01*
X0291455Y0242770D01*
X0291576Y0242506D01*
X0291690Y0242240D01*
X0291798Y0241971D01*
X0291899Y0241699D01*
X0291993Y0241425D01*
X0292080Y0241149D01*
X0292161Y0240870D01*
X0292235Y0240590D01*
X0292302Y0240308D01*
X0292362Y0240024D01*
X0292415Y0239739D01*
X0292461Y0239453D01*
X0292500Y0239166D01*
X0292532Y0238878D01*
X0292557Y0238589D01*
X0292575Y0238300D01*
X0292585Y0238010D01*
X0292589Y0237720D01*
X0292585Y0237430D01*
X0292575Y0237140D01*
X0292557Y0236851D01*
X0292532Y0236562D01*
X0292500Y0236274D01*
X0292461Y0235987D01*
X0292415Y0235701D01*
X0292362Y0235416D01*
X0292302Y0235132D01*
X0292235Y0234850D01*
X0292161Y0234570D01*
X0292080Y0234291D01*
X0291993Y0234015D01*
X0291899Y0233741D01*
X0291798Y0233469D01*
X0291690Y0233200D01*
X0291576Y0232934D01*
X0291455Y0232670D01*
X0291328Y0232410D01*
X0291194Y0232152D01*
X0291055Y0231898D01*
X0290909Y0231648D01*
X0290757Y0231401D01*
X0290598Y0231158D01*
X0290434Y0230919D01*
X0290265Y0230684D01*
X0290089Y0230453D01*
X0289908Y0230227D01*
X0289721Y0230005D01*
X0289529Y0229788D01*
X0289332Y0229576D01*
X0289130Y0229368D01*
X0288922Y0229166D01*
X0288710Y0228969D01*
X0288493Y0228777D01*
X0288271Y0228590D01*
X0288045Y0228409D01*
X0287814Y0228233D01*
X0287579Y0228064D01*
X0287340Y0227900D01*
X0287097Y0227741D01*
X0286850Y0227589D01*
X0286600Y0227443D01*
X0286346Y0227304D01*
X0286088Y0227170D01*
X0285828Y0227043D01*
X0285564Y0226922D01*
X0285298Y0226808D01*
X0285029Y0226700D01*
X0284757Y0226599D01*
X0284483Y0226505D01*
X0284207Y0226418D01*
X0283928Y0226337D01*
X0283648Y0226263D01*
X0283366Y0226196D01*
X0283082Y0226136D01*
X0282797Y0226083D01*
X0282511Y0226037D01*
X0282224Y0225998D01*
X0281936Y0225966D01*
X0281647Y0225941D01*
X0281358Y0225923D01*
X0281068Y0225913D01*
X0280778Y0225909D01*
X0280488Y0225913D01*
X0280198Y0225923D01*
X0279909Y0225941D01*
X0279620Y0225966D01*
X0279332Y0225998D01*
X0279045Y0226037D01*
X0278759Y0226083D01*
X0278474Y0226136D01*
X0278190Y0226196D01*
X0277908Y0226263D01*
X0277628Y0226337D01*
X0277349Y0226418D01*
X0277073Y0226505D01*
X0276799Y0226599D01*
X0276527Y0226700D01*
X0276258Y0226808D01*
X0275992Y0226922D01*
X0275728Y0227043D01*
X0275468Y0227170D01*
X0275210Y0227304D01*
X0274956Y0227443D01*
X0274706Y0227589D01*
X0274459Y0227741D01*
X0274216Y0227900D01*
X0273977Y0228064D01*
X0273742Y0228233D01*
X0273511Y0228409D01*
X0273285Y0228590D01*
X0273063Y0228777D01*
X0272846Y0228969D01*
X0272634Y0229166D01*
X0272426Y0229368D01*
X0272224Y0229576D01*
X0272027Y0229788D01*
X0271835Y0230005D01*
X0271648Y0230227D01*
X0271467Y0230453D01*
X0271291Y0230684D01*
X0271122Y0230919D01*
X0270958Y0231158D01*
X0270799Y0231401D01*
X0270647Y0231648D01*
X0270501Y0231898D01*
X0270362Y0232152D01*
X0270228Y0232410D01*
X0270101Y0232670D01*
X0269980Y0232934D01*
X0269866Y0233200D01*
X0269758Y0233469D01*
X0269657Y0233741D01*
X0269563Y0234015D01*
X0269476Y0234291D01*
X0269395Y0234570D01*
X0269321Y0234850D01*
X0269254Y0235132D01*
X0269194Y0235416D01*
X0269141Y0235701D01*
X0269095Y0235987D01*
X0269056Y0236274D01*
X0269024Y0236562D01*
X0268999Y0236851D01*
X0268981Y0237140D01*
X0268971Y0237430D01*
X0268967Y0237720D01*
X0527825Y0249531D02*
X0527827Y0249639D01*
X0527833Y0249748D01*
X0527843Y0249856D01*
X0527857Y0249963D01*
X0527875Y0250070D01*
X0527896Y0250177D01*
X0527922Y0250282D01*
X0527952Y0250387D01*
X0527985Y0250490D01*
X0528022Y0250592D01*
X0528063Y0250692D01*
X0528107Y0250791D01*
X0528156Y0250889D01*
X0528207Y0250984D01*
X0528262Y0251077D01*
X0528321Y0251169D01*
X0528383Y0251258D01*
X0528448Y0251345D01*
X0528516Y0251429D01*
X0528587Y0251511D01*
X0528661Y0251590D01*
X0528738Y0251666D01*
X0528818Y0251740D01*
X0528901Y0251810D01*
X0528986Y0251878D01*
X0529073Y0251942D01*
X0529163Y0252003D01*
X0529255Y0252061D01*
X0529349Y0252115D01*
X0529445Y0252166D01*
X0529542Y0252213D01*
X0529642Y0252257D01*
X0529743Y0252297D01*
X0529845Y0252333D01*
X0529948Y0252365D01*
X0530053Y0252394D01*
X0530159Y0252418D01*
X0530265Y0252439D01*
X0530372Y0252456D01*
X0530480Y0252469D01*
X0530588Y0252478D01*
X0530697Y0252483D01*
X0530805Y0252484D01*
X0530914Y0252481D01*
X0531022Y0252474D01*
X0531130Y0252463D01*
X0531237Y0252448D01*
X0531344Y0252429D01*
X0531450Y0252406D01*
X0531555Y0252380D01*
X0531660Y0252349D01*
X0531762Y0252315D01*
X0531864Y0252277D01*
X0531964Y0252235D01*
X0532063Y0252190D01*
X0532160Y0252141D01*
X0532254Y0252088D01*
X0532347Y0252032D01*
X0532438Y0251973D01*
X0532527Y0251910D01*
X0532613Y0251845D01*
X0532697Y0251776D01*
X0532778Y0251704D01*
X0532856Y0251629D01*
X0532932Y0251551D01*
X0533005Y0251470D01*
X0533075Y0251387D01*
X0533141Y0251302D01*
X0533205Y0251214D01*
X0533265Y0251123D01*
X0533322Y0251031D01*
X0533375Y0250936D01*
X0533425Y0250840D01*
X0533471Y0250742D01*
X0533514Y0250642D01*
X0533553Y0250541D01*
X0533588Y0250438D01*
X0533620Y0250335D01*
X0533647Y0250230D01*
X0533671Y0250124D01*
X0533691Y0250017D01*
X0533707Y0249910D01*
X0533719Y0249802D01*
X0533727Y0249694D01*
X0533731Y0249585D01*
X0533731Y0249477D01*
X0533727Y0249368D01*
X0533719Y0249260D01*
X0533707Y0249152D01*
X0533691Y0249045D01*
X0533671Y0248938D01*
X0533647Y0248832D01*
X0533620Y0248727D01*
X0533588Y0248624D01*
X0533553Y0248521D01*
X0533514Y0248420D01*
X0533471Y0248320D01*
X0533425Y0248222D01*
X0533375Y0248126D01*
X0533322Y0248031D01*
X0533265Y0247939D01*
X0533205Y0247848D01*
X0533141Y0247760D01*
X0533075Y0247675D01*
X0533005Y0247592D01*
X0532932Y0247511D01*
X0532856Y0247433D01*
X0532778Y0247358D01*
X0532697Y0247286D01*
X0532613Y0247217D01*
X0532527Y0247152D01*
X0532438Y0247089D01*
X0532347Y0247030D01*
X0532255Y0246974D01*
X0532160Y0246921D01*
X0532063Y0246872D01*
X0531964Y0246827D01*
X0531864Y0246785D01*
X0531762Y0246747D01*
X0531660Y0246713D01*
X0531555Y0246682D01*
X0531450Y0246656D01*
X0531344Y0246633D01*
X0531237Y0246614D01*
X0531130Y0246599D01*
X0531022Y0246588D01*
X0530914Y0246581D01*
X0530805Y0246578D01*
X0530697Y0246579D01*
X0530588Y0246584D01*
X0530480Y0246593D01*
X0530372Y0246606D01*
X0530265Y0246623D01*
X0530159Y0246644D01*
X0530053Y0246668D01*
X0529948Y0246697D01*
X0529845Y0246729D01*
X0529743Y0246765D01*
X0529642Y0246805D01*
X0529542Y0246849D01*
X0529445Y0246896D01*
X0529349Y0246947D01*
X0529255Y0247001D01*
X0529163Y0247059D01*
X0529073Y0247120D01*
X0528986Y0247184D01*
X0528901Y0247252D01*
X0528818Y0247322D01*
X0528738Y0247396D01*
X0528661Y0247472D01*
X0528587Y0247551D01*
X0528516Y0247633D01*
X0528448Y0247717D01*
X0528383Y0247804D01*
X0528321Y0247893D01*
X0528262Y0247985D01*
X0528207Y0248078D01*
X0528156Y0248173D01*
X0528107Y0248271D01*
X0528063Y0248370D01*
X0528022Y0248470D01*
X0527985Y0248572D01*
X0527952Y0248675D01*
X0527922Y0248780D01*
X0527896Y0248885D01*
X0527875Y0248992D01*
X0527857Y0249099D01*
X0527843Y0249206D01*
X0527833Y0249314D01*
X0527827Y0249423D01*
X0527825Y0249531D01*
X0553612Y0234768D02*
X0553614Y0234873D01*
X0553620Y0234978D01*
X0553630Y0235082D01*
X0553644Y0235186D01*
X0553662Y0235290D01*
X0553684Y0235392D01*
X0553709Y0235494D01*
X0553739Y0235595D01*
X0553772Y0235694D01*
X0553809Y0235792D01*
X0553850Y0235889D01*
X0553895Y0235984D01*
X0553943Y0236077D01*
X0553994Y0236169D01*
X0554050Y0236258D01*
X0554108Y0236345D01*
X0554170Y0236430D01*
X0554234Y0236513D01*
X0554302Y0236593D01*
X0554373Y0236670D01*
X0554447Y0236744D01*
X0554524Y0236816D01*
X0554603Y0236885D01*
X0554685Y0236950D01*
X0554769Y0237013D01*
X0554856Y0237072D01*
X0554945Y0237128D01*
X0555036Y0237181D01*
X0555129Y0237230D01*
X0555223Y0237275D01*
X0555319Y0237317D01*
X0555417Y0237355D01*
X0555516Y0237389D01*
X0555617Y0237420D01*
X0555718Y0237446D01*
X0555821Y0237469D01*
X0555924Y0237488D01*
X0556028Y0237503D01*
X0556132Y0237514D01*
X0556237Y0237521D01*
X0556342Y0237524D01*
X0556447Y0237523D01*
X0556552Y0237518D01*
X0556656Y0237509D01*
X0556760Y0237496D01*
X0556864Y0237479D01*
X0556967Y0237458D01*
X0557069Y0237433D01*
X0557170Y0237405D01*
X0557269Y0237372D01*
X0557368Y0237336D01*
X0557465Y0237296D01*
X0557560Y0237253D01*
X0557654Y0237205D01*
X0557746Y0237155D01*
X0557836Y0237101D01*
X0557924Y0237043D01*
X0558009Y0236982D01*
X0558092Y0236918D01*
X0558173Y0236851D01*
X0558251Y0236781D01*
X0558326Y0236707D01*
X0558398Y0236632D01*
X0558468Y0236553D01*
X0558534Y0236472D01*
X0558598Y0236388D01*
X0558658Y0236302D01*
X0558714Y0236214D01*
X0558768Y0236123D01*
X0558818Y0236031D01*
X0558864Y0235937D01*
X0558907Y0235841D01*
X0558946Y0235743D01*
X0558981Y0235645D01*
X0559012Y0235544D01*
X0559040Y0235443D01*
X0559064Y0235341D01*
X0559084Y0235238D01*
X0559100Y0235134D01*
X0559112Y0235030D01*
X0559120Y0234925D01*
X0559124Y0234820D01*
X0559124Y0234716D01*
X0559120Y0234611D01*
X0559112Y0234506D01*
X0559100Y0234402D01*
X0559084Y0234298D01*
X0559064Y0234195D01*
X0559040Y0234093D01*
X0559012Y0233992D01*
X0558981Y0233891D01*
X0558946Y0233793D01*
X0558907Y0233695D01*
X0558864Y0233599D01*
X0558818Y0233505D01*
X0558768Y0233413D01*
X0558714Y0233322D01*
X0558658Y0233234D01*
X0558598Y0233148D01*
X0558534Y0233064D01*
X0558468Y0232983D01*
X0558398Y0232904D01*
X0558326Y0232829D01*
X0558251Y0232755D01*
X0558173Y0232685D01*
X0558092Y0232618D01*
X0558009Y0232554D01*
X0557924Y0232493D01*
X0557836Y0232435D01*
X0557746Y0232381D01*
X0557654Y0232331D01*
X0557560Y0232283D01*
X0557465Y0232240D01*
X0557368Y0232200D01*
X0557269Y0232164D01*
X0557170Y0232131D01*
X0557069Y0232103D01*
X0556967Y0232078D01*
X0556864Y0232057D01*
X0556760Y0232040D01*
X0556656Y0232027D01*
X0556552Y0232018D01*
X0556447Y0232013D01*
X0556342Y0232012D01*
X0556237Y0232015D01*
X0556132Y0232022D01*
X0556028Y0232033D01*
X0555924Y0232048D01*
X0555821Y0232067D01*
X0555718Y0232090D01*
X0555617Y0232116D01*
X0555516Y0232147D01*
X0555417Y0232181D01*
X0555319Y0232219D01*
X0555223Y0232261D01*
X0555129Y0232306D01*
X0555036Y0232355D01*
X0554945Y0232408D01*
X0554856Y0232464D01*
X0554769Y0232523D01*
X0554685Y0232586D01*
X0554603Y0232651D01*
X0554524Y0232720D01*
X0554447Y0232792D01*
X0554373Y0232866D01*
X0554302Y0232943D01*
X0554234Y0233023D01*
X0554170Y0233106D01*
X0554108Y0233191D01*
X0554050Y0233278D01*
X0553994Y0233367D01*
X0553943Y0233459D01*
X0553895Y0233552D01*
X0553850Y0233647D01*
X0553809Y0233744D01*
X0553772Y0233842D01*
X0553739Y0233941D01*
X0553709Y0234042D01*
X0553684Y0234144D01*
X0553662Y0234246D01*
X0553644Y0234350D01*
X0553630Y0234454D01*
X0553620Y0234558D01*
X0553614Y0234663D01*
X0553612Y0234768D01*
X0553612Y0264295D02*
X0553614Y0264400D01*
X0553620Y0264505D01*
X0553630Y0264609D01*
X0553644Y0264713D01*
X0553662Y0264817D01*
X0553684Y0264919D01*
X0553709Y0265021D01*
X0553739Y0265122D01*
X0553772Y0265221D01*
X0553809Y0265319D01*
X0553850Y0265416D01*
X0553895Y0265511D01*
X0553943Y0265604D01*
X0553994Y0265696D01*
X0554050Y0265785D01*
X0554108Y0265872D01*
X0554170Y0265957D01*
X0554234Y0266040D01*
X0554302Y0266120D01*
X0554373Y0266197D01*
X0554447Y0266271D01*
X0554524Y0266343D01*
X0554603Y0266412D01*
X0554685Y0266477D01*
X0554769Y0266540D01*
X0554856Y0266599D01*
X0554945Y0266655D01*
X0555036Y0266708D01*
X0555129Y0266757D01*
X0555223Y0266802D01*
X0555319Y0266844D01*
X0555417Y0266882D01*
X0555516Y0266916D01*
X0555617Y0266947D01*
X0555718Y0266973D01*
X0555821Y0266996D01*
X0555924Y0267015D01*
X0556028Y0267030D01*
X0556132Y0267041D01*
X0556237Y0267048D01*
X0556342Y0267051D01*
X0556447Y0267050D01*
X0556552Y0267045D01*
X0556656Y0267036D01*
X0556760Y0267023D01*
X0556864Y0267006D01*
X0556967Y0266985D01*
X0557069Y0266960D01*
X0557170Y0266932D01*
X0557269Y0266899D01*
X0557368Y0266863D01*
X0557465Y0266823D01*
X0557560Y0266780D01*
X0557654Y0266732D01*
X0557746Y0266682D01*
X0557836Y0266628D01*
X0557924Y0266570D01*
X0558009Y0266509D01*
X0558092Y0266445D01*
X0558173Y0266378D01*
X0558251Y0266308D01*
X0558326Y0266234D01*
X0558398Y0266159D01*
X0558468Y0266080D01*
X0558534Y0265999D01*
X0558598Y0265915D01*
X0558658Y0265829D01*
X0558714Y0265741D01*
X0558768Y0265650D01*
X0558818Y0265558D01*
X0558864Y0265464D01*
X0558907Y0265368D01*
X0558946Y0265270D01*
X0558981Y0265172D01*
X0559012Y0265071D01*
X0559040Y0264970D01*
X0559064Y0264868D01*
X0559084Y0264765D01*
X0559100Y0264661D01*
X0559112Y0264557D01*
X0559120Y0264452D01*
X0559124Y0264347D01*
X0559124Y0264243D01*
X0559120Y0264138D01*
X0559112Y0264033D01*
X0559100Y0263929D01*
X0559084Y0263825D01*
X0559064Y0263722D01*
X0559040Y0263620D01*
X0559012Y0263519D01*
X0558981Y0263418D01*
X0558946Y0263320D01*
X0558907Y0263222D01*
X0558864Y0263126D01*
X0558818Y0263032D01*
X0558768Y0262940D01*
X0558714Y0262849D01*
X0558658Y0262761D01*
X0558598Y0262675D01*
X0558534Y0262591D01*
X0558468Y0262510D01*
X0558398Y0262431D01*
X0558326Y0262356D01*
X0558251Y0262282D01*
X0558173Y0262212D01*
X0558092Y0262145D01*
X0558009Y0262081D01*
X0557924Y0262020D01*
X0557836Y0261962D01*
X0557746Y0261908D01*
X0557654Y0261858D01*
X0557560Y0261810D01*
X0557465Y0261767D01*
X0557368Y0261727D01*
X0557269Y0261691D01*
X0557170Y0261658D01*
X0557069Y0261630D01*
X0556967Y0261605D01*
X0556864Y0261584D01*
X0556760Y0261567D01*
X0556656Y0261554D01*
X0556552Y0261545D01*
X0556447Y0261540D01*
X0556342Y0261539D01*
X0556237Y0261542D01*
X0556132Y0261549D01*
X0556028Y0261560D01*
X0555924Y0261575D01*
X0555821Y0261594D01*
X0555718Y0261617D01*
X0555617Y0261643D01*
X0555516Y0261674D01*
X0555417Y0261708D01*
X0555319Y0261746D01*
X0555223Y0261788D01*
X0555129Y0261833D01*
X0555036Y0261882D01*
X0554945Y0261935D01*
X0554856Y0261991D01*
X0554769Y0262050D01*
X0554685Y0262113D01*
X0554603Y0262178D01*
X0554524Y0262247D01*
X0554447Y0262319D01*
X0554373Y0262393D01*
X0554302Y0262470D01*
X0554234Y0262550D01*
X0554170Y0262633D01*
X0554108Y0262718D01*
X0554050Y0262805D01*
X0553994Y0262894D01*
X0553943Y0262986D01*
X0553895Y0263079D01*
X0553850Y0263174D01*
X0553809Y0263271D01*
X0553772Y0263369D01*
X0553739Y0263468D01*
X0553709Y0263569D01*
X0553684Y0263671D01*
X0553662Y0263773D01*
X0553644Y0263877D01*
X0553630Y0263981D01*
X0553620Y0264085D01*
X0553614Y0264190D01*
X0553612Y0264295D01*
X0553612Y0293823D02*
X0553614Y0293928D01*
X0553620Y0294033D01*
X0553630Y0294137D01*
X0553644Y0294241D01*
X0553662Y0294345D01*
X0553684Y0294447D01*
X0553709Y0294549D01*
X0553739Y0294650D01*
X0553772Y0294749D01*
X0553809Y0294847D01*
X0553850Y0294944D01*
X0553895Y0295039D01*
X0553943Y0295132D01*
X0553994Y0295224D01*
X0554050Y0295313D01*
X0554108Y0295400D01*
X0554170Y0295485D01*
X0554234Y0295568D01*
X0554302Y0295648D01*
X0554373Y0295725D01*
X0554447Y0295799D01*
X0554524Y0295871D01*
X0554603Y0295940D01*
X0554685Y0296005D01*
X0554769Y0296068D01*
X0554856Y0296127D01*
X0554945Y0296183D01*
X0555036Y0296236D01*
X0555129Y0296285D01*
X0555223Y0296330D01*
X0555319Y0296372D01*
X0555417Y0296410D01*
X0555516Y0296444D01*
X0555617Y0296475D01*
X0555718Y0296501D01*
X0555821Y0296524D01*
X0555924Y0296543D01*
X0556028Y0296558D01*
X0556132Y0296569D01*
X0556237Y0296576D01*
X0556342Y0296579D01*
X0556447Y0296578D01*
X0556552Y0296573D01*
X0556656Y0296564D01*
X0556760Y0296551D01*
X0556864Y0296534D01*
X0556967Y0296513D01*
X0557069Y0296488D01*
X0557170Y0296460D01*
X0557269Y0296427D01*
X0557368Y0296391D01*
X0557465Y0296351D01*
X0557560Y0296308D01*
X0557654Y0296260D01*
X0557746Y0296210D01*
X0557836Y0296156D01*
X0557924Y0296098D01*
X0558009Y0296037D01*
X0558092Y0295973D01*
X0558173Y0295906D01*
X0558251Y0295836D01*
X0558326Y0295762D01*
X0558398Y0295687D01*
X0558468Y0295608D01*
X0558534Y0295527D01*
X0558598Y0295443D01*
X0558658Y0295357D01*
X0558714Y0295269D01*
X0558768Y0295178D01*
X0558818Y0295086D01*
X0558864Y0294992D01*
X0558907Y0294896D01*
X0558946Y0294798D01*
X0558981Y0294700D01*
X0559012Y0294599D01*
X0559040Y0294498D01*
X0559064Y0294396D01*
X0559084Y0294293D01*
X0559100Y0294189D01*
X0559112Y0294085D01*
X0559120Y0293980D01*
X0559124Y0293875D01*
X0559124Y0293771D01*
X0559120Y0293666D01*
X0559112Y0293561D01*
X0559100Y0293457D01*
X0559084Y0293353D01*
X0559064Y0293250D01*
X0559040Y0293148D01*
X0559012Y0293047D01*
X0558981Y0292946D01*
X0558946Y0292848D01*
X0558907Y0292750D01*
X0558864Y0292654D01*
X0558818Y0292560D01*
X0558768Y0292468D01*
X0558714Y0292377D01*
X0558658Y0292289D01*
X0558598Y0292203D01*
X0558534Y0292119D01*
X0558468Y0292038D01*
X0558398Y0291959D01*
X0558326Y0291884D01*
X0558251Y0291810D01*
X0558173Y0291740D01*
X0558092Y0291673D01*
X0558009Y0291609D01*
X0557924Y0291548D01*
X0557836Y0291490D01*
X0557746Y0291436D01*
X0557654Y0291386D01*
X0557560Y0291338D01*
X0557465Y0291295D01*
X0557368Y0291255D01*
X0557269Y0291219D01*
X0557170Y0291186D01*
X0557069Y0291158D01*
X0556967Y0291133D01*
X0556864Y0291112D01*
X0556760Y0291095D01*
X0556656Y0291082D01*
X0556552Y0291073D01*
X0556447Y0291068D01*
X0556342Y0291067D01*
X0556237Y0291070D01*
X0556132Y0291077D01*
X0556028Y0291088D01*
X0555924Y0291103D01*
X0555821Y0291122D01*
X0555718Y0291145D01*
X0555617Y0291171D01*
X0555516Y0291202D01*
X0555417Y0291236D01*
X0555319Y0291274D01*
X0555223Y0291316D01*
X0555129Y0291361D01*
X0555036Y0291410D01*
X0554945Y0291463D01*
X0554856Y0291519D01*
X0554769Y0291578D01*
X0554685Y0291641D01*
X0554603Y0291706D01*
X0554524Y0291775D01*
X0554447Y0291847D01*
X0554373Y0291921D01*
X0554302Y0291998D01*
X0554234Y0292078D01*
X0554170Y0292161D01*
X0554108Y0292246D01*
X0554050Y0292333D01*
X0553994Y0292422D01*
X0553943Y0292514D01*
X0553895Y0292607D01*
X0553850Y0292702D01*
X0553809Y0292799D01*
X0553772Y0292897D01*
X0553739Y0292996D01*
X0553709Y0293097D01*
X0553684Y0293199D01*
X0553662Y0293301D01*
X0553644Y0293405D01*
X0553630Y0293509D01*
X0553620Y0293613D01*
X0553614Y0293718D01*
X0553612Y0293823D01*
X0527825Y0308587D02*
X0527827Y0308695D01*
X0527833Y0308804D01*
X0527843Y0308912D01*
X0527857Y0309019D01*
X0527875Y0309126D01*
X0527896Y0309233D01*
X0527922Y0309338D01*
X0527952Y0309443D01*
X0527985Y0309546D01*
X0528022Y0309648D01*
X0528063Y0309748D01*
X0528107Y0309847D01*
X0528156Y0309945D01*
X0528207Y0310040D01*
X0528262Y0310133D01*
X0528321Y0310225D01*
X0528383Y0310314D01*
X0528448Y0310401D01*
X0528516Y0310485D01*
X0528587Y0310567D01*
X0528661Y0310646D01*
X0528738Y0310722D01*
X0528818Y0310796D01*
X0528901Y0310866D01*
X0528986Y0310934D01*
X0529073Y0310998D01*
X0529163Y0311059D01*
X0529255Y0311117D01*
X0529349Y0311171D01*
X0529445Y0311222D01*
X0529542Y0311269D01*
X0529642Y0311313D01*
X0529743Y0311353D01*
X0529845Y0311389D01*
X0529948Y0311421D01*
X0530053Y0311450D01*
X0530159Y0311474D01*
X0530265Y0311495D01*
X0530372Y0311512D01*
X0530480Y0311525D01*
X0530588Y0311534D01*
X0530697Y0311539D01*
X0530805Y0311540D01*
X0530914Y0311537D01*
X0531022Y0311530D01*
X0531130Y0311519D01*
X0531237Y0311504D01*
X0531344Y0311485D01*
X0531450Y0311462D01*
X0531555Y0311436D01*
X0531660Y0311405D01*
X0531762Y0311371D01*
X0531864Y0311333D01*
X0531964Y0311291D01*
X0532063Y0311246D01*
X0532160Y0311197D01*
X0532254Y0311144D01*
X0532347Y0311088D01*
X0532438Y0311029D01*
X0532527Y0310966D01*
X0532613Y0310901D01*
X0532697Y0310832D01*
X0532778Y0310760D01*
X0532856Y0310685D01*
X0532932Y0310607D01*
X0533005Y0310526D01*
X0533075Y0310443D01*
X0533141Y0310358D01*
X0533205Y0310270D01*
X0533265Y0310179D01*
X0533322Y0310087D01*
X0533375Y0309992D01*
X0533425Y0309896D01*
X0533471Y0309798D01*
X0533514Y0309698D01*
X0533553Y0309597D01*
X0533588Y0309494D01*
X0533620Y0309391D01*
X0533647Y0309286D01*
X0533671Y0309180D01*
X0533691Y0309073D01*
X0533707Y0308966D01*
X0533719Y0308858D01*
X0533727Y0308750D01*
X0533731Y0308641D01*
X0533731Y0308533D01*
X0533727Y0308424D01*
X0533719Y0308316D01*
X0533707Y0308208D01*
X0533691Y0308101D01*
X0533671Y0307994D01*
X0533647Y0307888D01*
X0533620Y0307783D01*
X0533588Y0307680D01*
X0533553Y0307577D01*
X0533514Y0307476D01*
X0533471Y0307376D01*
X0533425Y0307278D01*
X0533375Y0307182D01*
X0533322Y0307087D01*
X0533265Y0306995D01*
X0533205Y0306904D01*
X0533141Y0306816D01*
X0533075Y0306731D01*
X0533005Y0306648D01*
X0532932Y0306567D01*
X0532856Y0306489D01*
X0532778Y0306414D01*
X0532697Y0306342D01*
X0532613Y0306273D01*
X0532527Y0306208D01*
X0532438Y0306145D01*
X0532347Y0306086D01*
X0532255Y0306030D01*
X0532160Y0305977D01*
X0532063Y0305928D01*
X0531964Y0305883D01*
X0531864Y0305841D01*
X0531762Y0305803D01*
X0531660Y0305769D01*
X0531555Y0305738D01*
X0531450Y0305712D01*
X0531344Y0305689D01*
X0531237Y0305670D01*
X0531130Y0305655D01*
X0531022Y0305644D01*
X0530914Y0305637D01*
X0530805Y0305634D01*
X0530697Y0305635D01*
X0530588Y0305640D01*
X0530480Y0305649D01*
X0530372Y0305662D01*
X0530265Y0305679D01*
X0530159Y0305700D01*
X0530053Y0305724D01*
X0529948Y0305753D01*
X0529845Y0305785D01*
X0529743Y0305821D01*
X0529642Y0305861D01*
X0529542Y0305905D01*
X0529445Y0305952D01*
X0529349Y0306003D01*
X0529255Y0306057D01*
X0529163Y0306115D01*
X0529073Y0306176D01*
X0528986Y0306240D01*
X0528901Y0306308D01*
X0528818Y0306378D01*
X0528738Y0306452D01*
X0528661Y0306528D01*
X0528587Y0306607D01*
X0528516Y0306689D01*
X0528448Y0306773D01*
X0528383Y0306860D01*
X0528321Y0306949D01*
X0528262Y0307041D01*
X0528207Y0307134D01*
X0528156Y0307229D01*
X0528107Y0307327D01*
X0528063Y0307426D01*
X0528022Y0307526D01*
X0527985Y0307628D01*
X0527952Y0307731D01*
X0527922Y0307836D01*
X0527896Y0307941D01*
X0527875Y0308048D01*
X0527857Y0308155D01*
X0527843Y0308262D01*
X0527833Y0308370D01*
X0527827Y0308479D01*
X0527825Y0308587D01*
X0553612Y0323350D02*
X0553614Y0323455D01*
X0553620Y0323560D01*
X0553630Y0323664D01*
X0553644Y0323768D01*
X0553662Y0323872D01*
X0553684Y0323974D01*
X0553709Y0324076D01*
X0553739Y0324177D01*
X0553772Y0324276D01*
X0553809Y0324374D01*
X0553850Y0324471D01*
X0553895Y0324566D01*
X0553943Y0324659D01*
X0553994Y0324751D01*
X0554050Y0324840D01*
X0554108Y0324927D01*
X0554170Y0325012D01*
X0554234Y0325095D01*
X0554302Y0325175D01*
X0554373Y0325252D01*
X0554447Y0325326D01*
X0554524Y0325398D01*
X0554603Y0325467D01*
X0554685Y0325532D01*
X0554769Y0325595D01*
X0554856Y0325654D01*
X0554945Y0325710D01*
X0555036Y0325763D01*
X0555129Y0325812D01*
X0555223Y0325857D01*
X0555319Y0325899D01*
X0555417Y0325937D01*
X0555516Y0325971D01*
X0555617Y0326002D01*
X0555718Y0326028D01*
X0555821Y0326051D01*
X0555924Y0326070D01*
X0556028Y0326085D01*
X0556132Y0326096D01*
X0556237Y0326103D01*
X0556342Y0326106D01*
X0556447Y0326105D01*
X0556552Y0326100D01*
X0556656Y0326091D01*
X0556760Y0326078D01*
X0556864Y0326061D01*
X0556967Y0326040D01*
X0557069Y0326015D01*
X0557170Y0325987D01*
X0557269Y0325954D01*
X0557368Y0325918D01*
X0557465Y0325878D01*
X0557560Y0325835D01*
X0557654Y0325787D01*
X0557746Y0325737D01*
X0557836Y0325683D01*
X0557924Y0325625D01*
X0558009Y0325564D01*
X0558092Y0325500D01*
X0558173Y0325433D01*
X0558251Y0325363D01*
X0558326Y0325289D01*
X0558398Y0325214D01*
X0558468Y0325135D01*
X0558534Y0325054D01*
X0558598Y0324970D01*
X0558658Y0324884D01*
X0558714Y0324796D01*
X0558768Y0324705D01*
X0558818Y0324613D01*
X0558864Y0324519D01*
X0558907Y0324423D01*
X0558946Y0324325D01*
X0558981Y0324227D01*
X0559012Y0324126D01*
X0559040Y0324025D01*
X0559064Y0323923D01*
X0559084Y0323820D01*
X0559100Y0323716D01*
X0559112Y0323612D01*
X0559120Y0323507D01*
X0559124Y0323402D01*
X0559124Y0323298D01*
X0559120Y0323193D01*
X0559112Y0323088D01*
X0559100Y0322984D01*
X0559084Y0322880D01*
X0559064Y0322777D01*
X0559040Y0322675D01*
X0559012Y0322574D01*
X0558981Y0322473D01*
X0558946Y0322375D01*
X0558907Y0322277D01*
X0558864Y0322181D01*
X0558818Y0322087D01*
X0558768Y0321995D01*
X0558714Y0321904D01*
X0558658Y0321816D01*
X0558598Y0321730D01*
X0558534Y0321646D01*
X0558468Y0321565D01*
X0558398Y0321486D01*
X0558326Y0321411D01*
X0558251Y0321337D01*
X0558173Y0321267D01*
X0558092Y0321200D01*
X0558009Y0321136D01*
X0557924Y0321075D01*
X0557836Y0321017D01*
X0557746Y0320963D01*
X0557654Y0320913D01*
X0557560Y0320865D01*
X0557465Y0320822D01*
X0557368Y0320782D01*
X0557269Y0320746D01*
X0557170Y0320713D01*
X0557069Y0320685D01*
X0556967Y0320660D01*
X0556864Y0320639D01*
X0556760Y0320622D01*
X0556656Y0320609D01*
X0556552Y0320600D01*
X0556447Y0320595D01*
X0556342Y0320594D01*
X0556237Y0320597D01*
X0556132Y0320604D01*
X0556028Y0320615D01*
X0555924Y0320630D01*
X0555821Y0320649D01*
X0555718Y0320672D01*
X0555617Y0320698D01*
X0555516Y0320729D01*
X0555417Y0320763D01*
X0555319Y0320801D01*
X0555223Y0320843D01*
X0555129Y0320888D01*
X0555036Y0320937D01*
X0554945Y0320990D01*
X0554856Y0321046D01*
X0554769Y0321105D01*
X0554685Y0321168D01*
X0554603Y0321233D01*
X0554524Y0321302D01*
X0554447Y0321374D01*
X0554373Y0321448D01*
X0554302Y0321525D01*
X0554234Y0321605D01*
X0554170Y0321688D01*
X0554108Y0321773D01*
X0554050Y0321860D01*
X0553994Y0321949D01*
X0553943Y0322041D01*
X0553895Y0322134D01*
X0553850Y0322229D01*
X0553809Y0322326D01*
X0553772Y0322424D01*
X0553739Y0322523D01*
X0553709Y0322624D01*
X0553684Y0322726D01*
X0553662Y0322828D01*
X0553644Y0322932D01*
X0553630Y0323036D01*
X0553620Y0323140D01*
X0553614Y0323245D01*
X0553612Y0323350D01*
X0493376Y0458193D02*
X0493378Y0458386D01*
X0493385Y0458579D01*
X0493397Y0458772D01*
X0493414Y0458965D01*
X0493435Y0459157D01*
X0493461Y0459348D01*
X0493492Y0459539D01*
X0493527Y0459729D01*
X0493567Y0459918D01*
X0493612Y0460106D01*
X0493661Y0460293D01*
X0493715Y0460479D01*
X0493773Y0460663D01*
X0493836Y0460846D01*
X0493904Y0461027D01*
X0493975Y0461206D01*
X0494052Y0461384D01*
X0494132Y0461560D01*
X0494217Y0461733D01*
X0494306Y0461905D01*
X0494399Y0462074D01*
X0494496Y0462241D01*
X0494598Y0462406D01*
X0494703Y0462568D01*
X0494812Y0462727D01*
X0494926Y0462884D01*
X0495043Y0463037D01*
X0495163Y0463188D01*
X0495288Y0463336D01*
X0495416Y0463481D01*
X0495547Y0463622D01*
X0495682Y0463761D01*
X0495821Y0463896D01*
X0495962Y0464027D01*
X0496107Y0464155D01*
X0496255Y0464280D01*
X0496406Y0464400D01*
X0496559Y0464517D01*
X0496716Y0464631D01*
X0496875Y0464740D01*
X0497037Y0464845D01*
X0497202Y0464947D01*
X0497369Y0465044D01*
X0497538Y0465137D01*
X0497710Y0465226D01*
X0497883Y0465311D01*
X0498059Y0465391D01*
X0498237Y0465468D01*
X0498416Y0465539D01*
X0498597Y0465607D01*
X0498780Y0465670D01*
X0498964Y0465728D01*
X0499150Y0465782D01*
X0499337Y0465831D01*
X0499525Y0465876D01*
X0499714Y0465916D01*
X0499904Y0465951D01*
X0500095Y0465982D01*
X0500286Y0466008D01*
X0500478Y0466029D01*
X0500671Y0466046D01*
X0500864Y0466058D01*
X0501057Y0466065D01*
X0501250Y0466067D01*
X0501443Y0466065D01*
X0501636Y0466058D01*
X0501829Y0466046D01*
X0502022Y0466029D01*
X0502214Y0466008D01*
X0502405Y0465982D01*
X0502596Y0465951D01*
X0502786Y0465916D01*
X0502975Y0465876D01*
X0503163Y0465831D01*
X0503350Y0465782D01*
X0503536Y0465728D01*
X0503720Y0465670D01*
X0503903Y0465607D01*
X0504084Y0465539D01*
X0504263Y0465468D01*
X0504441Y0465391D01*
X0504617Y0465311D01*
X0504790Y0465226D01*
X0504962Y0465137D01*
X0505131Y0465044D01*
X0505298Y0464947D01*
X0505463Y0464845D01*
X0505625Y0464740D01*
X0505784Y0464631D01*
X0505941Y0464517D01*
X0506094Y0464400D01*
X0506245Y0464280D01*
X0506393Y0464155D01*
X0506538Y0464027D01*
X0506679Y0463896D01*
X0506818Y0463761D01*
X0506953Y0463622D01*
X0507084Y0463481D01*
X0507212Y0463336D01*
X0507337Y0463188D01*
X0507457Y0463037D01*
X0507574Y0462884D01*
X0507688Y0462727D01*
X0507797Y0462568D01*
X0507902Y0462406D01*
X0508004Y0462241D01*
X0508101Y0462074D01*
X0508194Y0461905D01*
X0508283Y0461733D01*
X0508368Y0461560D01*
X0508448Y0461384D01*
X0508525Y0461206D01*
X0508596Y0461027D01*
X0508664Y0460846D01*
X0508727Y0460663D01*
X0508785Y0460479D01*
X0508839Y0460293D01*
X0508888Y0460106D01*
X0508933Y0459918D01*
X0508973Y0459729D01*
X0509008Y0459539D01*
X0509039Y0459348D01*
X0509065Y0459157D01*
X0509086Y0458965D01*
X0509103Y0458772D01*
X0509115Y0458579D01*
X0509122Y0458386D01*
X0509124Y0458193D01*
X0509122Y0458000D01*
X0509115Y0457807D01*
X0509103Y0457614D01*
X0509086Y0457421D01*
X0509065Y0457229D01*
X0509039Y0457038D01*
X0509008Y0456847D01*
X0508973Y0456657D01*
X0508933Y0456468D01*
X0508888Y0456280D01*
X0508839Y0456093D01*
X0508785Y0455907D01*
X0508727Y0455723D01*
X0508664Y0455540D01*
X0508596Y0455359D01*
X0508525Y0455180D01*
X0508448Y0455002D01*
X0508368Y0454826D01*
X0508283Y0454653D01*
X0508194Y0454481D01*
X0508101Y0454312D01*
X0508004Y0454145D01*
X0507902Y0453980D01*
X0507797Y0453818D01*
X0507688Y0453659D01*
X0507574Y0453502D01*
X0507457Y0453349D01*
X0507337Y0453198D01*
X0507212Y0453050D01*
X0507084Y0452905D01*
X0506953Y0452764D01*
X0506818Y0452625D01*
X0506679Y0452490D01*
X0506538Y0452359D01*
X0506393Y0452231D01*
X0506245Y0452106D01*
X0506094Y0451986D01*
X0505941Y0451869D01*
X0505784Y0451755D01*
X0505625Y0451646D01*
X0505463Y0451541D01*
X0505298Y0451439D01*
X0505131Y0451342D01*
X0504962Y0451249D01*
X0504790Y0451160D01*
X0504617Y0451075D01*
X0504441Y0450995D01*
X0504263Y0450918D01*
X0504084Y0450847D01*
X0503903Y0450779D01*
X0503720Y0450716D01*
X0503536Y0450658D01*
X0503350Y0450604D01*
X0503163Y0450555D01*
X0502975Y0450510D01*
X0502786Y0450470D01*
X0502596Y0450435D01*
X0502405Y0450404D01*
X0502214Y0450378D01*
X0502022Y0450357D01*
X0501829Y0450340D01*
X0501636Y0450328D01*
X0501443Y0450321D01*
X0501250Y0450319D01*
X0501057Y0450321D01*
X0500864Y0450328D01*
X0500671Y0450340D01*
X0500478Y0450357D01*
X0500286Y0450378D01*
X0500095Y0450404D01*
X0499904Y0450435D01*
X0499714Y0450470D01*
X0499525Y0450510D01*
X0499337Y0450555D01*
X0499150Y0450604D01*
X0498964Y0450658D01*
X0498780Y0450716D01*
X0498597Y0450779D01*
X0498416Y0450847D01*
X0498237Y0450918D01*
X0498059Y0450995D01*
X0497883Y0451075D01*
X0497710Y0451160D01*
X0497538Y0451249D01*
X0497369Y0451342D01*
X0497202Y0451439D01*
X0497037Y0451541D01*
X0496875Y0451646D01*
X0496716Y0451755D01*
X0496559Y0451869D01*
X0496406Y0451986D01*
X0496255Y0452106D01*
X0496107Y0452231D01*
X0495962Y0452359D01*
X0495821Y0452490D01*
X0495682Y0452625D01*
X0495547Y0452764D01*
X0495416Y0452905D01*
X0495288Y0453050D01*
X0495163Y0453198D01*
X0495043Y0453349D01*
X0494926Y0453502D01*
X0494812Y0453659D01*
X0494703Y0453818D01*
X0494598Y0453980D01*
X0494496Y0454145D01*
X0494399Y0454312D01*
X0494306Y0454481D01*
X0494217Y0454653D01*
X0494132Y0454826D01*
X0494052Y0455002D01*
X0493975Y0455180D01*
X0493904Y0455359D01*
X0493836Y0455540D01*
X0493773Y0455723D01*
X0493715Y0455907D01*
X0493661Y0456093D01*
X0493612Y0456280D01*
X0493567Y0456468D01*
X0493527Y0456657D01*
X0493492Y0456847D01*
X0493461Y0457038D01*
X0493435Y0457229D01*
X0493414Y0457421D01*
X0493397Y0457614D01*
X0493385Y0457807D01*
X0493378Y0458000D01*
X0493376Y0458193D01*
X0064242Y0458193D02*
X0064244Y0458386D01*
X0064251Y0458579D01*
X0064263Y0458772D01*
X0064280Y0458965D01*
X0064301Y0459157D01*
X0064327Y0459348D01*
X0064358Y0459539D01*
X0064393Y0459729D01*
X0064433Y0459918D01*
X0064478Y0460106D01*
X0064527Y0460293D01*
X0064581Y0460479D01*
X0064639Y0460663D01*
X0064702Y0460846D01*
X0064770Y0461027D01*
X0064841Y0461206D01*
X0064918Y0461384D01*
X0064998Y0461560D01*
X0065083Y0461733D01*
X0065172Y0461905D01*
X0065265Y0462074D01*
X0065362Y0462241D01*
X0065464Y0462406D01*
X0065569Y0462568D01*
X0065678Y0462727D01*
X0065792Y0462884D01*
X0065909Y0463037D01*
X0066029Y0463188D01*
X0066154Y0463336D01*
X0066282Y0463481D01*
X0066413Y0463622D01*
X0066548Y0463761D01*
X0066687Y0463896D01*
X0066828Y0464027D01*
X0066973Y0464155D01*
X0067121Y0464280D01*
X0067272Y0464400D01*
X0067425Y0464517D01*
X0067582Y0464631D01*
X0067741Y0464740D01*
X0067903Y0464845D01*
X0068068Y0464947D01*
X0068235Y0465044D01*
X0068404Y0465137D01*
X0068576Y0465226D01*
X0068749Y0465311D01*
X0068925Y0465391D01*
X0069103Y0465468D01*
X0069282Y0465539D01*
X0069463Y0465607D01*
X0069646Y0465670D01*
X0069830Y0465728D01*
X0070016Y0465782D01*
X0070203Y0465831D01*
X0070391Y0465876D01*
X0070580Y0465916D01*
X0070770Y0465951D01*
X0070961Y0465982D01*
X0071152Y0466008D01*
X0071344Y0466029D01*
X0071537Y0466046D01*
X0071730Y0466058D01*
X0071923Y0466065D01*
X0072116Y0466067D01*
X0072309Y0466065D01*
X0072502Y0466058D01*
X0072695Y0466046D01*
X0072888Y0466029D01*
X0073080Y0466008D01*
X0073271Y0465982D01*
X0073462Y0465951D01*
X0073652Y0465916D01*
X0073841Y0465876D01*
X0074029Y0465831D01*
X0074216Y0465782D01*
X0074402Y0465728D01*
X0074586Y0465670D01*
X0074769Y0465607D01*
X0074950Y0465539D01*
X0075129Y0465468D01*
X0075307Y0465391D01*
X0075483Y0465311D01*
X0075656Y0465226D01*
X0075828Y0465137D01*
X0075997Y0465044D01*
X0076164Y0464947D01*
X0076329Y0464845D01*
X0076491Y0464740D01*
X0076650Y0464631D01*
X0076807Y0464517D01*
X0076960Y0464400D01*
X0077111Y0464280D01*
X0077259Y0464155D01*
X0077404Y0464027D01*
X0077545Y0463896D01*
X0077684Y0463761D01*
X0077819Y0463622D01*
X0077950Y0463481D01*
X0078078Y0463336D01*
X0078203Y0463188D01*
X0078323Y0463037D01*
X0078440Y0462884D01*
X0078554Y0462727D01*
X0078663Y0462568D01*
X0078768Y0462406D01*
X0078870Y0462241D01*
X0078967Y0462074D01*
X0079060Y0461905D01*
X0079149Y0461733D01*
X0079234Y0461560D01*
X0079314Y0461384D01*
X0079391Y0461206D01*
X0079462Y0461027D01*
X0079530Y0460846D01*
X0079593Y0460663D01*
X0079651Y0460479D01*
X0079705Y0460293D01*
X0079754Y0460106D01*
X0079799Y0459918D01*
X0079839Y0459729D01*
X0079874Y0459539D01*
X0079905Y0459348D01*
X0079931Y0459157D01*
X0079952Y0458965D01*
X0079969Y0458772D01*
X0079981Y0458579D01*
X0079988Y0458386D01*
X0079990Y0458193D01*
X0079988Y0458000D01*
X0079981Y0457807D01*
X0079969Y0457614D01*
X0079952Y0457421D01*
X0079931Y0457229D01*
X0079905Y0457038D01*
X0079874Y0456847D01*
X0079839Y0456657D01*
X0079799Y0456468D01*
X0079754Y0456280D01*
X0079705Y0456093D01*
X0079651Y0455907D01*
X0079593Y0455723D01*
X0079530Y0455540D01*
X0079462Y0455359D01*
X0079391Y0455180D01*
X0079314Y0455002D01*
X0079234Y0454826D01*
X0079149Y0454653D01*
X0079060Y0454481D01*
X0078967Y0454312D01*
X0078870Y0454145D01*
X0078768Y0453980D01*
X0078663Y0453818D01*
X0078554Y0453659D01*
X0078440Y0453502D01*
X0078323Y0453349D01*
X0078203Y0453198D01*
X0078078Y0453050D01*
X0077950Y0452905D01*
X0077819Y0452764D01*
X0077684Y0452625D01*
X0077545Y0452490D01*
X0077404Y0452359D01*
X0077259Y0452231D01*
X0077111Y0452106D01*
X0076960Y0451986D01*
X0076807Y0451869D01*
X0076650Y0451755D01*
X0076491Y0451646D01*
X0076329Y0451541D01*
X0076164Y0451439D01*
X0075997Y0451342D01*
X0075828Y0451249D01*
X0075656Y0451160D01*
X0075483Y0451075D01*
X0075307Y0450995D01*
X0075129Y0450918D01*
X0074950Y0450847D01*
X0074769Y0450779D01*
X0074586Y0450716D01*
X0074402Y0450658D01*
X0074216Y0450604D01*
X0074029Y0450555D01*
X0073841Y0450510D01*
X0073652Y0450470D01*
X0073462Y0450435D01*
X0073271Y0450404D01*
X0073080Y0450378D01*
X0072888Y0450357D01*
X0072695Y0450340D01*
X0072502Y0450328D01*
X0072309Y0450321D01*
X0072116Y0450319D01*
X0071923Y0450321D01*
X0071730Y0450328D01*
X0071537Y0450340D01*
X0071344Y0450357D01*
X0071152Y0450378D01*
X0070961Y0450404D01*
X0070770Y0450435D01*
X0070580Y0450470D01*
X0070391Y0450510D01*
X0070203Y0450555D01*
X0070016Y0450604D01*
X0069830Y0450658D01*
X0069646Y0450716D01*
X0069463Y0450779D01*
X0069282Y0450847D01*
X0069103Y0450918D01*
X0068925Y0450995D01*
X0068749Y0451075D01*
X0068576Y0451160D01*
X0068404Y0451249D01*
X0068235Y0451342D01*
X0068068Y0451439D01*
X0067903Y0451541D01*
X0067741Y0451646D01*
X0067582Y0451755D01*
X0067425Y0451869D01*
X0067272Y0451986D01*
X0067121Y0452106D01*
X0066973Y0452231D01*
X0066828Y0452359D01*
X0066687Y0452490D01*
X0066548Y0452625D01*
X0066413Y0452764D01*
X0066282Y0452905D01*
X0066154Y0453050D01*
X0066029Y0453198D01*
X0065909Y0453349D01*
X0065792Y0453502D01*
X0065678Y0453659D01*
X0065569Y0453818D01*
X0065464Y0453980D01*
X0065362Y0454145D01*
X0065265Y0454312D01*
X0065172Y0454481D01*
X0065083Y0454653D01*
X0064998Y0454826D01*
X0064918Y0455002D01*
X0064841Y0455180D01*
X0064770Y0455359D01*
X0064702Y0455540D01*
X0064639Y0455723D01*
X0064581Y0455907D01*
X0064527Y0456093D01*
X0064478Y0456280D01*
X0064433Y0456468D01*
X0064393Y0456657D01*
X0064358Y0456847D01*
X0064327Y0457038D01*
X0064301Y0457229D01*
X0064280Y0457421D01*
X0064263Y0457614D01*
X0064251Y0457807D01*
X0064244Y0458000D01*
X0064242Y0458193D01*
X0064242Y0021185D02*
X0064244Y0021378D01*
X0064251Y0021571D01*
X0064263Y0021764D01*
X0064280Y0021957D01*
X0064301Y0022149D01*
X0064327Y0022340D01*
X0064358Y0022531D01*
X0064393Y0022721D01*
X0064433Y0022910D01*
X0064478Y0023098D01*
X0064527Y0023285D01*
X0064581Y0023471D01*
X0064639Y0023655D01*
X0064702Y0023838D01*
X0064770Y0024019D01*
X0064841Y0024198D01*
X0064918Y0024376D01*
X0064998Y0024552D01*
X0065083Y0024725D01*
X0065172Y0024897D01*
X0065265Y0025066D01*
X0065362Y0025233D01*
X0065464Y0025398D01*
X0065569Y0025560D01*
X0065678Y0025719D01*
X0065792Y0025876D01*
X0065909Y0026029D01*
X0066029Y0026180D01*
X0066154Y0026328D01*
X0066282Y0026473D01*
X0066413Y0026614D01*
X0066548Y0026753D01*
X0066687Y0026888D01*
X0066828Y0027019D01*
X0066973Y0027147D01*
X0067121Y0027272D01*
X0067272Y0027392D01*
X0067425Y0027509D01*
X0067582Y0027623D01*
X0067741Y0027732D01*
X0067903Y0027837D01*
X0068068Y0027939D01*
X0068235Y0028036D01*
X0068404Y0028129D01*
X0068576Y0028218D01*
X0068749Y0028303D01*
X0068925Y0028383D01*
X0069103Y0028460D01*
X0069282Y0028531D01*
X0069463Y0028599D01*
X0069646Y0028662D01*
X0069830Y0028720D01*
X0070016Y0028774D01*
X0070203Y0028823D01*
X0070391Y0028868D01*
X0070580Y0028908D01*
X0070770Y0028943D01*
X0070961Y0028974D01*
X0071152Y0029000D01*
X0071344Y0029021D01*
X0071537Y0029038D01*
X0071730Y0029050D01*
X0071923Y0029057D01*
X0072116Y0029059D01*
X0072309Y0029057D01*
X0072502Y0029050D01*
X0072695Y0029038D01*
X0072888Y0029021D01*
X0073080Y0029000D01*
X0073271Y0028974D01*
X0073462Y0028943D01*
X0073652Y0028908D01*
X0073841Y0028868D01*
X0074029Y0028823D01*
X0074216Y0028774D01*
X0074402Y0028720D01*
X0074586Y0028662D01*
X0074769Y0028599D01*
X0074950Y0028531D01*
X0075129Y0028460D01*
X0075307Y0028383D01*
X0075483Y0028303D01*
X0075656Y0028218D01*
X0075828Y0028129D01*
X0075997Y0028036D01*
X0076164Y0027939D01*
X0076329Y0027837D01*
X0076491Y0027732D01*
X0076650Y0027623D01*
X0076807Y0027509D01*
X0076960Y0027392D01*
X0077111Y0027272D01*
X0077259Y0027147D01*
X0077404Y0027019D01*
X0077545Y0026888D01*
X0077684Y0026753D01*
X0077819Y0026614D01*
X0077950Y0026473D01*
X0078078Y0026328D01*
X0078203Y0026180D01*
X0078323Y0026029D01*
X0078440Y0025876D01*
X0078554Y0025719D01*
X0078663Y0025560D01*
X0078768Y0025398D01*
X0078870Y0025233D01*
X0078967Y0025066D01*
X0079060Y0024897D01*
X0079149Y0024725D01*
X0079234Y0024552D01*
X0079314Y0024376D01*
X0079391Y0024198D01*
X0079462Y0024019D01*
X0079530Y0023838D01*
X0079593Y0023655D01*
X0079651Y0023471D01*
X0079705Y0023285D01*
X0079754Y0023098D01*
X0079799Y0022910D01*
X0079839Y0022721D01*
X0079874Y0022531D01*
X0079905Y0022340D01*
X0079931Y0022149D01*
X0079952Y0021957D01*
X0079969Y0021764D01*
X0079981Y0021571D01*
X0079988Y0021378D01*
X0079990Y0021185D01*
X0079988Y0020992D01*
X0079981Y0020799D01*
X0079969Y0020606D01*
X0079952Y0020413D01*
X0079931Y0020221D01*
X0079905Y0020030D01*
X0079874Y0019839D01*
X0079839Y0019649D01*
X0079799Y0019460D01*
X0079754Y0019272D01*
X0079705Y0019085D01*
X0079651Y0018899D01*
X0079593Y0018715D01*
X0079530Y0018532D01*
X0079462Y0018351D01*
X0079391Y0018172D01*
X0079314Y0017994D01*
X0079234Y0017818D01*
X0079149Y0017645D01*
X0079060Y0017473D01*
X0078967Y0017304D01*
X0078870Y0017137D01*
X0078768Y0016972D01*
X0078663Y0016810D01*
X0078554Y0016651D01*
X0078440Y0016494D01*
X0078323Y0016341D01*
X0078203Y0016190D01*
X0078078Y0016042D01*
X0077950Y0015897D01*
X0077819Y0015756D01*
X0077684Y0015617D01*
X0077545Y0015482D01*
X0077404Y0015351D01*
X0077259Y0015223D01*
X0077111Y0015098D01*
X0076960Y0014978D01*
X0076807Y0014861D01*
X0076650Y0014747D01*
X0076491Y0014638D01*
X0076329Y0014533D01*
X0076164Y0014431D01*
X0075997Y0014334D01*
X0075828Y0014241D01*
X0075656Y0014152D01*
X0075483Y0014067D01*
X0075307Y0013987D01*
X0075129Y0013910D01*
X0074950Y0013839D01*
X0074769Y0013771D01*
X0074586Y0013708D01*
X0074402Y0013650D01*
X0074216Y0013596D01*
X0074029Y0013547D01*
X0073841Y0013502D01*
X0073652Y0013462D01*
X0073462Y0013427D01*
X0073271Y0013396D01*
X0073080Y0013370D01*
X0072888Y0013349D01*
X0072695Y0013332D01*
X0072502Y0013320D01*
X0072309Y0013313D01*
X0072116Y0013311D01*
X0071923Y0013313D01*
X0071730Y0013320D01*
X0071537Y0013332D01*
X0071344Y0013349D01*
X0071152Y0013370D01*
X0070961Y0013396D01*
X0070770Y0013427D01*
X0070580Y0013462D01*
X0070391Y0013502D01*
X0070203Y0013547D01*
X0070016Y0013596D01*
X0069830Y0013650D01*
X0069646Y0013708D01*
X0069463Y0013771D01*
X0069282Y0013839D01*
X0069103Y0013910D01*
X0068925Y0013987D01*
X0068749Y0014067D01*
X0068576Y0014152D01*
X0068404Y0014241D01*
X0068235Y0014334D01*
X0068068Y0014431D01*
X0067903Y0014533D01*
X0067741Y0014638D01*
X0067582Y0014747D01*
X0067425Y0014861D01*
X0067272Y0014978D01*
X0067121Y0015098D01*
X0066973Y0015223D01*
X0066828Y0015351D01*
X0066687Y0015482D01*
X0066548Y0015617D01*
X0066413Y0015756D01*
X0066282Y0015897D01*
X0066154Y0016042D01*
X0066029Y0016190D01*
X0065909Y0016341D01*
X0065792Y0016494D01*
X0065678Y0016651D01*
X0065569Y0016810D01*
X0065464Y0016972D01*
X0065362Y0017137D01*
X0065265Y0017304D01*
X0065172Y0017473D01*
X0065083Y0017645D01*
X0064998Y0017818D01*
X0064918Y0017994D01*
X0064841Y0018172D01*
X0064770Y0018351D01*
X0064702Y0018532D01*
X0064639Y0018715D01*
X0064581Y0018899D01*
X0064527Y0019085D01*
X0064478Y0019272D01*
X0064433Y0019460D01*
X0064393Y0019649D01*
X0064358Y0019839D01*
X0064327Y0020030D01*
X0064301Y0020221D01*
X0064280Y0020413D01*
X0064263Y0020606D01*
X0064251Y0020799D01*
X0064244Y0020992D01*
X0064242Y0021185D01*
X0493376Y0021185D02*
X0493378Y0021378D01*
X0493385Y0021571D01*
X0493397Y0021764D01*
X0493414Y0021957D01*
X0493435Y0022149D01*
X0493461Y0022340D01*
X0493492Y0022531D01*
X0493527Y0022721D01*
X0493567Y0022910D01*
X0493612Y0023098D01*
X0493661Y0023285D01*
X0493715Y0023471D01*
X0493773Y0023655D01*
X0493836Y0023838D01*
X0493904Y0024019D01*
X0493975Y0024198D01*
X0494052Y0024376D01*
X0494132Y0024552D01*
X0494217Y0024725D01*
X0494306Y0024897D01*
X0494399Y0025066D01*
X0494496Y0025233D01*
X0494598Y0025398D01*
X0494703Y0025560D01*
X0494812Y0025719D01*
X0494926Y0025876D01*
X0495043Y0026029D01*
X0495163Y0026180D01*
X0495288Y0026328D01*
X0495416Y0026473D01*
X0495547Y0026614D01*
X0495682Y0026753D01*
X0495821Y0026888D01*
X0495962Y0027019D01*
X0496107Y0027147D01*
X0496255Y0027272D01*
X0496406Y0027392D01*
X0496559Y0027509D01*
X0496716Y0027623D01*
X0496875Y0027732D01*
X0497037Y0027837D01*
X0497202Y0027939D01*
X0497369Y0028036D01*
X0497538Y0028129D01*
X0497710Y0028218D01*
X0497883Y0028303D01*
X0498059Y0028383D01*
X0498237Y0028460D01*
X0498416Y0028531D01*
X0498597Y0028599D01*
X0498780Y0028662D01*
X0498964Y0028720D01*
X0499150Y0028774D01*
X0499337Y0028823D01*
X0499525Y0028868D01*
X0499714Y0028908D01*
X0499904Y0028943D01*
X0500095Y0028974D01*
X0500286Y0029000D01*
X0500478Y0029021D01*
X0500671Y0029038D01*
X0500864Y0029050D01*
X0501057Y0029057D01*
X0501250Y0029059D01*
X0501443Y0029057D01*
X0501636Y0029050D01*
X0501829Y0029038D01*
X0502022Y0029021D01*
X0502214Y0029000D01*
X0502405Y0028974D01*
X0502596Y0028943D01*
X0502786Y0028908D01*
X0502975Y0028868D01*
X0503163Y0028823D01*
X0503350Y0028774D01*
X0503536Y0028720D01*
X0503720Y0028662D01*
X0503903Y0028599D01*
X0504084Y0028531D01*
X0504263Y0028460D01*
X0504441Y0028383D01*
X0504617Y0028303D01*
X0504790Y0028218D01*
X0504962Y0028129D01*
X0505131Y0028036D01*
X0505298Y0027939D01*
X0505463Y0027837D01*
X0505625Y0027732D01*
X0505784Y0027623D01*
X0505941Y0027509D01*
X0506094Y0027392D01*
X0506245Y0027272D01*
X0506393Y0027147D01*
X0506538Y0027019D01*
X0506679Y0026888D01*
X0506818Y0026753D01*
X0506953Y0026614D01*
X0507084Y0026473D01*
X0507212Y0026328D01*
X0507337Y0026180D01*
X0507457Y0026029D01*
X0507574Y0025876D01*
X0507688Y0025719D01*
X0507797Y0025560D01*
X0507902Y0025398D01*
X0508004Y0025233D01*
X0508101Y0025066D01*
X0508194Y0024897D01*
X0508283Y0024725D01*
X0508368Y0024552D01*
X0508448Y0024376D01*
X0508525Y0024198D01*
X0508596Y0024019D01*
X0508664Y0023838D01*
X0508727Y0023655D01*
X0508785Y0023471D01*
X0508839Y0023285D01*
X0508888Y0023098D01*
X0508933Y0022910D01*
X0508973Y0022721D01*
X0509008Y0022531D01*
X0509039Y0022340D01*
X0509065Y0022149D01*
X0509086Y0021957D01*
X0509103Y0021764D01*
X0509115Y0021571D01*
X0509122Y0021378D01*
X0509124Y0021185D01*
X0509122Y0020992D01*
X0509115Y0020799D01*
X0509103Y0020606D01*
X0509086Y0020413D01*
X0509065Y0020221D01*
X0509039Y0020030D01*
X0509008Y0019839D01*
X0508973Y0019649D01*
X0508933Y0019460D01*
X0508888Y0019272D01*
X0508839Y0019085D01*
X0508785Y0018899D01*
X0508727Y0018715D01*
X0508664Y0018532D01*
X0508596Y0018351D01*
X0508525Y0018172D01*
X0508448Y0017994D01*
X0508368Y0017818D01*
X0508283Y0017645D01*
X0508194Y0017473D01*
X0508101Y0017304D01*
X0508004Y0017137D01*
X0507902Y0016972D01*
X0507797Y0016810D01*
X0507688Y0016651D01*
X0507574Y0016494D01*
X0507457Y0016341D01*
X0507337Y0016190D01*
X0507212Y0016042D01*
X0507084Y0015897D01*
X0506953Y0015756D01*
X0506818Y0015617D01*
X0506679Y0015482D01*
X0506538Y0015351D01*
X0506393Y0015223D01*
X0506245Y0015098D01*
X0506094Y0014978D01*
X0505941Y0014861D01*
X0505784Y0014747D01*
X0505625Y0014638D01*
X0505463Y0014533D01*
X0505298Y0014431D01*
X0505131Y0014334D01*
X0504962Y0014241D01*
X0504790Y0014152D01*
X0504617Y0014067D01*
X0504441Y0013987D01*
X0504263Y0013910D01*
X0504084Y0013839D01*
X0503903Y0013771D01*
X0503720Y0013708D01*
X0503536Y0013650D01*
X0503350Y0013596D01*
X0503163Y0013547D01*
X0502975Y0013502D01*
X0502786Y0013462D01*
X0502596Y0013427D01*
X0502405Y0013396D01*
X0502214Y0013370D01*
X0502022Y0013349D01*
X0501829Y0013332D01*
X0501636Y0013320D01*
X0501443Y0013313D01*
X0501250Y0013311D01*
X0501057Y0013313D01*
X0500864Y0013320D01*
X0500671Y0013332D01*
X0500478Y0013349D01*
X0500286Y0013370D01*
X0500095Y0013396D01*
X0499904Y0013427D01*
X0499714Y0013462D01*
X0499525Y0013502D01*
X0499337Y0013547D01*
X0499150Y0013596D01*
X0498964Y0013650D01*
X0498780Y0013708D01*
X0498597Y0013771D01*
X0498416Y0013839D01*
X0498237Y0013910D01*
X0498059Y0013987D01*
X0497883Y0014067D01*
X0497710Y0014152D01*
X0497538Y0014241D01*
X0497369Y0014334D01*
X0497202Y0014431D01*
X0497037Y0014533D01*
X0496875Y0014638D01*
X0496716Y0014747D01*
X0496559Y0014861D01*
X0496406Y0014978D01*
X0496255Y0015098D01*
X0496107Y0015223D01*
X0495962Y0015351D01*
X0495821Y0015482D01*
X0495682Y0015617D01*
X0495547Y0015756D01*
X0495416Y0015897D01*
X0495288Y0016042D01*
X0495163Y0016190D01*
X0495043Y0016341D01*
X0494926Y0016494D01*
X0494812Y0016651D01*
X0494703Y0016810D01*
X0494598Y0016972D01*
X0494496Y0017137D01*
X0494399Y0017304D01*
X0494306Y0017473D01*
X0494217Y0017645D01*
X0494132Y0017818D01*
X0494052Y0017994D01*
X0493975Y0018172D01*
X0493904Y0018351D01*
X0493836Y0018532D01*
X0493773Y0018715D01*
X0493715Y0018899D01*
X0493661Y0019085D01*
X0493612Y0019272D01*
X0493567Y0019460D01*
X0493527Y0019649D01*
X0493492Y0019839D01*
X0493461Y0020030D01*
X0493435Y0020221D01*
X0493414Y0020413D01*
X0493397Y0020606D01*
X0493385Y0020799D01*
X0493378Y0020992D01*
X0493376Y0021185D01*
D15*
X0380285Y0243626D03*
X0382648Y0248350D03*
X0382648Y0254846D03*
X0387372Y0256028D03*
X0387372Y0256618D03*
X0391506Y0267839D03*
X0391506Y0268429D03*
X0393868Y0268429D03*
X0394459Y0269020D03*
X0394459Y0269610D03*
X0395049Y0270201D03*
X0393868Y0276106D03*
X0394459Y0276697D03*
X0385010Y0276697D03*
X0380285Y0276697D03*
X0375561Y0276697D03*
X0374970Y0277878D03*
X0374380Y0279059D03*
X0374380Y0279650D03*
X0374380Y0280831D03*
X0374380Y0281421D03*
X0383238Y0286146D03*
X0386191Y0283783D03*
X0378514Y0291461D03*
X0376742Y0292642D03*
X0376152Y0293232D03*
X0374970Y0295004D03*
X0374380Y0294413D03*
X0376742Y0306815D03*
X0372608Y0316264D03*
X0372608Y0316854D03*
X0369656Y0317445D03*
X0369656Y0318035D03*
X0370246Y0319217D03*
X0370246Y0319807D03*
X0370246Y0320398D03*
X0373789Y0320988D03*
X0380285Y0323350D03*
X0385010Y0328075D03*
X0385010Y0329256D03*
X0385600Y0329846D03*
X0386781Y0328075D03*
X0388553Y0326303D03*
X0387372Y0331028D03*
X0385600Y0339886D03*
X0374380Y0333390D03*
X0373789Y0333980D03*
X0371427Y0332209D03*
X0371427Y0331618D03*
X0371427Y0331028D03*
X0371427Y0330437D03*
X0371427Y0329846D03*
X0371427Y0329256D03*
X0371427Y0328665D03*
X0371427Y0328075D03*
X0367884Y0329846D03*
X0367884Y0330437D03*
X0367884Y0331028D03*
X0368474Y0333980D03*
X0366703Y0324531D03*
X0366703Y0323941D03*
X0366112Y0320988D03*
X0366112Y0320398D03*
X0391506Y0316854D03*
X0404498Y0328665D03*
X0409222Y0323350D03*
X0412766Y0328075D03*
X0416900Y0325122D03*
X0416900Y0324531D03*
X0421624Y0295004D03*
X0419852Y0279059D03*
X0419262Y0271972D03*
X0426939Y0267839D03*
X0421033Y0263114D03*
X0411585Y0251894D03*
X0408041Y0256028D03*
X0400364Y0254846D03*
X0392687Y0245398D03*
X0377923Y0264295D03*
X0377923Y0264886D03*
X0377923Y0265476D03*
X0377923Y0266657D03*
X0377923Y0267248D03*
X0377333Y0267839D03*
X0377333Y0268429D03*
X0377333Y0269020D03*
X0376742Y0269610D03*
X0380876Y0267839D03*
X0380876Y0267248D03*
X0367884Y0269020D03*
X0360797Y0274925D03*
X0351939Y0276697D03*
X0351348Y0276106D03*
X0352530Y0279650D03*
X0353711Y0284374D03*
X0392687Y0293232D03*
X0403317Y0280831D03*
X0402726Y0280240D03*
X0403317Y0279650D03*
X0407451Y0266657D03*
X0433435Y0273744D03*
D16*
X0432254Y0275516D03*
X0432844Y0278469D03*
X0432254Y0279650D03*
X0432844Y0284374D03*
X0432254Y0285555D03*
X0433435Y0287917D03*
X0432844Y0288508D03*
X0432254Y0291461D03*
X0431663Y0292051D03*
X0432254Y0295594D03*
X0431663Y0296185D03*
X0430482Y0296776D03*
X0430482Y0297366D03*
X0430482Y0297957D03*
X0431073Y0299728D03*
X0430482Y0300909D03*
X0429301Y0301500D03*
X0428711Y0302091D03*
X0426939Y0303272D03*
X0426348Y0303862D03*
X0426939Y0306815D03*
X0427530Y0307996D03*
X0427530Y0308587D03*
X0428120Y0309177D03*
X0428711Y0309768D03*
X0429301Y0310358D03*
X0429301Y0310949D03*
X0422805Y0313902D03*
X0416309Y0321579D03*
X0416309Y0322169D03*
X0416309Y0322760D03*
X0416900Y0326303D03*
X0416900Y0326894D03*
X0416900Y0327484D03*
X0416309Y0329256D03*
X0416309Y0329846D03*
X0416309Y0331618D03*
X0416309Y0332209D03*
X0416309Y0332799D03*
X0409222Y0329846D03*
X0412175Y0323941D03*
X0412175Y0323350D03*
X0412175Y0322760D03*
X0412175Y0322169D03*
X0395640Y0328665D03*
X0390915Y0322169D03*
X0385010Y0323350D03*
X0385600Y0326303D03*
X0385600Y0327484D03*
X0387963Y0328665D03*
X0388553Y0329256D03*
X0386781Y0330437D03*
X0380285Y0324531D03*
X0370837Y0323941D03*
X0370837Y0323350D03*
X0367293Y0326894D03*
X0373789Y0334571D03*
X0369065Y0336343D03*
X0369656Y0338114D03*
X0370246Y0338705D03*
X0387963Y0339295D03*
X0390915Y0336343D03*
X0397411Y0336343D03*
X0403317Y0335752D03*
X0392687Y0313902D03*
X0396230Y0306815D03*
X0374380Y0313902D03*
X0365522Y0313902D03*
X0359616Y0314492D03*
X0356073Y0316264D03*
X0356073Y0316854D03*
X0355482Y0314492D03*
X0355482Y0313902D03*
X0355482Y0310358D03*
X0355482Y0309768D03*
X0356073Y0308587D03*
X0356663Y0307406D03*
X0357844Y0306224D03*
X0358435Y0305634D03*
X0358435Y0305043D03*
X0357844Y0303272D03*
X0357844Y0302091D03*
X0358435Y0301500D03*
X0357844Y0300319D03*
X0357254Y0298547D03*
X0356663Y0296776D03*
X0356663Y0295594D03*
X0354301Y0289689D03*
X0353120Y0286736D03*
X0353120Y0286146D03*
X0353711Y0283783D03*
X0353711Y0282012D03*
X0351939Y0278469D03*
X0351939Y0277287D03*
X0365522Y0270791D03*
X0376152Y0275516D03*
X0375561Y0283783D03*
X0373789Y0293823D03*
X0391506Y0277878D03*
X0390915Y0276697D03*
X0397411Y0276106D03*
X0389734Y0269610D03*
X0389144Y0269020D03*
X0388553Y0268429D03*
X0381467Y0265476D03*
X0380876Y0266067D03*
X0380876Y0266657D03*
X0379695Y0262524D03*
X0380285Y0261933D03*
X0387372Y0257209D03*
X0389144Y0245398D03*
X0380285Y0244217D03*
X0376742Y0250122D03*
X0369065Y0254846D03*
X0369065Y0255437D03*
X0405089Y0251303D03*
X0425167Y0260161D03*
X0423986Y0295004D03*
X0423986Y0295594D03*
X0422805Y0297366D03*
D17*
X0423691Y0296185D03*
X0424281Y0292642D03*
X0431368Y0292642D03*
X0431368Y0293232D03*
X0431959Y0293823D03*
X0432549Y0294413D03*
X0432549Y0295004D03*
X0430778Y0298547D03*
X0430778Y0299138D03*
X0430778Y0300319D03*
X0427825Y0302681D03*
X0425463Y0304453D03*
X0425463Y0305043D03*
X0426053Y0305634D03*
X0426644Y0306224D03*
X0427234Y0307406D03*
X0429006Y0311539D03*
X0428415Y0312130D03*
X0428415Y0312720D03*
X0428415Y0313311D03*
X0427825Y0313902D03*
X0427825Y0314492D03*
X0427234Y0315083D03*
X0426644Y0316264D03*
X0426053Y0316854D03*
X0425463Y0318035D03*
X0421919Y0310949D03*
X0421919Y0310358D03*
X0421919Y0309768D03*
X0421919Y0309177D03*
X0421329Y0308587D03*
X0421329Y0307996D03*
X0432549Y0290870D03*
X0432549Y0290280D03*
X0432549Y0289689D03*
X0432549Y0289098D03*
X0433140Y0283193D03*
X0432549Y0282602D03*
X0432549Y0282012D03*
X0432549Y0281421D03*
X0432549Y0277878D03*
X0433140Y0273154D03*
X0433140Y0271382D03*
X0433140Y0270791D03*
X0430778Y0265476D03*
X0426644Y0264295D03*
X0408927Y0267839D03*
X0407746Y0266067D03*
X0403022Y0274925D03*
X0397707Y0276697D03*
X0391801Y0279059D03*
X0391801Y0279650D03*
X0391801Y0280240D03*
X0391211Y0276106D03*
X0384124Y0269610D03*
X0384124Y0267839D03*
X0384124Y0267248D03*
X0381762Y0264886D03*
X0388258Y0267839D03*
X0391801Y0266657D03*
X0391801Y0266067D03*
X0391211Y0265476D03*
X0390620Y0264886D03*
X0392392Y0267248D03*
X0391801Y0257799D03*
X0387077Y0257799D03*
X0382352Y0257209D03*
X0375856Y0251303D03*
X0376447Y0250713D03*
X0377628Y0248941D03*
X0378809Y0247169D03*
X0380581Y0244807D03*
X0386486Y0248941D03*
X0392982Y0245988D03*
X0398888Y0251303D03*
X0408337Y0255437D03*
X0377628Y0274925D03*
X0375856Y0284374D03*
X0376447Y0284965D03*
X0368770Y0284965D03*
X0368179Y0284374D03*
X0364045Y0274925D03*
X0364045Y0274335D03*
X0364636Y0271972D03*
X0365226Y0271382D03*
X0357549Y0263705D03*
X0354006Y0268429D03*
X0353415Y0269020D03*
X0352825Y0270791D03*
X0352234Y0271972D03*
X0351644Y0273154D03*
X0351053Y0274335D03*
X0351053Y0274925D03*
X0352234Y0277878D03*
X0353415Y0282602D03*
X0353415Y0283193D03*
X0356959Y0295004D03*
X0360502Y0309768D03*
X0355778Y0315083D03*
X0356368Y0317445D03*
X0356959Y0318035D03*
X0374085Y0320398D03*
X0374675Y0319217D03*
X0391211Y0322760D03*
X0396526Y0320398D03*
X0396526Y0319807D03*
X0392982Y0314492D03*
X0395935Y0328075D03*
X0399478Y0328075D03*
X0400069Y0328665D03*
X0394163Y0337524D03*
X0390620Y0338705D03*
X0385305Y0333390D03*
X0370541Y0339295D03*
X0415423Y0333980D03*
X0416014Y0333390D03*
X0373494Y0254846D03*
X0370541Y0251894D03*
X0368770Y0256028D03*
D18*
X0378219Y0263705D03*
X0378809Y0263114D03*
X0381762Y0258390D03*
X0382352Y0256618D03*
X0382352Y0256028D03*
X0382352Y0255437D03*
X0386486Y0249531D03*
X0391211Y0248941D03*
X0389439Y0244807D03*
X0383533Y0244807D03*
X0391801Y0257209D03*
X0408337Y0267248D03*
X0397116Y0275516D03*
X0391211Y0277287D03*
X0386486Y0283193D03*
X0384124Y0284965D03*
X0374675Y0283193D03*
X0374675Y0282602D03*
X0374675Y0282012D03*
X0374675Y0280240D03*
X0374675Y0278469D03*
X0375266Y0277287D03*
X0375856Y0276106D03*
X0366998Y0269610D03*
X0366407Y0270201D03*
X0354006Y0281421D03*
X0353415Y0280831D03*
X0352825Y0280240D03*
X0352234Y0279059D03*
X0351644Y0275516D03*
X0353415Y0287327D03*
X0353415Y0287917D03*
X0354006Y0288508D03*
X0354006Y0289098D03*
X0354596Y0290280D03*
X0354596Y0290870D03*
X0355187Y0291461D03*
X0355187Y0292051D03*
X0355778Y0292642D03*
X0356368Y0293232D03*
X0356959Y0293823D03*
X0356959Y0294413D03*
X0356368Y0296185D03*
X0356959Y0297366D03*
X0356959Y0297957D03*
X0357549Y0299138D03*
X0357549Y0299728D03*
X0358140Y0300909D03*
X0357549Y0302681D03*
X0358140Y0303862D03*
X0358140Y0304453D03*
X0356959Y0306815D03*
X0356368Y0307996D03*
X0355778Y0309177D03*
X0355187Y0310949D03*
X0355187Y0311539D03*
X0355187Y0312130D03*
X0355187Y0312720D03*
X0355187Y0313311D03*
X0355778Y0315673D03*
X0360502Y0309177D03*
X0364045Y0307406D03*
X0365817Y0308587D03*
X0366407Y0309177D03*
X0368770Y0309177D03*
X0366407Y0313311D03*
X0365817Y0319217D03*
X0366407Y0321579D03*
X0366407Y0322169D03*
X0366407Y0322760D03*
X0366407Y0323350D03*
X0366998Y0325122D03*
X0366998Y0325713D03*
X0366998Y0326303D03*
X0367589Y0327484D03*
X0367589Y0328075D03*
X0367589Y0328665D03*
X0367589Y0329256D03*
X0368179Y0331618D03*
X0368179Y0332209D03*
X0368179Y0332799D03*
X0368179Y0333390D03*
X0368770Y0334571D03*
X0368770Y0335161D03*
X0368770Y0335752D03*
X0369360Y0336933D03*
X0369360Y0337524D03*
X0377628Y0339886D03*
X0371722Y0327484D03*
X0371722Y0326894D03*
X0371722Y0326303D03*
X0371132Y0325713D03*
X0371132Y0325122D03*
X0371132Y0324531D03*
X0370541Y0322760D03*
X0370541Y0322169D03*
X0370541Y0321579D03*
X0370541Y0320988D03*
X0369951Y0318626D03*
X0372904Y0317445D03*
X0388258Y0329846D03*
X0399478Y0335161D03*
X0404203Y0330437D03*
X0416604Y0330437D03*
X0416604Y0331028D03*
X0416604Y0328665D03*
X0416604Y0328075D03*
X0417195Y0325713D03*
X0416604Y0323941D03*
X0416604Y0323350D03*
X0417195Y0318035D03*
X0421329Y0307406D03*
X0406565Y0288508D03*
X0398888Y0295004D03*
X0403612Y0279059D03*
X0427234Y0267248D03*
X0430778Y0264886D03*
X0432549Y0274925D03*
X0432549Y0279059D03*
X0431959Y0284965D03*
X0397116Y0313902D03*
X0397116Y0314492D03*
X0397116Y0317445D03*
X0411289Y0252484D03*
D19*
X0413652Y0266067D03*
X0411289Y0270791D03*
X0424281Y0274925D03*
X0396526Y0277878D03*
X0388258Y0271972D03*
X0362274Y0278469D03*
X0362274Y0279059D03*
X0362274Y0286146D03*
X0362274Y0286736D03*
X0361093Y0312130D03*
X0362864Y0317445D03*
X0374085Y0312720D03*
X0374085Y0312130D03*
X0380581Y0315083D03*
X0395344Y0318035D03*
X0404203Y0322169D03*
X0404203Y0322760D03*
X0405384Y0325122D03*
X0394163Y0330437D03*
X0413061Y0335752D03*
X0381762Y0245398D03*
D20*
X0381762Y0245988D03*
X0381762Y0246579D03*
X0372904Y0252484D03*
X0365226Y0258390D03*
X0362274Y0279650D03*
X0362274Y0284374D03*
X0363455Y0316854D03*
X0377037Y0322760D03*
X0378219Y0325713D03*
X0377628Y0331618D03*
X0393573Y0331028D03*
X0393573Y0335161D03*
X0409518Y0336933D03*
X0418967Y0320988D03*
X0410108Y0310949D03*
X0424872Y0274335D03*
X0424872Y0273744D03*
X0424872Y0272563D03*
X0424872Y0271972D03*
X0423691Y0262524D03*
X0411289Y0271382D03*
D21*
X0409518Y0268429D03*
X0402431Y0272563D03*
X0402431Y0273154D03*
X0396526Y0266067D03*
X0395935Y0264886D03*
X0385896Y0266067D03*
X0384124Y0269020D03*
X0379400Y0273744D03*
X0378809Y0274335D03*
X0377628Y0285555D03*
X0369360Y0286146D03*
X0362864Y0275516D03*
X0354596Y0267839D03*
X0356368Y0265476D03*
X0358730Y0261933D03*
X0368179Y0256618D03*
X0385305Y0261933D03*
X0386486Y0248350D03*
X0388848Y0245988D03*
X0418967Y0269610D03*
X0431368Y0267839D03*
X0431368Y0267248D03*
X0431959Y0268429D03*
X0432549Y0269020D03*
X0432549Y0269610D03*
X0433730Y0271972D03*
X0433730Y0272563D03*
X0432549Y0276697D03*
X0426053Y0280831D03*
X0424872Y0291461D03*
X0423691Y0294413D03*
X0424281Y0296776D03*
X0422510Y0297957D03*
X0423100Y0319807D03*
X0411880Y0325122D03*
X0409518Y0330437D03*
X0414833Y0334571D03*
X0396526Y0320988D03*
X0387077Y0314492D03*
X0379990Y0320398D03*
X0384715Y0322760D03*
X0386486Y0326894D03*
X0384715Y0333980D03*
X0374675Y0335752D03*
X0374085Y0335161D03*
X0372313Y0341067D03*
X0374085Y0313311D03*
X0370541Y0305634D03*
X0359911Y0313902D03*
X0398888Y0294413D03*
D22*
X0401545Y0304453D03*
X0386191Y0293823D03*
X0386191Y0293232D03*
X0395049Y0278469D03*
X0405679Y0286146D03*
X0416309Y0283783D03*
X0416309Y0283193D03*
X0412175Y0273154D03*
X0422215Y0270791D03*
X0422805Y0271382D03*
X0409813Y0254256D03*
X0402726Y0251894D03*
X0390915Y0246579D03*
X0363159Y0280831D03*
X0363159Y0289689D03*
X0366703Y0296185D03*
X0366703Y0296776D03*
X0384419Y0313902D03*
X0394459Y0323350D03*
X0394459Y0323941D03*
X0395640Y0326303D03*
X0402136Y0339295D03*
X0403907Y0338705D03*
X0382648Y0335161D03*
X0380285Y0338705D03*
X0417490Y0316854D03*
X0419852Y0320398D03*
D23*
X0409518Y0309768D03*
X0411880Y0307406D03*
X0400659Y0302091D03*
X0408927Y0295594D03*
X0419557Y0286146D03*
X0413061Y0280831D03*
X0413061Y0280240D03*
X0413061Y0279650D03*
X0386486Y0296776D03*
X0385896Y0305634D03*
X0366998Y0292051D03*
X0387667Y0260752D03*
X0388848Y0247169D03*
X0406565Y0253665D03*
D24*
X0401545Y0254256D03*
X0398002Y0250713D03*
X0394459Y0262524D03*
X0394459Y0263114D03*
X0395049Y0263705D03*
X0395640Y0264295D03*
X0396230Y0265476D03*
X0387963Y0267248D03*
X0383829Y0268429D03*
X0380876Y0272563D03*
X0384419Y0284374D03*
X0383238Y0291461D03*
X0383238Y0292051D03*
X0374970Y0289689D03*
X0374380Y0289098D03*
X0369065Y0285555D03*
X0363750Y0273744D03*
X0364341Y0272563D03*
X0356663Y0264886D03*
X0357254Y0264295D03*
X0357844Y0263114D03*
X0358435Y0262524D03*
X0353120Y0269610D03*
X0353120Y0270201D03*
X0352530Y0271382D03*
X0351939Y0272563D03*
X0351348Y0273744D03*
X0353711Y0284965D03*
X0353711Y0285555D03*
X0366112Y0307996D03*
X0360797Y0310358D03*
X0357844Y0318626D03*
X0374380Y0319807D03*
X0375561Y0318626D03*
X0382648Y0318626D03*
X0391506Y0319807D03*
X0391506Y0320398D03*
X0391506Y0320988D03*
X0395640Y0329256D03*
X0399774Y0329256D03*
X0400955Y0330437D03*
X0403317Y0335161D03*
X0396821Y0336933D03*
X0392687Y0338114D03*
X0380876Y0339886D03*
X0371427Y0340476D03*
X0370837Y0339886D03*
X0402136Y0312130D03*
X0411585Y0321579D03*
X0412175Y0324531D03*
X0423986Y0319217D03*
X0424577Y0318626D03*
X0425758Y0317445D03*
X0426939Y0315673D03*
X0422805Y0313311D03*
X0422215Y0311539D03*
X0423986Y0293232D03*
X0424577Y0292051D03*
X0432254Y0286146D03*
X0433435Y0287327D03*
X0432844Y0283783D03*
X0432254Y0280831D03*
X0432254Y0280240D03*
X0432844Y0277287D03*
X0432254Y0276106D03*
X0432844Y0270201D03*
X0426939Y0265476D03*
X0426939Y0264886D03*
X0426348Y0263705D03*
X0425758Y0263114D03*
X0418081Y0268429D03*
X0418671Y0269020D03*
X0408632Y0264295D03*
X0402726Y0273744D03*
X0402726Y0274335D03*
X0382648Y0257799D03*
X0375561Y0251894D03*
X0377333Y0249531D03*
X0377923Y0248350D03*
X0378514Y0247760D03*
D25*
X0389439Y0247760D03*
X0410108Y0275516D03*
X0410108Y0276106D03*
X0410108Y0277287D03*
X0413652Y0282012D03*
X0419557Y0286736D03*
X0419557Y0287917D03*
X0420148Y0285555D03*
X0409518Y0295004D03*
X0382352Y0317445D03*
X0371132Y0302681D03*
X0380581Y0336933D03*
D26*
X0378809Y0329256D03*
X0378809Y0328665D03*
X0378809Y0328075D03*
X0378809Y0327484D03*
X0394163Y0321579D03*
X0395935Y0326894D03*
X0404793Y0321579D03*
X0404793Y0317445D03*
X0404203Y0316854D03*
X0394163Y0312130D03*
X0393573Y0312720D03*
X0376447Y0310949D03*
X0370541Y0305043D03*
X0364045Y0315673D03*
X0363455Y0316264D03*
X0362274Y0319807D03*
X0396526Y0340476D03*
X0416604Y0284965D03*
X0416604Y0284374D03*
X0411880Y0272563D03*
X0422510Y0261343D03*
X0421919Y0260752D03*
X0410699Y0254846D03*
X0394163Y0248350D03*
X0388848Y0272563D03*
X0362864Y0280240D03*
D27*
X0362569Y0277878D03*
X0360207Y0261343D03*
X0366112Y0257799D03*
X0386191Y0266657D03*
X0391506Y0275516D03*
X0410994Y0270201D03*
X0410994Y0269610D03*
X0419262Y0260161D03*
X0416309Y0257799D03*
X0415719Y0257209D03*
X0396230Y0248941D03*
X0425167Y0284374D03*
X0425167Y0284965D03*
X0413356Y0313902D03*
X0417490Y0317445D03*
X0404498Y0323350D03*
X0404498Y0323941D03*
X0404498Y0324531D03*
X0385010Y0310949D03*
X0366703Y0314492D03*
X0366112Y0315083D03*
X0360797Y0312720D03*
D28*
X0360502Y0308587D03*
X0360502Y0307996D03*
X0362864Y0306224D03*
X0362274Y0305634D03*
X0362274Y0305043D03*
X0361683Y0304453D03*
X0363455Y0306815D03*
X0367589Y0305634D03*
X0366998Y0309768D03*
X0365817Y0312720D03*
X0363455Y0318035D03*
X0370541Y0316854D03*
X0380581Y0323941D03*
X0385896Y0323941D03*
X0387667Y0327484D03*
X0384715Y0328665D03*
X0385896Y0332799D03*
X0390030Y0336933D03*
X0374675Y0338705D03*
X0371132Y0332799D03*
X0388258Y0319807D03*
X0391211Y0318035D03*
X0383533Y0312720D03*
X0383533Y0310358D03*
X0385305Y0310358D03*
X0388258Y0310358D03*
X0395935Y0306224D03*
X0398297Y0305043D03*
X0401841Y0305634D03*
X0403022Y0307996D03*
X0401250Y0311539D03*
X0407746Y0311539D03*
X0400069Y0297957D03*
X0397707Y0297957D03*
X0394163Y0293823D03*
X0394754Y0293232D03*
X0395935Y0292642D03*
X0392982Y0293823D03*
X0385896Y0285555D03*
X0384715Y0283783D03*
X0383533Y0279650D03*
X0383533Y0279059D03*
X0384124Y0278469D03*
X0384124Y0277878D03*
X0384715Y0277287D03*
X0386486Y0274925D03*
X0385896Y0271382D03*
X0385305Y0265476D03*
X0387077Y0265476D03*
X0391801Y0262524D03*
X0393573Y0267839D03*
X0392392Y0269610D03*
X0395344Y0270791D03*
X0407156Y0263705D03*
X0411289Y0264295D03*
X0404203Y0254256D03*
X0391211Y0249531D03*
X0386486Y0250122D03*
X0382352Y0261933D03*
X0377628Y0266067D03*
X0369951Y0267839D03*
X0368770Y0268429D03*
X0361093Y0272563D03*
X0359911Y0274335D03*
X0378219Y0279059D03*
X0378219Y0279650D03*
X0378809Y0278469D03*
X0378809Y0277878D03*
X0379400Y0277287D03*
X0379990Y0274925D03*
X0378809Y0292051D03*
X0379400Y0292642D03*
X0379400Y0293232D03*
X0378809Y0293823D03*
X0377037Y0297957D03*
X0373494Y0305634D03*
X0401250Y0285555D03*
X0404793Y0288508D03*
X0421329Y0276106D03*
X0421329Y0275516D03*
X0426644Y0268429D03*
X0433140Y0274335D03*
X0428415Y0286736D03*
X0413061Y0328665D03*
X0410108Y0328075D03*
D29*
X0405679Y0328075D03*
X0396230Y0322169D03*
X0402726Y0312720D03*
X0411585Y0311539D03*
X0412175Y0312130D03*
X0421624Y0312130D03*
X0421624Y0312720D03*
X0421624Y0299138D03*
X0422215Y0298547D03*
X0423986Y0293823D03*
X0425167Y0290870D03*
X0425758Y0282602D03*
X0425758Y0282012D03*
X0425758Y0281421D03*
X0425758Y0280240D03*
X0425758Y0279650D03*
X0425758Y0279059D03*
X0425758Y0278469D03*
X0432844Y0286736D03*
X0417490Y0267839D03*
X0416309Y0267248D03*
X0410404Y0269020D03*
X0402136Y0271972D03*
X0401545Y0271382D03*
X0400955Y0270791D03*
X0400364Y0270201D03*
X0400364Y0269610D03*
X0399774Y0269020D03*
X0399183Y0268429D03*
X0398593Y0267839D03*
X0398002Y0267248D03*
X0397411Y0266657D03*
X0393278Y0261933D03*
X0397411Y0250122D03*
X0396821Y0249531D03*
X0413356Y0255437D03*
X0379695Y0273154D03*
X0363750Y0273154D03*
X0362569Y0276106D03*
X0362569Y0276697D03*
X0354892Y0267248D03*
X0355482Y0266657D03*
X0356073Y0266067D03*
X0370246Y0286736D03*
X0370837Y0287327D03*
X0371427Y0287917D03*
X0372608Y0288508D03*
X0360797Y0310949D03*
X0361978Y0320398D03*
X0376152Y0323350D03*
X0376152Y0323941D03*
X0376152Y0324531D03*
X0378514Y0333980D03*
X0392096Y0335752D03*
X0413947Y0335161D03*
X0395049Y0311539D03*
X0389734Y0309768D03*
X0380876Y0314492D03*
X0402136Y0305043D03*
D30*
X0409518Y0310358D03*
X0405384Y0318035D03*
X0393573Y0319217D03*
X0394754Y0324531D03*
X0394754Y0325122D03*
X0394754Y0325713D03*
X0382943Y0335752D03*
X0405384Y0338114D03*
X0379400Y0307996D03*
X0366998Y0297366D03*
X0366407Y0295594D03*
X0364045Y0290280D03*
X0363455Y0281421D03*
X0388848Y0258980D03*
X0388848Y0258390D03*
X0390030Y0273154D03*
X0392392Y0274925D03*
X0395344Y0282012D03*
X0411880Y0273744D03*
X0403022Y0252484D03*
D31*
X0410994Y0264886D03*
X0421033Y0270201D03*
X0424577Y0273154D03*
X0429301Y0266657D03*
X0429301Y0266067D03*
X0407451Y0283783D03*
X0406860Y0284374D03*
X0406860Y0284965D03*
X0391506Y0291461D03*
X0374970Y0311539D03*
X0377923Y0325122D03*
X0377333Y0332209D03*
X0377333Y0332799D03*
X0379104Y0339295D03*
X0374380Y0341657D03*
X0397411Y0327484D03*
X0411585Y0336343D03*
X0403317Y0315083D03*
X0403317Y0314492D03*
X0362569Y0287327D03*
X0361978Y0285555D03*
X0361978Y0284965D03*
X0360797Y0260752D03*
X0372018Y0254256D03*
X0372018Y0253665D03*
X0372608Y0253075D03*
D32*
X0405679Y0253075D03*
X0367884Y0293232D03*
X0370837Y0303272D03*
X0380285Y0318035D03*
X0400955Y0302681D03*
X0411585Y0307996D03*
D33*
X0412470Y0312720D03*
X0413061Y0313311D03*
X0403022Y0313311D03*
X0403022Y0313902D03*
X0396526Y0322760D03*
X0385896Y0320398D03*
X0378219Y0333390D03*
X0359321Y0319217D03*
X0360502Y0313311D03*
X0361093Y0311539D03*
X0374675Y0290280D03*
X0378809Y0286146D03*
X0391211Y0292051D03*
X0397707Y0280240D03*
X0397707Y0279650D03*
X0397707Y0279059D03*
X0396526Y0277287D03*
X0407746Y0283193D03*
X0425463Y0283193D03*
X0425463Y0283783D03*
X0425463Y0290280D03*
X0426053Y0277878D03*
X0425463Y0277287D03*
X0425463Y0276697D03*
X0424872Y0276106D03*
X0424872Y0275516D03*
X0415423Y0266657D03*
X0418376Y0259571D03*
X0417785Y0258980D03*
X0417195Y0258390D03*
X0414833Y0256618D03*
X0414242Y0256028D03*
X0366998Y0257209D03*
X0362274Y0277287D03*
D34*
X0361978Y0287917D03*
X0361978Y0288508D03*
X0362569Y0289098D03*
X0386191Y0263705D03*
X0363750Y0258980D03*
X0362569Y0259571D03*
X0361978Y0260161D03*
X0406270Y0285555D03*
X0411585Y0271972D03*
X0409616Y0265476D03*
X0423396Y0261933D03*
X0403317Y0315673D03*
X0403907Y0316264D03*
X0394459Y0318626D03*
X0378514Y0326303D03*
X0378514Y0326894D03*
X0378514Y0329846D03*
X0378514Y0330437D03*
X0377923Y0331028D03*
X0378514Y0344020D03*
X0395640Y0341067D03*
X0408632Y0337524D03*
D35*
X0399774Y0339886D03*
X0396821Y0329846D03*
X0408041Y0327484D03*
X0408041Y0326894D03*
X0405679Y0318626D03*
X0417490Y0316264D03*
X0385600Y0302681D03*
X0385600Y0302091D03*
X0385600Y0301500D03*
X0386191Y0294413D03*
X0393278Y0284965D03*
X0393868Y0284374D03*
X0395049Y0283193D03*
X0395640Y0281421D03*
X0395640Y0280831D03*
X0386191Y0264295D03*
X0389144Y0260161D03*
X0389144Y0259571D03*
X0363750Y0282012D03*
X0363750Y0282602D03*
X0363750Y0283783D03*
X0366703Y0297957D03*
X0382648Y0320988D03*
X0381467Y0334571D03*
D36*
X0380285Y0336343D03*
X0380876Y0337524D03*
X0382648Y0316854D03*
X0375561Y0309768D03*
X0386191Y0306224D03*
X0393278Y0307996D03*
X0409222Y0297366D03*
X0413947Y0306815D03*
X0419262Y0288508D03*
X0387372Y0261343D03*
X0367293Y0291461D03*
X0406270Y0331028D03*
D37*
X0408337Y0326303D03*
X0414242Y0305043D03*
X0414833Y0304453D03*
X0394754Y0283783D03*
X0395344Y0282602D03*
X0390620Y0273744D03*
X0411880Y0274335D03*
X0385896Y0303272D03*
X0370541Y0304453D03*
X0366998Y0298547D03*
X0365817Y0295004D03*
X0366407Y0294413D03*
X0366407Y0293823D03*
X0364045Y0283193D03*
X0381171Y0322169D03*
D38*
X0381467Y0321579D03*
X0376742Y0310358D03*
X0378514Y0308587D03*
X0401545Y0303862D03*
X0415719Y0303862D03*
X0417490Y0315673D03*
X0406270Y0319217D03*
X0408041Y0325713D03*
X0392687Y0285555D03*
X0390915Y0274335D03*
X0411585Y0274925D03*
D39*
X0410404Y0276697D03*
X0410404Y0277878D03*
X0410404Y0278469D03*
X0413356Y0281421D03*
X0413356Y0282602D03*
X0419852Y0287327D03*
X0386191Y0306815D03*
D40*
X0385896Y0305043D03*
X0386486Y0296185D03*
X0392392Y0286146D03*
X0411880Y0279059D03*
X0416014Y0302091D03*
X0414242Y0306224D03*
X0401250Y0303272D03*
X0406565Y0319807D03*
X0406565Y0320398D03*
X0366998Y0292642D03*
D41*
X0387372Y0282602D03*
D42*
X0393278Y0286736D03*
D43*
X0392982Y0287327D03*
D44*
X0393278Y0287917D03*
X0408041Y0301500D03*
X0402136Y0309177D03*
D45*
X0392096Y0289689D03*
X0391506Y0289098D03*
X0390915Y0288508D03*
D46*
X0387077Y0297957D03*
X0408337Y0292642D03*
X0419557Y0289098D03*
D47*
X0419262Y0289689D03*
X0368474Y0290870D03*
X0399183Y0333980D03*
X0382648Y0343429D03*
D48*
X0392982Y0290280D03*
D49*
X0387667Y0292642D03*
X0386486Y0295004D03*
X0386486Y0295594D03*
X0385896Y0303862D03*
X0377628Y0309177D03*
X0414242Y0305634D03*
X0416014Y0303272D03*
X0416014Y0302681D03*
X0417195Y0315083D03*
X0416014Y0290280D03*
D50*
X0401250Y0290870D03*
D51*
X0409222Y0291461D03*
D52*
X0409518Y0292051D03*
X0408337Y0293823D03*
X0400069Y0333390D03*
X0382352Y0342839D03*
D53*
X0407451Y0293232D03*
D54*
X0410108Y0294413D03*
X0387077Y0297366D03*
X0371132Y0301500D03*
X0371132Y0302091D03*
X0398297Y0334571D03*
X0390030Y0341657D03*
D55*
X0380285Y0338114D03*
X0406860Y0320988D03*
X0417490Y0314492D03*
X0407451Y0297957D03*
X0408041Y0296776D03*
X0408041Y0296185D03*
X0385600Y0304453D03*
X0390915Y0315083D03*
X0370837Y0303862D03*
D56*
X0394754Y0298547D03*
D57*
X0387963Y0299138D03*
D58*
X0392982Y0299728D03*
X0392982Y0300319D03*
D59*
X0376152Y0300909D03*
D60*
X0402136Y0308587D03*
X0407451Y0300909D03*
D61*
X0387077Y0307406D03*
D62*
X0389144Y0313311D03*
D63*
X0387372Y0315673D03*
D64*
X0385896Y0316264D03*
D65*
X0401545Y0331618D03*
X0401545Y0332209D03*
D66*
X0400659Y0332799D03*
D67*
X0383533Y0342248D03*
D68*
X0400060Y0187318D02*
X0400060Y0185648D01*
X0400060Y0182308D02*
X0400060Y0175628D01*
X0401730Y0175628D02*
X0398390Y0175628D01*
X0394480Y0177298D02*
X0392810Y0178968D01*
X0387800Y0178968D01*
X0387800Y0180638D02*
X0387800Y0175628D01*
X0392810Y0175628D01*
X0394480Y0177298D01*
X0389470Y0182308D02*
X0387800Y0180638D01*
X0389470Y0182308D02*
X0392810Y0182308D01*
X0400060Y0182308D02*
X0401730Y0182308D01*
X0405926Y0182308D02*
X0410936Y0182308D01*
X0412606Y0180638D01*
X0410936Y0178968D01*
X0407596Y0178968D01*
X0405926Y0177298D01*
X0407596Y0175628D01*
X0412606Y0175628D01*
X0416801Y0177298D02*
X0418471Y0178968D01*
X0421811Y0178968D01*
X0423481Y0180638D01*
X0421811Y0182308D01*
X0416801Y0182308D01*
X0416801Y0177298D02*
X0418471Y0175628D01*
X0423481Y0175628D01*
X0427677Y0175628D02*
X0427677Y0182308D01*
X0434356Y0182308D02*
X0434356Y0177298D01*
X0432687Y0175628D01*
X0427677Y0175628D01*
X0438552Y0175628D02*
X0441892Y0178968D01*
X0440222Y0178968D02*
X0445232Y0178968D01*
X0445232Y0175628D02*
X0445232Y0185648D01*
X0440222Y0185648D01*
X0438552Y0183978D01*
X0438552Y0180638D01*
X0440222Y0178968D01*
X0440222Y0165963D02*
X0443562Y0165963D01*
X0445232Y0164293D01*
X0445232Y0162623D01*
X0443562Y0160953D01*
X0440222Y0160953D01*
X0438552Y0159283D01*
X0438552Y0157613D01*
X0440222Y0155943D01*
X0443562Y0155943D01*
X0445232Y0157613D01*
X0438552Y0164293D02*
X0440222Y0165963D01*
X0434356Y0160953D02*
X0432687Y0162623D01*
X0429347Y0162623D01*
X0427677Y0160953D01*
X0427677Y0159283D01*
X0434356Y0159283D01*
X0434356Y0157613D02*
X0434356Y0160953D01*
X0434356Y0157613D02*
X0432687Y0155943D01*
X0429347Y0155943D01*
X0423481Y0155943D02*
X0423481Y0162623D01*
X0423481Y0159283D02*
X0420141Y0162623D01*
X0418471Y0162623D01*
X0414418Y0162623D02*
X0411078Y0155943D01*
X0407738Y0162623D01*
X0403543Y0162623D02*
X0401873Y0162623D01*
X0401873Y0155943D01*
X0403543Y0155943D02*
X0400203Y0155943D01*
X0396292Y0157613D02*
X0394623Y0155943D01*
X0389613Y0155943D01*
X0385417Y0157613D02*
X0385417Y0160953D01*
X0383747Y0162623D01*
X0380407Y0162623D01*
X0378737Y0160953D01*
X0378737Y0159283D01*
X0385417Y0159283D01*
X0385417Y0157613D02*
X0383747Y0155943D01*
X0380407Y0155943D01*
X0389613Y0162623D02*
X0394623Y0162623D01*
X0396292Y0160953D01*
X0396292Y0157613D01*
X0401873Y0165963D02*
X0401873Y0167633D01*
X0383604Y0175628D02*
X0383604Y0182308D01*
X0378595Y0182308D01*
X0376925Y0180638D01*
X0376925Y0175628D01*
X0361854Y0175628D02*
X0361854Y0185648D01*
X0356844Y0185648D01*
X0355174Y0183978D01*
X0355174Y0182308D01*
X0356844Y0180638D01*
X0361854Y0180638D01*
X0361854Y0175628D02*
X0356844Y0175628D01*
X0355174Y0177298D01*
X0355174Y0178968D01*
X0356844Y0180638D01*
X0350978Y0180638D02*
X0350978Y0177298D01*
X0349308Y0175628D01*
X0345968Y0175628D01*
X0344298Y0178968D02*
X0350978Y0178968D01*
X0350978Y0180638D02*
X0349308Y0182308D01*
X0345968Y0182308D01*
X0344298Y0180638D01*
X0344298Y0178968D01*
X0340103Y0177298D02*
X0338433Y0178968D01*
X0333423Y0178968D01*
X0333423Y0180638D02*
X0333423Y0175628D01*
X0338433Y0175628D01*
X0340103Y0177298D01*
X0335093Y0182308D02*
X0333423Y0180638D01*
X0335093Y0182308D02*
X0338433Y0182308D01*
X0329227Y0182308D02*
X0329227Y0175628D01*
X0329227Y0178968D02*
X0325887Y0182308D01*
X0324218Y0182308D01*
X0326173Y0162623D02*
X0326173Y0157613D01*
X0327843Y0155943D01*
X0329513Y0157613D01*
X0331183Y0155943D01*
X0332852Y0157613D01*
X0332852Y0162623D01*
X0337048Y0160953D02*
X0337048Y0159283D01*
X0343728Y0159283D01*
X0343728Y0157613D02*
X0343728Y0160953D01*
X0342058Y0162623D01*
X0338718Y0162623D01*
X0337048Y0160953D01*
X0338718Y0155943D02*
X0342058Y0155943D01*
X0343728Y0157613D01*
X0347781Y0162623D02*
X0349451Y0162623D01*
X0352791Y0159283D01*
X0352791Y0155943D02*
X0352791Y0162623D01*
X0356986Y0164293D02*
X0358656Y0165963D01*
X0361996Y0165963D01*
X0363666Y0164293D01*
X0363666Y0157613D01*
X0361996Y0155943D01*
X0358656Y0155943D01*
X0356986Y0157613D01*
D69*
X0108880Y0169914D02*
X0106470Y0167504D01*
X0104060Y0167504D01*
X0101650Y0169914D01*
X0101650Y0174735D01*
X0099240Y0177145D01*
X0096830Y0177145D01*
X0094420Y0174735D01*
X0094420Y0169914D01*
X0096830Y0167504D01*
X0108880Y0169914D02*
X0108880Y0174735D01*
X0106470Y0177145D01*
X0108880Y0182005D02*
X0108880Y0191645D01*
X0106470Y0196505D02*
X0096830Y0196505D01*
X0094420Y0198916D01*
X0094420Y0203736D01*
X0096830Y0206146D01*
X0101650Y0206146D01*
X0101650Y0201326D01*
X0106470Y0206146D02*
X0108880Y0203736D01*
X0108880Y0198916D01*
X0106470Y0196505D01*
X0101650Y0186825D02*
X0101650Y0182005D01*
X0094420Y0182005D02*
X0108880Y0182005D01*
X0106470Y0211006D02*
X0096830Y0211006D01*
X0106470Y0220646D01*
X0096830Y0220646D01*
X0094420Y0218236D01*
X0094420Y0213416D01*
X0096830Y0211006D01*
X0106470Y0211006D02*
X0108880Y0213416D01*
X0108880Y0218236D01*
X0106470Y0220646D01*
X0108880Y0225507D02*
X0101650Y0225507D01*
X0104060Y0230327D01*
X0104060Y0232737D01*
X0101650Y0235147D01*
X0096830Y0235147D01*
X0094420Y0232737D01*
X0094420Y0227917D01*
X0096830Y0225507D01*
X0108880Y0225507D02*
X0108880Y0235147D01*
X0108880Y0249647D02*
X0094420Y0240007D01*
X0096830Y0254508D02*
X0106470Y0264148D01*
X0096830Y0264148D01*
X0094420Y0261738D01*
X0094420Y0256918D01*
X0096830Y0254508D01*
X0106470Y0254508D01*
X0108880Y0256918D01*
X0108880Y0261738D01*
X0106470Y0264148D01*
X0104060Y0269008D02*
X0108880Y0273829D01*
X0094420Y0273829D01*
X0094420Y0278649D02*
X0094420Y0269008D01*
X0101650Y0283509D02*
X0101650Y0293149D01*
X0101650Y0298010D02*
X0101650Y0305240D01*
X0099240Y0307650D01*
X0096830Y0307650D01*
X0094420Y0305240D01*
X0094420Y0298010D01*
X0108880Y0298010D01*
X0108880Y0305240D01*
X0106470Y0307650D01*
X0104060Y0307650D01*
X0101650Y0305240D01*
D70*
X0097707Y0385358D02*
X0097707Y0399138D01*
X0162667Y0399138D01*
X0162667Y0385358D01*
X0097707Y0385358D01*
D71*
X0308608Y0367584D02*
X0308608Y0366817D01*
X0309376Y0366049D01*
X0310910Y0366049D01*
X0311678Y0366817D01*
X0311678Y0367584D01*
X0310910Y0368351D01*
X0309376Y0368351D01*
X0308608Y0367584D01*
X0309376Y0366049D02*
X0308608Y0365282D01*
X0308608Y0364515D01*
X0309376Y0363747D01*
X0310910Y0363747D01*
X0311678Y0364515D01*
X0311678Y0365282D01*
X0310910Y0366049D01*
X0313212Y0366049D02*
X0316281Y0366049D01*
X0313980Y0368351D01*
X0313980Y0363747D01*
X0312742Y0362366D02*
X0315742Y0362366D01*
X0317816Y0364515D02*
X0318583Y0363747D01*
X0320118Y0363747D01*
X0320885Y0364515D01*
X0320885Y0367584D01*
X0320118Y0368351D01*
X0318583Y0368351D01*
X0317816Y0367584D01*
X0315644Y0357169D02*
X0312742Y0357169D01*
X0312742Y0346618D02*
X0315742Y0346618D01*
X0315644Y0341421D02*
X0312742Y0341421D01*
X0311803Y0340044D02*
X0308734Y0340044D01*
X0308734Y0339277D01*
X0311803Y0336207D01*
X0311803Y0335440D01*
X0314105Y0335440D02*
X0314105Y0340044D01*
X0316407Y0337742D01*
X0313337Y0337742D01*
X0317941Y0336207D02*
X0318709Y0335440D01*
X0320243Y0335440D01*
X0321011Y0336207D01*
X0321011Y0339277D01*
X0320243Y0340044D01*
X0318709Y0340044D01*
X0317941Y0339277D01*
X0501522Y0376326D02*
X0502289Y0375558D01*
X0503824Y0375558D01*
X0504591Y0376326D01*
X0506126Y0377860D02*
X0509195Y0377860D01*
X0506893Y0380162D01*
X0506893Y0375558D01*
X0510730Y0376326D02*
X0511497Y0375558D01*
X0513031Y0375558D01*
X0513799Y0376326D01*
X0513799Y0379395D01*
X0513031Y0380162D01*
X0511497Y0380162D01*
X0510730Y0379395D01*
X0511497Y0385401D02*
X0510730Y0386168D01*
X0511497Y0385401D02*
X0513031Y0385401D01*
X0513799Y0386168D01*
X0513799Y0389237D01*
X0513031Y0390005D01*
X0511497Y0390005D01*
X0510730Y0389237D01*
X0509195Y0387703D02*
X0506893Y0390005D01*
X0506893Y0385401D01*
X0506126Y0387703D02*
X0509195Y0387703D01*
X0504591Y0387703D02*
X0502289Y0390005D01*
X0502289Y0385401D01*
X0501522Y0387703D02*
X0504591Y0387703D01*
X0503824Y0380162D02*
X0502289Y0380162D01*
X0501522Y0379395D01*
X0501522Y0378628D01*
X0502289Y0377860D01*
X0501522Y0377093D01*
X0501522Y0376326D01*
X0502289Y0377860D02*
X0503056Y0377860D01*
X0504591Y0379395D02*
X0503824Y0380162D01*
X0503824Y0395243D02*
X0504591Y0396011D01*
X0503824Y0395243D02*
X0502289Y0395243D01*
X0501522Y0396011D01*
X0501522Y0397545D01*
X0502289Y0398313D01*
X0503056Y0398313D01*
X0504591Y0397545D01*
X0504591Y0399847D01*
X0501522Y0399847D01*
X0506126Y0397545D02*
X0509195Y0397545D01*
X0506893Y0399847D01*
X0506893Y0395243D01*
X0510730Y0396011D02*
X0511497Y0395243D01*
X0513031Y0395243D01*
X0513799Y0396011D01*
X0513799Y0399080D01*
X0513031Y0399847D01*
X0511497Y0399847D01*
X0510730Y0399080D01*
X0511497Y0405086D02*
X0510730Y0405853D01*
X0511497Y0405086D02*
X0513031Y0405086D01*
X0513799Y0405853D01*
X0513799Y0408922D01*
X0513031Y0409690D01*
X0511497Y0409690D01*
X0510730Y0408922D01*
X0509195Y0407388D02*
X0506893Y0409690D01*
X0506893Y0405086D01*
X0506126Y0407388D02*
X0509195Y0407388D01*
X0504591Y0407388D02*
X0503056Y0408922D01*
X0501522Y0409690D01*
X0502289Y0407388D02*
X0504591Y0407388D01*
X0504591Y0405853D01*
X0503824Y0405086D01*
X0502289Y0405086D01*
X0501522Y0405853D01*
X0501522Y0406620D01*
X0502289Y0407388D01*
X0502289Y0414928D02*
X0502289Y0419532D01*
X0504591Y0417230D01*
X0501522Y0417230D01*
X0506126Y0416463D02*
X0506126Y0415696D01*
X0506893Y0414928D01*
X0508428Y0414928D01*
X0509195Y0415696D01*
X0510730Y0415696D02*
X0511497Y0414928D01*
X0513031Y0414928D01*
X0513799Y0415696D01*
X0513799Y0418765D01*
X0513031Y0419532D01*
X0511497Y0419532D01*
X0510730Y0418765D01*
X0509195Y0418765D02*
X0508428Y0419532D01*
X0506893Y0419532D01*
X0506126Y0418765D01*
X0506126Y0417998D01*
X0506893Y0417230D01*
X0506126Y0416463D01*
X0506893Y0417230D02*
X0507660Y0417230D01*
X0506893Y0424771D02*
X0508428Y0424771D01*
X0509195Y0425538D01*
X0510730Y0425538D02*
X0511497Y0424771D01*
X0513031Y0424771D01*
X0513799Y0425538D01*
X0513799Y0428607D01*
X0513031Y0429375D01*
X0511497Y0429375D01*
X0510730Y0428607D01*
X0509195Y0428607D02*
X0508428Y0429375D01*
X0506893Y0429375D01*
X0506126Y0428607D01*
X0506126Y0427840D01*
X0506893Y0427073D01*
X0506126Y0426305D01*
X0506126Y0425538D01*
X0506893Y0424771D01*
X0506893Y0427073D02*
X0507660Y0427073D01*
X0504591Y0428607D02*
X0503824Y0429375D01*
X0502289Y0429375D01*
X0501522Y0428607D01*
X0501522Y0427840D01*
X0502289Y0427073D01*
X0501522Y0426305D01*
X0501522Y0425538D01*
X0502289Y0424771D01*
X0503824Y0424771D01*
X0504591Y0425538D01*
X0503056Y0427073D02*
X0502289Y0427073D01*
X0501522Y0434613D02*
X0504591Y0434613D01*
X0501522Y0437683D01*
X0501522Y0438450D01*
X0502289Y0439217D01*
X0503824Y0439217D01*
X0504591Y0438450D01*
X0506126Y0438450D02*
X0506126Y0437683D01*
X0506893Y0436915D01*
X0506126Y0436148D01*
X0506126Y0435381D01*
X0506893Y0434613D01*
X0508428Y0434613D01*
X0509195Y0435381D01*
X0510730Y0435381D02*
X0511497Y0434613D01*
X0513031Y0434613D01*
X0513799Y0435381D01*
X0513799Y0438450D01*
X0513031Y0439217D01*
X0511497Y0439217D01*
X0510730Y0438450D01*
X0509195Y0438450D02*
X0508428Y0439217D01*
X0506893Y0439217D01*
X0506126Y0438450D01*
X0506893Y0436915D02*
X0507660Y0436915D01*
X0519533Y0439138D02*
X0522435Y0439138D01*
X0522435Y0443783D02*
X0519435Y0443783D01*
X0519533Y0448980D02*
X0522435Y0448980D01*
X0522207Y0450361D02*
X0522974Y0451129D01*
X0522207Y0450361D02*
X0520672Y0450361D01*
X0519905Y0451129D01*
X0519905Y0451896D01*
X0520672Y0452663D01*
X0521440Y0452663D01*
X0520672Y0452663D02*
X0519905Y0453431D01*
X0519905Y0454198D01*
X0520672Y0454965D01*
X0522207Y0454965D01*
X0522974Y0454198D01*
X0524509Y0454198D02*
X0525276Y0454965D01*
X0526811Y0454965D01*
X0527578Y0454198D01*
X0527578Y0451129D01*
X0526811Y0450361D01*
X0525276Y0450361D01*
X0524509Y0451129D01*
X0518370Y0450361D02*
X0515301Y0450361D01*
X0516836Y0450361D02*
X0516836Y0454965D01*
X0518370Y0453431D01*
X0519435Y0433941D02*
X0522435Y0433941D01*
X0522435Y0429295D02*
X0519533Y0429295D01*
X0519435Y0424098D02*
X0522435Y0424098D01*
X0522435Y0419453D02*
X0519533Y0419453D01*
X0519435Y0414256D02*
X0522435Y0414256D01*
X0522435Y0409610D02*
X0519435Y0409610D01*
X0519435Y0404413D02*
X0522337Y0404413D01*
X0522435Y0399768D02*
X0519435Y0399768D01*
X0519435Y0394571D02*
X0522337Y0394571D01*
X0522435Y0389925D02*
X0519435Y0389925D01*
X0519435Y0384728D02*
X0522337Y0384728D01*
X0522435Y0380083D02*
X0519435Y0380083D01*
X0519435Y0374886D02*
X0522337Y0374886D01*
X0552900Y0374886D02*
X0555900Y0374886D01*
X0555900Y0380083D02*
X0552998Y0380083D01*
X0552900Y0384728D02*
X0555900Y0384728D01*
X0555900Y0389925D02*
X0552998Y0389925D01*
X0552900Y0394571D02*
X0555900Y0394571D01*
X0555900Y0399768D02*
X0552998Y0399768D01*
X0552900Y0404413D02*
X0555900Y0404413D01*
X0555900Y0409610D02*
X0552998Y0409610D01*
X0552900Y0414256D02*
X0555801Y0414256D01*
X0555900Y0419453D02*
X0552900Y0419453D01*
X0552900Y0424098D02*
X0555801Y0424098D01*
X0555900Y0429295D02*
X0552900Y0429295D01*
X0552900Y0433941D02*
X0555801Y0433941D01*
X0555900Y0439138D02*
X0552900Y0439138D01*
X0552900Y0443783D02*
X0555801Y0443783D01*
X0555900Y0448980D02*
X0552900Y0448980D01*
X0554137Y0450361D02*
X0553370Y0451129D01*
X0553370Y0451896D01*
X0554137Y0452663D01*
X0554904Y0452663D01*
X0554137Y0452663D02*
X0553370Y0453431D01*
X0553370Y0454198D01*
X0554137Y0454965D01*
X0555672Y0454965D01*
X0556439Y0454198D01*
X0557974Y0454198D02*
X0558741Y0454965D01*
X0560276Y0454965D01*
X0561043Y0454198D01*
X0561043Y0451129D01*
X0560276Y0450361D01*
X0558741Y0450361D01*
X0557974Y0451129D01*
X0556439Y0451129D02*
X0555672Y0450361D01*
X0554137Y0450361D01*
X0551835Y0451129D02*
X0551068Y0450361D01*
X0549533Y0450361D01*
X0548766Y0451129D01*
X0548766Y0452663D01*
X0549533Y0453431D01*
X0550300Y0453431D01*
X0551835Y0452663D01*
X0551835Y0454965D01*
X0548766Y0454965D01*
X0562545Y0439217D02*
X0564080Y0438450D01*
X0565615Y0436915D01*
X0563313Y0436915D01*
X0562545Y0436148D01*
X0562545Y0435381D01*
X0563313Y0434613D01*
X0564847Y0434613D01*
X0565615Y0435381D01*
X0565615Y0436915D01*
X0567149Y0436148D02*
X0567149Y0435381D01*
X0567917Y0434613D01*
X0569451Y0434613D01*
X0570219Y0435381D01*
X0571753Y0435381D02*
X0572520Y0434613D01*
X0574055Y0434613D01*
X0574822Y0435381D01*
X0574822Y0438450D01*
X0574055Y0439217D01*
X0572520Y0439217D01*
X0571753Y0438450D01*
X0570219Y0438450D02*
X0569451Y0439217D01*
X0567917Y0439217D01*
X0567149Y0438450D01*
X0567149Y0437683D01*
X0567917Y0436915D01*
X0567149Y0436148D01*
X0567917Y0436915D02*
X0568684Y0436915D01*
X0569451Y0429375D02*
X0567917Y0429375D01*
X0567149Y0428607D01*
X0567149Y0427840D01*
X0567917Y0427073D01*
X0567149Y0426305D01*
X0567149Y0425538D01*
X0567917Y0424771D01*
X0569451Y0424771D01*
X0570219Y0425538D01*
X0571753Y0425538D02*
X0572520Y0424771D01*
X0574055Y0424771D01*
X0574822Y0425538D01*
X0574822Y0428607D01*
X0574055Y0429375D01*
X0572520Y0429375D01*
X0571753Y0428607D01*
X0570219Y0428607D02*
X0569451Y0429375D01*
X0568684Y0427073D02*
X0567917Y0427073D01*
X0565615Y0425538D02*
X0565615Y0424771D01*
X0565615Y0425538D02*
X0562545Y0428607D01*
X0562545Y0429375D01*
X0565615Y0429375D01*
X0564847Y0419532D02*
X0563313Y0419532D01*
X0562545Y0418765D01*
X0562545Y0417998D01*
X0563313Y0417230D01*
X0564847Y0417230D01*
X0565615Y0417998D01*
X0565615Y0418765D01*
X0564847Y0419532D01*
X0564847Y0417230D02*
X0565615Y0416463D01*
X0565615Y0415696D01*
X0564847Y0414928D01*
X0563313Y0414928D01*
X0562545Y0415696D01*
X0562545Y0416463D01*
X0563313Y0417230D01*
X0567149Y0416463D02*
X0567149Y0415696D01*
X0567917Y0414928D01*
X0569451Y0414928D01*
X0570219Y0415696D01*
X0571753Y0415696D02*
X0572520Y0414928D01*
X0574055Y0414928D01*
X0574822Y0415696D01*
X0574822Y0418765D01*
X0574055Y0419532D01*
X0572520Y0419532D01*
X0571753Y0418765D01*
X0570219Y0418765D02*
X0569451Y0419532D01*
X0567917Y0419532D01*
X0567149Y0418765D01*
X0567149Y0417998D01*
X0567917Y0417230D01*
X0567149Y0416463D01*
X0567917Y0417230D02*
X0568684Y0417230D01*
X0567917Y0409690D02*
X0570219Y0407388D01*
X0567149Y0407388D01*
X0565615Y0408922D02*
X0564847Y0409690D01*
X0563313Y0409690D01*
X0562545Y0408922D01*
X0562545Y0408155D01*
X0565615Y0405086D01*
X0562545Y0405086D01*
X0567917Y0405086D02*
X0567917Y0409690D01*
X0571753Y0408922D02*
X0572520Y0409690D01*
X0574055Y0409690D01*
X0574822Y0408922D01*
X0574822Y0405853D01*
X0574055Y0405086D01*
X0572520Y0405086D01*
X0571753Y0405853D01*
X0572520Y0399847D02*
X0571753Y0399080D01*
X0572520Y0399847D02*
X0574055Y0399847D01*
X0574822Y0399080D01*
X0574822Y0396011D01*
X0574055Y0395243D01*
X0572520Y0395243D01*
X0571753Y0396011D01*
X0570219Y0397545D02*
X0567149Y0397545D01*
X0565615Y0398313D02*
X0564080Y0399847D01*
X0564080Y0395243D01*
X0565615Y0395243D02*
X0562545Y0395243D01*
X0563313Y0390005D02*
X0562545Y0389237D01*
X0565615Y0386168D01*
X0564847Y0385401D01*
X0563313Y0385401D01*
X0562545Y0386168D01*
X0562545Y0389237D01*
X0563313Y0390005D02*
X0564847Y0390005D01*
X0565615Y0389237D01*
X0565615Y0386168D01*
X0567149Y0387703D02*
X0570219Y0387703D01*
X0567917Y0390005D01*
X0567917Y0385401D01*
X0571753Y0386168D02*
X0572520Y0385401D01*
X0574055Y0385401D01*
X0574822Y0386168D01*
X0574822Y0389237D01*
X0574055Y0390005D01*
X0572520Y0390005D01*
X0571753Y0389237D01*
X0567917Y0395243D02*
X0567917Y0399847D01*
X0570219Y0397545D01*
X0569451Y0380162D02*
X0567917Y0380162D01*
X0567149Y0379395D01*
X0567149Y0378628D01*
X0567917Y0377860D01*
X0567149Y0377093D01*
X0567149Y0376326D01*
X0567917Y0375558D01*
X0569451Y0375558D01*
X0570219Y0376326D01*
X0571753Y0376326D02*
X0572520Y0375558D01*
X0574055Y0375558D01*
X0574822Y0376326D01*
X0574822Y0379395D01*
X0574055Y0380162D01*
X0572520Y0380162D01*
X0571753Y0379395D01*
X0570219Y0379395D02*
X0569451Y0380162D01*
X0568684Y0377860D02*
X0567917Y0377860D01*
X0565615Y0378628D02*
X0565615Y0379395D01*
X0564847Y0380162D01*
X0563313Y0380162D01*
X0562545Y0379395D01*
X0562545Y0376326D01*
X0563313Y0375558D01*
X0564847Y0375558D01*
X0565615Y0376326D01*
X0564847Y0377860D02*
X0562545Y0377860D01*
X0564847Y0377860D02*
X0565615Y0378628D01*
X0496507Y0176300D02*
X0493438Y0173231D01*
X0492670Y0173998D01*
X0492670Y0175533D01*
X0493438Y0176300D01*
X0496507Y0176300D01*
X0497274Y0175533D01*
X0497274Y0173998D01*
X0496507Y0173231D01*
X0493438Y0173231D01*
X0492670Y0171696D02*
X0492670Y0168627D01*
X0495740Y0171696D01*
X0496507Y0171696D01*
X0497274Y0170929D01*
X0497274Y0169394D01*
X0496507Y0168627D01*
X0496507Y0167092D02*
X0497274Y0166325D01*
X0497274Y0164790D01*
X0496507Y0164023D01*
X0493438Y0164023D01*
X0492670Y0164790D01*
X0492670Y0166325D01*
X0493438Y0167092D01*
X0490069Y0169291D02*
X0490069Y0172291D01*
X0484872Y0172291D02*
X0484872Y0169390D01*
X0257226Y0099867D02*
X0257226Y0096798D01*
X0256459Y0096031D01*
X0254924Y0096031D01*
X0254157Y0096798D01*
X0252622Y0098333D02*
X0249553Y0098333D01*
X0250320Y0100635D02*
X0252622Y0098333D01*
X0254157Y0099867D02*
X0254924Y0100635D01*
X0256459Y0100635D01*
X0257226Y0099867D01*
X0254719Y0094650D02*
X0251719Y0094650D01*
X0250320Y0096031D02*
X0250320Y0100635D01*
X0251719Y0089453D02*
X0254620Y0089453D01*
D72*
X0487475Y0167968D03*
X0487475Y0173668D03*
D73*
X0483229Y0171075D02*
X0482622Y0171681D01*
X0480196Y0169255D01*
X0479589Y0169861D01*
X0479589Y0171075D01*
X0480196Y0171681D01*
X0482622Y0171681D01*
X0483229Y0171075D02*
X0483229Y0169861D01*
X0482622Y0169255D01*
X0480196Y0169255D01*
X0480196Y0168056D02*
X0479589Y0167450D01*
X0479589Y0166236D01*
X0480196Y0165629D01*
X0482622Y0168056D01*
X0480196Y0168056D01*
X0482622Y0168056D02*
X0483229Y0167450D01*
X0483229Y0166236D01*
X0482622Y0165629D01*
X0480196Y0165629D01*
X0479589Y0164431D02*
X0479589Y0162004D01*
X0479589Y0163218D02*
X0483229Y0163218D01*
X0482016Y0162004D01*
X0482016Y0172880D02*
X0479589Y0172880D01*
X0479589Y0175306D02*
X0481409Y0175306D01*
X0482016Y0174700D01*
X0482016Y0172880D01*
X0481409Y0176505D02*
X0481409Y0177718D01*
X0479589Y0176505D02*
X0483229Y0176505D01*
X0483229Y0178932D01*
X0305313Y0342044D02*
X0302886Y0342044D01*
X0304099Y0342044D02*
X0304099Y0345684D01*
X0305313Y0344470D01*
X0301687Y0345077D02*
X0301081Y0345684D01*
X0299867Y0345684D01*
X0299261Y0345077D01*
X0301687Y0342650D01*
X0301081Y0342044D01*
X0299867Y0342044D01*
X0299261Y0342650D01*
X0299261Y0345077D01*
X0298062Y0345077D02*
X0297456Y0345684D01*
X0296242Y0345684D01*
X0295636Y0345077D01*
X0298062Y0342650D01*
X0297456Y0342044D01*
X0296242Y0342044D01*
X0295636Y0342650D01*
X0295636Y0345077D01*
X0294437Y0344470D02*
X0292617Y0344470D01*
X0292010Y0343864D01*
X0292010Y0342044D01*
X0290812Y0342044D02*
X0290812Y0345684D01*
X0288385Y0345684D01*
X0289599Y0343864D02*
X0290812Y0343864D01*
X0294437Y0344470D02*
X0294437Y0342044D01*
X0298062Y0342650D02*
X0298062Y0345077D01*
X0301687Y0345077D02*
X0301687Y0342650D01*
X0301081Y0357792D02*
X0301687Y0358398D01*
X0299261Y0360825D01*
X0299261Y0358398D01*
X0299867Y0357792D01*
X0301081Y0357792D01*
X0301687Y0358398D02*
X0301687Y0360825D01*
X0301081Y0361432D01*
X0299867Y0361432D01*
X0299261Y0360825D01*
X0298062Y0360825D02*
X0298062Y0358398D01*
X0295636Y0360825D01*
X0295636Y0358398D01*
X0296242Y0357792D01*
X0297456Y0357792D01*
X0298062Y0358398D01*
X0298062Y0360825D02*
X0297456Y0361432D01*
X0296242Y0361432D01*
X0295636Y0360825D01*
X0294437Y0360218D02*
X0292617Y0360218D01*
X0292010Y0359612D01*
X0292010Y0357792D01*
X0290812Y0357792D02*
X0290812Y0361432D01*
X0288385Y0361432D01*
X0289599Y0359612D02*
X0290812Y0359612D01*
X0294437Y0360218D02*
X0294437Y0357792D01*
X0302886Y0357792D02*
X0305313Y0357792D01*
X0304099Y0357792D02*
X0304099Y0361432D01*
X0305313Y0360218D01*
X0511078Y0373558D02*
X0513505Y0373558D01*
X0513505Y0369918D01*
X0514703Y0370524D02*
X0515310Y0369918D01*
X0517130Y0369918D01*
X0517130Y0368704D02*
X0517130Y0372344D01*
X0515310Y0372344D01*
X0514703Y0371738D01*
X0514703Y0370524D01*
X0513505Y0371738D02*
X0512291Y0371738D01*
X0518328Y0372951D02*
X0520755Y0370524D01*
X0520148Y0369918D01*
X0518935Y0369918D01*
X0518328Y0370524D01*
X0518328Y0372951D01*
X0518935Y0373558D01*
X0520148Y0373558D01*
X0520755Y0372951D01*
X0520755Y0370524D01*
X0521953Y0370524D02*
X0522560Y0369918D01*
X0523773Y0369918D01*
X0524380Y0370524D01*
X0521953Y0372951D01*
X0521953Y0370524D01*
X0524380Y0370524D02*
X0524380Y0372951D01*
X0523773Y0373558D01*
X0522560Y0373558D01*
X0521953Y0372951D01*
X0525579Y0369918D02*
X0528005Y0369918D01*
X0526792Y0369918D02*
X0526792Y0373558D01*
X0528005Y0372344D01*
X0544543Y0373558D02*
X0546969Y0373558D01*
X0546969Y0369918D01*
X0548168Y0370524D02*
X0548774Y0369918D01*
X0550594Y0369918D01*
X0550594Y0368704D02*
X0550594Y0372344D01*
X0548774Y0372344D01*
X0548168Y0371738D01*
X0548168Y0370524D01*
X0546969Y0371738D02*
X0545756Y0371738D01*
X0551793Y0372951D02*
X0554220Y0370524D01*
X0553613Y0369918D01*
X0552399Y0369918D01*
X0551793Y0370524D01*
X0551793Y0372951D01*
X0552399Y0373558D01*
X0553613Y0373558D01*
X0554220Y0372951D01*
X0554220Y0370524D01*
X0555418Y0370524D02*
X0556025Y0369918D01*
X0557238Y0369918D01*
X0557845Y0370524D01*
X0555418Y0372951D01*
X0555418Y0370524D01*
X0557845Y0370524D02*
X0557845Y0372951D01*
X0557238Y0373558D01*
X0556025Y0373558D01*
X0555418Y0372951D01*
X0559043Y0369918D02*
X0561470Y0369918D01*
X0560256Y0369918D02*
X0560256Y0373558D01*
X0561470Y0372344D01*
X0557281Y0458185D02*
X0554854Y0458185D01*
X0556068Y0458185D02*
X0556068Y0461826D01*
X0557281Y0460612D01*
X0553656Y0461219D02*
X0553656Y0458792D01*
X0551229Y0461219D01*
X0551229Y0458792D01*
X0551836Y0458185D01*
X0553049Y0458185D01*
X0553656Y0458792D01*
X0553656Y0461219D02*
X0553049Y0461826D01*
X0551836Y0461826D01*
X0551229Y0461219D01*
X0550031Y0461219D02*
X0549424Y0461826D01*
X0548211Y0461826D01*
X0547604Y0461219D01*
X0550031Y0458792D01*
X0549424Y0458185D01*
X0548211Y0458185D01*
X0547604Y0458792D01*
X0547604Y0461219D01*
X0546406Y0460612D02*
X0544586Y0460612D01*
X0543979Y0460005D01*
X0543979Y0458792D01*
X0544586Y0458185D01*
X0546406Y0458185D01*
X0546406Y0456972D02*
X0546406Y0460612D01*
X0550031Y0461219D02*
X0550031Y0458792D01*
X0542781Y0458185D02*
X0542781Y0461826D01*
X0540354Y0461826D01*
X0541567Y0460005D02*
X0542781Y0460005D01*
X0531691Y0460612D02*
X0530477Y0461826D01*
X0530477Y0458185D01*
X0529264Y0458185D02*
X0531691Y0458185D01*
X0528065Y0458792D02*
X0525639Y0461219D01*
X0525639Y0458792D01*
X0526245Y0458185D01*
X0527459Y0458185D01*
X0528065Y0458792D01*
X0528065Y0461219D01*
X0527459Y0461826D01*
X0526245Y0461826D01*
X0525639Y0461219D01*
X0524440Y0461219D02*
X0523834Y0461826D01*
X0522620Y0461826D01*
X0522014Y0461219D01*
X0524440Y0458792D01*
X0523834Y0458185D01*
X0522620Y0458185D01*
X0522014Y0458792D01*
X0522014Y0461219D01*
X0520815Y0460612D02*
X0518995Y0460612D01*
X0518388Y0460005D01*
X0518388Y0458792D01*
X0518995Y0458185D01*
X0520815Y0458185D01*
X0520815Y0456972D02*
X0520815Y0460612D01*
X0517190Y0460005D02*
X0515977Y0460005D01*
X0517190Y0458185D02*
X0517190Y0461826D01*
X0514763Y0461826D01*
X0524440Y0461219D02*
X0524440Y0458792D01*
X0258824Y0087810D02*
X0258824Y0084170D01*
X0260037Y0084170D02*
X0257610Y0084170D01*
X0256412Y0084776D02*
X0253985Y0087203D01*
X0253985Y0084776D01*
X0254592Y0084170D01*
X0255805Y0084170D01*
X0256412Y0084776D01*
X0256412Y0087203D01*
X0255805Y0087810D01*
X0254592Y0087810D01*
X0253985Y0087203D01*
X0252787Y0087203D02*
X0252180Y0087810D01*
X0250967Y0087810D01*
X0250360Y0087203D01*
X0252787Y0084776D01*
X0252180Y0084170D01*
X0250967Y0084170D01*
X0250360Y0084776D01*
X0250360Y0087203D01*
X0249162Y0086596D02*
X0249162Y0084170D01*
X0249162Y0086596D02*
X0247342Y0086596D01*
X0246735Y0085990D01*
X0246735Y0084170D01*
X0245536Y0084170D02*
X0245536Y0087810D01*
X0243110Y0087810D01*
X0244323Y0085990D02*
X0245536Y0085990D01*
X0252787Y0084776D02*
X0252787Y0087203D01*
X0258824Y0087810D02*
X0260037Y0086596D01*
D74*
X0256042Y0092056D03*
X0250342Y0092056D03*
X0311366Y0344024D03*
X0317066Y0344024D03*
X0317066Y0359772D03*
X0311366Y0359772D03*
X0518058Y0377489D03*
X0523758Y0377489D03*
X0523758Y0387331D03*
X0518058Y0387331D03*
X0518058Y0397174D03*
X0523758Y0397174D03*
X0523758Y0407016D03*
X0518058Y0407016D03*
X0518112Y0416850D03*
X0523812Y0416850D03*
X0523812Y0426692D03*
X0518112Y0426692D03*
X0518112Y0436535D03*
X0523812Y0436535D03*
X0523812Y0446377D03*
X0518112Y0446377D03*
X0551523Y0446386D03*
X0557223Y0446386D03*
X0557223Y0436544D03*
X0551523Y0436544D03*
X0551523Y0426701D03*
X0557223Y0426701D03*
X0557223Y0416859D03*
X0551523Y0416859D03*
X0551576Y0407007D03*
X0557276Y0407007D03*
X0557276Y0397165D03*
X0551576Y0397165D03*
X0551576Y0387322D03*
X0557276Y0387322D03*
X0557276Y0377480D03*
X0551576Y0377480D03*
M02*
