G75*
%MOIN*%
%OFA0B0*%
%FSLAX25Y25*%
%IPPOS*%
%LPD*%
%AMOC8*
5,1,8,0,0,1.08239X$1,22.5*
%
%ADD10C,0.16548*%
%ADD11C,0.24422*%
%ADD12R,0.07874X0.11811*%
%ADD13R,0.10236X0.11024*%
%ADD14C,0.13780*%
%ADD15C,0.07874*%
%ADD16C,0.09800*%
%ADD17C,0.11300*%
%ADD18C,0.06312*%
%ADD19C,0.06706*%
%ADD20C,0.06000*%
%ADD21C,0.06000*%
%ADD22OC8,0.06737*%
%ADD23C,0.06400*%
%ADD24R,0.06706X0.05918*%
%ADD25C,0.06400*%
%ADD26R,0.05918X0.06706*%
%ADD27R,0.06800X0.06800*%
%ADD28OC8,0.06800*%
D10*
X0072116Y0021185D03*
X0495344Y0021185D03*
X0495344Y0450319D03*
X0072116Y0450319D03*
D11*
X0280778Y0233783D03*
D12*
X0572116Y0241657D03*
X0572116Y0300713D03*
D13*
X0527234Y0300713D03*
X0527234Y0241657D03*
D14*
X0262805Y0233783D02*
X0262810Y0234224D01*
X0262827Y0234665D01*
X0262854Y0235105D01*
X0262892Y0235545D01*
X0262940Y0235983D01*
X0263000Y0236420D01*
X0263070Y0236856D01*
X0263150Y0237289D01*
X0263242Y0237721D01*
X0263344Y0238150D01*
X0263456Y0238577D01*
X0263579Y0239000D01*
X0263712Y0239421D01*
X0263856Y0239838D01*
X0264009Y0240251D01*
X0264173Y0240661D01*
X0264347Y0241066D01*
X0264531Y0241467D01*
X0264724Y0241864D01*
X0264927Y0242255D01*
X0265140Y0242642D01*
X0265362Y0243023D01*
X0265593Y0243399D01*
X0265834Y0243768D01*
X0266084Y0244132D01*
X0266342Y0244490D01*
X0266609Y0244841D01*
X0266885Y0245185D01*
X0267169Y0245522D01*
X0267461Y0245853D01*
X0267761Y0246176D01*
X0268069Y0246492D01*
X0268385Y0246800D01*
X0268708Y0247100D01*
X0269039Y0247392D01*
X0269376Y0247676D01*
X0269720Y0247952D01*
X0270071Y0248219D01*
X0270429Y0248477D01*
X0270793Y0248727D01*
X0271162Y0248968D01*
X0271538Y0249199D01*
X0271919Y0249421D01*
X0272306Y0249634D01*
X0272697Y0249837D01*
X0273094Y0250030D01*
X0273495Y0250214D01*
X0273900Y0250388D01*
X0274310Y0250552D01*
X0274723Y0250705D01*
X0275140Y0250849D01*
X0275561Y0250982D01*
X0275984Y0251105D01*
X0276411Y0251217D01*
X0276840Y0251319D01*
X0277272Y0251411D01*
X0277705Y0251491D01*
X0278141Y0251561D01*
X0278578Y0251621D01*
X0279016Y0251669D01*
X0279456Y0251707D01*
X0279896Y0251734D01*
X0280337Y0251751D01*
X0280778Y0251756D01*
X0281219Y0251751D01*
X0281660Y0251734D01*
X0282100Y0251707D01*
X0282540Y0251669D01*
X0282978Y0251621D01*
X0283415Y0251561D01*
X0283851Y0251491D01*
X0284284Y0251411D01*
X0284716Y0251319D01*
X0285145Y0251217D01*
X0285572Y0251105D01*
X0285995Y0250982D01*
X0286416Y0250849D01*
X0286833Y0250705D01*
X0287246Y0250552D01*
X0287656Y0250388D01*
X0288061Y0250214D01*
X0288462Y0250030D01*
X0288859Y0249837D01*
X0289250Y0249634D01*
X0289637Y0249421D01*
X0290018Y0249199D01*
X0290394Y0248968D01*
X0290763Y0248727D01*
X0291127Y0248477D01*
X0291485Y0248219D01*
X0291836Y0247952D01*
X0292180Y0247676D01*
X0292517Y0247392D01*
X0292848Y0247100D01*
X0293171Y0246800D01*
X0293487Y0246492D01*
X0293795Y0246176D01*
X0294095Y0245853D01*
X0294387Y0245522D01*
X0294671Y0245185D01*
X0294947Y0244841D01*
X0295214Y0244490D01*
X0295472Y0244132D01*
X0295722Y0243768D01*
X0295963Y0243399D01*
X0296194Y0243023D01*
X0296416Y0242642D01*
X0296629Y0242255D01*
X0296832Y0241864D01*
X0297025Y0241467D01*
X0297209Y0241066D01*
X0297383Y0240661D01*
X0297547Y0240251D01*
X0297700Y0239838D01*
X0297844Y0239421D01*
X0297977Y0239000D01*
X0298100Y0238577D01*
X0298212Y0238150D01*
X0298314Y0237721D01*
X0298406Y0237289D01*
X0298486Y0236856D01*
X0298556Y0236420D01*
X0298616Y0235983D01*
X0298664Y0235545D01*
X0298702Y0235105D01*
X0298729Y0234665D01*
X0298746Y0234224D01*
X0298751Y0233783D01*
X0298746Y0233342D01*
X0298729Y0232901D01*
X0298702Y0232461D01*
X0298664Y0232021D01*
X0298616Y0231583D01*
X0298556Y0231146D01*
X0298486Y0230710D01*
X0298406Y0230277D01*
X0298314Y0229845D01*
X0298212Y0229416D01*
X0298100Y0228989D01*
X0297977Y0228566D01*
X0297844Y0228145D01*
X0297700Y0227728D01*
X0297547Y0227315D01*
X0297383Y0226905D01*
X0297209Y0226500D01*
X0297025Y0226099D01*
X0296832Y0225702D01*
X0296629Y0225311D01*
X0296416Y0224924D01*
X0296194Y0224543D01*
X0295963Y0224167D01*
X0295722Y0223798D01*
X0295472Y0223434D01*
X0295214Y0223076D01*
X0294947Y0222725D01*
X0294671Y0222381D01*
X0294387Y0222044D01*
X0294095Y0221713D01*
X0293795Y0221390D01*
X0293487Y0221074D01*
X0293171Y0220766D01*
X0292848Y0220466D01*
X0292517Y0220174D01*
X0292180Y0219890D01*
X0291836Y0219614D01*
X0291485Y0219347D01*
X0291127Y0219089D01*
X0290763Y0218839D01*
X0290394Y0218598D01*
X0290018Y0218367D01*
X0289637Y0218145D01*
X0289250Y0217932D01*
X0288859Y0217729D01*
X0288462Y0217536D01*
X0288061Y0217352D01*
X0287656Y0217178D01*
X0287246Y0217014D01*
X0286833Y0216861D01*
X0286416Y0216717D01*
X0285995Y0216584D01*
X0285572Y0216461D01*
X0285145Y0216349D01*
X0284716Y0216247D01*
X0284284Y0216155D01*
X0283851Y0216075D01*
X0283415Y0216005D01*
X0282978Y0215945D01*
X0282540Y0215897D01*
X0282100Y0215859D01*
X0281660Y0215832D01*
X0281219Y0215815D01*
X0280778Y0215810D01*
X0280337Y0215815D01*
X0279896Y0215832D01*
X0279456Y0215859D01*
X0279016Y0215897D01*
X0278578Y0215945D01*
X0278141Y0216005D01*
X0277705Y0216075D01*
X0277272Y0216155D01*
X0276840Y0216247D01*
X0276411Y0216349D01*
X0275984Y0216461D01*
X0275561Y0216584D01*
X0275140Y0216717D01*
X0274723Y0216861D01*
X0274310Y0217014D01*
X0273900Y0217178D01*
X0273495Y0217352D01*
X0273094Y0217536D01*
X0272697Y0217729D01*
X0272306Y0217932D01*
X0271919Y0218145D01*
X0271538Y0218367D01*
X0271162Y0218598D01*
X0270793Y0218839D01*
X0270429Y0219089D01*
X0270071Y0219347D01*
X0269720Y0219614D01*
X0269376Y0219890D01*
X0269039Y0220174D01*
X0268708Y0220466D01*
X0268385Y0220766D01*
X0268069Y0221074D01*
X0267761Y0221390D01*
X0267461Y0221713D01*
X0267169Y0222044D01*
X0266885Y0222381D01*
X0266609Y0222725D01*
X0266342Y0223076D01*
X0266084Y0223434D01*
X0265834Y0223798D01*
X0265593Y0224167D01*
X0265362Y0224543D01*
X0265140Y0224924D01*
X0264927Y0225311D01*
X0264724Y0225702D01*
X0264531Y0226099D01*
X0264347Y0226500D01*
X0264173Y0226905D01*
X0264009Y0227315D01*
X0263856Y0227728D01*
X0263712Y0228145D01*
X0263579Y0228566D01*
X0263456Y0228989D01*
X0263344Y0229416D01*
X0263242Y0229845D01*
X0263150Y0230277D01*
X0263070Y0230710D01*
X0263000Y0231146D01*
X0262940Y0231583D01*
X0262892Y0232021D01*
X0262854Y0232461D01*
X0262827Y0232901D01*
X0262810Y0233342D01*
X0262805Y0233783D01*
D15*
X0062079Y0021185D02*
X0062082Y0021431D01*
X0062091Y0021677D01*
X0062106Y0021923D01*
X0062127Y0022169D01*
X0062154Y0022414D01*
X0062188Y0022658D01*
X0062227Y0022901D01*
X0062272Y0023143D01*
X0062323Y0023384D01*
X0062380Y0023624D01*
X0062443Y0023862D01*
X0062511Y0024099D01*
X0062586Y0024333D01*
X0062666Y0024566D01*
X0062752Y0024797D01*
X0062843Y0025026D01*
X0062940Y0025252D01*
X0063043Y0025476D01*
X0063151Y0025698D01*
X0063264Y0025916D01*
X0063383Y0026132D01*
X0063507Y0026345D01*
X0063636Y0026555D01*
X0063771Y0026761D01*
X0063910Y0026964D01*
X0064054Y0027164D01*
X0064203Y0027360D01*
X0064357Y0027552D01*
X0064516Y0027741D01*
X0064679Y0027925D01*
X0064847Y0028106D01*
X0065019Y0028282D01*
X0065195Y0028454D01*
X0065376Y0028622D01*
X0065560Y0028785D01*
X0065749Y0028944D01*
X0065941Y0029098D01*
X0066137Y0029247D01*
X0066337Y0029391D01*
X0066540Y0029530D01*
X0066746Y0029665D01*
X0066956Y0029794D01*
X0067169Y0029918D01*
X0067385Y0030037D01*
X0067603Y0030150D01*
X0067825Y0030258D01*
X0068049Y0030361D01*
X0068275Y0030458D01*
X0068504Y0030549D01*
X0068735Y0030635D01*
X0068968Y0030715D01*
X0069202Y0030790D01*
X0069439Y0030858D01*
X0069677Y0030921D01*
X0069917Y0030978D01*
X0070158Y0031029D01*
X0070400Y0031074D01*
X0070643Y0031113D01*
X0070887Y0031147D01*
X0071132Y0031174D01*
X0071378Y0031195D01*
X0071624Y0031210D01*
X0071870Y0031219D01*
X0072116Y0031222D01*
X0072362Y0031219D01*
X0072608Y0031210D01*
X0072854Y0031195D01*
X0073100Y0031174D01*
X0073345Y0031147D01*
X0073589Y0031113D01*
X0073832Y0031074D01*
X0074074Y0031029D01*
X0074315Y0030978D01*
X0074555Y0030921D01*
X0074793Y0030858D01*
X0075030Y0030790D01*
X0075264Y0030715D01*
X0075497Y0030635D01*
X0075728Y0030549D01*
X0075957Y0030458D01*
X0076183Y0030361D01*
X0076407Y0030258D01*
X0076629Y0030150D01*
X0076847Y0030037D01*
X0077063Y0029918D01*
X0077276Y0029794D01*
X0077486Y0029665D01*
X0077692Y0029530D01*
X0077895Y0029391D01*
X0078095Y0029247D01*
X0078291Y0029098D01*
X0078483Y0028944D01*
X0078672Y0028785D01*
X0078856Y0028622D01*
X0079037Y0028454D01*
X0079213Y0028282D01*
X0079385Y0028106D01*
X0079553Y0027925D01*
X0079716Y0027741D01*
X0079875Y0027552D01*
X0080029Y0027360D01*
X0080178Y0027164D01*
X0080322Y0026964D01*
X0080461Y0026761D01*
X0080596Y0026555D01*
X0080725Y0026345D01*
X0080849Y0026132D01*
X0080968Y0025916D01*
X0081081Y0025698D01*
X0081189Y0025476D01*
X0081292Y0025252D01*
X0081389Y0025026D01*
X0081480Y0024797D01*
X0081566Y0024566D01*
X0081646Y0024333D01*
X0081721Y0024099D01*
X0081789Y0023862D01*
X0081852Y0023624D01*
X0081909Y0023384D01*
X0081960Y0023143D01*
X0082005Y0022901D01*
X0082044Y0022658D01*
X0082078Y0022414D01*
X0082105Y0022169D01*
X0082126Y0021923D01*
X0082141Y0021677D01*
X0082150Y0021431D01*
X0082153Y0021185D01*
X0082150Y0020939D01*
X0082141Y0020693D01*
X0082126Y0020447D01*
X0082105Y0020201D01*
X0082078Y0019956D01*
X0082044Y0019712D01*
X0082005Y0019469D01*
X0081960Y0019227D01*
X0081909Y0018986D01*
X0081852Y0018746D01*
X0081789Y0018508D01*
X0081721Y0018271D01*
X0081646Y0018037D01*
X0081566Y0017804D01*
X0081480Y0017573D01*
X0081389Y0017344D01*
X0081292Y0017118D01*
X0081189Y0016894D01*
X0081081Y0016672D01*
X0080968Y0016454D01*
X0080849Y0016238D01*
X0080725Y0016025D01*
X0080596Y0015815D01*
X0080461Y0015609D01*
X0080322Y0015406D01*
X0080178Y0015206D01*
X0080029Y0015010D01*
X0079875Y0014818D01*
X0079716Y0014629D01*
X0079553Y0014445D01*
X0079385Y0014264D01*
X0079213Y0014088D01*
X0079037Y0013916D01*
X0078856Y0013748D01*
X0078672Y0013585D01*
X0078483Y0013426D01*
X0078291Y0013272D01*
X0078095Y0013123D01*
X0077895Y0012979D01*
X0077692Y0012840D01*
X0077486Y0012705D01*
X0077276Y0012576D01*
X0077063Y0012452D01*
X0076847Y0012333D01*
X0076629Y0012220D01*
X0076407Y0012112D01*
X0076183Y0012009D01*
X0075957Y0011912D01*
X0075728Y0011821D01*
X0075497Y0011735D01*
X0075264Y0011655D01*
X0075030Y0011580D01*
X0074793Y0011512D01*
X0074555Y0011449D01*
X0074315Y0011392D01*
X0074074Y0011341D01*
X0073832Y0011296D01*
X0073589Y0011257D01*
X0073345Y0011223D01*
X0073100Y0011196D01*
X0072854Y0011175D01*
X0072608Y0011160D01*
X0072362Y0011151D01*
X0072116Y0011148D01*
X0071870Y0011151D01*
X0071624Y0011160D01*
X0071378Y0011175D01*
X0071132Y0011196D01*
X0070887Y0011223D01*
X0070643Y0011257D01*
X0070400Y0011296D01*
X0070158Y0011341D01*
X0069917Y0011392D01*
X0069677Y0011449D01*
X0069439Y0011512D01*
X0069202Y0011580D01*
X0068968Y0011655D01*
X0068735Y0011735D01*
X0068504Y0011821D01*
X0068275Y0011912D01*
X0068049Y0012009D01*
X0067825Y0012112D01*
X0067603Y0012220D01*
X0067385Y0012333D01*
X0067169Y0012452D01*
X0066956Y0012576D01*
X0066746Y0012705D01*
X0066540Y0012840D01*
X0066337Y0012979D01*
X0066137Y0013123D01*
X0065941Y0013272D01*
X0065749Y0013426D01*
X0065560Y0013585D01*
X0065376Y0013748D01*
X0065195Y0013916D01*
X0065019Y0014088D01*
X0064847Y0014264D01*
X0064679Y0014445D01*
X0064516Y0014629D01*
X0064357Y0014818D01*
X0064203Y0015010D01*
X0064054Y0015206D01*
X0063910Y0015406D01*
X0063771Y0015609D01*
X0063636Y0015815D01*
X0063507Y0016025D01*
X0063383Y0016238D01*
X0063264Y0016454D01*
X0063151Y0016672D01*
X0063043Y0016894D01*
X0062940Y0017118D01*
X0062843Y0017344D01*
X0062752Y0017573D01*
X0062666Y0017804D01*
X0062586Y0018037D01*
X0062511Y0018271D01*
X0062443Y0018508D01*
X0062380Y0018746D01*
X0062323Y0018986D01*
X0062272Y0019227D01*
X0062227Y0019469D01*
X0062188Y0019712D01*
X0062154Y0019956D01*
X0062127Y0020201D01*
X0062106Y0020447D01*
X0062091Y0020693D01*
X0062082Y0020939D01*
X0062079Y0021185D01*
X0485040Y0021185D02*
X0485043Y0021438D01*
X0485052Y0021691D01*
X0485068Y0021943D01*
X0485090Y0022195D01*
X0485117Y0022446D01*
X0485152Y0022697D01*
X0485192Y0022947D01*
X0485238Y0023195D01*
X0485290Y0023443D01*
X0485349Y0023689D01*
X0485413Y0023933D01*
X0485484Y0024176D01*
X0485560Y0024417D01*
X0485642Y0024656D01*
X0485730Y0024893D01*
X0485824Y0025128D01*
X0485924Y0025361D01*
X0486029Y0025591D01*
X0486140Y0025818D01*
X0486257Y0026042D01*
X0486379Y0026264D01*
X0486506Y0026482D01*
X0486639Y0026698D01*
X0486777Y0026910D01*
X0486920Y0027118D01*
X0487068Y0027323D01*
X0487221Y0027524D01*
X0487379Y0027722D01*
X0487542Y0027915D01*
X0487709Y0028105D01*
X0487881Y0028290D01*
X0488058Y0028471D01*
X0488239Y0028648D01*
X0488424Y0028820D01*
X0488614Y0028987D01*
X0488807Y0029150D01*
X0489005Y0029308D01*
X0489206Y0029461D01*
X0489411Y0029609D01*
X0489619Y0029752D01*
X0489831Y0029890D01*
X0490047Y0030023D01*
X0490265Y0030150D01*
X0490487Y0030272D01*
X0490711Y0030389D01*
X0490938Y0030500D01*
X0491168Y0030605D01*
X0491401Y0030705D01*
X0491636Y0030799D01*
X0491873Y0030887D01*
X0492112Y0030969D01*
X0492353Y0031045D01*
X0492596Y0031116D01*
X0492840Y0031180D01*
X0493086Y0031239D01*
X0493334Y0031291D01*
X0493582Y0031337D01*
X0493832Y0031377D01*
X0494083Y0031412D01*
X0494334Y0031439D01*
X0494586Y0031461D01*
X0494838Y0031477D01*
X0495091Y0031486D01*
X0495344Y0031489D01*
X0495597Y0031486D01*
X0495850Y0031477D01*
X0496102Y0031461D01*
X0496354Y0031439D01*
X0496605Y0031412D01*
X0496856Y0031377D01*
X0497106Y0031337D01*
X0497354Y0031291D01*
X0497602Y0031239D01*
X0497848Y0031180D01*
X0498092Y0031116D01*
X0498335Y0031045D01*
X0498576Y0030969D01*
X0498815Y0030887D01*
X0499052Y0030799D01*
X0499287Y0030705D01*
X0499520Y0030605D01*
X0499750Y0030500D01*
X0499977Y0030389D01*
X0500201Y0030272D01*
X0500423Y0030150D01*
X0500641Y0030023D01*
X0500857Y0029890D01*
X0501069Y0029752D01*
X0501277Y0029609D01*
X0501482Y0029461D01*
X0501683Y0029308D01*
X0501881Y0029150D01*
X0502074Y0028987D01*
X0502264Y0028820D01*
X0502449Y0028648D01*
X0502630Y0028471D01*
X0502807Y0028290D01*
X0502979Y0028105D01*
X0503146Y0027915D01*
X0503309Y0027722D01*
X0503467Y0027524D01*
X0503620Y0027323D01*
X0503768Y0027118D01*
X0503911Y0026910D01*
X0504049Y0026698D01*
X0504182Y0026482D01*
X0504309Y0026264D01*
X0504431Y0026042D01*
X0504548Y0025818D01*
X0504659Y0025591D01*
X0504764Y0025361D01*
X0504864Y0025128D01*
X0504958Y0024893D01*
X0505046Y0024656D01*
X0505128Y0024417D01*
X0505204Y0024176D01*
X0505275Y0023933D01*
X0505339Y0023689D01*
X0505398Y0023443D01*
X0505450Y0023195D01*
X0505496Y0022947D01*
X0505536Y0022697D01*
X0505571Y0022446D01*
X0505598Y0022195D01*
X0505620Y0021943D01*
X0505636Y0021691D01*
X0505645Y0021438D01*
X0505648Y0021185D01*
X0505645Y0020932D01*
X0505636Y0020679D01*
X0505620Y0020427D01*
X0505598Y0020175D01*
X0505571Y0019924D01*
X0505536Y0019673D01*
X0505496Y0019423D01*
X0505450Y0019175D01*
X0505398Y0018927D01*
X0505339Y0018681D01*
X0505275Y0018437D01*
X0505204Y0018194D01*
X0505128Y0017953D01*
X0505046Y0017714D01*
X0504958Y0017477D01*
X0504864Y0017242D01*
X0504764Y0017009D01*
X0504659Y0016779D01*
X0504548Y0016552D01*
X0504431Y0016328D01*
X0504309Y0016106D01*
X0504182Y0015888D01*
X0504049Y0015672D01*
X0503911Y0015460D01*
X0503768Y0015252D01*
X0503620Y0015047D01*
X0503467Y0014846D01*
X0503309Y0014648D01*
X0503146Y0014455D01*
X0502979Y0014265D01*
X0502807Y0014080D01*
X0502630Y0013899D01*
X0502449Y0013722D01*
X0502264Y0013550D01*
X0502074Y0013383D01*
X0501881Y0013220D01*
X0501683Y0013062D01*
X0501482Y0012909D01*
X0501277Y0012761D01*
X0501069Y0012618D01*
X0500857Y0012480D01*
X0500641Y0012347D01*
X0500423Y0012220D01*
X0500201Y0012098D01*
X0499977Y0011981D01*
X0499750Y0011870D01*
X0499520Y0011765D01*
X0499287Y0011665D01*
X0499052Y0011571D01*
X0498815Y0011483D01*
X0498576Y0011401D01*
X0498335Y0011325D01*
X0498092Y0011254D01*
X0497848Y0011190D01*
X0497602Y0011131D01*
X0497354Y0011079D01*
X0497106Y0011033D01*
X0496856Y0010993D01*
X0496605Y0010958D01*
X0496354Y0010931D01*
X0496102Y0010909D01*
X0495850Y0010893D01*
X0495597Y0010884D01*
X0495344Y0010881D01*
X0495091Y0010884D01*
X0494838Y0010893D01*
X0494586Y0010909D01*
X0494334Y0010931D01*
X0494083Y0010958D01*
X0493832Y0010993D01*
X0493582Y0011033D01*
X0493334Y0011079D01*
X0493086Y0011131D01*
X0492840Y0011190D01*
X0492596Y0011254D01*
X0492353Y0011325D01*
X0492112Y0011401D01*
X0491873Y0011483D01*
X0491636Y0011571D01*
X0491401Y0011665D01*
X0491168Y0011765D01*
X0490938Y0011870D01*
X0490711Y0011981D01*
X0490487Y0012098D01*
X0490265Y0012220D01*
X0490047Y0012347D01*
X0489831Y0012480D01*
X0489619Y0012618D01*
X0489411Y0012761D01*
X0489206Y0012909D01*
X0489005Y0013062D01*
X0488807Y0013220D01*
X0488614Y0013383D01*
X0488424Y0013550D01*
X0488239Y0013722D01*
X0488058Y0013899D01*
X0487881Y0014080D01*
X0487709Y0014265D01*
X0487542Y0014455D01*
X0487379Y0014648D01*
X0487221Y0014846D01*
X0487068Y0015047D01*
X0486920Y0015252D01*
X0486777Y0015460D01*
X0486639Y0015672D01*
X0486506Y0015888D01*
X0486379Y0016106D01*
X0486257Y0016328D01*
X0486140Y0016552D01*
X0486029Y0016779D01*
X0485924Y0017009D01*
X0485824Y0017242D01*
X0485730Y0017477D01*
X0485642Y0017714D01*
X0485560Y0017953D01*
X0485484Y0018194D01*
X0485413Y0018437D01*
X0485349Y0018681D01*
X0485290Y0018927D01*
X0485238Y0019175D01*
X0485192Y0019423D01*
X0485152Y0019673D01*
X0485117Y0019924D01*
X0485090Y0020175D01*
X0485068Y0020427D01*
X0485052Y0020679D01*
X0485043Y0020932D01*
X0485040Y0021185D01*
X0485253Y0450319D02*
X0485256Y0450567D01*
X0485265Y0450814D01*
X0485280Y0451061D01*
X0485302Y0451308D01*
X0485329Y0451554D01*
X0485362Y0451800D01*
X0485402Y0452044D01*
X0485447Y0452288D01*
X0485498Y0452530D01*
X0485555Y0452771D01*
X0485619Y0453010D01*
X0485688Y0453248D01*
X0485762Y0453484D01*
X0485843Y0453719D01*
X0485929Y0453951D01*
X0486021Y0454181D01*
X0486119Y0454408D01*
X0486222Y0454633D01*
X0486330Y0454856D01*
X0486445Y0455076D01*
X0486564Y0455293D01*
X0486689Y0455507D01*
X0486819Y0455718D01*
X0486954Y0455925D01*
X0487094Y0456129D01*
X0487239Y0456330D01*
X0487389Y0456527D01*
X0487544Y0456721D01*
X0487703Y0456910D01*
X0487867Y0457096D01*
X0488036Y0457277D01*
X0488209Y0457454D01*
X0488386Y0457627D01*
X0488567Y0457796D01*
X0488753Y0457960D01*
X0488942Y0458119D01*
X0489136Y0458274D01*
X0489333Y0458424D01*
X0489534Y0458569D01*
X0489738Y0458709D01*
X0489945Y0458844D01*
X0490156Y0458974D01*
X0490370Y0459099D01*
X0490587Y0459218D01*
X0490807Y0459333D01*
X0491030Y0459441D01*
X0491255Y0459544D01*
X0491482Y0459642D01*
X0491712Y0459734D01*
X0491944Y0459820D01*
X0492179Y0459901D01*
X0492415Y0459975D01*
X0492653Y0460044D01*
X0492892Y0460108D01*
X0493133Y0460165D01*
X0493375Y0460216D01*
X0493619Y0460261D01*
X0493863Y0460301D01*
X0494109Y0460334D01*
X0494355Y0460361D01*
X0494602Y0460383D01*
X0494849Y0460398D01*
X0495096Y0460407D01*
X0495344Y0460410D01*
X0495592Y0460407D01*
X0495839Y0460398D01*
X0496086Y0460383D01*
X0496333Y0460361D01*
X0496579Y0460334D01*
X0496825Y0460301D01*
X0497069Y0460261D01*
X0497313Y0460216D01*
X0497555Y0460165D01*
X0497796Y0460108D01*
X0498035Y0460044D01*
X0498273Y0459975D01*
X0498509Y0459901D01*
X0498744Y0459820D01*
X0498976Y0459734D01*
X0499206Y0459642D01*
X0499433Y0459544D01*
X0499658Y0459441D01*
X0499881Y0459333D01*
X0500101Y0459218D01*
X0500318Y0459099D01*
X0500532Y0458974D01*
X0500743Y0458844D01*
X0500950Y0458709D01*
X0501154Y0458569D01*
X0501355Y0458424D01*
X0501552Y0458274D01*
X0501746Y0458119D01*
X0501935Y0457960D01*
X0502121Y0457796D01*
X0502302Y0457627D01*
X0502479Y0457454D01*
X0502652Y0457277D01*
X0502821Y0457096D01*
X0502985Y0456910D01*
X0503144Y0456721D01*
X0503299Y0456527D01*
X0503449Y0456330D01*
X0503594Y0456129D01*
X0503734Y0455925D01*
X0503869Y0455718D01*
X0503999Y0455507D01*
X0504124Y0455293D01*
X0504243Y0455076D01*
X0504358Y0454856D01*
X0504466Y0454633D01*
X0504569Y0454408D01*
X0504667Y0454181D01*
X0504759Y0453951D01*
X0504845Y0453719D01*
X0504926Y0453484D01*
X0505000Y0453248D01*
X0505069Y0453010D01*
X0505133Y0452771D01*
X0505190Y0452530D01*
X0505241Y0452288D01*
X0505286Y0452044D01*
X0505326Y0451800D01*
X0505359Y0451554D01*
X0505386Y0451308D01*
X0505408Y0451061D01*
X0505423Y0450814D01*
X0505432Y0450567D01*
X0505435Y0450319D01*
X0505432Y0450071D01*
X0505423Y0449824D01*
X0505408Y0449577D01*
X0505386Y0449330D01*
X0505359Y0449084D01*
X0505326Y0448838D01*
X0505286Y0448594D01*
X0505241Y0448350D01*
X0505190Y0448108D01*
X0505133Y0447867D01*
X0505069Y0447628D01*
X0505000Y0447390D01*
X0504926Y0447154D01*
X0504845Y0446919D01*
X0504759Y0446687D01*
X0504667Y0446457D01*
X0504569Y0446230D01*
X0504466Y0446005D01*
X0504358Y0445782D01*
X0504243Y0445562D01*
X0504124Y0445345D01*
X0503999Y0445131D01*
X0503869Y0444920D01*
X0503734Y0444713D01*
X0503594Y0444509D01*
X0503449Y0444308D01*
X0503299Y0444111D01*
X0503144Y0443917D01*
X0502985Y0443728D01*
X0502821Y0443542D01*
X0502652Y0443361D01*
X0502479Y0443184D01*
X0502302Y0443011D01*
X0502121Y0442842D01*
X0501935Y0442678D01*
X0501746Y0442519D01*
X0501552Y0442364D01*
X0501355Y0442214D01*
X0501154Y0442069D01*
X0500950Y0441929D01*
X0500743Y0441794D01*
X0500532Y0441664D01*
X0500318Y0441539D01*
X0500101Y0441420D01*
X0499881Y0441305D01*
X0499658Y0441197D01*
X0499433Y0441094D01*
X0499206Y0440996D01*
X0498976Y0440904D01*
X0498744Y0440818D01*
X0498509Y0440737D01*
X0498273Y0440663D01*
X0498035Y0440594D01*
X0497796Y0440530D01*
X0497555Y0440473D01*
X0497313Y0440422D01*
X0497069Y0440377D01*
X0496825Y0440337D01*
X0496579Y0440304D01*
X0496333Y0440277D01*
X0496086Y0440255D01*
X0495839Y0440240D01*
X0495592Y0440231D01*
X0495344Y0440228D01*
X0495096Y0440231D01*
X0494849Y0440240D01*
X0494602Y0440255D01*
X0494355Y0440277D01*
X0494109Y0440304D01*
X0493863Y0440337D01*
X0493619Y0440377D01*
X0493375Y0440422D01*
X0493133Y0440473D01*
X0492892Y0440530D01*
X0492653Y0440594D01*
X0492415Y0440663D01*
X0492179Y0440737D01*
X0491944Y0440818D01*
X0491712Y0440904D01*
X0491482Y0440996D01*
X0491255Y0441094D01*
X0491030Y0441197D01*
X0490807Y0441305D01*
X0490587Y0441420D01*
X0490370Y0441539D01*
X0490156Y0441664D01*
X0489945Y0441794D01*
X0489738Y0441929D01*
X0489534Y0442069D01*
X0489333Y0442214D01*
X0489136Y0442364D01*
X0488942Y0442519D01*
X0488753Y0442678D01*
X0488567Y0442842D01*
X0488386Y0443011D01*
X0488209Y0443184D01*
X0488036Y0443361D01*
X0487867Y0443542D01*
X0487703Y0443728D01*
X0487544Y0443917D01*
X0487389Y0444111D01*
X0487239Y0444308D01*
X0487094Y0444509D01*
X0486954Y0444713D01*
X0486819Y0444920D01*
X0486689Y0445131D01*
X0486564Y0445345D01*
X0486445Y0445562D01*
X0486330Y0445782D01*
X0486222Y0446005D01*
X0486119Y0446230D01*
X0486021Y0446457D01*
X0485929Y0446687D01*
X0485843Y0446919D01*
X0485762Y0447154D01*
X0485688Y0447390D01*
X0485619Y0447628D01*
X0485555Y0447867D01*
X0485498Y0448108D01*
X0485447Y0448350D01*
X0485402Y0448594D01*
X0485362Y0448838D01*
X0485329Y0449084D01*
X0485302Y0449330D01*
X0485280Y0449577D01*
X0485265Y0449824D01*
X0485256Y0450071D01*
X0485253Y0450319D01*
X0062079Y0450319D02*
X0062082Y0450565D01*
X0062091Y0450811D01*
X0062106Y0451057D01*
X0062127Y0451303D01*
X0062154Y0451548D01*
X0062188Y0451792D01*
X0062227Y0452035D01*
X0062272Y0452277D01*
X0062323Y0452518D01*
X0062380Y0452758D01*
X0062443Y0452996D01*
X0062511Y0453233D01*
X0062586Y0453467D01*
X0062666Y0453700D01*
X0062752Y0453931D01*
X0062843Y0454160D01*
X0062940Y0454386D01*
X0063043Y0454610D01*
X0063151Y0454832D01*
X0063264Y0455050D01*
X0063383Y0455266D01*
X0063507Y0455479D01*
X0063636Y0455689D01*
X0063771Y0455895D01*
X0063910Y0456098D01*
X0064054Y0456298D01*
X0064203Y0456494D01*
X0064357Y0456686D01*
X0064516Y0456875D01*
X0064679Y0457059D01*
X0064847Y0457240D01*
X0065019Y0457416D01*
X0065195Y0457588D01*
X0065376Y0457756D01*
X0065560Y0457919D01*
X0065749Y0458078D01*
X0065941Y0458232D01*
X0066137Y0458381D01*
X0066337Y0458525D01*
X0066540Y0458664D01*
X0066746Y0458799D01*
X0066956Y0458928D01*
X0067169Y0459052D01*
X0067385Y0459171D01*
X0067603Y0459284D01*
X0067825Y0459392D01*
X0068049Y0459495D01*
X0068275Y0459592D01*
X0068504Y0459683D01*
X0068735Y0459769D01*
X0068968Y0459849D01*
X0069202Y0459924D01*
X0069439Y0459992D01*
X0069677Y0460055D01*
X0069917Y0460112D01*
X0070158Y0460163D01*
X0070400Y0460208D01*
X0070643Y0460247D01*
X0070887Y0460281D01*
X0071132Y0460308D01*
X0071378Y0460329D01*
X0071624Y0460344D01*
X0071870Y0460353D01*
X0072116Y0460356D01*
X0072362Y0460353D01*
X0072608Y0460344D01*
X0072854Y0460329D01*
X0073100Y0460308D01*
X0073345Y0460281D01*
X0073589Y0460247D01*
X0073832Y0460208D01*
X0074074Y0460163D01*
X0074315Y0460112D01*
X0074555Y0460055D01*
X0074793Y0459992D01*
X0075030Y0459924D01*
X0075264Y0459849D01*
X0075497Y0459769D01*
X0075728Y0459683D01*
X0075957Y0459592D01*
X0076183Y0459495D01*
X0076407Y0459392D01*
X0076629Y0459284D01*
X0076847Y0459171D01*
X0077063Y0459052D01*
X0077276Y0458928D01*
X0077486Y0458799D01*
X0077692Y0458664D01*
X0077895Y0458525D01*
X0078095Y0458381D01*
X0078291Y0458232D01*
X0078483Y0458078D01*
X0078672Y0457919D01*
X0078856Y0457756D01*
X0079037Y0457588D01*
X0079213Y0457416D01*
X0079385Y0457240D01*
X0079553Y0457059D01*
X0079716Y0456875D01*
X0079875Y0456686D01*
X0080029Y0456494D01*
X0080178Y0456298D01*
X0080322Y0456098D01*
X0080461Y0455895D01*
X0080596Y0455689D01*
X0080725Y0455479D01*
X0080849Y0455266D01*
X0080968Y0455050D01*
X0081081Y0454832D01*
X0081189Y0454610D01*
X0081292Y0454386D01*
X0081389Y0454160D01*
X0081480Y0453931D01*
X0081566Y0453700D01*
X0081646Y0453467D01*
X0081721Y0453233D01*
X0081789Y0452996D01*
X0081852Y0452758D01*
X0081909Y0452518D01*
X0081960Y0452277D01*
X0082005Y0452035D01*
X0082044Y0451792D01*
X0082078Y0451548D01*
X0082105Y0451303D01*
X0082126Y0451057D01*
X0082141Y0450811D01*
X0082150Y0450565D01*
X0082153Y0450319D01*
X0082150Y0450073D01*
X0082141Y0449827D01*
X0082126Y0449581D01*
X0082105Y0449335D01*
X0082078Y0449090D01*
X0082044Y0448846D01*
X0082005Y0448603D01*
X0081960Y0448361D01*
X0081909Y0448120D01*
X0081852Y0447880D01*
X0081789Y0447642D01*
X0081721Y0447405D01*
X0081646Y0447171D01*
X0081566Y0446938D01*
X0081480Y0446707D01*
X0081389Y0446478D01*
X0081292Y0446252D01*
X0081189Y0446028D01*
X0081081Y0445806D01*
X0080968Y0445588D01*
X0080849Y0445372D01*
X0080725Y0445159D01*
X0080596Y0444949D01*
X0080461Y0444743D01*
X0080322Y0444540D01*
X0080178Y0444340D01*
X0080029Y0444144D01*
X0079875Y0443952D01*
X0079716Y0443763D01*
X0079553Y0443579D01*
X0079385Y0443398D01*
X0079213Y0443222D01*
X0079037Y0443050D01*
X0078856Y0442882D01*
X0078672Y0442719D01*
X0078483Y0442560D01*
X0078291Y0442406D01*
X0078095Y0442257D01*
X0077895Y0442113D01*
X0077692Y0441974D01*
X0077486Y0441839D01*
X0077276Y0441710D01*
X0077063Y0441586D01*
X0076847Y0441467D01*
X0076629Y0441354D01*
X0076407Y0441246D01*
X0076183Y0441143D01*
X0075957Y0441046D01*
X0075728Y0440955D01*
X0075497Y0440869D01*
X0075264Y0440789D01*
X0075030Y0440714D01*
X0074793Y0440646D01*
X0074555Y0440583D01*
X0074315Y0440526D01*
X0074074Y0440475D01*
X0073832Y0440430D01*
X0073589Y0440391D01*
X0073345Y0440357D01*
X0073100Y0440330D01*
X0072854Y0440309D01*
X0072608Y0440294D01*
X0072362Y0440285D01*
X0072116Y0440282D01*
X0071870Y0440285D01*
X0071624Y0440294D01*
X0071378Y0440309D01*
X0071132Y0440330D01*
X0070887Y0440357D01*
X0070643Y0440391D01*
X0070400Y0440430D01*
X0070158Y0440475D01*
X0069917Y0440526D01*
X0069677Y0440583D01*
X0069439Y0440646D01*
X0069202Y0440714D01*
X0068968Y0440789D01*
X0068735Y0440869D01*
X0068504Y0440955D01*
X0068275Y0441046D01*
X0068049Y0441143D01*
X0067825Y0441246D01*
X0067603Y0441354D01*
X0067385Y0441467D01*
X0067169Y0441586D01*
X0066956Y0441710D01*
X0066746Y0441839D01*
X0066540Y0441974D01*
X0066337Y0442113D01*
X0066137Y0442257D01*
X0065941Y0442406D01*
X0065749Y0442560D01*
X0065560Y0442719D01*
X0065376Y0442882D01*
X0065195Y0443050D01*
X0065019Y0443222D01*
X0064847Y0443398D01*
X0064679Y0443579D01*
X0064516Y0443763D01*
X0064357Y0443952D01*
X0064203Y0444144D01*
X0064054Y0444340D01*
X0063910Y0444540D01*
X0063771Y0444743D01*
X0063636Y0444949D01*
X0063507Y0445159D01*
X0063383Y0445372D01*
X0063264Y0445588D01*
X0063151Y0445806D01*
X0063043Y0446028D01*
X0062940Y0446252D01*
X0062843Y0446478D01*
X0062752Y0446707D01*
X0062666Y0446938D01*
X0062586Y0447171D01*
X0062511Y0447405D01*
X0062443Y0447642D01*
X0062380Y0447880D01*
X0062323Y0448120D01*
X0062272Y0448361D01*
X0062227Y0448603D01*
X0062188Y0448846D01*
X0062154Y0449090D01*
X0062127Y0449335D01*
X0062106Y0449581D01*
X0062091Y0449827D01*
X0062082Y0450073D01*
X0062079Y0450319D01*
D16*
X0516486Y0188390D03*
X0526447Y0198114D03*
X0565747Y0188420D03*
X0526407Y0168665D03*
X0516526Y0149020D03*
X0526447Y0139020D03*
X0565747Y0149020D03*
X0526447Y0107563D03*
X0516486Y0097839D03*
X0526407Y0078114D03*
X0516526Y0058469D03*
X0526447Y0048469D03*
X0565747Y0058469D03*
X0565747Y0097869D03*
D17*
X0526185Y0220791D02*
X0515685Y0220791D01*
X0552431Y0236407D02*
X0552431Y0246907D01*
X0526185Y0262457D02*
X0515685Y0262457D01*
X0515685Y0279846D02*
X0526185Y0279846D01*
X0552431Y0295463D02*
X0552431Y0305963D01*
X0526185Y0321513D02*
X0515685Y0321513D01*
D18*
X0552431Y0315476D03*
X0552431Y0285949D03*
X0552431Y0256421D03*
X0552431Y0226894D03*
D19*
X0526841Y0241657D03*
X0526841Y0300713D03*
D20*
X0489596Y0297407D02*
X0489596Y0292207D01*
X0479596Y0292207D02*
X0479596Y0297407D01*
X0469596Y0297407D02*
X0469596Y0292207D01*
X0469596Y0258037D02*
X0469596Y0252837D01*
X0479596Y0252837D02*
X0479596Y0258037D01*
X0489596Y0258037D02*
X0489596Y0252837D01*
X0489596Y0331577D02*
X0489596Y0336777D01*
X0479596Y0336777D02*
X0479596Y0331577D01*
X0469596Y0331577D02*
X0469596Y0336777D01*
X0298652Y0177328D02*
X0298652Y0172128D01*
X0288652Y0172128D02*
X0288652Y0177328D01*
X0278652Y0177328D02*
X0278652Y0172128D01*
X0205110Y0174689D02*
X0199910Y0174689D01*
X0199910Y0184689D02*
X0205110Y0184689D01*
X0205110Y0194689D02*
X0199910Y0194689D01*
X0199910Y0204689D02*
X0205110Y0204689D01*
X0205110Y0214689D02*
X0199910Y0214689D01*
X0199910Y0224689D02*
X0205110Y0224689D01*
X0205110Y0234689D02*
X0199910Y0234689D01*
X0199910Y0244689D02*
X0205110Y0244689D01*
X0205110Y0254689D02*
X0199910Y0254689D01*
X0199910Y0264689D02*
X0205110Y0264689D01*
X0205110Y0274689D02*
X0199910Y0274689D01*
X0199910Y0284689D02*
X0205110Y0284689D01*
X0205110Y0294689D02*
X0199910Y0294689D01*
X0199910Y0304689D02*
X0205110Y0304689D01*
X0145110Y0304689D02*
X0139910Y0304689D01*
X0139910Y0294689D02*
X0145110Y0294689D01*
X0145110Y0284689D02*
X0139910Y0284689D01*
X0139910Y0274689D02*
X0145110Y0274689D01*
X0145110Y0264689D02*
X0139910Y0264689D01*
X0139910Y0254689D02*
X0145110Y0254689D01*
X0145110Y0244689D02*
X0139910Y0244689D01*
X0139910Y0234689D02*
X0145110Y0234689D01*
X0145110Y0224689D02*
X0139910Y0224689D01*
X0139910Y0214689D02*
X0145110Y0214689D01*
X0145110Y0204689D02*
X0139910Y0204689D01*
X0139910Y0194689D02*
X0145110Y0194689D01*
X0145110Y0184689D02*
X0139910Y0184689D01*
X0139910Y0174689D02*
X0145110Y0174689D01*
X0145110Y0129335D02*
X0139910Y0129335D01*
X0139910Y0119335D02*
X0145110Y0119335D01*
X0145110Y0109335D02*
X0139910Y0109335D01*
X0139910Y0099335D02*
X0145110Y0099335D01*
X0145110Y0089335D02*
X0139910Y0089335D01*
X0139910Y0079335D02*
X0145110Y0079335D01*
X0145110Y0069335D02*
X0139910Y0069335D01*
X0139910Y0059335D02*
X0145110Y0059335D01*
X0145110Y0049335D02*
X0139910Y0049335D01*
X0139910Y0039335D02*
X0145110Y0039335D01*
X0145110Y0029335D02*
X0139910Y0029335D01*
X0139910Y0019335D02*
X0145110Y0019335D01*
X0199910Y0019335D02*
X0205110Y0019335D01*
X0205110Y0029335D02*
X0199910Y0029335D01*
X0199910Y0039335D02*
X0205110Y0039335D01*
X0205110Y0049335D02*
X0199910Y0049335D01*
X0199910Y0059335D02*
X0205110Y0059335D01*
X0205110Y0069335D02*
X0199910Y0069335D01*
X0199910Y0079335D02*
X0205110Y0079335D01*
X0205110Y0089335D02*
X0199910Y0089335D01*
X0199910Y0099335D02*
X0205110Y0099335D01*
X0205110Y0109335D02*
X0199910Y0109335D01*
X0199910Y0119335D02*
X0205110Y0119335D01*
X0205110Y0129335D02*
X0199910Y0129335D01*
X0235619Y0089650D02*
X0240819Y0089650D01*
X0240819Y0079650D02*
X0235619Y0079650D01*
X0235619Y0069650D02*
X0240819Y0069650D01*
X0240819Y0059650D02*
X0235619Y0059650D01*
X0235619Y0049650D02*
X0240819Y0049650D01*
X0240819Y0039650D02*
X0235619Y0039650D01*
X0235619Y0029650D02*
X0240819Y0029650D01*
X0240819Y0019650D02*
X0235619Y0019650D01*
X0265619Y0019650D02*
X0270819Y0019650D01*
X0270819Y0029650D02*
X0265619Y0029650D01*
X0265619Y0039650D02*
X0270819Y0039650D01*
X0270819Y0049650D02*
X0265619Y0049650D01*
X0265619Y0059650D02*
X0270819Y0059650D01*
X0270819Y0069650D02*
X0265619Y0069650D01*
X0265619Y0079650D02*
X0270819Y0079650D01*
X0270819Y0089650D02*
X0265619Y0089650D01*
X0432195Y0079966D02*
X0432195Y0074766D01*
X0442195Y0074766D02*
X0442195Y0079966D01*
X0452195Y0079966D02*
X0452195Y0074766D01*
X0471565Y0074766D02*
X0471565Y0079966D01*
X0481565Y0079966D02*
X0481565Y0074766D01*
X0491565Y0074766D02*
X0491565Y0079966D01*
D21*
X0484754Y0151854D03*
X0484754Y0161854D03*
X0484754Y0171854D03*
X0484754Y0181854D03*
X0454754Y0181854D03*
X0454754Y0171854D03*
X0454754Y0161854D03*
X0454754Y0151854D03*
X0394203Y0134610D03*
X0394203Y0124610D03*
X0394203Y0114610D03*
X0394203Y0104610D03*
X0364203Y0104610D03*
X0364203Y0114610D03*
X0364203Y0124610D03*
X0364203Y0134610D03*
X0364203Y0195161D03*
X0364203Y0205161D03*
X0364203Y0215161D03*
X0364203Y0225161D03*
X0394203Y0225161D03*
X0394203Y0215161D03*
X0394203Y0205161D03*
X0394203Y0195161D03*
X0343022Y0069650D03*
X0343022Y0059650D03*
X0343022Y0049650D03*
X0343022Y0039650D03*
X0313022Y0039650D03*
X0313022Y0049650D03*
X0313022Y0059650D03*
X0313022Y0069650D03*
X0109518Y0421134D03*
X0109518Y0440134D03*
D22*
X0087707Y0378469D03*
X0087707Y0368626D03*
X0087707Y0358783D03*
X0087707Y0348941D03*
X0087707Y0339098D03*
X0087707Y0329256D03*
X0087707Y0319413D03*
X0087707Y0309571D03*
X0087707Y0299728D03*
X0087707Y0289886D03*
X0087707Y0280043D03*
X0087707Y0270201D03*
X0087707Y0260358D03*
X0087707Y0250516D03*
X0087707Y0240673D03*
X0087707Y0230831D03*
X0087707Y0220988D03*
X0087707Y0211146D03*
X0087707Y0201303D03*
X0087707Y0191461D03*
X0087707Y0181618D03*
X0087707Y0171776D03*
X0087707Y0161933D03*
X0087707Y0152091D03*
X0087707Y0142248D03*
X0087707Y0132406D03*
X0087707Y0122563D03*
X0087707Y0112720D03*
X0087707Y0102878D03*
X0087707Y0093035D03*
X0068022Y0093035D03*
X0068022Y0102878D03*
X0068022Y0112720D03*
X0068022Y0122563D03*
X0068022Y0132406D03*
X0068022Y0142248D03*
X0068022Y0152091D03*
X0068022Y0161933D03*
X0068022Y0171776D03*
X0068022Y0181618D03*
X0068022Y0191461D03*
X0068022Y0201303D03*
X0068022Y0211146D03*
X0068022Y0220988D03*
X0068022Y0230831D03*
X0068022Y0240673D03*
X0068022Y0250516D03*
X0068022Y0260358D03*
X0068022Y0270201D03*
X0068022Y0280043D03*
X0068022Y0289886D03*
X0068022Y0299728D03*
X0068022Y0309571D03*
X0068022Y0319413D03*
X0068022Y0329256D03*
X0068022Y0339098D03*
X0068022Y0348941D03*
X0068022Y0358783D03*
X0068022Y0368626D03*
X0068022Y0378469D03*
X0528809Y0382406D03*
X0528809Y0392248D03*
X0528809Y0402091D03*
X0528809Y0411933D03*
X0538652Y0411933D03*
X0538652Y0402091D03*
X0538652Y0392248D03*
X0538652Y0382406D03*
X0538652Y0372563D03*
X0528809Y0372563D03*
X0528809Y0362720D03*
X0528809Y0352878D03*
X0538652Y0352878D03*
X0538652Y0362720D03*
X0538652Y0421776D03*
X0538652Y0431618D03*
X0538652Y0441461D03*
X0528809Y0441461D03*
X0528809Y0431618D03*
X0528809Y0421776D03*
D23*
X0448932Y0341146D02*
X0443332Y0341146D01*
X0443332Y0331146D02*
X0448932Y0331146D01*
X0126097Y0305713D02*
X0120497Y0305713D01*
X0120497Y0295713D02*
X0126097Y0295713D01*
X0076885Y0409886D02*
X0071285Y0409886D01*
X0071285Y0419886D02*
X0076885Y0419886D01*
X0386245Y0036028D02*
X0391845Y0036028D01*
X0391845Y0026028D02*
X0386245Y0026028D01*
D24*
X0469754Y0163114D03*
X0469754Y0170594D03*
D25*
X0241407Y0151106D03*
X0221722Y0151106D03*
D26*
X0249478Y0090083D03*
X0256959Y0090083D03*
X0310502Y0340083D03*
X0317982Y0340083D03*
X0317982Y0355831D03*
X0310502Y0355831D03*
X0184124Y0448350D03*
X0176644Y0448350D03*
X0513258Y0440476D03*
X0520738Y0440476D03*
X0520738Y0430634D03*
X0513258Y0430634D03*
X0513258Y0420791D03*
X0520738Y0420791D03*
X0520738Y0410949D03*
X0513258Y0410949D03*
X0513258Y0401106D03*
X0520738Y0401106D03*
X0520738Y0391264D03*
X0513258Y0391264D03*
X0513258Y0381421D03*
X0520738Y0381421D03*
X0520738Y0371579D03*
X0513258Y0371579D03*
X0546722Y0371579D03*
X0554203Y0371579D03*
X0554203Y0381421D03*
X0546722Y0381421D03*
X0546722Y0391264D03*
X0554203Y0391264D03*
X0554203Y0401106D03*
X0546722Y0401106D03*
X0546722Y0410949D03*
X0554203Y0410949D03*
X0554203Y0420791D03*
X0546722Y0420791D03*
X0546722Y0430634D03*
X0554203Y0430634D03*
X0554203Y0440476D03*
X0546722Y0440476D03*
D27*
X0334242Y0443508D03*
D28*
X0324242Y0443508D03*
X0314242Y0443508D03*
X0304242Y0443508D03*
X0294242Y0443508D03*
X0294242Y0433508D03*
X0304242Y0433508D03*
X0314242Y0433508D03*
X0324242Y0433508D03*
X0334242Y0433508D03*
M02*
