G75*
%MOIN*%
%OFA0B0*%
%FSLAX25Y25*%
%IPPOS*%
%LPD*%
%AMOC8*
5,1,8,0,0,1.08239X$1,22.5*
%
%ADD10C,0.16548*%
%ADD11C,0.24422*%
%ADD12C,0.13780*%
%ADD13C,0.07874*%
%ADD14C,0.09800*%
%ADD15C,0.09461*%
%ADD16C,0.06312*%
%ADD17C,0.06706*%
%ADD18C,0.06000*%
%ADD19C,0.06000*%
%ADD20R,0.08800X0.03400*%
%ADD21R,0.07887X0.06312*%
%ADD22OC8,0.06737*%
%ADD23C,0.06400*%
%ADD24R,0.05918X0.06706*%
%ADD25R,0.06706X0.05918*%
%ADD26C,0.06400*%
%ADD27R,0.10249X0.10249*%
%ADD28R,0.10249X0.07099*%
%ADD29R,0.07099X0.10249*%
%ADD30R,0.10249X0.11824*%
%ADD31R,0.06706X0.02178*%
%ADD32R,0.02178X0.06706*%
%ADD33R,0.06800X0.06800*%
%ADD34OC8,0.06800*%
D10*
X0072116Y0021185D03*
X0501250Y0021185D03*
X0501250Y0458193D03*
X0072116Y0458193D03*
D11*
X0280778Y0237720D03*
D12*
X0262848Y0237720D02*
X0262853Y0238160D01*
X0262870Y0238600D01*
X0262897Y0239039D01*
X0262934Y0239477D01*
X0262983Y0239915D01*
X0263042Y0240351D01*
X0263112Y0240785D01*
X0263193Y0241218D01*
X0263284Y0241648D01*
X0263385Y0242077D01*
X0263497Y0242502D01*
X0263620Y0242925D01*
X0263753Y0243344D01*
X0263896Y0243760D01*
X0264049Y0244173D01*
X0264213Y0244582D01*
X0264386Y0244986D01*
X0264569Y0245386D01*
X0264762Y0245782D01*
X0264965Y0246172D01*
X0265177Y0246558D01*
X0265399Y0246938D01*
X0265630Y0247313D01*
X0265870Y0247681D01*
X0266119Y0248044D01*
X0266376Y0248401D01*
X0266643Y0248751D01*
X0266918Y0249095D01*
X0267201Y0249431D01*
X0267493Y0249761D01*
X0267792Y0250083D01*
X0268100Y0250398D01*
X0268415Y0250706D01*
X0268737Y0251005D01*
X0269067Y0251297D01*
X0269403Y0251580D01*
X0269747Y0251855D01*
X0270097Y0252122D01*
X0270454Y0252379D01*
X0270817Y0252628D01*
X0271185Y0252868D01*
X0271560Y0253099D01*
X0271940Y0253321D01*
X0272326Y0253533D01*
X0272716Y0253736D01*
X0273112Y0253929D01*
X0273512Y0254112D01*
X0273916Y0254285D01*
X0274325Y0254449D01*
X0274738Y0254602D01*
X0275154Y0254745D01*
X0275573Y0254878D01*
X0275996Y0255001D01*
X0276421Y0255113D01*
X0276850Y0255214D01*
X0277280Y0255305D01*
X0277713Y0255386D01*
X0278147Y0255456D01*
X0278583Y0255515D01*
X0279021Y0255564D01*
X0279459Y0255601D01*
X0279898Y0255628D01*
X0280338Y0255645D01*
X0280778Y0255650D01*
X0281218Y0255645D01*
X0281658Y0255628D01*
X0282097Y0255601D01*
X0282535Y0255564D01*
X0282973Y0255515D01*
X0283409Y0255456D01*
X0283843Y0255386D01*
X0284276Y0255305D01*
X0284706Y0255214D01*
X0285135Y0255113D01*
X0285560Y0255001D01*
X0285983Y0254878D01*
X0286402Y0254745D01*
X0286818Y0254602D01*
X0287231Y0254449D01*
X0287640Y0254285D01*
X0288044Y0254112D01*
X0288444Y0253929D01*
X0288840Y0253736D01*
X0289230Y0253533D01*
X0289616Y0253321D01*
X0289996Y0253099D01*
X0290371Y0252868D01*
X0290739Y0252628D01*
X0291102Y0252379D01*
X0291459Y0252122D01*
X0291809Y0251855D01*
X0292153Y0251580D01*
X0292489Y0251297D01*
X0292819Y0251005D01*
X0293141Y0250706D01*
X0293456Y0250398D01*
X0293764Y0250083D01*
X0294063Y0249761D01*
X0294355Y0249431D01*
X0294638Y0249095D01*
X0294913Y0248751D01*
X0295180Y0248401D01*
X0295437Y0248044D01*
X0295686Y0247681D01*
X0295926Y0247313D01*
X0296157Y0246938D01*
X0296379Y0246558D01*
X0296591Y0246172D01*
X0296794Y0245782D01*
X0296987Y0245386D01*
X0297170Y0244986D01*
X0297343Y0244582D01*
X0297507Y0244173D01*
X0297660Y0243760D01*
X0297803Y0243344D01*
X0297936Y0242925D01*
X0298059Y0242502D01*
X0298171Y0242077D01*
X0298272Y0241648D01*
X0298363Y0241218D01*
X0298444Y0240785D01*
X0298514Y0240351D01*
X0298573Y0239915D01*
X0298622Y0239477D01*
X0298659Y0239039D01*
X0298686Y0238600D01*
X0298703Y0238160D01*
X0298708Y0237720D01*
X0298703Y0237280D01*
X0298686Y0236840D01*
X0298659Y0236401D01*
X0298622Y0235963D01*
X0298573Y0235525D01*
X0298514Y0235089D01*
X0298444Y0234655D01*
X0298363Y0234222D01*
X0298272Y0233792D01*
X0298171Y0233363D01*
X0298059Y0232938D01*
X0297936Y0232515D01*
X0297803Y0232096D01*
X0297660Y0231680D01*
X0297507Y0231267D01*
X0297343Y0230858D01*
X0297170Y0230454D01*
X0296987Y0230054D01*
X0296794Y0229658D01*
X0296591Y0229268D01*
X0296379Y0228882D01*
X0296157Y0228502D01*
X0295926Y0228127D01*
X0295686Y0227759D01*
X0295437Y0227396D01*
X0295180Y0227039D01*
X0294913Y0226689D01*
X0294638Y0226345D01*
X0294355Y0226009D01*
X0294063Y0225679D01*
X0293764Y0225357D01*
X0293456Y0225042D01*
X0293141Y0224734D01*
X0292819Y0224435D01*
X0292489Y0224143D01*
X0292153Y0223860D01*
X0291809Y0223585D01*
X0291459Y0223318D01*
X0291102Y0223061D01*
X0290739Y0222812D01*
X0290371Y0222572D01*
X0289996Y0222341D01*
X0289616Y0222119D01*
X0289230Y0221907D01*
X0288840Y0221704D01*
X0288444Y0221511D01*
X0288044Y0221328D01*
X0287640Y0221155D01*
X0287231Y0220991D01*
X0286818Y0220838D01*
X0286402Y0220695D01*
X0285983Y0220562D01*
X0285560Y0220439D01*
X0285135Y0220327D01*
X0284706Y0220226D01*
X0284276Y0220135D01*
X0283843Y0220054D01*
X0283409Y0219984D01*
X0282973Y0219925D01*
X0282535Y0219876D01*
X0282097Y0219839D01*
X0281658Y0219812D01*
X0281218Y0219795D01*
X0280778Y0219790D01*
X0280338Y0219795D01*
X0279898Y0219812D01*
X0279459Y0219839D01*
X0279021Y0219876D01*
X0278583Y0219925D01*
X0278147Y0219984D01*
X0277713Y0220054D01*
X0277280Y0220135D01*
X0276850Y0220226D01*
X0276421Y0220327D01*
X0275996Y0220439D01*
X0275573Y0220562D01*
X0275154Y0220695D01*
X0274738Y0220838D01*
X0274325Y0220991D01*
X0273916Y0221155D01*
X0273512Y0221328D01*
X0273112Y0221511D01*
X0272716Y0221704D01*
X0272326Y0221907D01*
X0271940Y0222119D01*
X0271560Y0222341D01*
X0271185Y0222572D01*
X0270817Y0222812D01*
X0270454Y0223061D01*
X0270097Y0223318D01*
X0269747Y0223585D01*
X0269403Y0223860D01*
X0269067Y0224143D01*
X0268737Y0224435D01*
X0268415Y0224734D01*
X0268100Y0225042D01*
X0267792Y0225357D01*
X0267493Y0225679D01*
X0267201Y0226009D01*
X0266918Y0226345D01*
X0266643Y0226689D01*
X0266376Y0227039D01*
X0266119Y0227396D01*
X0265870Y0227759D01*
X0265630Y0228127D01*
X0265399Y0228502D01*
X0265177Y0228882D01*
X0264965Y0229268D01*
X0264762Y0229658D01*
X0264569Y0230054D01*
X0264386Y0230454D01*
X0264213Y0230858D01*
X0264049Y0231267D01*
X0263896Y0231680D01*
X0263753Y0232096D01*
X0263620Y0232515D01*
X0263497Y0232938D01*
X0263385Y0233363D01*
X0263284Y0233792D01*
X0263193Y0234222D01*
X0263112Y0234655D01*
X0263042Y0235089D01*
X0262983Y0235525D01*
X0262934Y0235963D01*
X0262897Y0236401D01*
X0262870Y0236840D01*
X0262853Y0237280D01*
X0262848Y0237720D01*
D13*
X0061903Y0021185D02*
X0061906Y0021436D01*
X0061915Y0021686D01*
X0061931Y0021936D01*
X0061952Y0022186D01*
X0061980Y0022435D01*
X0062014Y0022684D01*
X0062053Y0022931D01*
X0062099Y0023177D01*
X0062151Y0023423D01*
X0062209Y0023667D01*
X0062273Y0023909D01*
X0062343Y0024150D01*
X0062418Y0024389D01*
X0062500Y0024626D01*
X0062587Y0024861D01*
X0062680Y0025093D01*
X0062779Y0025324D01*
X0062884Y0025552D01*
X0062994Y0025777D01*
X0063109Y0025999D01*
X0063230Y0026219D01*
X0063356Y0026436D01*
X0063488Y0026649D01*
X0063624Y0026859D01*
X0063766Y0027066D01*
X0063913Y0027269D01*
X0064065Y0027468D01*
X0064221Y0027664D01*
X0064383Y0027856D01*
X0064549Y0028044D01*
X0064719Y0028227D01*
X0064894Y0028407D01*
X0065074Y0028582D01*
X0065257Y0028752D01*
X0065445Y0028918D01*
X0065637Y0029080D01*
X0065833Y0029236D01*
X0066032Y0029388D01*
X0066235Y0029535D01*
X0066442Y0029677D01*
X0066652Y0029813D01*
X0066865Y0029945D01*
X0067082Y0030071D01*
X0067302Y0030192D01*
X0067524Y0030307D01*
X0067749Y0030417D01*
X0067977Y0030522D01*
X0068208Y0030621D01*
X0068440Y0030714D01*
X0068675Y0030801D01*
X0068912Y0030883D01*
X0069151Y0030958D01*
X0069392Y0031028D01*
X0069634Y0031092D01*
X0069878Y0031150D01*
X0070124Y0031202D01*
X0070370Y0031248D01*
X0070617Y0031287D01*
X0070866Y0031321D01*
X0071115Y0031349D01*
X0071365Y0031370D01*
X0071615Y0031386D01*
X0071865Y0031395D01*
X0072116Y0031398D01*
X0072367Y0031395D01*
X0072617Y0031386D01*
X0072867Y0031370D01*
X0073117Y0031349D01*
X0073366Y0031321D01*
X0073615Y0031287D01*
X0073862Y0031248D01*
X0074108Y0031202D01*
X0074354Y0031150D01*
X0074598Y0031092D01*
X0074840Y0031028D01*
X0075081Y0030958D01*
X0075320Y0030883D01*
X0075557Y0030801D01*
X0075792Y0030714D01*
X0076024Y0030621D01*
X0076255Y0030522D01*
X0076483Y0030417D01*
X0076708Y0030307D01*
X0076930Y0030192D01*
X0077150Y0030071D01*
X0077367Y0029945D01*
X0077580Y0029813D01*
X0077790Y0029677D01*
X0077997Y0029535D01*
X0078200Y0029388D01*
X0078399Y0029236D01*
X0078595Y0029080D01*
X0078787Y0028918D01*
X0078975Y0028752D01*
X0079158Y0028582D01*
X0079338Y0028407D01*
X0079513Y0028227D01*
X0079683Y0028044D01*
X0079849Y0027856D01*
X0080011Y0027664D01*
X0080167Y0027468D01*
X0080319Y0027269D01*
X0080466Y0027066D01*
X0080608Y0026859D01*
X0080744Y0026649D01*
X0080876Y0026436D01*
X0081002Y0026219D01*
X0081123Y0025999D01*
X0081238Y0025777D01*
X0081348Y0025552D01*
X0081453Y0025324D01*
X0081552Y0025093D01*
X0081645Y0024861D01*
X0081732Y0024626D01*
X0081814Y0024389D01*
X0081889Y0024150D01*
X0081959Y0023909D01*
X0082023Y0023667D01*
X0082081Y0023423D01*
X0082133Y0023177D01*
X0082179Y0022931D01*
X0082218Y0022684D01*
X0082252Y0022435D01*
X0082280Y0022186D01*
X0082301Y0021936D01*
X0082317Y0021686D01*
X0082326Y0021436D01*
X0082329Y0021185D01*
X0082326Y0020934D01*
X0082317Y0020684D01*
X0082301Y0020434D01*
X0082280Y0020184D01*
X0082252Y0019935D01*
X0082218Y0019686D01*
X0082179Y0019439D01*
X0082133Y0019193D01*
X0082081Y0018947D01*
X0082023Y0018703D01*
X0081959Y0018461D01*
X0081889Y0018220D01*
X0081814Y0017981D01*
X0081732Y0017744D01*
X0081645Y0017509D01*
X0081552Y0017277D01*
X0081453Y0017046D01*
X0081348Y0016818D01*
X0081238Y0016593D01*
X0081123Y0016371D01*
X0081002Y0016151D01*
X0080876Y0015934D01*
X0080744Y0015721D01*
X0080608Y0015511D01*
X0080466Y0015304D01*
X0080319Y0015101D01*
X0080167Y0014902D01*
X0080011Y0014706D01*
X0079849Y0014514D01*
X0079683Y0014326D01*
X0079513Y0014143D01*
X0079338Y0013963D01*
X0079158Y0013788D01*
X0078975Y0013618D01*
X0078787Y0013452D01*
X0078595Y0013290D01*
X0078399Y0013134D01*
X0078200Y0012982D01*
X0077997Y0012835D01*
X0077790Y0012693D01*
X0077580Y0012557D01*
X0077367Y0012425D01*
X0077150Y0012299D01*
X0076930Y0012178D01*
X0076708Y0012063D01*
X0076483Y0011953D01*
X0076255Y0011848D01*
X0076024Y0011749D01*
X0075792Y0011656D01*
X0075557Y0011569D01*
X0075320Y0011487D01*
X0075081Y0011412D01*
X0074840Y0011342D01*
X0074598Y0011278D01*
X0074354Y0011220D01*
X0074108Y0011168D01*
X0073862Y0011122D01*
X0073615Y0011083D01*
X0073366Y0011049D01*
X0073117Y0011021D01*
X0072867Y0011000D01*
X0072617Y0010984D01*
X0072367Y0010975D01*
X0072116Y0010972D01*
X0071865Y0010975D01*
X0071615Y0010984D01*
X0071365Y0011000D01*
X0071115Y0011021D01*
X0070866Y0011049D01*
X0070617Y0011083D01*
X0070370Y0011122D01*
X0070124Y0011168D01*
X0069878Y0011220D01*
X0069634Y0011278D01*
X0069392Y0011342D01*
X0069151Y0011412D01*
X0068912Y0011487D01*
X0068675Y0011569D01*
X0068440Y0011656D01*
X0068208Y0011749D01*
X0067977Y0011848D01*
X0067749Y0011953D01*
X0067524Y0012063D01*
X0067302Y0012178D01*
X0067082Y0012299D01*
X0066865Y0012425D01*
X0066652Y0012557D01*
X0066442Y0012693D01*
X0066235Y0012835D01*
X0066032Y0012982D01*
X0065833Y0013134D01*
X0065637Y0013290D01*
X0065445Y0013452D01*
X0065257Y0013618D01*
X0065074Y0013788D01*
X0064894Y0013963D01*
X0064719Y0014143D01*
X0064549Y0014326D01*
X0064383Y0014514D01*
X0064221Y0014706D01*
X0064065Y0014902D01*
X0063913Y0015101D01*
X0063766Y0015304D01*
X0063624Y0015511D01*
X0063488Y0015721D01*
X0063356Y0015934D01*
X0063230Y0016151D01*
X0063109Y0016371D01*
X0062994Y0016593D01*
X0062884Y0016818D01*
X0062779Y0017046D01*
X0062680Y0017277D01*
X0062587Y0017509D01*
X0062500Y0017744D01*
X0062418Y0017981D01*
X0062343Y0018220D01*
X0062273Y0018461D01*
X0062209Y0018703D01*
X0062151Y0018947D01*
X0062099Y0019193D01*
X0062053Y0019439D01*
X0062014Y0019686D01*
X0061980Y0019935D01*
X0061952Y0020184D01*
X0061931Y0020434D01*
X0061915Y0020684D01*
X0061906Y0020934D01*
X0061903Y0021185D01*
X0491090Y0021185D02*
X0491093Y0021434D01*
X0491102Y0021684D01*
X0491118Y0021932D01*
X0491139Y0022181D01*
X0491166Y0022429D01*
X0491200Y0022676D01*
X0491240Y0022922D01*
X0491285Y0023167D01*
X0491337Y0023411D01*
X0491394Y0023654D01*
X0491458Y0023895D01*
X0491527Y0024134D01*
X0491603Y0024372D01*
X0491684Y0024608D01*
X0491771Y0024842D01*
X0491863Y0025073D01*
X0491962Y0025302D01*
X0492065Y0025529D01*
X0492175Y0025753D01*
X0492290Y0025974D01*
X0492410Y0026193D01*
X0492535Y0026408D01*
X0492666Y0026621D01*
X0492802Y0026830D01*
X0492943Y0027035D01*
X0493089Y0027237D01*
X0493240Y0027436D01*
X0493396Y0027630D01*
X0493557Y0027821D01*
X0493722Y0028008D01*
X0493892Y0028191D01*
X0494066Y0028369D01*
X0494244Y0028543D01*
X0494427Y0028713D01*
X0494614Y0028878D01*
X0494805Y0029039D01*
X0494999Y0029195D01*
X0495198Y0029346D01*
X0495400Y0029492D01*
X0495605Y0029633D01*
X0495814Y0029769D01*
X0496027Y0029900D01*
X0496242Y0030025D01*
X0496461Y0030145D01*
X0496682Y0030260D01*
X0496906Y0030370D01*
X0497133Y0030473D01*
X0497362Y0030572D01*
X0497593Y0030664D01*
X0497827Y0030751D01*
X0498063Y0030832D01*
X0498301Y0030908D01*
X0498540Y0030977D01*
X0498781Y0031041D01*
X0499024Y0031098D01*
X0499268Y0031150D01*
X0499513Y0031195D01*
X0499759Y0031235D01*
X0500006Y0031269D01*
X0500254Y0031296D01*
X0500503Y0031317D01*
X0500751Y0031333D01*
X0501001Y0031342D01*
X0501250Y0031345D01*
X0501499Y0031342D01*
X0501749Y0031333D01*
X0501997Y0031317D01*
X0502246Y0031296D01*
X0502494Y0031269D01*
X0502741Y0031235D01*
X0502987Y0031195D01*
X0503232Y0031150D01*
X0503476Y0031098D01*
X0503719Y0031041D01*
X0503960Y0030977D01*
X0504199Y0030908D01*
X0504437Y0030832D01*
X0504673Y0030751D01*
X0504907Y0030664D01*
X0505138Y0030572D01*
X0505367Y0030473D01*
X0505594Y0030370D01*
X0505818Y0030260D01*
X0506039Y0030145D01*
X0506258Y0030025D01*
X0506473Y0029900D01*
X0506686Y0029769D01*
X0506895Y0029633D01*
X0507100Y0029492D01*
X0507302Y0029346D01*
X0507501Y0029195D01*
X0507695Y0029039D01*
X0507886Y0028878D01*
X0508073Y0028713D01*
X0508256Y0028543D01*
X0508434Y0028369D01*
X0508608Y0028191D01*
X0508778Y0028008D01*
X0508943Y0027821D01*
X0509104Y0027630D01*
X0509260Y0027436D01*
X0509411Y0027237D01*
X0509557Y0027035D01*
X0509698Y0026830D01*
X0509834Y0026621D01*
X0509965Y0026408D01*
X0510090Y0026193D01*
X0510210Y0025974D01*
X0510325Y0025753D01*
X0510435Y0025529D01*
X0510538Y0025302D01*
X0510637Y0025073D01*
X0510729Y0024842D01*
X0510816Y0024608D01*
X0510897Y0024372D01*
X0510973Y0024134D01*
X0511042Y0023895D01*
X0511106Y0023654D01*
X0511163Y0023411D01*
X0511215Y0023167D01*
X0511260Y0022922D01*
X0511300Y0022676D01*
X0511334Y0022429D01*
X0511361Y0022181D01*
X0511382Y0021932D01*
X0511398Y0021684D01*
X0511407Y0021434D01*
X0511410Y0021185D01*
X0511407Y0020936D01*
X0511398Y0020686D01*
X0511382Y0020438D01*
X0511361Y0020189D01*
X0511334Y0019941D01*
X0511300Y0019694D01*
X0511260Y0019448D01*
X0511215Y0019203D01*
X0511163Y0018959D01*
X0511106Y0018716D01*
X0511042Y0018475D01*
X0510973Y0018236D01*
X0510897Y0017998D01*
X0510816Y0017762D01*
X0510729Y0017528D01*
X0510637Y0017297D01*
X0510538Y0017068D01*
X0510435Y0016841D01*
X0510325Y0016617D01*
X0510210Y0016396D01*
X0510090Y0016177D01*
X0509965Y0015962D01*
X0509834Y0015749D01*
X0509698Y0015540D01*
X0509557Y0015335D01*
X0509411Y0015133D01*
X0509260Y0014934D01*
X0509104Y0014740D01*
X0508943Y0014549D01*
X0508778Y0014362D01*
X0508608Y0014179D01*
X0508434Y0014001D01*
X0508256Y0013827D01*
X0508073Y0013657D01*
X0507886Y0013492D01*
X0507695Y0013331D01*
X0507501Y0013175D01*
X0507302Y0013024D01*
X0507100Y0012878D01*
X0506895Y0012737D01*
X0506686Y0012601D01*
X0506473Y0012470D01*
X0506258Y0012345D01*
X0506039Y0012225D01*
X0505818Y0012110D01*
X0505594Y0012000D01*
X0505367Y0011897D01*
X0505138Y0011798D01*
X0504907Y0011706D01*
X0504673Y0011619D01*
X0504437Y0011538D01*
X0504199Y0011462D01*
X0503960Y0011393D01*
X0503719Y0011329D01*
X0503476Y0011272D01*
X0503232Y0011220D01*
X0502987Y0011175D01*
X0502741Y0011135D01*
X0502494Y0011101D01*
X0502246Y0011074D01*
X0501997Y0011053D01*
X0501749Y0011037D01*
X0501499Y0011028D01*
X0501250Y0011025D01*
X0501001Y0011028D01*
X0500751Y0011037D01*
X0500503Y0011053D01*
X0500254Y0011074D01*
X0500006Y0011101D01*
X0499759Y0011135D01*
X0499513Y0011175D01*
X0499268Y0011220D01*
X0499024Y0011272D01*
X0498781Y0011329D01*
X0498540Y0011393D01*
X0498301Y0011462D01*
X0498063Y0011538D01*
X0497827Y0011619D01*
X0497593Y0011706D01*
X0497362Y0011798D01*
X0497133Y0011897D01*
X0496906Y0012000D01*
X0496682Y0012110D01*
X0496461Y0012225D01*
X0496242Y0012345D01*
X0496027Y0012470D01*
X0495814Y0012601D01*
X0495605Y0012737D01*
X0495400Y0012878D01*
X0495198Y0013024D01*
X0494999Y0013175D01*
X0494805Y0013331D01*
X0494614Y0013492D01*
X0494427Y0013657D01*
X0494244Y0013827D01*
X0494066Y0014001D01*
X0493892Y0014179D01*
X0493722Y0014362D01*
X0493557Y0014549D01*
X0493396Y0014740D01*
X0493240Y0014934D01*
X0493089Y0015133D01*
X0492943Y0015335D01*
X0492802Y0015540D01*
X0492666Y0015749D01*
X0492535Y0015962D01*
X0492410Y0016177D01*
X0492290Y0016396D01*
X0492175Y0016617D01*
X0492065Y0016841D01*
X0491962Y0017068D01*
X0491863Y0017297D01*
X0491771Y0017528D01*
X0491684Y0017762D01*
X0491603Y0017998D01*
X0491527Y0018236D01*
X0491458Y0018475D01*
X0491394Y0018716D01*
X0491337Y0018959D01*
X0491285Y0019203D01*
X0491240Y0019448D01*
X0491200Y0019694D01*
X0491166Y0019941D01*
X0491139Y0020189D01*
X0491118Y0020438D01*
X0491102Y0020686D01*
X0491093Y0020936D01*
X0491090Y0021185D01*
X0491090Y0458193D02*
X0491093Y0458442D01*
X0491102Y0458692D01*
X0491118Y0458940D01*
X0491139Y0459189D01*
X0491166Y0459437D01*
X0491200Y0459684D01*
X0491240Y0459930D01*
X0491285Y0460175D01*
X0491337Y0460419D01*
X0491394Y0460662D01*
X0491458Y0460903D01*
X0491527Y0461142D01*
X0491603Y0461380D01*
X0491684Y0461616D01*
X0491771Y0461850D01*
X0491863Y0462081D01*
X0491962Y0462310D01*
X0492065Y0462537D01*
X0492175Y0462761D01*
X0492290Y0462982D01*
X0492410Y0463201D01*
X0492535Y0463416D01*
X0492666Y0463629D01*
X0492802Y0463838D01*
X0492943Y0464043D01*
X0493089Y0464245D01*
X0493240Y0464444D01*
X0493396Y0464638D01*
X0493557Y0464829D01*
X0493722Y0465016D01*
X0493892Y0465199D01*
X0494066Y0465377D01*
X0494244Y0465551D01*
X0494427Y0465721D01*
X0494614Y0465886D01*
X0494805Y0466047D01*
X0494999Y0466203D01*
X0495198Y0466354D01*
X0495400Y0466500D01*
X0495605Y0466641D01*
X0495814Y0466777D01*
X0496027Y0466908D01*
X0496242Y0467033D01*
X0496461Y0467153D01*
X0496682Y0467268D01*
X0496906Y0467378D01*
X0497133Y0467481D01*
X0497362Y0467580D01*
X0497593Y0467672D01*
X0497827Y0467759D01*
X0498063Y0467840D01*
X0498301Y0467916D01*
X0498540Y0467985D01*
X0498781Y0468049D01*
X0499024Y0468106D01*
X0499268Y0468158D01*
X0499513Y0468203D01*
X0499759Y0468243D01*
X0500006Y0468277D01*
X0500254Y0468304D01*
X0500503Y0468325D01*
X0500751Y0468341D01*
X0501001Y0468350D01*
X0501250Y0468353D01*
X0501499Y0468350D01*
X0501749Y0468341D01*
X0501997Y0468325D01*
X0502246Y0468304D01*
X0502494Y0468277D01*
X0502741Y0468243D01*
X0502987Y0468203D01*
X0503232Y0468158D01*
X0503476Y0468106D01*
X0503719Y0468049D01*
X0503960Y0467985D01*
X0504199Y0467916D01*
X0504437Y0467840D01*
X0504673Y0467759D01*
X0504907Y0467672D01*
X0505138Y0467580D01*
X0505367Y0467481D01*
X0505594Y0467378D01*
X0505818Y0467268D01*
X0506039Y0467153D01*
X0506258Y0467033D01*
X0506473Y0466908D01*
X0506686Y0466777D01*
X0506895Y0466641D01*
X0507100Y0466500D01*
X0507302Y0466354D01*
X0507501Y0466203D01*
X0507695Y0466047D01*
X0507886Y0465886D01*
X0508073Y0465721D01*
X0508256Y0465551D01*
X0508434Y0465377D01*
X0508608Y0465199D01*
X0508778Y0465016D01*
X0508943Y0464829D01*
X0509104Y0464638D01*
X0509260Y0464444D01*
X0509411Y0464245D01*
X0509557Y0464043D01*
X0509698Y0463838D01*
X0509834Y0463629D01*
X0509965Y0463416D01*
X0510090Y0463201D01*
X0510210Y0462982D01*
X0510325Y0462761D01*
X0510435Y0462537D01*
X0510538Y0462310D01*
X0510637Y0462081D01*
X0510729Y0461850D01*
X0510816Y0461616D01*
X0510897Y0461380D01*
X0510973Y0461142D01*
X0511042Y0460903D01*
X0511106Y0460662D01*
X0511163Y0460419D01*
X0511215Y0460175D01*
X0511260Y0459930D01*
X0511300Y0459684D01*
X0511334Y0459437D01*
X0511361Y0459189D01*
X0511382Y0458940D01*
X0511398Y0458692D01*
X0511407Y0458442D01*
X0511410Y0458193D01*
X0511407Y0457944D01*
X0511398Y0457694D01*
X0511382Y0457446D01*
X0511361Y0457197D01*
X0511334Y0456949D01*
X0511300Y0456702D01*
X0511260Y0456456D01*
X0511215Y0456211D01*
X0511163Y0455967D01*
X0511106Y0455724D01*
X0511042Y0455483D01*
X0510973Y0455244D01*
X0510897Y0455006D01*
X0510816Y0454770D01*
X0510729Y0454536D01*
X0510637Y0454305D01*
X0510538Y0454076D01*
X0510435Y0453849D01*
X0510325Y0453625D01*
X0510210Y0453404D01*
X0510090Y0453185D01*
X0509965Y0452970D01*
X0509834Y0452757D01*
X0509698Y0452548D01*
X0509557Y0452343D01*
X0509411Y0452141D01*
X0509260Y0451942D01*
X0509104Y0451748D01*
X0508943Y0451557D01*
X0508778Y0451370D01*
X0508608Y0451187D01*
X0508434Y0451009D01*
X0508256Y0450835D01*
X0508073Y0450665D01*
X0507886Y0450500D01*
X0507695Y0450339D01*
X0507501Y0450183D01*
X0507302Y0450032D01*
X0507100Y0449886D01*
X0506895Y0449745D01*
X0506686Y0449609D01*
X0506473Y0449478D01*
X0506258Y0449353D01*
X0506039Y0449233D01*
X0505818Y0449118D01*
X0505594Y0449008D01*
X0505367Y0448905D01*
X0505138Y0448806D01*
X0504907Y0448714D01*
X0504673Y0448627D01*
X0504437Y0448546D01*
X0504199Y0448470D01*
X0503960Y0448401D01*
X0503719Y0448337D01*
X0503476Y0448280D01*
X0503232Y0448228D01*
X0502987Y0448183D01*
X0502741Y0448143D01*
X0502494Y0448109D01*
X0502246Y0448082D01*
X0501997Y0448061D01*
X0501749Y0448045D01*
X0501499Y0448036D01*
X0501250Y0448033D01*
X0501001Y0448036D01*
X0500751Y0448045D01*
X0500503Y0448061D01*
X0500254Y0448082D01*
X0500006Y0448109D01*
X0499759Y0448143D01*
X0499513Y0448183D01*
X0499268Y0448228D01*
X0499024Y0448280D01*
X0498781Y0448337D01*
X0498540Y0448401D01*
X0498301Y0448470D01*
X0498063Y0448546D01*
X0497827Y0448627D01*
X0497593Y0448714D01*
X0497362Y0448806D01*
X0497133Y0448905D01*
X0496906Y0449008D01*
X0496682Y0449118D01*
X0496461Y0449233D01*
X0496242Y0449353D01*
X0496027Y0449478D01*
X0495814Y0449609D01*
X0495605Y0449745D01*
X0495400Y0449886D01*
X0495198Y0450032D01*
X0494999Y0450183D01*
X0494805Y0450339D01*
X0494614Y0450500D01*
X0494427Y0450665D01*
X0494244Y0450835D01*
X0494066Y0451009D01*
X0493892Y0451187D01*
X0493722Y0451370D01*
X0493557Y0451557D01*
X0493396Y0451748D01*
X0493240Y0451942D01*
X0493089Y0452141D01*
X0492943Y0452343D01*
X0492802Y0452548D01*
X0492666Y0452757D01*
X0492535Y0452970D01*
X0492410Y0453185D01*
X0492290Y0453404D01*
X0492175Y0453625D01*
X0492065Y0453849D01*
X0491962Y0454076D01*
X0491863Y0454305D01*
X0491771Y0454536D01*
X0491684Y0454770D01*
X0491603Y0455006D01*
X0491527Y0455244D01*
X0491458Y0455483D01*
X0491394Y0455724D01*
X0491337Y0455967D01*
X0491285Y0456211D01*
X0491240Y0456456D01*
X0491200Y0456702D01*
X0491166Y0456949D01*
X0491139Y0457197D01*
X0491118Y0457446D01*
X0491102Y0457694D01*
X0491093Y0457944D01*
X0491090Y0458193D01*
X0062094Y0458193D02*
X0062097Y0458439D01*
X0062106Y0458685D01*
X0062121Y0458930D01*
X0062142Y0459175D01*
X0062169Y0459420D01*
X0062202Y0459664D01*
X0062242Y0459906D01*
X0062287Y0460148D01*
X0062338Y0460389D01*
X0062394Y0460628D01*
X0062457Y0460866D01*
X0062526Y0461102D01*
X0062600Y0461337D01*
X0062680Y0461569D01*
X0062766Y0461800D01*
X0062857Y0462028D01*
X0062954Y0462254D01*
X0063056Y0462478D01*
X0063164Y0462699D01*
X0063277Y0462917D01*
X0063396Y0463133D01*
X0063520Y0463345D01*
X0063649Y0463555D01*
X0063783Y0463761D01*
X0063922Y0463964D01*
X0064066Y0464163D01*
X0064215Y0464359D01*
X0064369Y0464551D01*
X0064527Y0464739D01*
X0064690Y0464923D01*
X0064858Y0465104D01*
X0065029Y0465280D01*
X0065205Y0465451D01*
X0065386Y0465619D01*
X0065570Y0465782D01*
X0065758Y0465940D01*
X0065950Y0466094D01*
X0066146Y0466243D01*
X0066345Y0466387D01*
X0066548Y0466526D01*
X0066754Y0466660D01*
X0066964Y0466789D01*
X0067176Y0466913D01*
X0067392Y0467032D01*
X0067610Y0467145D01*
X0067831Y0467253D01*
X0068055Y0467355D01*
X0068281Y0467452D01*
X0068509Y0467543D01*
X0068740Y0467629D01*
X0068972Y0467709D01*
X0069207Y0467783D01*
X0069443Y0467852D01*
X0069681Y0467915D01*
X0069920Y0467971D01*
X0070161Y0468022D01*
X0070403Y0468067D01*
X0070645Y0468107D01*
X0070889Y0468140D01*
X0071134Y0468167D01*
X0071379Y0468188D01*
X0071624Y0468203D01*
X0071870Y0468212D01*
X0072116Y0468215D01*
X0072362Y0468212D01*
X0072608Y0468203D01*
X0072853Y0468188D01*
X0073098Y0468167D01*
X0073343Y0468140D01*
X0073587Y0468107D01*
X0073829Y0468067D01*
X0074071Y0468022D01*
X0074312Y0467971D01*
X0074551Y0467915D01*
X0074789Y0467852D01*
X0075025Y0467783D01*
X0075260Y0467709D01*
X0075492Y0467629D01*
X0075723Y0467543D01*
X0075951Y0467452D01*
X0076177Y0467355D01*
X0076401Y0467253D01*
X0076622Y0467145D01*
X0076840Y0467032D01*
X0077056Y0466913D01*
X0077268Y0466789D01*
X0077478Y0466660D01*
X0077684Y0466526D01*
X0077887Y0466387D01*
X0078086Y0466243D01*
X0078282Y0466094D01*
X0078474Y0465940D01*
X0078662Y0465782D01*
X0078846Y0465619D01*
X0079027Y0465451D01*
X0079203Y0465280D01*
X0079374Y0465104D01*
X0079542Y0464923D01*
X0079705Y0464739D01*
X0079863Y0464551D01*
X0080017Y0464359D01*
X0080166Y0464163D01*
X0080310Y0463964D01*
X0080449Y0463761D01*
X0080583Y0463555D01*
X0080712Y0463345D01*
X0080836Y0463133D01*
X0080955Y0462917D01*
X0081068Y0462699D01*
X0081176Y0462478D01*
X0081278Y0462254D01*
X0081375Y0462028D01*
X0081466Y0461800D01*
X0081552Y0461569D01*
X0081632Y0461337D01*
X0081706Y0461102D01*
X0081775Y0460866D01*
X0081838Y0460628D01*
X0081894Y0460389D01*
X0081945Y0460148D01*
X0081990Y0459906D01*
X0082030Y0459664D01*
X0082063Y0459420D01*
X0082090Y0459175D01*
X0082111Y0458930D01*
X0082126Y0458685D01*
X0082135Y0458439D01*
X0082138Y0458193D01*
X0082135Y0457947D01*
X0082126Y0457701D01*
X0082111Y0457456D01*
X0082090Y0457211D01*
X0082063Y0456966D01*
X0082030Y0456722D01*
X0081990Y0456480D01*
X0081945Y0456238D01*
X0081894Y0455997D01*
X0081838Y0455758D01*
X0081775Y0455520D01*
X0081706Y0455284D01*
X0081632Y0455049D01*
X0081552Y0454817D01*
X0081466Y0454586D01*
X0081375Y0454358D01*
X0081278Y0454132D01*
X0081176Y0453908D01*
X0081068Y0453687D01*
X0080955Y0453469D01*
X0080836Y0453253D01*
X0080712Y0453041D01*
X0080583Y0452831D01*
X0080449Y0452625D01*
X0080310Y0452422D01*
X0080166Y0452223D01*
X0080017Y0452027D01*
X0079863Y0451835D01*
X0079705Y0451647D01*
X0079542Y0451463D01*
X0079374Y0451282D01*
X0079203Y0451106D01*
X0079027Y0450935D01*
X0078846Y0450767D01*
X0078662Y0450604D01*
X0078474Y0450446D01*
X0078282Y0450292D01*
X0078086Y0450143D01*
X0077887Y0449999D01*
X0077684Y0449860D01*
X0077478Y0449726D01*
X0077268Y0449597D01*
X0077056Y0449473D01*
X0076840Y0449354D01*
X0076622Y0449241D01*
X0076401Y0449133D01*
X0076177Y0449031D01*
X0075951Y0448934D01*
X0075723Y0448843D01*
X0075492Y0448757D01*
X0075260Y0448677D01*
X0075025Y0448603D01*
X0074789Y0448534D01*
X0074551Y0448471D01*
X0074312Y0448415D01*
X0074071Y0448364D01*
X0073829Y0448319D01*
X0073587Y0448279D01*
X0073343Y0448246D01*
X0073098Y0448219D01*
X0072853Y0448198D01*
X0072608Y0448183D01*
X0072362Y0448174D01*
X0072116Y0448171D01*
X0071870Y0448174D01*
X0071624Y0448183D01*
X0071379Y0448198D01*
X0071134Y0448219D01*
X0070889Y0448246D01*
X0070645Y0448279D01*
X0070403Y0448319D01*
X0070161Y0448364D01*
X0069920Y0448415D01*
X0069681Y0448471D01*
X0069443Y0448534D01*
X0069207Y0448603D01*
X0068972Y0448677D01*
X0068740Y0448757D01*
X0068509Y0448843D01*
X0068281Y0448934D01*
X0068055Y0449031D01*
X0067831Y0449133D01*
X0067610Y0449241D01*
X0067392Y0449354D01*
X0067176Y0449473D01*
X0066964Y0449597D01*
X0066754Y0449726D01*
X0066548Y0449860D01*
X0066345Y0449999D01*
X0066146Y0450143D01*
X0065950Y0450292D01*
X0065758Y0450446D01*
X0065570Y0450604D01*
X0065386Y0450767D01*
X0065205Y0450935D01*
X0065029Y0451106D01*
X0064858Y0451282D01*
X0064690Y0451463D01*
X0064527Y0451647D01*
X0064369Y0451835D01*
X0064215Y0452027D01*
X0064066Y0452223D01*
X0063922Y0452422D01*
X0063783Y0452625D01*
X0063649Y0452831D01*
X0063520Y0453041D01*
X0063396Y0453253D01*
X0063277Y0453469D01*
X0063164Y0453687D01*
X0063056Y0453908D01*
X0062954Y0454132D01*
X0062857Y0454358D01*
X0062766Y0454586D01*
X0062680Y0454817D01*
X0062600Y0455049D01*
X0062526Y0455284D01*
X0062457Y0455520D01*
X0062394Y0455758D01*
X0062338Y0455997D01*
X0062287Y0456238D01*
X0062242Y0456480D01*
X0062202Y0456722D01*
X0062169Y0456966D01*
X0062142Y0457211D01*
X0062121Y0457456D01*
X0062106Y0457701D01*
X0062097Y0457947D01*
X0062094Y0458193D01*
D14*
X0520423Y0192327D03*
X0530384Y0202051D03*
X0530344Y0172602D03*
X0520463Y0152957D03*
X0530384Y0142957D03*
X0530384Y0111500D03*
X0520423Y0101776D03*
X0530344Y0082051D03*
X0520463Y0062406D03*
X0530384Y0052406D03*
X0569684Y0062406D03*
X0569684Y0101806D03*
X0569684Y0152957D03*
X0569684Y0192357D03*
D15*
X0529203Y0228665D02*
X0520541Y0228665D01*
X0556368Y0245201D02*
X0556368Y0253862D01*
X0529203Y0270331D02*
X0520541Y0270331D01*
X0520541Y0287720D02*
X0529203Y0287720D01*
X0556368Y0304256D02*
X0556368Y0312917D01*
X0529203Y0329387D02*
X0520541Y0329387D01*
D16*
X0556368Y0323350D03*
X0556368Y0293823D03*
X0556368Y0264295D03*
X0556368Y0234768D03*
D17*
X0530778Y0249531D03*
X0530778Y0308587D03*
D18*
X0497470Y0301344D02*
X0497470Y0296144D01*
X0487470Y0296144D02*
X0487470Y0301344D01*
X0477470Y0301344D02*
X0477470Y0296144D01*
X0477470Y0261974D02*
X0477470Y0256774D01*
X0487470Y0256774D02*
X0487470Y0261974D01*
X0497470Y0261974D02*
X0497470Y0256774D01*
X0497470Y0335514D02*
X0497470Y0340714D01*
X0487470Y0340714D02*
X0487470Y0335514D01*
X0477470Y0335514D02*
X0477470Y0340714D01*
X0298652Y0181265D02*
X0298652Y0176065D01*
X0288652Y0176065D02*
X0288652Y0181265D01*
X0278652Y0181265D02*
X0278652Y0176065D01*
X0205110Y0178626D02*
X0199910Y0178626D01*
X0199910Y0188626D02*
X0205110Y0188626D01*
X0205110Y0198626D02*
X0199910Y0198626D01*
X0199910Y0208626D02*
X0205110Y0208626D01*
X0205110Y0218626D02*
X0199910Y0218626D01*
X0199910Y0228626D02*
X0205110Y0228626D01*
X0205110Y0238626D02*
X0199910Y0238626D01*
X0199910Y0248626D02*
X0205110Y0248626D01*
X0205110Y0258626D02*
X0199910Y0258626D01*
X0199910Y0268626D02*
X0205110Y0268626D01*
X0205110Y0278626D02*
X0199910Y0278626D01*
X0199910Y0288626D02*
X0205110Y0288626D01*
X0205110Y0298626D02*
X0199910Y0298626D01*
X0199910Y0308626D02*
X0205110Y0308626D01*
X0145110Y0308626D02*
X0139910Y0308626D01*
X0139910Y0298626D02*
X0145110Y0298626D01*
X0145110Y0288626D02*
X0139910Y0288626D01*
X0139910Y0278626D02*
X0145110Y0278626D01*
X0145110Y0268626D02*
X0139910Y0268626D01*
X0139910Y0258626D02*
X0145110Y0258626D01*
X0145110Y0248626D02*
X0139910Y0248626D01*
X0139910Y0238626D02*
X0145110Y0238626D01*
X0145110Y0228626D02*
X0139910Y0228626D01*
X0139910Y0218626D02*
X0145110Y0218626D01*
X0145110Y0208626D02*
X0139910Y0208626D01*
X0139910Y0198626D02*
X0145110Y0198626D01*
X0145110Y0188626D02*
X0139910Y0188626D01*
X0139910Y0178626D02*
X0145110Y0178626D01*
X0145110Y0131303D02*
X0139910Y0131303D01*
X0139910Y0121303D02*
X0145110Y0121303D01*
X0145110Y0111303D02*
X0139910Y0111303D01*
X0139910Y0101303D02*
X0145110Y0101303D01*
X0145110Y0091303D02*
X0139910Y0091303D01*
X0139910Y0081303D02*
X0145110Y0081303D01*
X0145110Y0071303D02*
X0139910Y0071303D01*
X0139910Y0061303D02*
X0145110Y0061303D01*
X0145110Y0051303D02*
X0139910Y0051303D01*
X0139910Y0041303D02*
X0145110Y0041303D01*
X0145110Y0031303D02*
X0139910Y0031303D01*
X0139910Y0021303D02*
X0145110Y0021303D01*
X0199910Y0021303D02*
X0205110Y0021303D01*
X0205110Y0031303D02*
X0199910Y0031303D01*
X0199910Y0041303D02*
X0205110Y0041303D01*
X0205110Y0051303D02*
X0199910Y0051303D01*
X0199910Y0061303D02*
X0205110Y0061303D01*
X0205110Y0071303D02*
X0199910Y0071303D01*
X0199910Y0081303D02*
X0205110Y0081303D01*
X0205110Y0091303D02*
X0199910Y0091303D01*
X0199910Y0101303D02*
X0205110Y0101303D01*
X0205110Y0111303D02*
X0199910Y0111303D01*
X0199910Y0121303D02*
X0205110Y0121303D01*
X0205110Y0131303D02*
X0199910Y0131303D01*
X0235619Y0091618D02*
X0240819Y0091618D01*
X0240819Y0081618D02*
X0235619Y0081618D01*
X0235619Y0071618D02*
X0240819Y0071618D01*
X0240819Y0061618D02*
X0235619Y0061618D01*
X0235619Y0051618D02*
X0240819Y0051618D01*
X0240819Y0041618D02*
X0235619Y0041618D01*
X0235619Y0031618D02*
X0240819Y0031618D01*
X0240819Y0021618D02*
X0235619Y0021618D01*
X0265619Y0021618D02*
X0270819Y0021618D01*
X0270819Y0031618D02*
X0265619Y0031618D01*
X0265619Y0041618D02*
X0270819Y0041618D01*
X0270819Y0051618D02*
X0265619Y0051618D01*
X0265619Y0061618D02*
X0270819Y0061618D01*
X0270819Y0071618D02*
X0265619Y0071618D01*
X0265619Y0081618D02*
X0270819Y0081618D01*
X0270819Y0091618D02*
X0265619Y0091618D01*
X0436132Y0083903D02*
X0436132Y0078703D01*
X0446132Y0078703D02*
X0446132Y0083903D01*
X0456132Y0083903D02*
X0456132Y0078703D01*
X0477470Y0078703D02*
X0477470Y0083903D01*
X0487470Y0083903D02*
X0487470Y0078703D01*
X0497470Y0078703D02*
X0497470Y0083903D01*
D19*
X0502470Y0155791D03*
X0502470Y0165791D03*
X0502470Y0175791D03*
X0502470Y0185791D03*
X0472470Y0185791D03*
X0472470Y0175791D03*
X0472470Y0165791D03*
X0472470Y0155791D03*
X0394203Y0138547D03*
X0394203Y0128547D03*
X0394203Y0118547D03*
X0394203Y0108547D03*
X0364203Y0108547D03*
X0364203Y0118547D03*
X0364203Y0128547D03*
X0364203Y0138547D03*
X0364203Y0199098D03*
X0364203Y0209098D03*
X0364203Y0219098D03*
X0364203Y0229098D03*
X0394203Y0229098D03*
X0394203Y0219098D03*
X0394203Y0209098D03*
X0394203Y0199098D03*
X0343022Y0071618D03*
X0343022Y0061618D03*
X0343022Y0051618D03*
X0343022Y0041618D03*
X0313022Y0041618D03*
X0313022Y0051618D03*
X0313022Y0061618D03*
X0313022Y0071618D03*
X0109518Y0429008D03*
X0109518Y0448008D03*
D20*
X0168284Y0450476D03*
X0168284Y0445476D03*
X0168284Y0440476D03*
X0168284Y0435476D03*
X0168284Y0430476D03*
X0168284Y0425476D03*
X0192484Y0425476D03*
X0192484Y0430476D03*
X0192484Y0435476D03*
X0192484Y0440476D03*
X0192484Y0445476D03*
X0192484Y0450476D03*
X0192484Y0455476D03*
X0168284Y0455476D03*
D21*
X0459911Y0165673D03*
X0459911Y0152287D03*
X0455974Y0118429D03*
X0455974Y0105043D03*
X0436289Y0105043D03*
X0436289Y0118429D03*
D22*
X0532746Y0358783D03*
X0542589Y0358783D03*
X0542589Y0368626D03*
X0542589Y0378469D03*
X0532746Y0378469D03*
X0532746Y0368626D03*
X0532746Y0388311D03*
X0532746Y0398154D03*
X0532746Y0407996D03*
X0532746Y0417839D03*
X0532746Y0427681D03*
X0542589Y0427681D03*
X0542589Y0417839D03*
X0542589Y0407996D03*
X0542589Y0398154D03*
X0542589Y0388311D03*
X0542589Y0437524D03*
X0542589Y0447366D03*
X0532746Y0447366D03*
X0532746Y0437524D03*
X0087707Y0382406D03*
X0087707Y0372563D03*
X0087707Y0362720D03*
X0087707Y0352878D03*
X0087707Y0343035D03*
X0087707Y0333193D03*
X0087707Y0323350D03*
X0087707Y0313508D03*
X0087707Y0303665D03*
X0087707Y0293823D03*
X0087707Y0283980D03*
X0087707Y0274138D03*
X0087707Y0264295D03*
X0087707Y0254453D03*
X0087707Y0244610D03*
X0087707Y0234768D03*
X0087707Y0224925D03*
X0087707Y0215083D03*
X0087707Y0205240D03*
X0087707Y0195398D03*
X0087707Y0185555D03*
X0087707Y0175713D03*
X0087707Y0165870D03*
X0087707Y0156028D03*
X0087707Y0146185D03*
X0087707Y0136343D03*
X0087707Y0126500D03*
X0087707Y0116657D03*
X0087707Y0106815D03*
X0087707Y0096972D03*
X0068022Y0096972D03*
X0068022Y0106815D03*
X0068022Y0116657D03*
X0068022Y0126500D03*
X0068022Y0136343D03*
X0068022Y0146185D03*
X0068022Y0156028D03*
X0068022Y0165870D03*
X0068022Y0175713D03*
X0068022Y0185555D03*
X0068022Y0195398D03*
X0068022Y0205240D03*
X0068022Y0215083D03*
X0068022Y0224925D03*
X0068022Y0234768D03*
X0068022Y0244610D03*
X0068022Y0254453D03*
X0068022Y0264295D03*
X0068022Y0274138D03*
X0068022Y0283980D03*
X0068022Y0293823D03*
X0068022Y0303665D03*
X0068022Y0313508D03*
X0068022Y0323350D03*
X0068022Y0333193D03*
X0068022Y0343035D03*
X0068022Y0352878D03*
X0068022Y0362720D03*
X0068022Y0372563D03*
X0068022Y0382406D03*
D23*
X0071285Y0413823D02*
X0076885Y0413823D01*
X0076885Y0423823D02*
X0071285Y0423823D01*
X0120497Y0309650D02*
X0126097Y0309650D01*
X0126097Y0299650D02*
X0120497Y0299650D01*
X0447269Y0335083D02*
X0452869Y0335083D01*
X0452869Y0345083D02*
X0447269Y0345083D01*
X0391845Y0039965D02*
X0386245Y0039965D01*
X0386245Y0029965D02*
X0391845Y0029965D01*
D24*
X0296329Y0074335D03*
X0288848Y0074335D03*
X0288848Y0097957D03*
X0296329Y0097957D03*
X0158533Y0145201D03*
X0151053Y0145201D03*
X0151053Y0162917D03*
X0158533Y0162917D03*
X0186486Y0324335D03*
X0193967Y0324335D03*
X0184124Y0412917D03*
X0176644Y0412917D03*
X0483730Y0221972D03*
X0491211Y0221972D03*
X0491211Y0204256D03*
X0483730Y0204256D03*
D25*
X0459911Y0190280D03*
X0459911Y0182799D03*
X0410699Y0182406D03*
X0410699Y0174925D03*
X0410699Y0162720D03*
X0410699Y0155240D03*
X0391014Y0155240D03*
X0391014Y0162720D03*
X0391014Y0174925D03*
X0391014Y0182406D03*
X0367392Y0182406D03*
X0367392Y0174925D03*
X0367392Y0162720D03*
X0367392Y0155240D03*
X0347707Y0155240D03*
X0347707Y0162720D03*
X0347707Y0174925D03*
X0347707Y0182406D03*
X0312274Y0182406D03*
X0312274Y0174925D03*
X0312274Y0162720D03*
X0312274Y0155240D03*
X0265030Y0174925D03*
X0265030Y0182406D03*
X0326053Y0224138D03*
X0326053Y0231618D03*
X0326053Y0247760D03*
X0326053Y0255240D03*
X0347707Y0231618D03*
X0347707Y0224138D03*
X0410699Y0224138D03*
X0410699Y0231618D03*
X0432352Y0231618D03*
X0432352Y0224138D03*
X0432352Y0247760D03*
X0432352Y0255240D03*
X0410699Y0283193D03*
X0410699Y0290673D03*
X0391014Y0290673D03*
X0391014Y0283193D03*
X0367392Y0283193D03*
X0367392Y0290673D03*
X0347707Y0290673D03*
X0347707Y0283193D03*
X0477628Y0284768D03*
X0477628Y0277287D03*
X0477628Y0245398D03*
X0477628Y0237917D03*
X0477628Y0316657D03*
X0477628Y0324138D03*
X0442195Y0432799D03*
X0442195Y0440280D03*
X0442195Y0450516D03*
X0442195Y0457996D03*
X0426447Y0457996D03*
X0426447Y0450516D03*
X0426447Y0440280D03*
X0426447Y0432799D03*
X0410699Y0432799D03*
X0410699Y0440280D03*
X0410699Y0450516D03*
X0410699Y0457996D03*
X0394951Y0457996D03*
X0394951Y0450516D03*
X0394951Y0440280D03*
X0394951Y0432799D03*
X0369360Y0450516D03*
X0369360Y0457996D03*
X0353612Y0457996D03*
X0353612Y0450516D03*
X0274872Y0450516D03*
X0274872Y0457996D03*
X0259124Y0457996D03*
X0259124Y0450516D03*
X0235502Y0450516D03*
X0235502Y0457996D03*
X0211880Y0457996D03*
X0211880Y0450516D03*
X0148888Y0448547D03*
X0148888Y0456028D03*
X0133140Y0456028D03*
X0133140Y0448547D03*
X0133140Y0430437D03*
X0133140Y0422957D03*
X0148888Y0422957D03*
X0148888Y0430437D03*
X0487470Y0109571D03*
X0487470Y0102091D03*
X0477628Y0062327D03*
X0477628Y0054846D03*
X0497313Y0054846D03*
X0497313Y0062327D03*
X0455974Y0062327D03*
X0455974Y0054846D03*
X0436289Y0054846D03*
X0436289Y0062327D03*
X0394951Y0086343D03*
X0394951Y0093823D03*
X0363455Y0093823D03*
X0363455Y0086343D03*
D26*
X0241407Y0155043D03*
X0221722Y0155043D03*
D27*
X0268967Y0151106D03*
X0268967Y0131421D03*
X0412667Y0046776D03*
X0412667Y0027091D03*
D28*
X0436289Y0025122D03*
X0436289Y0036933D03*
X0410699Y0121579D03*
X0410699Y0133390D03*
X0347707Y0133390D03*
X0347707Y0121579D03*
X0292589Y0048744D03*
X0292589Y0036933D03*
X0347707Y0200319D03*
X0347707Y0212130D03*
X0410699Y0212130D03*
X0410699Y0200319D03*
D29*
X0408730Y0271185D03*
X0396919Y0271185D03*
X0361486Y0271185D03*
X0349675Y0271185D03*
D30*
X0343179Y0251500D03*
X0367982Y0251500D03*
X0390423Y0251500D03*
X0415226Y0251500D03*
D31*
X0345738Y0328272D03*
X0345738Y0330240D03*
X0345738Y0332209D03*
X0345738Y0334177D03*
X0345738Y0336146D03*
X0345738Y0338114D03*
X0345738Y0340083D03*
X0345738Y0342051D03*
X0345738Y0344020D03*
X0345738Y0345988D03*
X0345738Y0347957D03*
X0345738Y0349925D03*
X0345738Y0351894D03*
X0345738Y0353862D03*
X0345738Y0355831D03*
X0345738Y0357799D03*
X0345738Y0359768D03*
X0345738Y0361736D03*
X0345738Y0363705D03*
X0345738Y0365673D03*
X0345738Y0367642D03*
X0345738Y0369610D03*
X0345738Y0371579D03*
X0345738Y0373547D03*
X0345738Y0375516D03*
X0282746Y0375516D03*
X0282746Y0373547D03*
X0282746Y0371579D03*
X0282746Y0369610D03*
X0282746Y0367642D03*
X0282746Y0365673D03*
X0282746Y0363705D03*
X0282746Y0361736D03*
X0282746Y0359768D03*
X0282746Y0357799D03*
X0282746Y0355831D03*
X0282746Y0353862D03*
X0282746Y0351894D03*
X0282746Y0349925D03*
X0282746Y0347957D03*
X0282746Y0345988D03*
X0282746Y0344020D03*
X0282746Y0342051D03*
X0282746Y0340083D03*
X0282746Y0338114D03*
X0282746Y0336146D03*
X0282746Y0334177D03*
X0282746Y0332209D03*
X0282746Y0330240D03*
X0282746Y0328272D03*
D32*
X0290620Y0320398D03*
X0292589Y0320398D03*
X0294557Y0320398D03*
X0296526Y0320398D03*
X0298494Y0320398D03*
X0300463Y0320398D03*
X0302431Y0320398D03*
X0304400Y0320398D03*
X0306368Y0320398D03*
X0308337Y0320398D03*
X0310305Y0320398D03*
X0312274Y0320398D03*
X0314242Y0320398D03*
X0316211Y0320398D03*
X0318179Y0320398D03*
X0320148Y0320398D03*
X0322116Y0320398D03*
X0324085Y0320398D03*
X0326053Y0320398D03*
X0328022Y0320398D03*
X0329990Y0320398D03*
X0331959Y0320398D03*
X0333927Y0320398D03*
X0335896Y0320398D03*
X0337864Y0320398D03*
X0337864Y0383390D03*
X0335896Y0383390D03*
X0333927Y0383390D03*
X0331959Y0383390D03*
X0329990Y0383390D03*
X0328022Y0383390D03*
X0326053Y0383390D03*
X0324085Y0383390D03*
X0322116Y0383390D03*
X0320148Y0383390D03*
X0318179Y0383390D03*
X0316211Y0383390D03*
X0314242Y0383390D03*
X0312274Y0383390D03*
X0310305Y0383390D03*
X0308337Y0383390D03*
X0306368Y0383390D03*
X0304400Y0383390D03*
X0302431Y0383390D03*
X0300463Y0383390D03*
X0298494Y0383390D03*
X0296526Y0383390D03*
X0294557Y0383390D03*
X0292589Y0383390D03*
X0290620Y0383390D03*
D33*
X0334242Y0451382D03*
D34*
X0324242Y0451382D03*
X0314242Y0451382D03*
X0304242Y0451382D03*
X0294242Y0451382D03*
X0294242Y0441382D03*
X0304242Y0441382D03*
X0314242Y0441382D03*
X0324242Y0441382D03*
X0334242Y0441382D03*
M02*
