G75*
%MOIN*%
%OFA0B0*%
%FSLAX25Y25*%
%IPPOS*%
%LPD*%
%AMOC8*
5,1,8,0,0,1.08239X$1,22.5*
%
%ADD10C,0.05906*%
%ADD11C,0.12205*%
%ADD12C,0.01600*%
%ADD13C,0.09000*%
%ADD14C,0.08661*%
%ADD15C,0.05200*%
%ADD16C,0.05200*%
%ADD17OC8,0.05937*%
%ADD18C,0.05600*%
%ADD19R,0.05906X0.05118*%
%ADD20C,0.05600*%
%ADD21R,0.05118X0.05906*%
%ADD22R,0.06000X0.06000*%
%ADD23OC8,0.06000*%
%ADD24C,0.03962*%
%ADD25R,0.03962X0.03962*%
%ADD26C,0.01969*%
%ADD27C,0.01181*%
%ADD28C,0.03937*%
%ADD29C,0.01200*%
D10*
X0056368Y0005437D02*
X0056368Y0473941D01*
X0160699Y0473941D01*
X0282746Y0473941D01*
X0381171Y0473941D01*
X0516998Y0473941D01*
X0558337Y0473941D01*
X0576053Y0473941D01*
X0576053Y0368626D01*
X0576053Y0005437D01*
X0257156Y0005437D01*
X0056368Y0005437D01*
X0061092Y0021185D02*
X0061095Y0021456D01*
X0061105Y0021726D01*
X0061122Y0021996D01*
X0061145Y0022266D01*
X0061175Y0022534D01*
X0061211Y0022803D01*
X0061254Y0023070D01*
X0061304Y0023336D01*
X0061360Y0023600D01*
X0061422Y0023864D01*
X0061491Y0024125D01*
X0061567Y0024385D01*
X0061648Y0024643D01*
X0061736Y0024899D01*
X0061831Y0025152D01*
X0061931Y0025404D01*
X0062038Y0025652D01*
X0062150Y0025898D01*
X0062269Y0026142D01*
X0062394Y0026382D01*
X0062524Y0026619D01*
X0062660Y0026852D01*
X0062802Y0027083D01*
X0062950Y0027310D01*
X0063103Y0027533D01*
X0063261Y0027752D01*
X0063425Y0027967D01*
X0063594Y0028179D01*
X0063769Y0028386D01*
X0063948Y0028588D01*
X0064132Y0028786D01*
X0064321Y0028980D01*
X0064515Y0029169D01*
X0064713Y0029353D01*
X0064915Y0029532D01*
X0065122Y0029707D01*
X0065334Y0029876D01*
X0065549Y0030040D01*
X0065768Y0030198D01*
X0065991Y0030351D01*
X0066218Y0030499D01*
X0066449Y0030641D01*
X0066682Y0030777D01*
X0066919Y0030907D01*
X0067159Y0031032D01*
X0067403Y0031151D01*
X0067649Y0031263D01*
X0067897Y0031370D01*
X0068149Y0031470D01*
X0068402Y0031565D01*
X0068658Y0031653D01*
X0068916Y0031734D01*
X0069176Y0031810D01*
X0069437Y0031879D01*
X0069701Y0031941D01*
X0069965Y0031997D01*
X0070231Y0032047D01*
X0070498Y0032090D01*
X0070767Y0032126D01*
X0071035Y0032156D01*
X0071305Y0032179D01*
X0071575Y0032196D01*
X0071845Y0032206D01*
X0072116Y0032209D01*
X0072387Y0032206D01*
X0072657Y0032196D01*
X0072927Y0032179D01*
X0073197Y0032156D01*
X0073465Y0032126D01*
X0073734Y0032090D01*
X0074001Y0032047D01*
X0074267Y0031997D01*
X0074531Y0031941D01*
X0074795Y0031879D01*
X0075056Y0031810D01*
X0075316Y0031734D01*
X0075574Y0031653D01*
X0075830Y0031565D01*
X0076083Y0031470D01*
X0076335Y0031370D01*
X0076583Y0031263D01*
X0076829Y0031151D01*
X0077073Y0031032D01*
X0077313Y0030907D01*
X0077550Y0030777D01*
X0077783Y0030641D01*
X0078014Y0030499D01*
X0078241Y0030351D01*
X0078464Y0030198D01*
X0078683Y0030040D01*
X0078898Y0029876D01*
X0079110Y0029707D01*
X0079317Y0029532D01*
X0079519Y0029353D01*
X0079717Y0029169D01*
X0079911Y0028980D01*
X0080100Y0028786D01*
X0080284Y0028588D01*
X0080463Y0028386D01*
X0080638Y0028179D01*
X0080807Y0027967D01*
X0080971Y0027752D01*
X0081129Y0027533D01*
X0081282Y0027310D01*
X0081430Y0027083D01*
X0081572Y0026852D01*
X0081708Y0026619D01*
X0081838Y0026382D01*
X0081963Y0026142D01*
X0082082Y0025898D01*
X0082194Y0025652D01*
X0082301Y0025404D01*
X0082401Y0025152D01*
X0082496Y0024899D01*
X0082584Y0024643D01*
X0082665Y0024385D01*
X0082741Y0024125D01*
X0082810Y0023864D01*
X0082872Y0023600D01*
X0082928Y0023336D01*
X0082978Y0023070D01*
X0083021Y0022803D01*
X0083057Y0022534D01*
X0083087Y0022266D01*
X0083110Y0021996D01*
X0083127Y0021726D01*
X0083137Y0021456D01*
X0083140Y0021185D01*
X0083137Y0020914D01*
X0083127Y0020644D01*
X0083110Y0020374D01*
X0083087Y0020104D01*
X0083057Y0019836D01*
X0083021Y0019567D01*
X0082978Y0019300D01*
X0082928Y0019034D01*
X0082872Y0018770D01*
X0082810Y0018506D01*
X0082741Y0018245D01*
X0082665Y0017985D01*
X0082584Y0017727D01*
X0082496Y0017471D01*
X0082401Y0017218D01*
X0082301Y0016966D01*
X0082194Y0016718D01*
X0082082Y0016472D01*
X0081963Y0016228D01*
X0081838Y0015988D01*
X0081708Y0015751D01*
X0081572Y0015518D01*
X0081430Y0015287D01*
X0081282Y0015060D01*
X0081129Y0014837D01*
X0080971Y0014618D01*
X0080807Y0014403D01*
X0080638Y0014191D01*
X0080463Y0013984D01*
X0080284Y0013782D01*
X0080100Y0013584D01*
X0079911Y0013390D01*
X0079717Y0013201D01*
X0079519Y0013017D01*
X0079317Y0012838D01*
X0079110Y0012663D01*
X0078898Y0012494D01*
X0078683Y0012330D01*
X0078464Y0012172D01*
X0078241Y0012019D01*
X0078014Y0011871D01*
X0077783Y0011729D01*
X0077550Y0011593D01*
X0077313Y0011463D01*
X0077073Y0011338D01*
X0076829Y0011219D01*
X0076583Y0011107D01*
X0076335Y0011000D01*
X0076083Y0010900D01*
X0075830Y0010805D01*
X0075574Y0010717D01*
X0075316Y0010636D01*
X0075056Y0010560D01*
X0074795Y0010491D01*
X0074531Y0010429D01*
X0074267Y0010373D01*
X0074001Y0010323D01*
X0073734Y0010280D01*
X0073465Y0010244D01*
X0073197Y0010214D01*
X0072927Y0010191D01*
X0072657Y0010174D01*
X0072387Y0010164D01*
X0072116Y0010161D01*
X0071845Y0010164D01*
X0071575Y0010174D01*
X0071305Y0010191D01*
X0071035Y0010214D01*
X0070767Y0010244D01*
X0070498Y0010280D01*
X0070231Y0010323D01*
X0069965Y0010373D01*
X0069701Y0010429D01*
X0069437Y0010491D01*
X0069176Y0010560D01*
X0068916Y0010636D01*
X0068658Y0010717D01*
X0068402Y0010805D01*
X0068149Y0010900D01*
X0067897Y0011000D01*
X0067649Y0011107D01*
X0067403Y0011219D01*
X0067159Y0011338D01*
X0066919Y0011463D01*
X0066682Y0011593D01*
X0066449Y0011729D01*
X0066218Y0011871D01*
X0065991Y0012019D01*
X0065768Y0012172D01*
X0065549Y0012330D01*
X0065334Y0012494D01*
X0065122Y0012663D01*
X0064915Y0012838D01*
X0064713Y0013017D01*
X0064515Y0013201D01*
X0064321Y0013390D01*
X0064132Y0013584D01*
X0063948Y0013782D01*
X0063769Y0013984D01*
X0063594Y0014191D01*
X0063425Y0014403D01*
X0063261Y0014618D01*
X0063103Y0014837D01*
X0062950Y0015060D01*
X0062802Y0015287D01*
X0062660Y0015518D01*
X0062524Y0015751D01*
X0062394Y0015988D01*
X0062269Y0016228D01*
X0062150Y0016472D01*
X0062038Y0016718D01*
X0061931Y0016966D01*
X0061831Y0017218D01*
X0061736Y0017471D01*
X0061648Y0017727D01*
X0061567Y0017985D01*
X0061491Y0018245D01*
X0061422Y0018506D01*
X0061360Y0018770D01*
X0061304Y0019034D01*
X0061254Y0019300D01*
X0061211Y0019567D01*
X0061175Y0019836D01*
X0061145Y0020104D01*
X0061122Y0020374D01*
X0061105Y0020644D01*
X0061095Y0020914D01*
X0061092Y0021185D01*
X0490226Y0021185D02*
X0490229Y0021456D01*
X0490239Y0021726D01*
X0490256Y0021996D01*
X0490279Y0022266D01*
X0490309Y0022534D01*
X0490345Y0022803D01*
X0490388Y0023070D01*
X0490438Y0023336D01*
X0490494Y0023600D01*
X0490556Y0023864D01*
X0490625Y0024125D01*
X0490701Y0024385D01*
X0490782Y0024643D01*
X0490870Y0024899D01*
X0490965Y0025152D01*
X0491065Y0025404D01*
X0491172Y0025652D01*
X0491284Y0025898D01*
X0491403Y0026142D01*
X0491528Y0026382D01*
X0491658Y0026619D01*
X0491794Y0026852D01*
X0491936Y0027083D01*
X0492084Y0027310D01*
X0492237Y0027533D01*
X0492395Y0027752D01*
X0492559Y0027967D01*
X0492728Y0028179D01*
X0492903Y0028386D01*
X0493082Y0028588D01*
X0493266Y0028786D01*
X0493455Y0028980D01*
X0493649Y0029169D01*
X0493847Y0029353D01*
X0494049Y0029532D01*
X0494256Y0029707D01*
X0494468Y0029876D01*
X0494683Y0030040D01*
X0494902Y0030198D01*
X0495125Y0030351D01*
X0495352Y0030499D01*
X0495583Y0030641D01*
X0495816Y0030777D01*
X0496053Y0030907D01*
X0496293Y0031032D01*
X0496537Y0031151D01*
X0496783Y0031263D01*
X0497031Y0031370D01*
X0497283Y0031470D01*
X0497536Y0031565D01*
X0497792Y0031653D01*
X0498050Y0031734D01*
X0498310Y0031810D01*
X0498571Y0031879D01*
X0498835Y0031941D01*
X0499099Y0031997D01*
X0499365Y0032047D01*
X0499632Y0032090D01*
X0499901Y0032126D01*
X0500169Y0032156D01*
X0500439Y0032179D01*
X0500709Y0032196D01*
X0500979Y0032206D01*
X0501250Y0032209D01*
X0501521Y0032206D01*
X0501791Y0032196D01*
X0502061Y0032179D01*
X0502331Y0032156D01*
X0502599Y0032126D01*
X0502868Y0032090D01*
X0503135Y0032047D01*
X0503401Y0031997D01*
X0503665Y0031941D01*
X0503929Y0031879D01*
X0504190Y0031810D01*
X0504450Y0031734D01*
X0504708Y0031653D01*
X0504964Y0031565D01*
X0505217Y0031470D01*
X0505469Y0031370D01*
X0505717Y0031263D01*
X0505963Y0031151D01*
X0506207Y0031032D01*
X0506447Y0030907D01*
X0506684Y0030777D01*
X0506917Y0030641D01*
X0507148Y0030499D01*
X0507375Y0030351D01*
X0507598Y0030198D01*
X0507817Y0030040D01*
X0508032Y0029876D01*
X0508244Y0029707D01*
X0508451Y0029532D01*
X0508653Y0029353D01*
X0508851Y0029169D01*
X0509045Y0028980D01*
X0509234Y0028786D01*
X0509418Y0028588D01*
X0509597Y0028386D01*
X0509772Y0028179D01*
X0509941Y0027967D01*
X0510105Y0027752D01*
X0510263Y0027533D01*
X0510416Y0027310D01*
X0510564Y0027083D01*
X0510706Y0026852D01*
X0510842Y0026619D01*
X0510972Y0026382D01*
X0511097Y0026142D01*
X0511216Y0025898D01*
X0511328Y0025652D01*
X0511435Y0025404D01*
X0511535Y0025152D01*
X0511630Y0024899D01*
X0511718Y0024643D01*
X0511799Y0024385D01*
X0511875Y0024125D01*
X0511944Y0023864D01*
X0512006Y0023600D01*
X0512062Y0023336D01*
X0512112Y0023070D01*
X0512155Y0022803D01*
X0512191Y0022534D01*
X0512221Y0022266D01*
X0512244Y0021996D01*
X0512261Y0021726D01*
X0512271Y0021456D01*
X0512274Y0021185D01*
X0512271Y0020914D01*
X0512261Y0020644D01*
X0512244Y0020374D01*
X0512221Y0020104D01*
X0512191Y0019836D01*
X0512155Y0019567D01*
X0512112Y0019300D01*
X0512062Y0019034D01*
X0512006Y0018770D01*
X0511944Y0018506D01*
X0511875Y0018245D01*
X0511799Y0017985D01*
X0511718Y0017727D01*
X0511630Y0017471D01*
X0511535Y0017218D01*
X0511435Y0016966D01*
X0511328Y0016718D01*
X0511216Y0016472D01*
X0511097Y0016228D01*
X0510972Y0015988D01*
X0510842Y0015751D01*
X0510706Y0015518D01*
X0510564Y0015287D01*
X0510416Y0015060D01*
X0510263Y0014837D01*
X0510105Y0014618D01*
X0509941Y0014403D01*
X0509772Y0014191D01*
X0509597Y0013984D01*
X0509418Y0013782D01*
X0509234Y0013584D01*
X0509045Y0013390D01*
X0508851Y0013201D01*
X0508653Y0013017D01*
X0508451Y0012838D01*
X0508244Y0012663D01*
X0508032Y0012494D01*
X0507817Y0012330D01*
X0507598Y0012172D01*
X0507375Y0012019D01*
X0507148Y0011871D01*
X0506917Y0011729D01*
X0506684Y0011593D01*
X0506447Y0011463D01*
X0506207Y0011338D01*
X0505963Y0011219D01*
X0505717Y0011107D01*
X0505469Y0011000D01*
X0505217Y0010900D01*
X0504964Y0010805D01*
X0504708Y0010717D01*
X0504450Y0010636D01*
X0504190Y0010560D01*
X0503929Y0010491D01*
X0503665Y0010429D01*
X0503401Y0010373D01*
X0503135Y0010323D01*
X0502868Y0010280D01*
X0502599Y0010244D01*
X0502331Y0010214D01*
X0502061Y0010191D01*
X0501791Y0010174D01*
X0501521Y0010164D01*
X0501250Y0010161D01*
X0500979Y0010164D01*
X0500709Y0010174D01*
X0500439Y0010191D01*
X0500169Y0010214D01*
X0499901Y0010244D01*
X0499632Y0010280D01*
X0499365Y0010323D01*
X0499099Y0010373D01*
X0498835Y0010429D01*
X0498571Y0010491D01*
X0498310Y0010560D01*
X0498050Y0010636D01*
X0497792Y0010717D01*
X0497536Y0010805D01*
X0497283Y0010900D01*
X0497031Y0011000D01*
X0496783Y0011107D01*
X0496537Y0011219D01*
X0496293Y0011338D01*
X0496053Y0011463D01*
X0495816Y0011593D01*
X0495583Y0011729D01*
X0495352Y0011871D01*
X0495125Y0012019D01*
X0494902Y0012172D01*
X0494683Y0012330D01*
X0494468Y0012494D01*
X0494256Y0012663D01*
X0494049Y0012838D01*
X0493847Y0013017D01*
X0493649Y0013201D01*
X0493455Y0013390D01*
X0493266Y0013584D01*
X0493082Y0013782D01*
X0492903Y0013984D01*
X0492728Y0014191D01*
X0492559Y0014403D01*
X0492395Y0014618D01*
X0492237Y0014837D01*
X0492084Y0015060D01*
X0491936Y0015287D01*
X0491794Y0015518D01*
X0491658Y0015751D01*
X0491528Y0015988D01*
X0491403Y0016228D01*
X0491284Y0016472D01*
X0491172Y0016718D01*
X0491065Y0016966D01*
X0490965Y0017218D01*
X0490870Y0017471D01*
X0490782Y0017727D01*
X0490701Y0017985D01*
X0490625Y0018245D01*
X0490556Y0018506D01*
X0490494Y0018770D01*
X0490438Y0019034D01*
X0490388Y0019300D01*
X0490345Y0019567D01*
X0490309Y0019836D01*
X0490279Y0020104D01*
X0490256Y0020374D01*
X0490239Y0020644D01*
X0490229Y0020914D01*
X0490226Y0021185D01*
X0490226Y0458193D02*
X0490229Y0458464D01*
X0490239Y0458734D01*
X0490256Y0459004D01*
X0490279Y0459274D01*
X0490309Y0459542D01*
X0490345Y0459811D01*
X0490388Y0460078D01*
X0490438Y0460344D01*
X0490494Y0460608D01*
X0490556Y0460872D01*
X0490625Y0461133D01*
X0490701Y0461393D01*
X0490782Y0461651D01*
X0490870Y0461907D01*
X0490965Y0462160D01*
X0491065Y0462412D01*
X0491172Y0462660D01*
X0491284Y0462906D01*
X0491403Y0463150D01*
X0491528Y0463390D01*
X0491658Y0463627D01*
X0491794Y0463860D01*
X0491936Y0464091D01*
X0492084Y0464318D01*
X0492237Y0464541D01*
X0492395Y0464760D01*
X0492559Y0464975D01*
X0492728Y0465187D01*
X0492903Y0465394D01*
X0493082Y0465596D01*
X0493266Y0465794D01*
X0493455Y0465988D01*
X0493649Y0466177D01*
X0493847Y0466361D01*
X0494049Y0466540D01*
X0494256Y0466715D01*
X0494468Y0466884D01*
X0494683Y0467048D01*
X0494902Y0467206D01*
X0495125Y0467359D01*
X0495352Y0467507D01*
X0495583Y0467649D01*
X0495816Y0467785D01*
X0496053Y0467915D01*
X0496293Y0468040D01*
X0496537Y0468159D01*
X0496783Y0468271D01*
X0497031Y0468378D01*
X0497283Y0468478D01*
X0497536Y0468573D01*
X0497792Y0468661D01*
X0498050Y0468742D01*
X0498310Y0468818D01*
X0498571Y0468887D01*
X0498835Y0468949D01*
X0499099Y0469005D01*
X0499365Y0469055D01*
X0499632Y0469098D01*
X0499901Y0469134D01*
X0500169Y0469164D01*
X0500439Y0469187D01*
X0500709Y0469204D01*
X0500979Y0469214D01*
X0501250Y0469217D01*
X0501521Y0469214D01*
X0501791Y0469204D01*
X0502061Y0469187D01*
X0502331Y0469164D01*
X0502599Y0469134D01*
X0502868Y0469098D01*
X0503135Y0469055D01*
X0503401Y0469005D01*
X0503665Y0468949D01*
X0503929Y0468887D01*
X0504190Y0468818D01*
X0504450Y0468742D01*
X0504708Y0468661D01*
X0504964Y0468573D01*
X0505217Y0468478D01*
X0505469Y0468378D01*
X0505717Y0468271D01*
X0505963Y0468159D01*
X0506207Y0468040D01*
X0506447Y0467915D01*
X0506684Y0467785D01*
X0506917Y0467649D01*
X0507148Y0467507D01*
X0507375Y0467359D01*
X0507598Y0467206D01*
X0507817Y0467048D01*
X0508032Y0466884D01*
X0508244Y0466715D01*
X0508451Y0466540D01*
X0508653Y0466361D01*
X0508851Y0466177D01*
X0509045Y0465988D01*
X0509234Y0465794D01*
X0509418Y0465596D01*
X0509597Y0465394D01*
X0509772Y0465187D01*
X0509941Y0464975D01*
X0510105Y0464760D01*
X0510263Y0464541D01*
X0510416Y0464318D01*
X0510564Y0464091D01*
X0510706Y0463860D01*
X0510842Y0463627D01*
X0510972Y0463390D01*
X0511097Y0463150D01*
X0511216Y0462906D01*
X0511328Y0462660D01*
X0511435Y0462412D01*
X0511535Y0462160D01*
X0511630Y0461907D01*
X0511718Y0461651D01*
X0511799Y0461393D01*
X0511875Y0461133D01*
X0511944Y0460872D01*
X0512006Y0460608D01*
X0512062Y0460344D01*
X0512112Y0460078D01*
X0512155Y0459811D01*
X0512191Y0459542D01*
X0512221Y0459274D01*
X0512244Y0459004D01*
X0512261Y0458734D01*
X0512271Y0458464D01*
X0512274Y0458193D01*
X0512271Y0457922D01*
X0512261Y0457652D01*
X0512244Y0457382D01*
X0512221Y0457112D01*
X0512191Y0456844D01*
X0512155Y0456575D01*
X0512112Y0456308D01*
X0512062Y0456042D01*
X0512006Y0455778D01*
X0511944Y0455514D01*
X0511875Y0455253D01*
X0511799Y0454993D01*
X0511718Y0454735D01*
X0511630Y0454479D01*
X0511535Y0454226D01*
X0511435Y0453974D01*
X0511328Y0453726D01*
X0511216Y0453480D01*
X0511097Y0453236D01*
X0510972Y0452996D01*
X0510842Y0452759D01*
X0510706Y0452526D01*
X0510564Y0452295D01*
X0510416Y0452068D01*
X0510263Y0451845D01*
X0510105Y0451626D01*
X0509941Y0451411D01*
X0509772Y0451199D01*
X0509597Y0450992D01*
X0509418Y0450790D01*
X0509234Y0450592D01*
X0509045Y0450398D01*
X0508851Y0450209D01*
X0508653Y0450025D01*
X0508451Y0449846D01*
X0508244Y0449671D01*
X0508032Y0449502D01*
X0507817Y0449338D01*
X0507598Y0449180D01*
X0507375Y0449027D01*
X0507148Y0448879D01*
X0506917Y0448737D01*
X0506684Y0448601D01*
X0506447Y0448471D01*
X0506207Y0448346D01*
X0505963Y0448227D01*
X0505717Y0448115D01*
X0505469Y0448008D01*
X0505217Y0447908D01*
X0504964Y0447813D01*
X0504708Y0447725D01*
X0504450Y0447644D01*
X0504190Y0447568D01*
X0503929Y0447499D01*
X0503665Y0447437D01*
X0503401Y0447381D01*
X0503135Y0447331D01*
X0502868Y0447288D01*
X0502599Y0447252D01*
X0502331Y0447222D01*
X0502061Y0447199D01*
X0501791Y0447182D01*
X0501521Y0447172D01*
X0501250Y0447169D01*
X0500979Y0447172D01*
X0500709Y0447182D01*
X0500439Y0447199D01*
X0500169Y0447222D01*
X0499901Y0447252D01*
X0499632Y0447288D01*
X0499365Y0447331D01*
X0499099Y0447381D01*
X0498835Y0447437D01*
X0498571Y0447499D01*
X0498310Y0447568D01*
X0498050Y0447644D01*
X0497792Y0447725D01*
X0497536Y0447813D01*
X0497283Y0447908D01*
X0497031Y0448008D01*
X0496783Y0448115D01*
X0496537Y0448227D01*
X0496293Y0448346D01*
X0496053Y0448471D01*
X0495816Y0448601D01*
X0495583Y0448737D01*
X0495352Y0448879D01*
X0495125Y0449027D01*
X0494902Y0449180D01*
X0494683Y0449338D01*
X0494468Y0449502D01*
X0494256Y0449671D01*
X0494049Y0449846D01*
X0493847Y0450025D01*
X0493649Y0450209D01*
X0493455Y0450398D01*
X0493266Y0450592D01*
X0493082Y0450790D01*
X0492903Y0450992D01*
X0492728Y0451199D01*
X0492559Y0451411D01*
X0492395Y0451626D01*
X0492237Y0451845D01*
X0492084Y0452068D01*
X0491936Y0452295D01*
X0491794Y0452526D01*
X0491658Y0452759D01*
X0491528Y0452996D01*
X0491403Y0453236D01*
X0491284Y0453480D01*
X0491172Y0453726D01*
X0491065Y0453974D01*
X0490965Y0454226D01*
X0490870Y0454479D01*
X0490782Y0454735D01*
X0490701Y0454993D01*
X0490625Y0455253D01*
X0490556Y0455514D01*
X0490494Y0455778D01*
X0490438Y0456042D01*
X0490388Y0456308D01*
X0490345Y0456575D01*
X0490309Y0456844D01*
X0490279Y0457112D01*
X0490256Y0457382D01*
X0490239Y0457652D01*
X0490229Y0457922D01*
X0490226Y0458193D01*
X0061092Y0458193D02*
X0061095Y0458464D01*
X0061105Y0458734D01*
X0061122Y0459004D01*
X0061145Y0459274D01*
X0061175Y0459542D01*
X0061211Y0459811D01*
X0061254Y0460078D01*
X0061304Y0460344D01*
X0061360Y0460608D01*
X0061422Y0460872D01*
X0061491Y0461133D01*
X0061567Y0461393D01*
X0061648Y0461651D01*
X0061736Y0461907D01*
X0061831Y0462160D01*
X0061931Y0462412D01*
X0062038Y0462660D01*
X0062150Y0462906D01*
X0062269Y0463150D01*
X0062394Y0463390D01*
X0062524Y0463627D01*
X0062660Y0463860D01*
X0062802Y0464091D01*
X0062950Y0464318D01*
X0063103Y0464541D01*
X0063261Y0464760D01*
X0063425Y0464975D01*
X0063594Y0465187D01*
X0063769Y0465394D01*
X0063948Y0465596D01*
X0064132Y0465794D01*
X0064321Y0465988D01*
X0064515Y0466177D01*
X0064713Y0466361D01*
X0064915Y0466540D01*
X0065122Y0466715D01*
X0065334Y0466884D01*
X0065549Y0467048D01*
X0065768Y0467206D01*
X0065991Y0467359D01*
X0066218Y0467507D01*
X0066449Y0467649D01*
X0066682Y0467785D01*
X0066919Y0467915D01*
X0067159Y0468040D01*
X0067403Y0468159D01*
X0067649Y0468271D01*
X0067897Y0468378D01*
X0068149Y0468478D01*
X0068402Y0468573D01*
X0068658Y0468661D01*
X0068916Y0468742D01*
X0069176Y0468818D01*
X0069437Y0468887D01*
X0069701Y0468949D01*
X0069965Y0469005D01*
X0070231Y0469055D01*
X0070498Y0469098D01*
X0070767Y0469134D01*
X0071035Y0469164D01*
X0071305Y0469187D01*
X0071575Y0469204D01*
X0071845Y0469214D01*
X0072116Y0469217D01*
X0072387Y0469214D01*
X0072657Y0469204D01*
X0072927Y0469187D01*
X0073197Y0469164D01*
X0073465Y0469134D01*
X0073734Y0469098D01*
X0074001Y0469055D01*
X0074267Y0469005D01*
X0074531Y0468949D01*
X0074795Y0468887D01*
X0075056Y0468818D01*
X0075316Y0468742D01*
X0075574Y0468661D01*
X0075830Y0468573D01*
X0076083Y0468478D01*
X0076335Y0468378D01*
X0076583Y0468271D01*
X0076829Y0468159D01*
X0077073Y0468040D01*
X0077313Y0467915D01*
X0077550Y0467785D01*
X0077783Y0467649D01*
X0078014Y0467507D01*
X0078241Y0467359D01*
X0078464Y0467206D01*
X0078683Y0467048D01*
X0078898Y0466884D01*
X0079110Y0466715D01*
X0079317Y0466540D01*
X0079519Y0466361D01*
X0079717Y0466177D01*
X0079911Y0465988D01*
X0080100Y0465794D01*
X0080284Y0465596D01*
X0080463Y0465394D01*
X0080638Y0465187D01*
X0080807Y0464975D01*
X0080971Y0464760D01*
X0081129Y0464541D01*
X0081282Y0464318D01*
X0081430Y0464091D01*
X0081572Y0463860D01*
X0081708Y0463627D01*
X0081838Y0463390D01*
X0081963Y0463150D01*
X0082082Y0462906D01*
X0082194Y0462660D01*
X0082301Y0462412D01*
X0082401Y0462160D01*
X0082496Y0461907D01*
X0082584Y0461651D01*
X0082665Y0461393D01*
X0082741Y0461133D01*
X0082810Y0460872D01*
X0082872Y0460608D01*
X0082928Y0460344D01*
X0082978Y0460078D01*
X0083021Y0459811D01*
X0083057Y0459542D01*
X0083087Y0459274D01*
X0083110Y0459004D01*
X0083127Y0458734D01*
X0083137Y0458464D01*
X0083140Y0458193D01*
X0083137Y0457922D01*
X0083127Y0457652D01*
X0083110Y0457382D01*
X0083087Y0457112D01*
X0083057Y0456844D01*
X0083021Y0456575D01*
X0082978Y0456308D01*
X0082928Y0456042D01*
X0082872Y0455778D01*
X0082810Y0455514D01*
X0082741Y0455253D01*
X0082665Y0454993D01*
X0082584Y0454735D01*
X0082496Y0454479D01*
X0082401Y0454226D01*
X0082301Y0453974D01*
X0082194Y0453726D01*
X0082082Y0453480D01*
X0081963Y0453236D01*
X0081838Y0452996D01*
X0081708Y0452759D01*
X0081572Y0452526D01*
X0081430Y0452295D01*
X0081282Y0452068D01*
X0081129Y0451845D01*
X0080971Y0451626D01*
X0080807Y0451411D01*
X0080638Y0451199D01*
X0080463Y0450992D01*
X0080284Y0450790D01*
X0080100Y0450592D01*
X0079911Y0450398D01*
X0079717Y0450209D01*
X0079519Y0450025D01*
X0079317Y0449846D01*
X0079110Y0449671D01*
X0078898Y0449502D01*
X0078683Y0449338D01*
X0078464Y0449180D01*
X0078241Y0449027D01*
X0078014Y0448879D01*
X0077783Y0448737D01*
X0077550Y0448601D01*
X0077313Y0448471D01*
X0077073Y0448346D01*
X0076829Y0448227D01*
X0076583Y0448115D01*
X0076335Y0448008D01*
X0076083Y0447908D01*
X0075830Y0447813D01*
X0075574Y0447725D01*
X0075316Y0447644D01*
X0075056Y0447568D01*
X0074795Y0447499D01*
X0074531Y0447437D01*
X0074267Y0447381D01*
X0074001Y0447331D01*
X0073734Y0447288D01*
X0073465Y0447252D01*
X0073197Y0447222D01*
X0072927Y0447199D01*
X0072657Y0447182D01*
X0072387Y0447172D01*
X0072116Y0447169D01*
X0071845Y0447172D01*
X0071575Y0447182D01*
X0071305Y0447199D01*
X0071035Y0447222D01*
X0070767Y0447252D01*
X0070498Y0447288D01*
X0070231Y0447331D01*
X0069965Y0447381D01*
X0069701Y0447437D01*
X0069437Y0447499D01*
X0069176Y0447568D01*
X0068916Y0447644D01*
X0068658Y0447725D01*
X0068402Y0447813D01*
X0068149Y0447908D01*
X0067897Y0448008D01*
X0067649Y0448115D01*
X0067403Y0448227D01*
X0067159Y0448346D01*
X0066919Y0448471D01*
X0066682Y0448601D01*
X0066449Y0448737D01*
X0066218Y0448879D01*
X0065991Y0449027D01*
X0065768Y0449180D01*
X0065549Y0449338D01*
X0065334Y0449502D01*
X0065122Y0449671D01*
X0064915Y0449846D01*
X0064713Y0450025D01*
X0064515Y0450209D01*
X0064321Y0450398D01*
X0064132Y0450592D01*
X0063948Y0450790D01*
X0063769Y0450992D01*
X0063594Y0451199D01*
X0063425Y0451411D01*
X0063261Y0451626D01*
X0063103Y0451845D01*
X0062950Y0452068D01*
X0062802Y0452295D01*
X0062660Y0452526D01*
X0062524Y0452759D01*
X0062394Y0452996D01*
X0062269Y0453236D01*
X0062150Y0453480D01*
X0062038Y0453726D01*
X0061931Y0453974D01*
X0061831Y0454226D01*
X0061736Y0454479D01*
X0061648Y0454735D01*
X0061567Y0454993D01*
X0061491Y0455253D01*
X0061422Y0455514D01*
X0061360Y0455778D01*
X0061304Y0456042D01*
X0061254Y0456308D01*
X0061211Y0456575D01*
X0061175Y0456844D01*
X0061145Y0457112D01*
X0061122Y0457382D01*
X0061105Y0457652D01*
X0061095Y0457922D01*
X0061092Y0458193D01*
D11*
X0262274Y0237720D02*
X0262280Y0238174D01*
X0262296Y0238628D01*
X0262324Y0239081D01*
X0262363Y0239534D01*
X0262413Y0239985D01*
X0262474Y0240435D01*
X0262546Y0240883D01*
X0262630Y0241330D01*
X0262724Y0241774D01*
X0262829Y0242216D01*
X0262944Y0242655D01*
X0263071Y0243091D01*
X0263208Y0243524D01*
X0263356Y0243954D01*
X0263514Y0244379D01*
X0263683Y0244801D01*
X0263861Y0245219D01*
X0264051Y0245631D01*
X0264250Y0246040D01*
X0264459Y0246443D01*
X0264678Y0246841D01*
X0264907Y0247233D01*
X0265145Y0247620D01*
X0265392Y0248000D01*
X0265649Y0248375D01*
X0265915Y0248743D01*
X0266190Y0249104D01*
X0266474Y0249459D01*
X0266767Y0249806D01*
X0267067Y0250147D01*
X0267377Y0250479D01*
X0267694Y0250804D01*
X0268019Y0251121D01*
X0268351Y0251431D01*
X0268692Y0251731D01*
X0269039Y0252024D01*
X0269394Y0252308D01*
X0269755Y0252583D01*
X0270123Y0252849D01*
X0270498Y0253106D01*
X0270878Y0253353D01*
X0271265Y0253591D01*
X0271657Y0253820D01*
X0272055Y0254039D01*
X0272458Y0254248D01*
X0272867Y0254447D01*
X0273279Y0254637D01*
X0273697Y0254815D01*
X0274119Y0254984D01*
X0274544Y0255142D01*
X0274974Y0255290D01*
X0275407Y0255427D01*
X0275843Y0255554D01*
X0276282Y0255669D01*
X0276724Y0255774D01*
X0277168Y0255868D01*
X0277615Y0255952D01*
X0278063Y0256024D01*
X0278513Y0256085D01*
X0278964Y0256135D01*
X0279417Y0256174D01*
X0279870Y0256202D01*
X0280324Y0256218D01*
X0280778Y0256224D01*
X0281232Y0256218D01*
X0281686Y0256202D01*
X0282139Y0256174D01*
X0282592Y0256135D01*
X0283043Y0256085D01*
X0283493Y0256024D01*
X0283941Y0255952D01*
X0284388Y0255868D01*
X0284832Y0255774D01*
X0285274Y0255669D01*
X0285713Y0255554D01*
X0286149Y0255427D01*
X0286582Y0255290D01*
X0287012Y0255142D01*
X0287437Y0254984D01*
X0287859Y0254815D01*
X0288277Y0254637D01*
X0288689Y0254447D01*
X0289098Y0254248D01*
X0289501Y0254039D01*
X0289899Y0253820D01*
X0290291Y0253591D01*
X0290678Y0253353D01*
X0291058Y0253106D01*
X0291433Y0252849D01*
X0291801Y0252583D01*
X0292162Y0252308D01*
X0292517Y0252024D01*
X0292864Y0251731D01*
X0293205Y0251431D01*
X0293537Y0251121D01*
X0293862Y0250804D01*
X0294179Y0250479D01*
X0294489Y0250147D01*
X0294789Y0249806D01*
X0295082Y0249459D01*
X0295366Y0249104D01*
X0295641Y0248743D01*
X0295907Y0248375D01*
X0296164Y0248000D01*
X0296411Y0247620D01*
X0296649Y0247233D01*
X0296878Y0246841D01*
X0297097Y0246443D01*
X0297306Y0246040D01*
X0297505Y0245631D01*
X0297695Y0245219D01*
X0297873Y0244801D01*
X0298042Y0244379D01*
X0298200Y0243954D01*
X0298348Y0243524D01*
X0298485Y0243091D01*
X0298612Y0242655D01*
X0298727Y0242216D01*
X0298832Y0241774D01*
X0298926Y0241330D01*
X0299010Y0240883D01*
X0299082Y0240435D01*
X0299143Y0239985D01*
X0299193Y0239534D01*
X0299232Y0239081D01*
X0299260Y0238628D01*
X0299276Y0238174D01*
X0299282Y0237720D01*
X0299276Y0237266D01*
X0299260Y0236812D01*
X0299232Y0236359D01*
X0299193Y0235906D01*
X0299143Y0235455D01*
X0299082Y0235005D01*
X0299010Y0234557D01*
X0298926Y0234110D01*
X0298832Y0233666D01*
X0298727Y0233224D01*
X0298612Y0232785D01*
X0298485Y0232349D01*
X0298348Y0231916D01*
X0298200Y0231486D01*
X0298042Y0231061D01*
X0297873Y0230639D01*
X0297695Y0230221D01*
X0297505Y0229809D01*
X0297306Y0229400D01*
X0297097Y0228997D01*
X0296878Y0228599D01*
X0296649Y0228207D01*
X0296411Y0227820D01*
X0296164Y0227440D01*
X0295907Y0227065D01*
X0295641Y0226697D01*
X0295366Y0226336D01*
X0295082Y0225981D01*
X0294789Y0225634D01*
X0294489Y0225293D01*
X0294179Y0224961D01*
X0293862Y0224636D01*
X0293537Y0224319D01*
X0293205Y0224009D01*
X0292864Y0223709D01*
X0292517Y0223416D01*
X0292162Y0223132D01*
X0291801Y0222857D01*
X0291433Y0222591D01*
X0291058Y0222334D01*
X0290678Y0222087D01*
X0290291Y0221849D01*
X0289899Y0221620D01*
X0289501Y0221401D01*
X0289098Y0221192D01*
X0288689Y0220993D01*
X0288277Y0220803D01*
X0287859Y0220625D01*
X0287437Y0220456D01*
X0287012Y0220298D01*
X0286582Y0220150D01*
X0286149Y0220013D01*
X0285713Y0219886D01*
X0285274Y0219771D01*
X0284832Y0219666D01*
X0284388Y0219572D01*
X0283941Y0219488D01*
X0283493Y0219416D01*
X0283043Y0219355D01*
X0282592Y0219305D01*
X0282139Y0219266D01*
X0281686Y0219238D01*
X0281232Y0219222D01*
X0280778Y0219216D01*
X0280324Y0219222D01*
X0279870Y0219238D01*
X0279417Y0219266D01*
X0278964Y0219305D01*
X0278513Y0219355D01*
X0278063Y0219416D01*
X0277615Y0219488D01*
X0277168Y0219572D01*
X0276724Y0219666D01*
X0276282Y0219771D01*
X0275843Y0219886D01*
X0275407Y0220013D01*
X0274974Y0220150D01*
X0274544Y0220298D01*
X0274119Y0220456D01*
X0273697Y0220625D01*
X0273279Y0220803D01*
X0272867Y0220993D01*
X0272458Y0221192D01*
X0272055Y0221401D01*
X0271657Y0221620D01*
X0271265Y0221849D01*
X0270878Y0222087D01*
X0270498Y0222334D01*
X0270123Y0222591D01*
X0269755Y0222857D01*
X0269394Y0223132D01*
X0269039Y0223416D01*
X0268692Y0223709D01*
X0268351Y0224009D01*
X0268019Y0224319D01*
X0267694Y0224636D01*
X0267377Y0224961D01*
X0267067Y0225293D01*
X0266767Y0225634D01*
X0266474Y0225981D01*
X0266190Y0226336D01*
X0265915Y0226697D01*
X0265649Y0227065D01*
X0265392Y0227440D01*
X0265145Y0227820D01*
X0264907Y0228207D01*
X0264678Y0228599D01*
X0264459Y0228997D01*
X0264250Y0229400D01*
X0264051Y0229809D01*
X0263861Y0230221D01*
X0263683Y0230639D01*
X0263514Y0231061D01*
X0263356Y0231486D01*
X0263208Y0231916D01*
X0263071Y0232349D01*
X0262944Y0232785D01*
X0262829Y0233224D01*
X0262724Y0233666D01*
X0262630Y0234110D01*
X0262546Y0234557D01*
X0262474Y0235005D01*
X0262413Y0235455D01*
X0262363Y0235906D01*
X0262324Y0236359D01*
X0262296Y0236812D01*
X0262280Y0237266D01*
X0262274Y0237720D01*
D12*
X0288652Y0326303D02*
X0288652Y0353974D01*
X0289007Y0353737D01*
X0289007Y0353150D01*
X0289553Y0351834D01*
X0290560Y0350826D01*
X0291876Y0350281D01*
X0293301Y0350281D01*
X0294617Y0350826D01*
X0295624Y0351834D01*
X0296170Y0353150D01*
X0296170Y0354575D01*
X0295624Y0355891D01*
X0294617Y0356898D01*
X0293301Y0357443D01*
X0291876Y0357443D01*
X0291327Y0357216D01*
X0288774Y0358918D01*
X0288774Y0377484D01*
X0339833Y0377484D01*
X0339833Y0326303D01*
X0288652Y0326303D01*
X0288652Y0327596D02*
X0339833Y0327596D01*
X0339833Y0329195D02*
X0288652Y0329195D01*
X0288652Y0330793D02*
X0339833Y0330793D01*
X0339833Y0332392D02*
X0288652Y0332392D01*
X0288652Y0333990D02*
X0339833Y0333990D01*
X0339833Y0335589D02*
X0288652Y0335589D01*
X0288652Y0337187D02*
X0339833Y0337187D01*
X0339833Y0338786D02*
X0288652Y0338786D01*
X0288652Y0340384D02*
X0306262Y0340384D01*
X0306266Y0340372D02*
X0306503Y0339962D01*
X0306838Y0339627D01*
X0307248Y0339390D01*
X0307706Y0339267D01*
X0310022Y0339267D01*
X0310022Y0343540D01*
X0306143Y0343540D01*
X0306143Y0340830D01*
X0306266Y0340372D01*
X0306143Y0341983D02*
X0288652Y0341983D01*
X0288652Y0343581D02*
X0310022Y0343581D01*
X0310022Y0343540D02*
X0310022Y0344499D01*
X0306143Y0344499D01*
X0306143Y0347209D01*
X0306266Y0347667D01*
X0306503Y0348078D01*
X0306838Y0348413D01*
X0307248Y0348650D01*
X0307706Y0348772D01*
X0310022Y0348772D01*
X0310022Y0344499D01*
X0310981Y0344499D01*
X0310981Y0348772D01*
X0313298Y0348772D01*
X0313756Y0348650D01*
X0314166Y0348413D01*
X0314384Y0348195D01*
X0314760Y0348572D01*
X0321204Y0348572D01*
X0322141Y0347635D01*
X0322141Y0347091D01*
X0323372Y0347601D01*
X0324797Y0347601D01*
X0326113Y0347056D01*
X0327121Y0346048D01*
X0327666Y0344732D01*
X0327666Y0343307D01*
X0327121Y0341991D01*
X0326113Y0340984D01*
X0324797Y0340439D01*
X0323372Y0340439D01*
X0322141Y0340948D01*
X0322141Y0340404D01*
X0321204Y0339467D01*
X0314760Y0339467D01*
X0314384Y0339844D01*
X0314166Y0339627D01*
X0313756Y0339390D01*
X0313298Y0339267D01*
X0310981Y0339267D01*
X0310981Y0343540D01*
X0310022Y0343540D01*
X0310022Y0341983D02*
X0310981Y0341983D01*
X0310981Y0340384D02*
X0310022Y0340384D01*
X0310022Y0345180D02*
X0310981Y0345180D01*
X0310981Y0346778D02*
X0310022Y0346778D01*
X0310022Y0348377D02*
X0310981Y0348377D01*
X0314202Y0348377D02*
X0314565Y0348377D01*
X0321400Y0348377D02*
X0339833Y0348377D01*
X0339833Y0349975D02*
X0288652Y0349975D01*
X0288652Y0348377D02*
X0306802Y0348377D01*
X0306143Y0346778D02*
X0288652Y0346778D01*
X0288652Y0345180D02*
X0306143Y0345180D01*
X0307706Y0355015D02*
X0310022Y0355015D01*
X0310022Y0359288D01*
X0306143Y0359288D01*
X0306143Y0356578D01*
X0306266Y0356120D01*
X0306503Y0355710D01*
X0306838Y0355375D01*
X0307248Y0355138D01*
X0307706Y0355015D01*
X0306199Y0356370D02*
X0295146Y0356370D01*
X0296088Y0354771D02*
X0339833Y0354771D01*
X0339833Y0356370D02*
X0325239Y0356370D01*
X0324797Y0356187D02*
X0326113Y0356732D01*
X0327121Y0357739D01*
X0327666Y0359055D01*
X0327666Y0360480D01*
X0327121Y0361796D01*
X0326113Y0362804D01*
X0324797Y0363349D01*
X0323372Y0363349D01*
X0322141Y0362839D01*
X0322141Y0363383D01*
X0321204Y0364320D01*
X0314760Y0364320D01*
X0314384Y0363944D01*
X0314166Y0364161D01*
X0313756Y0364398D01*
X0313298Y0364520D01*
X0310981Y0364520D01*
X0310981Y0360247D01*
X0310022Y0360247D01*
X0310022Y0359288D01*
X0310981Y0359288D01*
X0310981Y0355015D01*
X0313298Y0355015D01*
X0313756Y0355138D01*
X0314166Y0355375D01*
X0314384Y0355592D01*
X0314760Y0355215D01*
X0321204Y0355215D01*
X0322141Y0356152D01*
X0322141Y0356697D01*
X0323372Y0356187D01*
X0324797Y0356187D01*
X0322931Y0356370D02*
X0322141Y0356370D01*
X0327215Y0357968D02*
X0339833Y0357968D01*
X0339833Y0359567D02*
X0327666Y0359567D01*
X0327382Y0361165D02*
X0339833Y0361165D01*
X0339833Y0362764D02*
X0326153Y0362764D01*
X0313818Y0364362D02*
X0339833Y0364362D01*
X0339833Y0365961D02*
X0288774Y0365961D01*
X0288774Y0367559D02*
X0339833Y0367559D01*
X0339833Y0369158D02*
X0288774Y0369158D01*
X0288774Y0370756D02*
X0339833Y0370756D01*
X0339833Y0372355D02*
X0288774Y0372355D01*
X0288774Y0373953D02*
X0339833Y0373953D01*
X0339833Y0375552D02*
X0288774Y0375552D01*
X0288774Y0377150D02*
X0339833Y0377150D01*
X0310981Y0364362D02*
X0310022Y0364362D01*
X0310022Y0364520D02*
X0307706Y0364520D01*
X0307248Y0364398D01*
X0306838Y0364161D01*
X0306503Y0363826D01*
X0306266Y0363415D01*
X0306143Y0362957D01*
X0306143Y0360247D01*
X0310022Y0360247D01*
X0310022Y0364520D01*
X0310022Y0362764D02*
X0310981Y0362764D01*
X0310981Y0361165D02*
X0310022Y0361165D01*
X0310022Y0359567D02*
X0288774Y0359567D01*
X0288774Y0361165D02*
X0306143Y0361165D01*
X0306143Y0362764D02*
X0288774Y0362764D01*
X0288774Y0364362D02*
X0307186Y0364362D01*
X0306143Y0357968D02*
X0290199Y0357968D01*
X0289007Y0353172D02*
X0288652Y0353172D01*
X0288652Y0351574D02*
X0289812Y0351574D01*
X0295365Y0351574D02*
X0339833Y0351574D01*
X0339833Y0353172D02*
X0296170Y0353172D01*
X0310022Y0356370D02*
X0310981Y0356370D01*
X0310981Y0357968D02*
X0310022Y0357968D01*
X0326390Y0346778D02*
X0339833Y0346778D01*
X0339833Y0345180D02*
X0327480Y0345180D01*
X0327666Y0343581D02*
X0339833Y0343581D01*
X0339833Y0341983D02*
X0327112Y0341983D01*
X0322122Y0340384D02*
X0339833Y0340384D01*
X0524675Y0446382D02*
X0531762Y0446382D01*
X0532746Y0447366D01*
X0532746Y0378469D02*
X0531762Y0377484D01*
X0526376Y0308587D02*
X0526378Y0308719D01*
X0526384Y0308852D01*
X0526394Y0308983D01*
X0526408Y0309115D01*
X0526426Y0309246D01*
X0526447Y0309377D01*
X0526473Y0309507D01*
X0526503Y0309636D01*
X0526536Y0309764D01*
X0526573Y0309891D01*
X0526615Y0310016D01*
X0526659Y0310141D01*
X0526708Y0310264D01*
X0526760Y0310386D01*
X0526816Y0310505D01*
X0526876Y0310624D01*
X0526938Y0310740D01*
X0527005Y0310855D01*
X0527075Y0310967D01*
X0527148Y0311077D01*
X0527225Y0311185D01*
X0527304Y0311291D01*
X0527387Y0311394D01*
X0527473Y0311495D01*
X0527562Y0311593D01*
X0527654Y0311688D01*
X0527748Y0311780D01*
X0527846Y0311870D01*
X0527946Y0311957D01*
X0528048Y0312040D01*
X0528153Y0312121D01*
X0528261Y0312198D01*
X0528370Y0312272D01*
X0528482Y0312343D01*
X0528596Y0312410D01*
X0528712Y0312474D01*
X0528830Y0312534D01*
X0528949Y0312591D01*
X0529071Y0312644D01*
X0529193Y0312694D01*
X0529317Y0312740D01*
X0529443Y0312782D01*
X0529570Y0312820D01*
X0529697Y0312854D01*
X0529826Y0312885D01*
X0529956Y0312912D01*
X0530086Y0312934D01*
X0530217Y0312953D01*
X0530349Y0312968D01*
X0530480Y0312979D01*
X0530613Y0312986D01*
X0530745Y0312989D01*
X0530877Y0312988D01*
X0531009Y0312983D01*
X0531142Y0312974D01*
X0531273Y0312961D01*
X0531404Y0312944D01*
X0531535Y0312923D01*
X0531665Y0312899D01*
X0531794Y0312870D01*
X0531923Y0312838D01*
X0532050Y0312801D01*
X0532176Y0312761D01*
X0532301Y0312717D01*
X0532424Y0312670D01*
X0532546Y0312618D01*
X0532667Y0312563D01*
X0532785Y0312505D01*
X0532902Y0312443D01*
X0533017Y0312377D01*
X0533130Y0312308D01*
X0533241Y0312236D01*
X0533349Y0312160D01*
X0533456Y0312081D01*
X0533559Y0311999D01*
X0533661Y0311914D01*
X0533759Y0311826D01*
X0533855Y0311735D01*
X0533949Y0311641D01*
X0534039Y0311544D01*
X0534126Y0311445D01*
X0534211Y0311343D01*
X0534292Y0311238D01*
X0534370Y0311131D01*
X0534445Y0311022D01*
X0534517Y0310911D01*
X0534585Y0310798D01*
X0534649Y0310682D01*
X0534711Y0310565D01*
X0534768Y0310446D01*
X0534822Y0310325D01*
X0534873Y0310203D01*
X0534920Y0310079D01*
X0534963Y0309954D01*
X0535002Y0309827D01*
X0535037Y0309700D01*
X0535069Y0309571D01*
X0535096Y0309442D01*
X0535120Y0309312D01*
X0535140Y0309181D01*
X0535156Y0309049D01*
X0535168Y0308918D01*
X0535176Y0308785D01*
X0535180Y0308653D01*
X0535180Y0308521D01*
X0535176Y0308389D01*
X0535168Y0308256D01*
X0535156Y0308125D01*
X0535140Y0307993D01*
X0535120Y0307862D01*
X0535096Y0307732D01*
X0535069Y0307603D01*
X0535037Y0307474D01*
X0535002Y0307347D01*
X0534963Y0307220D01*
X0534920Y0307095D01*
X0534873Y0306971D01*
X0534822Y0306849D01*
X0534768Y0306728D01*
X0534711Y0306609D01*
X0534649Y0306492D01*
X0534585Y0306376D01*
X0534517Y0306263D01*
X0534445Y0306152D01*
X0534370Y0306043D01*
X0534292Y0305936D01*
X0534211Y0305831D01*
X0534126Y0305729D01*
X0534039Y0305630D01*
X0533949Y0305533D01*
X0533855Y0305439D01*
X0533759Y0305348D01*
X0533661Y0305260D01*
X0533559Y0305175D01*
X0533456Y0305093D01*
X0533349Y0305014D01*
X0533241Y0304938D01*
X0533130Y0304866D01*
X0533017Y0304797D01*
X0532902Y0304731D01*
X0532785Y0304669D01*
X0532667Y0304611D01*
X0532546Y0304556D01*
X0532424Y0304504D01*
X0532301Y0304457D01*
X0532176Y0304413D01*
X0532050Y0304373D01*
X0531923Y0304336D01*
X0531794Y0304304D01*
X0531665Y0304275D01*
X0531535Y0304251D01*
X0531404Y0304230D01*
X0531273Y0304213D01*
X0531142Y0304200D01*
X0531009Y0304191D01*
X0530877Y0304186D01*
X0530745Y0304185D01*
X0530613Y0304188D01*
X0530480Y0304195D01*
X0530349Y0304206D01*
X0530217Y0304221D01*
X0530086Y0304240D01*
X0529956Y0304262D01*
X0529826Y0304289D01*
X0529697Y0304320D01*
X0529570Y0304354D01*
X0529443Y0304392D01*
X0529317Y0304434D01*
X0529193Y0304480D01*
X0529071Y0304530D01*
X0528949Y0304583D01*
X0528830Y0304640D01*
X0528712Y0304700D01*
X0528596Y0304764D01*
X0528482Y0304831D01*
X0528370Y0304902D01*
X0528261Y0304976D01*
X0528153Y0305053D01*
X0528048Y0305134D01*
X0527946Y0305217D01*
X0527846Y0305304D01*
X0527748Y0305394D01*
X0527654Y0305486D01*
X0527562Y0305581D01*
X0527473Y0305679D01*
X0527387Y0305780D01*
X0527304Y0305883D01*
X0527225Y0305989D01*
X0527148Y0306097D01*
X0527075Y0306207D01*
X0527005Y0306319D01*
X0526938Y0306434D01*
X0526876Y0306550D01*
X0526816Y0306669D01*
X0526760Y0306788D01*
X0526708Y0306910D01*
X0526659Y0307033D01*
X0526615Y0307158D01*
X0526573Y0307283D01*
X0526536Y0307410D01*
X0526503Y0307538D01*
X0526473Y0307667D01*
X0526447Y0307797D01*
X0526426Y0307928D01*
X0526408Y0308059D01*
X0526394Y0308191D01*
X0526384Y0308322D01*
X0526378Y0308455D01*
X0526376Y0308587D01*
X0526376Y0249531D02*
X0526378Y0249663D01*
X0526384Y0249796D01*
X0526394Y0249927D01*
X0526408Y0250059D01*
X0526426Y0250190D01*
X0526447Y0250321D01*
X0526473Y0250451D01*
X0526503Y0250580D01*
X0526536Y0250708D01*
X0526573Y0250835D01*
X0526615Y0250960D01*
X0526659Y0251085D01*
X0526708Y0251208D01*
X0526760Y0251330D01*
X0526816Y0251449D01*
X0526876Y0251568D01*
X0526938Y0251684D01*
X0527005Y0251799D01*
X0527075Y0251911D01*
X0527148Y0252021D01*
X0527225Y0252129D01*
X0527304Y0252235D01*
X0527387Y0252338D01*
X0527473Y0252439D01*
X0527562Y0252537D01*
X0527654Y0252632D01*
X0527748Y0252724D01*
X0527846Y0252814D01*
X0527946Y0252901D01*
X0528048Y0252984D01*
X0528153Y0253065D01*
X0528261Y0253142D01*
X0528370Y0253216D01*
X0528482Y0253287D01*
X0528596Y0253354D01*
X0528712Y0253418D01*
X0528830Y0253478D01*
X0528949Y0253535D01*
X0529071Y0253588D01*
X0529193Y0253638D01*
X0529317Y0253684D01*
X0529443Y0253726D01*
X0529570Y0253764D01*
X0529697Y0253798D01*
X0529826Y0253829D01*
X0529956Y0253856D01*
X0530086Y0253878D01*
X0530217Y0253897D01*
X0530349Y0253912D01*
X0530480Y0253923D01*
X0530613Y0253930D01*
X0530745Y0253933D01*
X0530877Y0253932D01*
X0531009Y0253927D01*
X0531142Y0253918D01*
X0531273Y0253905D01*
X0531404Y0253888D01*
X0531535Y0253867D01*
X0531665Y0253843D01*
X0531794Y0253814D01*
X0531923Y0253782D01*
X0532050Y0253745D01*
X0532176Y0253705D01*
X0532301Y0253661D01*
X0532424Y0253614D01*
X0532546Y0253562D01*
X0532667Y0253507D01*
X0532785Y0253449D01*
X0532902Y0253387D01*
X0533017Y0253321D01*
X0533130Y0253252D01*
X0533241Y0253180D01*
X0533349Y0253104D01*
X0533456Y0253025D01*
X0533559Y0252943D01*
X0533661Y0252858D01*
X0533759Y0252770D01*
X0533855Y0252679D01*
X0533949Y0252585D01*
X0534039Y0252488D01*
X0534126Y0252389D01*
X0534211Y0252287D01*
X0534292Y0252182D01*
X0534370Y0252075D01*
X0534445Y0251966D01*
X0534517Y0251855D01*
X0534585Y0251742D01*
X0534649Y0251626D01*
X0534711Y0251509D01*
X0534768Y0251390D01*
X0534822Y0251269D01*
X0534873Y0251147D01*
X0534920Y0251023D01*
X0534963Y0250898D01*
X0535002Y0250771D01*
X0535037Y0250644D01*
X0535069Y0250515D01*
X0535096Y0250386D01*
X0535120Y0250256D01*
X0535140Y0250125D01*
X0535156Y0249993D01*
X0535168Y0249862D01*
X0535176Y0249729D01*
X0535180Y0249597D01*
X0535180Y0249465D01*
X0535176Y0249333D01*
X0535168Y0249200D01*
X0535156Y0249069D01*
X0535140Y0248937D01*
X0535120Y0248806D01*
X0535096Y0248676D01*
X0535069Y0248547D01*
X0535037Y0248418D01*
X0535002Y0248291D01*
X0534963Y0248164D01*
X0534920Y0248039D01*
X0534873Y0247915D01*
X0534822Y0247793D01*
X0534768Y0247672D01*
X0534711Y0247553D01*
X0534649Y0247436D01*
X0534585Y0247320D01*
X0534517Y0247207D01*
X0534445Y0247096D01*
X0534370Y0246987D01*
X0534292Y0246880D01*
X0534211Y0246775D01*
X0534126Y0246673D01*
X0534039Y0246574D01*
X0533949Y0246477D01*
X0533855Y0246383D01*
X0533759Y0246292D01*
X0533661Y0246204D01*
X0533559Y0246119D01*
X0533456Y0246037D01*
X0533349Y0245958D01*
X0533241Y0245882D01*
X0533130Y0245810D01*
X0533017Y0245741D01*
X0532902Y0245675D01*
X0532785Y0245613D01*
X0532667Y0245555D01*
X0532546Y0245500D01*
X0532424Y0245448D01*
X0532301Y0245401D01*
X0532176Y0245357D01*
X0532050Y0245317D01*
X0531923Y0245280D01*
X0531794Y0245248D01*
X0531665Y0245219D01*
X0531535Y0245195D01*
X0531404Y0245174D01*
X0531273Y0245157D01*
X0531142Y0245144D01*
X0531009Y0245135D01*
X0530877Y0245130D01*
X0530745Y0245129D01*
X0530613Y0245132D01*
X0530480Y0245139D01*
X0530349Y0245150D01*
X0530217Y0245165D01*
X0530086Y0245184D01*
X0529956Y0245206D01*
X0529826Y0245233D01*
X0529697Y0245264D01*
X0529570Y0245298D01*
X0529443Y0245336D01*
X0529317Y0245378D01*
X0529193Y0245424D01*
X0529071Y0245474D01*
X0528949Y0245527D01*
X0528830Y0245584D01*
X0528712Y0245644D01*
X0528596Y0245708D01*
X0528482Y0245775D01*
X0528370Y0245846D01*
X0528261Y0245920D01*
X0528153Y0245997D01*
X0528048Y0246078D01*
X0527946Y0246161D01*
X0527846Y0246248D01*
X0527748Y0246338D01*
X0527654Y0246430D01*
X0527562Y0246525D01*
X0527473Y0246623D01*
X0527387Y0246724D01*
X0527304Y0246827D01*
X0527225Y0246933D01*
X0527148Y0247041D01*
X0527075Y0247151D01*
X0527005Y0247263D01*
X0526938Y0247378D01*
X0526876Y0247494D01*
X0526816Y0247613D01*
X0526760Y0247732D01*
X0526708Y0247854D01*
X0526659Y0247977D01*
X0526615Y0248102D01*
X0526573Y0248227D01*
X0526536Y0248354D01*
X0526503Y0248482D01*
X0526473Y0248611D01*
X0526447Y0248741D01*
X0526426Y0248872D01*
X0526408Y0249003D01*
X0526394Y0249135D01*
X0526384Y0249266D01*
X0526378Y0249399D01*
X0526376Y0249531D01*
D13*
X0530384Y0202051D03*
X0520423Y0192327D03*
X0530344Y0172602D03*
X0520463Y0152957D03*
X0530384Y0142957D03*
X0530384Y0111500D03*
X0520423Y0101776D03*
X0530344Y0082051D03*
X0520463Y0062406D03*
X0530384Y0052406D03*
X0569684Y0062406D03*
X0569684Y0101806D03*
X0569684Y0152957D03*
X0569684Y0192357D03*
D14*
X0529203Y0228665D02*
X0520541Y0228665D01*
X0556368Y0245201D02*
X0556368Y0253862D01*
X0529203Y0270331D02*
X0520541Y0270331D01*
X0520541Y0287720D02*
X0529203Y0287720D01*
X0556368Y0304256D02*
X0556368Y0312917D01*
X0529203Y0329387D02*
X0520541Y0329387D01*
D15*
X0497470Y0335514D02*
X0497470Y0340714D01*
X0487470Y0340714D02*
X0487470Y0335514D01*
X0477470Y0335514D02*
X0477470Y0340714D01*
X0477470Y0301344D02*
X0477470Y0296144D01*
X0487470Y0296144D02*
X0487470Y0301344D01*
X0497470Y0301344D02*
X0497470Y0296144D01*
X0497470Y0261974D02*
X0497470Y0256774D01*
X0487470Y0256774D02*
X0487470Y0261974D01*
X0477470Y0261974D02*
X0477470Y0256774D01*
X0298652Y0181265D02*
X0298652Y0176065D01*
X0288652Y0176065D02*
X0288652Y0181265D01*
X0278652Y0181265D02*
X0278652Y0176065D01*
X0205110Y0178626D02*
X0199910Y0178626D01*
X0199910Y0188626D02*
X0205110Y0188626D01*
X0205110Y0198626D02*
X0199910Y0198626D01*
X0199910Y0208626D02*
X0205110Y0208626D01*
X0205110Y0218626D02*
X0199910Y0218626D01*
X0199910Y0228626D02*
X0205110Y0228626D01*
X0205110Y0238626D02*
X0199910Y0238626D01*
X0199910Y0248626D02*
X0205110Y0248626D01*
X0205110Y0258626D02*
X0199910Y0258626D01*
X0199910Y0268626D02*
X0205110Y0268626D01*
X0205110Y0278626D02*
X0199910Y0278626D01*
X0199910Y0288626D02*
X0205110Y0288626D01*
X0205110Y0298626D02*
X0199910Y0298626D01*
X0199910Y0308626D02*
X0205110Y0308626D01*
X0145110Y0308626D02*
X0139910Y0308626D01*
X0139910Y0298626D02*
X0145110Y0298626D01*
X0145110Y0288626D02*
X0139910Y0288626D01*
X0139910Y0278626D02*
X0145110Y0278626D01*
X0145110Y0268626D02*
X0139910Y0268626D01*
X0139910Y0258626D02*
X0145110Y0258626D01*
X0145110Y0248626D02*
X0139910Y0248626D01*
X0139910Y0238626D02*
X0145110Y0238626D01*
X0145110Y0228626D02*
X0139910Y0228626D01*
X0139910Y0218626D02*
X0145110Y0218626D01*
X0145110Y0208626D02*
X0139910Y0208626D01*
X0139910Y0198626D02*
X0145110Y0198626D01*
X0145110Y0188626D02*
X0139910Y0188626D01*
X0139910Y0178626D02*
X0145110Y0178626D01*
X0145110Y0131303D02*
X0139910Y0131303D01*
X0139910Y0121303D02*
X0145110Y0121303D01*
X0145110Y0111303D02*
X0139910Y0111303D01*
X0139910Y0101303D02*
X0145110Y0101303D01*
X0145110Y0091303D02*
X0139910Y0091303D01*
X0139910Y0081303D02*
X0145110Y0081303D01*
X0145110Y0071303D02*
X0139910Y0071303D01*
X0139910Y0061303D02*
X0145110Y0061303D01*
X0145110Y0051303D02*
X0139910Y0051303D01*
X0139910Y0041303D02*
X0145110Y0041303D01*
X0145110Y0031303D02*
X0139910Y0031303D01*
X0139910Y0021303D02*
X0145110Y0021303D01*
X0199910Y0021303D02*
X0205110Y0021303D01*
X0205110Y0031303D02*
X0199910Y0031303D01*
X0199910Y0041303D02*
X0205110Y0041303D01*
X0205110Y0051303D02*
X0199910Y0051303D01*
X0199910Y0061303D02*
X0205110Y0061303D01*
X0205110Y0071303D02*
X0199910Y0071303D01*
X0199910Y0081303D02*
X0205110Y0081303D01*
X0205110Y0091303D02*
X0199910Y0091303D01*
X0199910Y0101303D02*
X0205110Y0101303D01*
X0205110Y0111303D02*
X0199910Y0111303D01*
X0199910Y0121303D02*
X0205110Y0121303D01*
X0205110Y0131303D02*
X0199910Y0131303D01*
X0235619Y0091618D02*
X0240819Y0091618D01*
X0240819Y0081618D02*
X0235619Y0081618D01*
X0235619Y0071618D02*
X0240819Y0071618D01*
X0240819Y0061618D02*
X0235619Y0061618D01*
X0235619Y0051618D02*
X0240819Y0051618D01*
X0240819Y0041618D02*
X0235619Y0041618D01*
X0235619Y0031618D02*
X0240819Y0031618D01*
X0240819Y0021618D02*
X0235619Y0021618D01*
X0265619Y0021618D02*
X0270819Y0021618D01*
X0270819Y0031618D02*
X0265619Y0031618D01*
X0265619Y0041618D02*
X0270819Y0041618D01*
X0270819Y0051618D02*
X0265619Y0051618D01*
X0265619Y0061618D02*
X0270819Y0061618D01*
X0270819Y0071618D02*
X0265619Y0071618D01*
X0265619Y0081618D02*
X0270819Y0081618D01*
X0270819Y0091618D02*
X0265619Y0091618D01*
X0436132Y0083903D02*
X0436132Y0078703D01*
X0446132Y0078703D02*
X0446132Y0083903D01*
X0456132Y0083903D02*
X0456132Y0078703D01*
X0477470Y0078703D02*
X0477470Y0083903D01*
X0487470Y0083903D02*
X0487470Y0078703D01*
X0497470Y0078703D02*
X0497470Y0083903D01*
D16*
X0502470Y0155791D03*
X0502470Y0165791D03*
X0502470Y0175791D03*
X0502470Y0185791D03*
X0472470Y0185791D03*
X0472470Y0175791D03*
X0472470Y0165791D03*
X0472470Y0155791D03*
X0394203Y0138547D03*
X0394203Y0128547D03*
X0394203Y0118547D03*
X0394203Y0108547D03*
X0364203Y0108547D03*
X0364203Y0118547D03*
X0364203Y0128547D03*
X0364203Y0138547D03*
X0364203Y0199098D03*
X0364203Y0209098D03*
X0364203Y0219098D03*
X0364203Y0229098D03*
X0394203Y0229098D03*
X0394203Y0219098D03*
X0394203Y0209098D03*
X0394203Y0199098D03*
X0343022Y0071618D03*
X0343022Y0061618D03*
X0343022Y0051618D03*
X0343022Y0041618D03*
X0313022Y0041618D03*
X0313022Y0051618D03*
X0313022Y0061618D03*
X0313022Y0071618D03*
X0109518Y0429008D03*
X0109518Y0448008D03*
D17*
X0087707Y0382406D03*
X0087707Y0372563D03*
X0087707Y0362720D03*
X0087707Y0352878D03*
X0087707Y0343035D03*
X0087707Y0333193D03*
X0087707Y0323350D03*
X0087707Y0313508D03*
X0087707Y0303665D03*
X0087707Y0293823D03*
X0087707Y0283980D03*
X0087707Y0274138D03*
X0087707Y0264295D03*
X0087707Y0254453D03*
X0087707Y0244610D03*
X0087707Y0234768D03*
X0087707Y0224925D03*
X0087707Y0215083D03*
X0087707Y0205240D03*
X0087707Y0195398D03*
X0087707Y0185555D03*
X0087707Y0175713D03*
X0087707Y0165870D03*
X0087707Y0156028D03*
X0087707Y0146185D03*
X0087707Y0136343D03*
X0087707Y0126500D03*
X0087707Y0116657D03*
X0087707Y0106815D03*
X0087707Y0096972D03*
X0068022Y0096972D03*
X0068022Y0106815D03*
X0068022Y0116657D03*
X0068022Y0126500D03*
X0068022Y0136343D03*
X0068022Y0146185D03*
X0068022Y0156028D03*
X0068022Y0165870D03*
X0068022Y0175713D03*
X0068022Y0185555D03*
X0068022Y0195398D03*
X0068022Y0205240D03*
X0068022Y0215083D03*
X0068022Y0224925D03*
X0068022Y0234768D03*
X0068022Y0244610D03*
X0068022Y0254453D03*
X0068022Y0264295D03*
X0068022Y0274138D03*
X0068022Y0283980D03*
X0068022Y0293823D03*
X0068022Y0303665D03*
X0068022Y0313508D03*
X0068022Y0323350D03*
X0068022Y0333193D03*
X0068022Y0343035D03*
X0068022Y0352878D03*
X0068022Y0362720D03*
X0068022Y0372563D03*
X0068022Y0382406D03*
X0532746Y0378469D03*
X0542589Y0378469D03*
X0542589Y0368626D03*
X0542589Y0358783D03*
X0532746Y0358783D03*
X0532746Y0368626D03*
X0532746Y0388311D03*
X0532746Y0398154D03*
X0532746Y0407996D03*
X0532746Y0417839D03*
X0532746Y0427681D03*
X0542589Y0427681D03*
X0542589Y0417839D03*
X0542589Y0407996D03*
X0542589Y0398154D03*
X0542589Y0388311D03*
X0542589Y0437524D03*
X0542589Y0447366D03*
X0532746Y0447366D03*
X0532746Y0437524D03*
D18*
X0452869Y0345083D02*
X0447269Y0345083D01*
X0447269Y0335083D02*
X0452869Y0335083D01*
X0126097Y0309650D02*
X0120497Y0309650D01*
X0120497Y0299650D02*
X0126097Y0299650D01*
X0076885Y0413823D02*
X0071285Y0413823D01*
X0071285Y0423823D02*
X0076885Y0423823D01*
X0386245Y0039965D02*
X0391845Y0039965D01*
X0391845Y0029965D02*
X0386245Y0029965D01*
D19*
X0487470Y0167051D03*
X0487470Y0174531D03*
D20*
X0241407Y0155043D03*
X0221722Y0155043D03*
D21*
X0249478Y0092051D03*
X0256959Y0092051D03*
X0310502Y0344020D03*
X0317982Y0344020D03*
X0317982Y0359768D03*
X0310502Y0359768D03*
X0517195Y0377484D03*
X0524675Y0377484D03*
X0524675Y0387327D03*
X0517195Y0387327D03*
X0517195Y0397169D03*
X0524675Y0397169D03*
X0524675Y0407012D03*
X0517195Y0407012D03*
X0517195Y0416854D03*
X0524675Y0416854D03*
X0524675Y0426697D03*
X0517195Y0426697D03*
X0517195Y0436539D03*
X0524675Y0436539D03*
X0524675Y0446382D03*
X0517195Y0446382D03*
X0550659Y0446382D03*
X0558140Y0446382D03*
X0558140Y0436539D03*
X0550659Y0436539D03*
X0550659Y0426697D03*
X0558140Y0426697D03*
X0558140Y0416854D03*
X0550659Y0416854D03*
X0550659Y0407012D03*
X0558140Y0407012D03*
X0558140Y0397169D03*
X0550659Y0397169D03*
X0550659Y0387327D03*
X0558140Y0387327D03*
X0558140Y0377484D03*
X0550659Y0377484D03*
D22*
X0334242Y0451382D03*
D23*
X0324242Y0451382D03*
X0314242Y0451382D03*
X0304242Y0451382D03*
X0294242Y0451382D03*
X0294242Y0441382D03*
X0304242Y0441382D03*
X0314242Y0441382D03*
X0324242Y0441382D03*
X0334242Y0441382D03*
D24*
X0341801Y0446382D03*
X0324085Y0430634D03*
X0331959Y0395201D03*
X0353612Y0389295D03*
X0359518Y0389295D03*
X0365423Y0389295D03*
X0329990Y0373547D03*
X0324085Y0359768D03*
X0316211Y0373547D03*
X0304400Y0373547D03*
X0292589Y0359768D03*
X0292589Y0353862D03*
X0292589Y0336146D03*
X0310305Y0330240D03*
X0328022Y0330240D03*
X0324085Y0344020D03*
X0335896Y0347957D03*
X0345738Y0322366D03*
X0333927Y0312524D03*
X0326053Y0302681D03*
X0312274Y0300713D03*
X0326053Y0284965D03*
X0318179Y0275122D03*
X0310305Y0271185D03*
X0292589Y0253469D03*
X0280778Y0257406D03*
X0268967Y0253469D03*
X0261093Y0237720D03*
X0268967Y0221972D03*
X0280778Y0218035D03*
X0286683Y0208193D03*
X0292589Y0221972D03*
X0300463Y0237720D03*
X0351644Y0251500D03*
X0373297Y0290870D03*
X0406762Y0251500D03*
X0432352Y0275122D03*
X0442195Y0275122D03*
X0465817Y0277091D03*
X0442195Y0306618D03*
X0432352Y0302681D03*
X0465817Y0316461D03*
X0428415Y0344020D03*
X0438258Y0369610D03*
X0457943Y0389295D03*
X0461880Y0393232D03*
X0465817Y0397169D03*
X0473691Y0383390D03*
X0491407Y0379453D03*
X0505187Y0373547D03*
X0548494Y0330240D03*
X0544557Y0326303D03*
X0465817Y0237720D03*
X0465817Y0212130D03*
X0548494Y0202287D03*
X0420541Y0107799D03*
X0412667Y0057839D03*
X0357549Y0027091D03*
X0326053Y0046776D03*
X0298494Y0027091D03*
X0286683Y0027091D03*
X0184321Y0078272D03*
X0180384Y0070398D03*
X0176447Y0064492D03*
X0172510Y0060555D03*
X0168573Y0056618D03*
X0160699Y0044807D03*
X0156762Y0076303D03*
X0135108Y0105831D03*
X0127234Y0111736D03*
X0127234Y0151106D03*
X0127234Y0160949D03*
X0103612Y0174728D03*
X0095738Y0186539D03*
X0095738Y0194413D03*
X0099675Y0198350D03*
X0103612Y0214098D03*
X0107549Y0223941D03*
X0095738Y0235752D03*
X0081959Y0220004D03*
X0078022Y0186539D03*
X0123297Y0190476D03*
X0131171Y0188508D03*
X0127234Y0178665D03*
X0160699Y0208193D03*
X0164636Y0198350D03*
X0176447Y0198350D03*
X0172510Y0188508D03*
X0168573Y0178665D03*
X0180384Y0208193D03*
X0184321Y0218035D03*
X0196132Y0214098D03*
X0221722Y0226402D03*
X0233533Y0228370D03*
X0225659Y0237720D03*
X0215817Y0242524D03*
X0211880Y0248547D03*
X0229596Y0253469D03*
X0196132Y0263311D03*
X0196132Y0282996D03*
X0213848Y0298744D03*
X0219754Y0298744D03*
X0213848Y0308587D03*
X0219754Y0312524D03*
X0213848Y0318429D03*
X0209911Y0324335D03*
X0227628Y0332209D03*
X0223691Y0340083D03*
X0219754Y0345988D03*
X0223691Y0349925D03*
X0227628Y0353862D03*
X0231565Y0349925D03*
X0235502Y0345988D03*
X0243376Y0351894D03*
X0239439Y0355831D03*
X0239439Y0361736D03*
X0231565Y0357799D03*
X0253219Y0355831D03*
X0265030Y0365476D03*
X0265030Y0370398D03*
X0265030Y0375516D03*
X0276841Y0375516D03*
X0290620Y0391264D03*
X0274872Y0399138D03*
X0270935Y0405043D03*
X0259124Y0399138D03*
X0249281Y0399138D03*
X0211880Y0377484D03*
X0207943Y0369610D03*
X0194163Y0361736D03*
X0188258Y0357799D03*
X0180384Y0353862D03*
X0176447Y0342051D03*
X0168573Y0344020D03*
X0168573Y0333587D03*
X0156762Y0326303D03*
X0152825Y0334177D03*
X0146919Y0322366D03*
X0146919Y0314492D03*
X0113455Y0326303D03*
X0076053Y0314492D03*
X0076053Y0298744D03*
X0079990Y0288902D03*
X0083927Y0279059D03*
X0107549Y0269217D03*
X0123297Y0286933D03*
X0131171Y0268035D03*
X0225659Y0204256D03*
X0229596Y0194906D03*
X0249281Y0206224D03*
X0253219Y0202287D03*
X0249281Y0214098D03*
X0241407Y0214098D03*
X0290620Y0168823D03*
X0312274Y0168823D03*
X0300463Y0196382D03*
X0255187Y0318429D03*
X0259124Y0324335D03*
X0247313Y0338114D03*
X0276841Y0330240D03*
X0194163Y0383390D03*
X0188258Y0377484D03*
X0182352Y0373547D03*
X0154793Y0353862D03*
X0146919Y0361736D03*
X0142982Y0367642D03*
X0192195Y0420791D03*
X0200069Y0430634D03*
X0211880Y0442445D03*
X0178415Y0444413D03*
X0176447Y0428665D03*
X0160699Y0438508D03*
X0160699Y0445398D03*
X0154793Y0430634D03*
X0158730Y0422760D03*
X0142982Y0442445D03*
X0249281Y0464098D03*
X0270935Y0464098D03*
X0268967Y0442445D03*
X0365423Y0426697D03*
X0394951Y0426697D03*
X0410699Y0426697D03*
X0426447Y0426697D03*
X0434321Y0428665D03*
X0434321Y0458193D03*
X0418573Y0458193D03*
X0475659Y0462130D03*
X0481565Y0462130D03*
X0074085Y0111736D03*
X0074085Y0092051D03*
X0544557Y0052681D03*
D25*
X0576053Y0082209D03*
X0532746Y0005437D03*
X0467785Y0054650D03*
X0467785Y0109768D03*
X0379203Y0088114D03*
X0379203Y0162917D03*
X0379203Y0204256D03*
X0379203Y0251500D03*
X0487470Y0318429D03*
X0576053Y0279059D03*
X0576053Y0368626D03*
X0576053Y0473941D03*
X0294557Y0473941D03*
X0282746Y0452287D03*
X0202037Y0405043D03*
X0160699Y0473941D03*
X0056368Y0473941D03*
X0056368Y0353862D03*
X0190226Y0178665D03*
X0190226Y0155043D03*
X0190226Y0131421D03*
X0257156Y0129453D03*
X0190226Y0019217D03*
X0131171Y0005437D03*
X0056368Y0072366D03*
X0091801Y0082209D03*
X0097825Y0131303D03*
X0097707Y0147169D03*
X0280778Y0013311D03*
X0343770Y0005437D03*
X0576053Y0172760D03*
D26*
X0548494Y0202287D02*
X0548494Y0330240D01*
X0544557Y0326303D02*
X0544557Y0052681D01*
X0456132Y0081303D02*
X0456132Y0087957D01*
X0446132Y0097957D01*
X0446132Y0220004D01*
X0465817Y0237720D01*
X0465817Y0277091D01*
X0465817Y0316461D01*
X0442195Y0306618D02*
X0442195Y0275122D01*
X0442195Y0273154D01*
X0432352Y0275122D02*
X0432352Y0302681D01*
X0428415Y0344020D02*
X0373297Y0290870D01*
X0359518Y0251500D02*
X0351644Y0251500D01*
X0359518Y0251500D02*
X0373297Y0233783D01*
X0373297Y0208193D01*
X0364203Y0199098D01*
X0366644Y0199098D01*
X0373297Y0192445D01*
X0373297Y0117642D01*
X0364203Y0108547D01*
X0364203Y0118547D02*
X0331959Y0086303D01*
X0331959Y0040870D01*
X0322707Y0031618D01*
X0268219Y0031618D01*
X0268219Y0021618D02*
X0342234Y0021618D01*
X0404793Y0084177D01*
X0404793Y0097957D01*
X0394203Y0108547D01*
X0385108Y0129453D02*
X0385108Y0082209D01*
X0374518Y0071618D01*
X0343022Y0071618D01*
X0343022Y0061618D02*
X0343022Y0051618D01*
X0326053Y0046776D02*
X0308337Y0046776D01*
X0304400Y0042839D01*
X0282746Y0042839D01*
X0273967Y0051618D01*
X0268219Y0051618D01*
X0268219Y0071618D02*
X0267470Y0072366D01*
X0302274Y0072366D01*
X0313022Y0061618D01*
X0298494Y0027091D02*
X0286683Y0027091D01*
X0257156Y0021185D02*
X0256722Y0021618D01*
X0238219Y0021618D01*
X0238219Y0051618D02*
X0234596Y0051618D01*
X0217785Y0068429D01*
X0217785Y0076303D01*
X0211880Y0082209D01*
X0203415Y0082209D01*
X0202510Y0081303D01*
X0223691Y0072366D02*
X0223691Y0092051D01*
X0213848Y0101894D01*
X0203100Y0101894D01*
X0202510Y0101303D01*
X0202510Y0121303D02*
X0202785Y0121579D01*
X0213848Y0121579D01*
X0227628Y0107799D01*
X0227628Y0088114D01*
X0234124Y0081618D01*
X0238219Y0081618D01*
X0238219Y0091618D02*
X0237904Y0091618D01*
X0237470Y0092051D01*
X0238219Y0091618D01*
X0256959Y0092051D02*
X0257156Y0092051D01*
X0268219Y0091618D02*
X0268967Y0092051D01*
X0267470Y0072366D02*
X0266998Y0072366D01*
X0257156Y0070398D02*
X0255935Y0071618D01*
X0238219Y0071618D01*
X0238219Y0061618D02*
X0234439Y0061618D01*
X0223691Y0072366D01*
X0152825Y0036933D02*
X0142785Y0031028D01*
X0142510Y0031303D01*
X0152825Y0036933D02*
X0152825Y0122957D01*
X0142510Y0131303D01*
X0142628Y0131421D01*
X0135108Y0105831D02*
X0135108Y0211224D01*
X0142510Y0218626D01*
X0142549Y0178665D02*
X0142510Y0178626D01*
X0127234Y0178665D02*
X0127234Y0293744D01*
X0123297Y0299650D01*
X0142510Y0308626D02*
X0142549Y0308587D01*
X0209911Y0324335D02*
X0209911Y0367642D01*
X0207943Y0369610D01*
X0213848Y0375516D02*
X0211880Y0377484D01*
X0213848Y0375516D02*
X0213848Y0318429D01*
X0255187Y0318429D02*
X0288652Y0284965D01*
X0326053Y0284965D01*
X0318179Y0294807D02*
X0288652Y0294807D01*
X0259124Y0324335D01*
X0298494Y0359768D02*
X0310502Y0359768D01*
X0317982Y0359768D02*
X0324085Y0359768D01*
X0324085Y0344020D02*
X0317982Y0344020D01*
X0326053Y0302681D02*
X0318179Y0294807D01*
X0298652Y0226067D02*
X0280778Y0218035D01*
X0290620Y0168823D02*
X0312274Y0168823D01*
X0385108Y0129453D02*
X0394203Y0138547D01*
X0394203Y0140043D01*
X0385108Y0129453D02*
X0385108Y0220004D01*
X0394203Y0229098D01*
X0406762Y0239689D01*
X0406762Y0251500D01*
X0465817Y0212130D02*
X0500620Y0212130D01*
X0520423Y0192327D01*
X0502470Y0185791D02*
X0498730Y0185791D01*
X0487470Y0174531D01*
X0487470Y0167051D02*
X0498730Y0155791D01*
X0502470Y0155791D01*
X0420541Y0107799D02*
X0420541Y0090083D01*
X0357549Y0027091D01*
X0412667Y0057839D02*
X0436132Y0081303D01*
X0524872Y0229846D02*
X0524872Y0269217D01*
X0524872Y0288902D02*
X0524872Y0328272D01*
X0505187Y0373547D02*
X0481565Y0395201D01*
X0481565Y0462130D01*
X0475659Y0462130D02*
X0475659Y0393232D01*
X0491407Y0379453D01*
X0473691Y0383390D02*
X0469754Y0385358D01*
X0469754Y0454256D01*
X0459911Y0464098D01*
X0424478Y0464098D01*
X0418573Y0458193D01*
X0426447Y0426697D02*
X0452037Y0397169D01*
X0465817Y0397169D01*
X0461880Y0393232D02*
X0440226Y0393232D01*
X0410699Y0426697D01*
X0394951Y0426697D02*
X0428415Y0389295D01*
X0457943Y0389295D01*
X0517195Y0387327D02*
X0517195Y0377484D01*
X0524675Y0377484D02*
X0531762Y0377484D01*
X0531762Y0387327D02*
X0524675Y0387327D01*
X0531762Y0387327D02*
X0532746Y0388311D01*
X0531762Y0397169D02*
X0524675Y0397169D01*
X0531762Y0397169D02*
X0532746Y0398154D01*
X0531762Y0407012D02*
X0524675Y0407012D01*
X0531762Y0407012D02*
X0532746Y0407996D01*
X0531762Y0416854D02*
X0524675Y0416854D01*
X0531762Y0416854D02*
X0532746Y0417839D01*
X0531762Y0426697D02*
X0524675Y0426697D01*
X0531762Y0426697D02*
X0532746Y0427681D01*
X0531762Y0436539D02*
X0524675Y0436539D01*
X0531762Y0436539D02*
X0532746Y0437524D01*
X0542589Y0437524D02*
X0543573Y0436539D01*
X0550659Y0436539D01*
X0558140Y0436539D02*
X0558140Y0446382D01*
X0558140Y0452287D01*
X0558140Y0473744D01*
X0558337Y0473941D01*
X0558140Y0452287D02*
X0516998Y0452287D01*
X0516998Y0473941D01*
X0516998Y0452287D02*
X0516998Y0446382D01*
X0517195Y0446382D01*
X0517195Y0436539D01*
X0517195Y0426697D01*
X0517195Y0416854D01*
X0517195Y0407012D01*
X0517195Y0397169D01*
X0517195Y0387327D01*
X0542589Y0387327D02*
X0550659Y0387327D01*
X0558140Y0387327D02*
X0558140Y0397169D01*
X0558140Y0407012D01*
X0558140Y0416854D01*
X0558140Y0426697D01*
X0558140Y0436539D01*
X0550659Y0426697D02*
X0543573Y0426697D01*
X0542589Y0427681D01*
X0542589Y0417839D02*
X0543573Y0416854D01*
X0550659Y0416854D01*
X0542589Y0407996D02*
X0543573Y0407012D01*
X0550659Y0407012D01*
X0550659Y0397169D02*
X0542589Y0397169D01*
X0558140Y0387327D02*
X0558140Y0377484D01*
X0550659Y0377484D02*
X0542589Y0377484D01*
X0543573Y0446382D02*
X0542589Y0447366D01*
X0543573Y0446382D02*
X0550659Y0446382D01*
X0324242Y0441382D02*
X0324242Y0432760D01*
X0324085Y0430634D01*
X0270935Y0464098D02*
X0249281Y0464098D01*
X0211880Y0442445D02*
X0200069Y0442445D01*
X0200069Y0430634D01*
X0192195Y0420791D02*
X0186289Y0420791D01*
X0182352Y0424728D01*
X0182352Y0440476D01*
X0178415Y0444413D01*
X0176447Y0428665D02*
X0170541Y0422760D01*
X0158730Y0422760D01*
X0154793Y0430634D02*
X0154793Y0432602D01*
X0160699Y0438508D01*
X0156762Y0442445D02*
X0160699Y0445398D01*
X0156762Y0442445D02*
X0142982Y0442445D01*
X0074085Y0423823D02*
X0069242Y0423823D01*
X0064242Y0418823D01*
X0064242Y0386185D01*
X0068022Y0382406D01*
X0087707Y0382406D02*
X0183337Y0382406D01*
X0188258Y0377484D01*
X0182352Y0373547D02*
X0181368Y0372563D01*
X0087707Y0372563D01*
D27*
X0081959Y0357799D02*
X0079990Y0355831D01*
X0079990Y0345988D01*
X0082785Y0338114D02*
X0068022Y0323350D01*
X0068022Y0313508D02*
X0082785Y0328272D01*
X0089833Y0328272D01*
X0095738Y0334177D01*
X0146919Y0334177D01*
X0150856Y0338114D01*
X0168573Y0338114D01*
X0168573Y0333587D01*
X0168573Y0178665D01*
X0168573Y0056618D01*
X0172510Y0060555D02*
X0172510Y0188508D01*
X0172510Y0340083D01*
X0168573Y0344020D01*
X0168573Y0349925D02*
X0158730Y0349925D01*
X0146919Y0338114D01*
X0082785Y0338114D01*
X0069163Y0333193D02*
X0068022Y0333193D01*
X0087707Y0323350D02*
X0088691Y0324335D01*
X0095738Y0324335D01*
X0097707Y0326303D01*
X0113455Y0326303D01*
X0107549Y0318429D02*
X0148888Y0318429D01*
X0153809Y0312524D01*
X0153809Y0200909D01*
X0142510Y0188626D01*
X0131171Y0188508D02*
X0131171Y0021185D01*
X0137077Y0015280D01*
X0198100Y0015280D01*
X0202510Y0019689D01*
X0202510Y0021303D01*
X0207943Y0011343D02*
X0135108Y0011343D01*
X0127234Y0019217D01*
X0127234Y0111736D01*
X0127234Y0151106D02*
X0078022Y0151106D01*
X0074085Y0155043D01*
X0074085Y0168823D01*
X0068022Y0174886D01*
X0068022Y0175713D01*
X0068022Y0184728D02*
X0078022Y0174728D01*
X0078022Y0164886D01*
X0081959Y0160949D01*
X0127234Y0160949D01*
X0103612Y0174728D02*
X0095738Y0182602D01*
X0095738Y0186539D01*
X0095738Y0194413D02*
X0095738Y0235752D01*
X0099675Y0239689D02*
X0079990Y0239689D01*
X0074085Y0245594D01*
X0074085Y0268075D01*
X0068022Y0274138D01*
X0079990Y0275122D02*
X0083927Y0279059D01*
X0079990Y0275122D02*
X0079990Y0251500D01*
X0086880Y0244610D01*
X0087707Y0244610D01*
X0099675Y0239689D02*
X0099675Y0198350D01*
X0087707Y0205240D02*
X0087707Y0206382D01*
X0079990Y0214098D01*
X0079990Y0218035D01*
X0081959Y0220004D01*
X0076053Y0212130D02*
X0081959Y0206224D01*
X0081959Y0190476D01*
X0123297Y0190476D01*
X0103612Y0214098D02*
X0103612Y0268075D01*
X0087707Y0283980D01*
X0085896Y0288902D02*
X0121329Y0288902D01*
X0123297Y0286933D01*
X0107549Y0269217D02*
X0107549Y0223941D01*
X0131171Y0229965D02*
X0142510Y0218626D01*
X0131171Y0229965D02*
X0131171Y0268035D01*
X0142510Y0258626D02*
X0148140Y0258626D01*
X0150856Y0261343D01*
X0150856Y0310555D01*
X0146919Y0314492D01*
X0108376Y0314492D01*
X0087707Y0293823D01*
X0085896Y0288902D02*
X0080974Y0293823D01*
X0068022Y0293823D01*
X0064242Y0288902D02*
X0062274Y0286933D01*
X0062274Y0250358D01*
X0068022Y0244610D01*
X0076053Y0229846D02*
X0076053Y0212130D01*
X0078022Y0205083D02*
X0068022Y0215083D01*
X0078022Y0205083D02*
X0078022Y0186539D01*
X0068022Y0185555D02*
X0068022Y0184728D01*
X0074085Y0111736D02*
X0074085Y0092051D01*
X0156762Y0076303D02*
X0156762Y0326303D01*
X0154793Y0330240D02*
X0146919Y0322366D01*
X0154793Y0330240D02*
X0160699Y0330240D01*
X0160699Y0208193D01*
X0160699Y0044807D01*
X0164636Y0032996D02*
X0164636Y0198350D01*
X0164636Y0334177D01*
X0152825Y0334177D01*
X0168573Y0349925D02*
X0176447Y0342051D01*
X0176447Y0198350D01*
X0176447Y0064492D01*
X0180384Y0070398D02*
X0180384Y0208193D01*
X0180384Y0353862D01*
X0188258Y0357799D02*
X0188258Y0344020D01*
X0184321Y0340083D01*
X0184321Y0218035D01*
X0184321Y0078272D01*
X0164636Y0032996D02*
X0152943Y0021303D01*
X0142510Y0021303D01*
X0207943Y0011343D02*
X0230187Y0031618D01*
X0238219Y0031618D01*
X0300463Y0196382D02*
X0314242Y0210161D01*
X0314242Y0257406D01*
X0335896Y0281028D01*
X0335896Y0308587D01*
X0345738Y0318429D01*
X0345738Y0322366D01*
X0333927Y0312524D02*
X0331959Y0310555D01*
X0331959Y0282996D01*
X0310305Y0259374D01*
X0310305Y0216067D01*
X0302431Y0208193D01*
X0286683Y0208193D01*
X0253219Y0202287D02*
X0253219Y0220004D01*
X0249281Y0223941D01*
X0249281Y0249531D01*
X0266998Y0267248D01*
X0306368Y0267248D01*
X0310305Y0271185D01*
X0318179Y0275122D02*
X0266998Y0275122D01*
X0241407Y0249531D01*
X0241407Y0214098D01*
X0249281Y0214098D02*
X0249281Y0206224D01*
X0233533Y0228370D02*
X0233533Y0265280D01*
X0251250Y0282996D01*
X0251250Y0353862D01*
X0253219Y0355831D01*
X0243376Y0351894D02*
X0243376Y0286933D01*
X0225659Y0269217D01*
X0225659Y0237720D01*
X0215817Y0242524D02*
X0215817Y0267248D01*
X0235502Y0286933D01*
X0235502Y0345988D01*
X0231565Y0349925D02*
X0231565Y0286933D01*
X0211880Y0267248D01*
X0211880Y0248547D01*
X0202510Y0248626D02*
X0195226Y0248626D01*
X0194163Y0247563D01*
X0194163Y0214098D01*
X0196132Y0214098D01*
X0221722Y0226402D02*
X0221722Y0269217D01*
X0239439Y0286933D01*
X0239439Y0355831D01*
X0239439Y0361736D02*
X0272904Y0361736D01*
X0272904Y0328272D01*
X0286683Y0314492D01*
X0312274Y0314492D01*
X0312274Y0300713D01*
X0310305Y0330240D02*
X0310305Y0336146D01*
X0298494Y0336146D02*
X0292589Y0336146D01*
X0280778Y0332209D02*
X0278809Y0330240D01*
X0276841Y0330240D01*
X0280778Y0332209D02*
X0280778Y0446382D01*
X0306368Y0446382D01*
X0309518Y0448350D01*
X0309518Y0454256D01*
X0312274Y0456224D01*
X0320148Y0456224D01*
X0324242Y0452130D01*
X0324242Y0451382D01*
X0328022Y0446382D02*
X0312274Y0446382D01*
X0309124Y0444413D01*
X0309124Y0438508D01*
X0306368Y0436539D01*
X0286683Y0436539D01*
X0286683Y0357799D01*
X0292589Y0353862D01*
X0296526Y0359768D02*
X0298494Y0357799D01*
X0296526Y0359768D02*
X0292589Y0359768D01*
X0304400Y0367642D02*
X0304400Y0373547D01*
X0316211Y0373547D02*
X0316211Y0367642D01*
X0329990Y0367642D02*
X0329990Y0373547D01*
X0341801Y0391264D02*
X0349675Y0383390D01*
X0424478Y0383390D01*
X0438258Y0369610D01*
X0432352Y0379453D02*
X0491407Y0379453D01*
X0516998Y0397169D02*
X0517195Y0397169D01*
X0542589Y0397169D02*
X0542589Y0398154D01*
X0542589Y0388311D02*
X0542589Y0387327D01*
X0542589Y0378469D02*
X0542589Y0377484D01*
X0432352Y0379453D02*
X0426447Y0385358D01*
X0351644Y0385358D01*
X0341801Y0395201D01*
X0331959Y0395201D01*
X0341801Y0391264D02*
X0290620Y0391264D01*
X0274872Y0399138D02*
X0259124Y0399138D01*
X0255187Y0405043D02*
X0249281Y0399138D01*
X0255187Y0405043D02*
X0270935Y0405043D01*
X0268967Y0379453D02*
X0268967Y0375516D01*
X0276841Y0375516D01*
X0268967Y0379453D02*
X0219754Y0379453D01*
X0219754Y0345988D01*
X0223691Y0349925D02*
X0223691Y0375516D01*
X0265030Y0375516D01*
X0265030Y0370398D02*
X0227628Y0370398D01*
X0227628Y0353862D01*
X0231565Y0357799D02*
X0231565Y0365476D01*
X0265030Y0365476D01*
X0247313Y0338114D02*
X0247313Y0284965D01*
X0229596Y0267248D01*
X0229596Y0253469D01*
X0209911Y0269217D02*
X0203100Y0269217D01*
X0202510Y0268626D01*
X0207943Y0273154D02*
X0196132Y0273154D01*
X0194163Y0271185D01*
X0194163Y0265280D01*
X0196132Y0263311D01*
X0209911Y0269217D02*
X0227628Y0286933D01*
X0227628Y0332209D01*
X0223691Y0340083D02*
X0223691Y0288902D01*
X0207943Y0273154D01*
X0196132Y0282996D02*
X0194163Y0282996D01*
X0194163Y0298744D01*
X0194281Y0298626D01*
X0202510Y0298626D01*
X0213848Y0298744D02*
X0213848Y0308587D01*
X0219754Y0312524D02*
X0219754Y0298744D01*
X0150856Y0357799D02*
X0081959Y0357799D01*
X0107549Y0318429D02*
X0102628Y0313508D01*
X0087707Y0313508D01*
X0076053Y0314492D02*
X0076053Y0298744D01*
X0079990Y0288902D02*
X0064242Y0288902D01*
X0146919Y0361736D02*
X0194163Y0361736D01*
X0194163Y0367642D02*
X0194163Y0383390D01*
X0194163Y0367642D02*
X0142982Y0367642D01*
X0211880Y0442445D02*
X0268967Y0442445D01*
X0294242Y0451382D02*
X0303022Y0460161D01*
X0337864Y0460161D01*
X0359518Y0436539D01*
X0359518Y0389295D01*
X0365423Y0389295D02*
X0365423Y0426697D01*
X0353612Y0434571D02*
X0341801Y0446382D01*
X0334242Y0451382D02*
X0333022Y0451382D01*
X0328022Y0446382D01*
X0353612Y0434571D02*
X0353612Y0389295D01*
X0335896Y0347957D02*
X0329990Y0347957D01*
X0328022Y0336146D02*
X0328022Y0330240D01*
X0434321Y0428665D02*
X0434321Y0458193D01*
D28*
X0381171Y0473941D02*
X0381171Y0440476D01*
X0416604Y0379453D02*
X0341801Y0379453D01*
X0329990Y0367642D01*
X0329990Y0347957D01*
X0329990Y0336146D01*
X0328022Y0336146D01*
X0310305Y0336146D01*
X0298494Y0336146D01*
X0298494Y0357799D01*
X0298494Y0359768D01*
X0298494Y0367642D01*
X0304400Y0367642D01*
X0316211Y0367642D01*
X0329990Y0367642D01*
X0379203Y0286933D02*
X0412667Y0320398D01*
X0455974Y0320398D01*
X0465817Y0330240D01*
X0465817Y0340083D01*
X0473691Y0347957D01*
X0481565Y0347957D01*
X0487470Y0342051D01*
X0487470Y0338114D01*
X0487470Y0318429D01*
X0487470Y0298744D01*
X0487470Y0259374D01*
X0493376Y0196382D02*
X0463848Y0196382D01*
X0459911Y0192445D01*
X0459911Y0153075D01*
X0467785Y0145201D01*
X0467785Y0109768D01*
X0467785Y0054650D01*
X0467785Y0013311D01*
X0389045Y0013311D01*
X0389045Y0029965D01*
X0389045Y0013311D02*
X0280778Y0013311D01*
X0257156Y0021185D02*
X0257156Y0005437D01*
X0257156Y0021185D02*
X0257156Y0070398D01*
X0257156Y0092051D01*
X0257156Y0129453D01*
X0241407Y0121579D02*
X0237470Y0117642D01*
X0237470Y0092051D01*
X0249478Y0092051D01*
X0257156Y0092051D02*
X0268967Y0092051D01*
X0241407Y0121579D02*
X0241407Y0155043D01*
X0190226Y0155043D02*
X0190226Y0131421D01*
X0190226Y0117642D01*
X0190226Y0019217D01*
X0097707Y0088114D02*
X0091801Y0082209D01*
X0097707Y0088114D02*
X0097707Y0131421D01*
X0097825Y0131303D01*
X0097707Y0131421D02*
X0097707Y0147169D01*
X0190226Y0155043D02*
X0190226Y0178665D01*
X0190226Y0302681D01*
X0196171Y0308626D01*
X0202510Y0308626D01*
X0202510Y0308114D01*
X0202037Y0310555D01*
X0202037Y0405043D01*
X0282746Y0452287D02*
X0282746Y0473941D01*
X0416604Y0379453D02*
X0436289Y0359768D01*
X0436289Y0334177D01*
X0449163Y0334177D01*
X0450069Y0335083D01*
X0437274Y0358783D02*
X0436289Y0359768D01*
X0437274Y0358783D02*
X0532746Y0358783D01*
X0379203Y0286933D02*
X0379203Y0251500D01*
X0379203Y0204256D01*
X0379203Y0162917D01*
X0379203Y0088114D01*
X0298652Y0178665D02*
X0298652Y0184413D01*
X0280778Y0202287D01*
X0280778Y0218035D01*
X0190226Y0117642D02*
X0196132Y0111736D01*
X0202077Y0111736D01*
X0202510Y0111303D01*
X0493376Y0196382D02*
X0502470Y0187287D01*
X0502470Y0185791D01*
D29*
X0229596Y0194906D02*
X0229596Y0253469D01*
X0225659Y0237720D02*
X0225659Y0204256D01*
X0087707Y0234768D02*
X0080974Y0234768D01*
X0076053Y0229846D01*
X0071132Y0333193D02*
X0079990Y0342051D01*
X0079990Y0345988D01*
X0071132Y0333193D02*
X0069163Y0333193D01*
X0150856Y0357799D02*
X0188258Y0357799D01*
X0180384Y0353862D02*
X0154793Y0353862D01*
M02*
